G04*
G04 #@! TF.GenerationSoftware,Altium Limited,Altium Designer,25.3.3 (18)*
G04*
G04 Layer_Color=2752767*
%FSLAX44Y44*%
%MOMM*%
G71*
G04*
G04 #@! TF.SameCoordinates,1BA587A1-14B4-44D3-93D4-DEDFCBE312CC*
G04*
G04*
G04 #@! TF.FilePolarity,Positive*
G04*
G01*
G75*
%ADD81C,0.1270*%
%ADD82C,0.1693*%
%ADD83C,0.1016*%
D81*
X328820Y50070D02*
Y60230D01*
X338980D01*
Y50070D01*
X328820D01*
X271020D02*
Y60230D01*
X281180D01*
Y50070D01*
X271020D01*
X348200Y13270D02*
X343120Y23430D01*
X353280D01*
X348200Y13270D01*
X261800D02*
X256720Y23430D01*
X266880D01*
X261800Y13270D01*
X27920Y214920D02*
X30460D01*
X33000Y217460D01*
X35540Y214920D01*
X38080D01*
Y217460D01*
X35540Y220000D01*
X38080Y222540D01*
Y225080D01*
X35540D01*
X33000Y222540D01*
X30460Y225080D01*
X27920D01*
Y222540D01*
X30460Y220000D01*
X27920Y217460D01*
Y214920D01*
X97920D02*
X100460D01*
X103000Y217460D01*
X105540Y214920D01*
X108080D01*
Y217460D01*
X105540Y220000D01*
X108080Y222540D01*
Y225080D01*
X105540D01*
X103000Y222540D01*
X100460Y225080D01*
X97920D01*
Y222540D01*
X100460Y220000D01*
X97920Y217460D01*
Y214920D01*
X16920Y174420D02*
X19460Y179500D01*
X16920Y184580D01*
X22000Y182040D01*
X27080Y184580D01*
X24540Y179500D01*
X27080Y174420D01*
X22000Y176960D01*
X16920Y174420D01*
X18952Y176452D02*
X20476Y179500D01*
X18952Y182548D01*
X22000Y181024D01*
X25048Y182548D01*
X23524Y179500D01*
X25048Y176452D01*
X22000Y177976D01*
X18952Y176452D01*
X8920Y255420D02*
X11460Y260500D01*
X8920Y265580D01*
X14000Y263040D01*
X19080Y265580D01*
X16540Y260500D01*
X19080Y255420D01*
X14000Y257960D01*
X8920Y255420D01*
X10952Y257452D02*
X12476Y260500D01*
X10952Y263548D01*
X14000Y262024D01*
X17048Y263548D01*
X15524Y260500D01*
X17048Y257452D01*
X14000Y258976D01*
X10952Y257452D01*
X180920Y50920D02*
X183460Y56000D01*
X180920Y61080D01*
X186000Y58540D01*
X191080Y61080D01*
X188540Y56000D01*
X191080Y50920D01*
X186000Y53460D01*
X180920Y50920D01*
X182952Y52952D02*
X184476Y56000D01*
X182952Y59048D01*
X186000Y57524D01*
X189048Y59048D01*
X187524Y56000D01*
X189048Y52952D01*
X186000Y54476D01*
X182952Y52952D01*
X160000Y119671D02*
X154920Y129831D01*
X165080D01*
X160000Y119671D01*
Y121703D02*
X156952Y127799D01*
X163048D01*
X160000Y121703D01*
X99000Y46920D02*
X93920Y57080D01*
X104080D01*
X99000Y46920D01*
Y48952D02*
X95952Y55048D01*
X102048D01*
X99000Y48952D01*
X320000Y212920D02*
X314920Y223080D01*
X325080D01*
X320000Y212920D01*
Y214952D02*
X316952Y221048D01*
X323048D01*
X320000Y214952D01*
X293000Y129920D02*
X287920Y140080D01*
X298080D01*
X293000Y129920D01*
Y131952D02*
X289952Y138048D01*
X296048D01*
X293000Y131952D01*
X281000Y129920D02*
X275920Y140080D01*
X286080D01*
X281000Y129920D01*
Y131952D02*
X277952Y138048D01*
X284048D01*
X281000Y131952D01*
X229000Y90920D02*
X223920Y101080D01*
X234080D01*
X229000Y90920D01*
Y92952D02*
X225952Y99048D01*
X232048D01*
X229000Y92952D01*
X217000Y77920D02*
X211920Y88080D01*
X222080D01*
X217000Y77920D01*
Y79952D02*
X213952Y86048D01*
X220048D01*
X217000Y79952D01*
X90000Y139920D02*
X84920Y150080D01*
X95080D01*
X90000Y139920D01*
Y141952D02*
X86952Y148048D01*
X93048D01*
X90000Y141952D01*
X230000Y190920D02*
X232540Y193460D01*
X235080D01*
X232540Y196000D01*
X235080Y198540D01*
X232540D01*
X230000Y201080D01*
X227460Y198540D01*
X224920D01*
X227460Y196000D01*
X224920Y193460D01*
X227460D01*
X230000Y190920D01*
Y192952D02*
X231524Y194476D01*
X233048D01*
X231524Y196000D01*
X233048Y197524D01*
X231524D01*
X230000Y199048D01*
X228476Y197524D01*
X226952D01*
X228476Y196000D01*
X226952Y194476D01*
X228476D01*
X230000Y192952D01*
X338920Y208920D02*
X341460Y214000D01*
X338920Y219080D01*
X344000Y216540D01*
X349080Y219080D01*
X346540Y214000D01*
X349080Y208920D01*
X344000Y211460D01*
X338920Y208920D01*
X340952Y210952D02*
X342476Y214000D01*
X340952Y217048D01*
X344000Y215524D01*
X347048Y217048D01*
X345524Y214000D01*
X347048Y210952D01*
X344000Y212476D01*
X340952Y210952D01*
X239920Y39920D02*
X242460Y45000D01*
X239920Y50080D01*
X245000Y47540D01*
X250080Y50080D01*
X247540Y45000D01*
X250080Y39920D01*
X245000Y42460D01*
X239920Y39920D01*
X241952Y41952D02*
X243476Y45000D01*
X241952Y48048D01*
X245000Y46524D01*
X248048Y48048D01*
X246524Y45000D01*
X248048Y41952D01*
X245000Y43476D01*
X241952Y41952D01*
X247460Y193460D02*
Y190920D01*
X252540D01*
Y193460D01*
X255080D01*
Y198540D01*
X252540D01*
Y201080D01*
X247460D01*
Y198540D01*
X244920D01*
Y193460D01*
X247460D01*
X188920Y113920D02*
X191460Y119000D01*
X188920Y124080D01*
X194000Y121540D01*
X199080Y124080D01*
X196540Y119000D01*
X199080Y113920D01*
X194000Y116460D01*
X188920Y113920D01*
X190952Y115952D02*
X192476Y119000D01*
X190952Y122048D01*
X194000Y120524D01*
X197048Y122048D01*
X195524Y119000D01*
X197048Y115952D01*
X194000Y117476D01*
X190952Y115952D01*
X24920Y66920D02*
X27460Y72000D01*
X24920Y77080D01*
X30000Y74540D01*
X35080Y77080D01*
X32540Y72000D01*
X35080Y66920D01*
X30000Y69460D01*
X24920Y66920D01*
X26952Y68952D02*
X28476Y72000D01*
X26952Y75048D01*
X30000Y73524D01*
X33048Y75048D01*
X31524Y72000D01*
X33048Y68952D01*
X30000Y70476D01*
X26952Y68952D01*
X181227Y19227D02*
Y16687D01*
X186307D01*
Y19227D01*
X188847D01*
Y24307D01*
X186307D01*
Y26847D01*
X181227D01*
Y24307D01*
X178687D01*
Y19227D01*
X181227D01*
X212460Y49227D02*
Y46687D01*
X217540D01*
Y49227D01*
X220080D01*
Y54307D01*
X217540D01*
Y56847D01*
X212460D01*
Y54307D01*
X209920D01*
Y49227D01*
X212460D01*
X133460Y120460D02*
Y117920D01*
X138540D01*
Y120460D01*
X141080D01*
Y125540D01*
X138540D01*
Y128080D01*
X133460D01*
Y125540D01*
X130920D01*
Y120460D01*
X133460D01*
X150920Y227420D02*
X153460Y232500D01*
X150920Y237580D01*
X156000Y235040D01*
X161080Y237580D01*
X158540Y232500D01*
X161080Y227420D01*
X156000Y229960D01*
X150920Y227420D01*
X152952Y229452D02*
X154476Y232500D01*
X152952Y235548D01*
X156000Y234024D01*
X159048Y235548D01*
X157524Y232500D01*
X159048Y229452D01*
X156000Y230976D01*
X152952Y229452D01*
X279460Y167460D02*
Y164920D01*
X284540D01*
Y167460D01*
X287080D01*
Y172540D01*
X284540D01*
Y175080D01*
X279460D01*
Y172540D01*
X276920D01*
Y167460D01*
X279460D01*
X170000Y174920D02*
X172540Y177460D01*
X175080D01*
X172540Y180000D01*
X175080Y182540D01*
X172540D01*
X170000Y185080D01*
X167460Y182540D01*
X164920D01*
X167460Y180000D01*
X164920Y177460D01*
X167460D01*
X170000Y174920D01*
X180170Y7000D02*
X185250Y12080D01*
X190330Y7000D01*
X185250Y1920D01*
X180170Y7000D01*
X139670D02*
X144750Y12080D01*
X149830Y7000D01*
X144750Y1920D01*
X139670Y7000D01*
X74920Y79920D02*
X77460Y85000D01*
X74920Y90080D01*
X80000Y87540D01*
X85080Y90080D01*
X82540Y85000D01*
X85080Y79920D01*
X80000Y82460D01*
X74920Y79920D01*
X64920D02*
X67460Y85000D01*
X64920Y90080D01*
X70000Y87540D01*
X75080Y90080D01*
X72540Y85000D01*
X75080Y79920D01*
X70000Y82460D01*
X64920Y79920D01*
X69920Y72920D02*
X72460Y78000D01*
X69920Y83080D01*
X75000Y80540D01*
X80080Y83080D01*
X77540Y78000D01*
X80080Y72920D01*
X75000Y75460D01*
X69920Y72920D01*
Y86920D02*
X72460Y92000D01*
X69920Y97080D01*
X75000Y94540D01*
X80080Y97080D01*
X77540Y92000D01*
X80080Y86920D01*
X75000Y89460D01*
X69920Y86920D01*
X337210Y157585D02*
Y155045D01*
X342290D01*
Y157585D01*
X344830D01*
Y162665D01*
X342290D01*
Y165205D01*
X337210D01*
Y162665D01*
X334670D01*
Y157585D01*
X337210D01*
X317460D02*
Y155045D01*
X322540D01*
Y157585D01*
X325080D01*
Y162665D01*
X322540D01*
Y165205D01*
X317460D01*
Y162665D01*
X314920D01*
Y157585D01*
X317460D01*
X297710D02*
Y155045D01*
X302790D01*
Y157585D01*
X305330D01*
Y162665D01*
X302790D01*
Y165205D01*
X297710D01*
Y162665D01*
X295170D01*
Y157585D01*
X297710D01*
X337210Y177335D02*
Y174795D01*
X342290D01*
Y177335D01*
X344830D01*
Y182415D01*
X342290D01*
Y184955D01*
X337210D01*
Y182415D01*
X334670D01*
Y177335D01*
X337210D01*
X317460D02*
Y174795D01*
X322540D01*
Y177335D01*
X325080D01*
Y182415D01*
X322540D01*
Y184955D01*
X317460D01*
Y182415D01*
X314920D01*
Y177335D01*
X317460D01*
X297710D02*
Y174795D01*
X302790D01*
Y177335D01*
X305330D01*
Y182415D01*
X302790D01*
Y184955D01*
X297710D01*
Y182415D01*
X295170D01*
Y177335D01*
X297710D01*
X307585Y147710D02*
Y145170D01*
X312665D01*
Y147710D01*
X315205D01*
Y152790D01*
X312665D01*
Y155330D01*
X307585D01*
Y152790D01*
X305045D01*
Y147710D01*
X307585D01*
Y167460D02*
Y164920D01*
X312665D01*
Y167460D01*
X315205D01*
Y172540D01*
X312665D01*
Y175080D01*
X307585D01*
Y172540D01*
X305045D01*
Y167460D01*
X307585D01*
Y187210D02*
Y184670D01*
X312665D01*
Y187210D01*
X315205D01*
Y192290D01*
X312665D01*
Y194830D01*
X307585D01*
Y192290D01*
X305045D01*
Y187210D01*
X307585D01*
X327335Y147710D02*
Y145170D01*
X332415D01*
Y147710D01*
X334955D01*
Y152790D01*
X332415D01*
Y155330D01*
X327335D01*
Y152790D01*
X324795D01*
Y147710D01*
X327335D01*
Y167460D02*
Y164920D01*
X332415D01*
Y167460D01*
X334955D01*
Y172540D01*
X332415D01*
Y175080D01*
X327335D01*
Y172540D01*
X324795D01*
Y167460D01*
X327335D01*
Y187210D02*
Y184670D01*
X332415D01*
Y187210D01*
X334955D01*
Y192290D01*
X332415D01*
Y194830D01*
X327335D01*
Y192290D01*
X324795D01*
Y187210D01*
X327335D01*
X199920Y139920D02*
X202460Y145000D01*
X199920Y150080D01*
X205000Y147540D01*
X210080Y150080D01*
X207540Y145000D01*
X210080Y139920D01*
X205000Y142460D01*
X199920Y139920D01*
D82*
X353280Y60150D02*
G03*
X353280Y60150I-5080J0D01*
G01*
X266880D02*
G03*
X266880Y60150I-5080J0D01*
G01*
X35080Y30000D02*
G03*
X35080Y30000I-5080J0D01*
G01*
X400080D02*
G03*
X400080Y30000I-5080J0D01*
G01*
X35080Y305000D02*
G03*
X35080Y305000I-5080J0D01*
G01*
X400080D02*
G03*
X400080Y305000I-5080J0D01*
G01*
D83*
X33048Y30000D02*
G03*
X33048Y30000I-3048J0D01*
G01*
X398048D02*
G03*
X398048Y30000I-3048J0D01*
G01*
X33048Y305000D02*
G03*
X33048Y305000I-3048J0D01*
G01*
X398048D02*
G03*
X398048Y305000I-3048J0D01*
G01*
M02*
