G04*
G04 #@! TF.GenerationSoftware,Altium Limited,Altium Designer,25.3.3 (18)*
G04*
G04 Layer_Color=128*
%FSLAX44Y44*%
%MOMM*%
G71*
G04*
G04 #@! TF.SameCoordinates,1BA587A1-14B4-44D3-93D4-DEDFCBE312CC*
G04*
G04*
G04 #@! TF.FilePolarity,Positive*
G04*
G01*
G75*
%ADD81C,0.1270*%
D81*
X330650Y55150D02*
X337150D01*
X333900Y51900D02*
Y58400D01*
X272850Y55150D02*
X279350D01*
X276100Y51900D02*
Y58400D01*
X339700Y60150D02*
X356700D01*
X348200Y51650D02*
Y68650D01*
X253300Y60150D02*
X270300D01*
X261800Y51650D02*
Y68650D01*
X341200Y18350D02*
X355200D01*
X348200Y11350D02*
Y25350D01*
X254800Y18350D02*
X268800D01*
X261800Y11350D02*
Y25350D01*
X25000Y220000D02*
X41000D01*
X33000Y212000D02*
Y228000D01*
X95000Y220000D02*
X111000D01*
X103000Y212000D02*
Y228000D01*
X17500Y30000D02*
X42500D01*
X30000Y17500D02*
Y42500D01*
X382500Y30000D02*
X407500D01*
X395000Y17500D02*
Y42500D01*
X17500Y305000D02*
X42500D01*
X30000Y292500D02*
Y317500D01*
X382500Y305000D02*
X407500D01*
X395000Y292500D02*
Y317500D01*
X19500Y179500D02*
X24500D01*
X22000Y177000D02*
Y182000D01*
X11500Y260500D02*
X16500D01*
X14000Y258000D02*
Y263000D01*
X183500Y56000D02*
X188500D01*
X186000Y53500D02*
Y58500D01*
X158500Y124751D02*
X161500D01*
X160000Y123251D02*
Y126251D01*
X97500Y52000D02*
X100500D01*
X99000Y50500D02*
Y53500D01*
X318500Y218000D02*
X321500D01*
X320000Y216500D02*
Y219500D01*
X291500Y135000D02*
X294500D01*
X293000Y133500D02*
Y136500D01*
X279500Y135000D02*
X282500D01*
X281000Y133500D02*
Y136500D01*
X227500Y96000D02*
X230500D01*
X229000Y94500D02*
Y97500D01*
X215500Y83000D02*
X218500D01*
X217000Y81500D02*
Y84500D01*
X88500Y145000D02*
X91500D01*
X90000Y143500D02*
Y146500D01*
X228500Y196000D02*
X231500D01*
X230000Y194500D02*
Y197500D01*
X341500Y214000D02*
X346500D01*
X344000Y211500D02*
Y216500D01*
X242500Y45000D02*
X247500D01*
X245000Y42500D02*
Y47500D01*
X248500Y196000D02*
X251500D01*
X250000Y194500D02*
Y197500D01*
X191500Y119000D02*
X196500D01*
X194000Y116500D02*
Y121500D01*
X27500Y72000D02*
X32500D01*
X30000Y69500D02*
Y74500D01*
X182267Y21767D02*
X185267D01*
X183767Y20267D02*
Y23267D01*
X213500Y51767D02*
X216500D01*
X215000Y50267D02*
Y53267D01*
X134500Y123000D02*
X137500D01*
X136000Y121500D02*
Y124500D01*
X153500Y232500D02*
X158500D01*
X156000Y230000D02*
Y235000D01*
X280500Y170000D02*
X283500D01*
X282000Y168500D02*
Y171500D01*
X167500Y180000D02*
X172500D01*
X170000Y177500D02*
Y182500D01*
X182250Y7000D02*
X188250D01*
X185250Y4000D02*
Y10000D01*
X141750Y7000D02*
X147750D01*
X144750Y4000D02*
Y10000D01*
X79000Y85000D02*
X81000D01*
X80000Y84000D02*
Y86000D01*
X69000Y85000D02*
X71000D01*
X70000Y84000D02*
Y86000D01*
X74000Y78000D02*
X76000D01*
X75000Y77000D02*
Y79000D01*
X74000Y92000D02*
X76000D01*
X75000Y91000D02*
Y93000D01*
X338250Y160125D02*
X341250D01*
X339750Y158625D02*
Y161625D01*
X318500Y160125D02*
X321500D01*
X320000Y158625D02*
Y161625D01*
X298750Y160125D02*
X301750D01*
X300250Y158625D02*
Y161625D01*
X338250Y179875D02*
X341250D01*
X339750Y178375D02*
Y181375D01*
X318500Y179875D02*
X321500D01*
X320000Y178375D02*
Y181375D01*
X298750Y179875D02*
X301750D01*
X300250Y178375D02*
Y181375D01*
X308625Y150250D02*
X311625D01*
X310125Y148750D02*
Y151750D01*
X308625Y170000D02*
X311625D01*
X310125Y168500D02*
Y171500D01*
X308625Y189750D02*
X311625D01*
X310125Y188250D02*
Y191250D01*
X328375Y150250D02*
X331375D01*
X329875Y148750D02*
Y151750D01*
X328375Y170000D02*
X331375D01*
X329875Y168500D02*
Y171500D01*
X328375Y189750D02*
X331375D01*
X329875Y188250D02*
Y191250D01*
X204000Y145000D02*
X206000D01*
X205000Y144000D02*
Y146000D01*
M02*
