G04*
G04 #@! TF.GenerationSoftware,Altium Limited,Altium Designer,25.3.3 (18)*
G04*
G04 Layer_Physical_Order=1*
G04 Layer_Color=255*
%FSLAX44Y44*%
%MOMM*%
G71*
G04*
G04 #@! TF.SameCoordinates,1BA587A1-14B4-44D3-93D4-DEDFCBE312CC*
G04*
G04*
G04 #@! TF.FilePolarity,Positive*
G04*
G01*
G75*
%ADD11C,0.2000*%
%ADD14R,1.0000X3.5000*%
%ADD15R,1.5000X3.4000*%
%ADD16R,2.8000X1.4000*%
%ADD17R,0.8621X0.7350*%
G04:AMPARAMS|DCode=18|XSize=0.76mm|YSize=0.6604mm|CornerRadius=0.0825mm|HoleSize=0mm|Usage=FLASHONLY|Rotation=0.000|XOffset=0mm|YOffset=0mm|HoleType=Round|Shape=RoundedRectangle|*
%AMROUNDEDRECTD18*
21,1,0.7600,0.4953,0,0,0.0*
21,1,0.5949,0.6604,0,0,0.0*
1,1,0.1651,0.2975,-0.2477*
1,1,0.1651,-0.2975,-0.2477*
1,1,0.1651,-0.2975,0.2477*
1,1,0.1651,0.2975,0.2477*
%
%ADD18ROUNDEDRECTD18*%
%ADD19R,0.3000X1.1500*%
%ADD20R,0.6000X1.1500*%
%ADD21R,0.7350X0.8621*%
%ADD22R,0.8121X0.6587*%
%ADD23C,0.2540*%
%ADD24R,2.2000X2.1000*%
%ADD25R,2.0000X2.1000*%
%ADD26R,2.7000X2.1000*%
%ADD27R,2.6000X2.7000*%
%ADD28R,0.6000X0.8000*%
%ADD29R,1.6500X1.0500*%
%ADD30R,0.8000X0.9000*%
%ADD31R,0.9000X0.8000*%
G04:AMPARAMS|DCode=32|XSize=0.76mm|YSize=0.6604mm|CornerRadius=0.0825mm|HoleSize=0mm|Usage=FLASHONLY|Rotation=270.000|XOffset=0mm|YOffset=0mm|HoleType=Round|Shape=RoundedRectangle|*
%AMROUNDEDRECTD32*
21,1,0.7600,0.4953,0,0,270.0*
21,1,0.5949,0.6604,0,0,270.0*
1,1,0.1651,-0.2477,-0.2975*
1,1,0.1651,-0.2477,0.2975*
1,1,0.1651,0.2477,0.2975*
1,1,0.1651,0.2477,-0.2975*
%
%ADD32ROUNDEDRECTD32*%
%ADD33C,1.2070*%
%ADD34R,0.7000X0.7000*%
%ADD35R,1.4500X1.4500*%
%ADD36R,0.8000X0.4000*%
%ADD37R,0.4000X0.8000*%
%ADD38R,1.3600X1.4600*%
%ADD39R,0.7500X0.3000*%
%ADD40R,1.2500X1.2200*%
%ADD41R,1.3383X0.5780*%
G04:AMPARAMS|DCode=42|XSize=1.3383mm|YSize=0.578mm|CornerRadius=0.289mm|HoleSize=0mm|Usage=FLASHONLY|Rotation=180.000|XOffset=0mm|YOffset=0mm|HoleType=Round|Shape=RoundedRectangle|*
%AMROUNDEDRECTD42*
21,1,1.3383,0.0000,0,0,180.0*
21,1,0.7603,0.5780,0,0,180.0*
1,1,0.5780,-0.3802,0.0000*
1,1,0.5780,0.3802,0.0000*
1,1,0.5780,0.3802,0.0000*
1,1,0.5780,-0.3802,0.0000*
%
%ADD42ROUNDEDRECTD42*%
%ADD43C,0.2500*%
%ADD44R,0.8000X0.8000*%
%ADD47C,0.2540*%
%ADD62C,0.6500*%
G04:AMPARAMS|DCode=63|XSize=1mm|YSize=2.1mm|CornerRadius=0.5mm|HoleSize=0mm|Usage=FLASHONLY|Rotation=0.000|XOffset=0mm|YOffset=0mm|HoleType=Round|Shape=RoundedRectangle|*
%AMROUNDEDRECTD63*
21,1,1.0000,1.1000,0,0,0.0*
21,1,0.0000,2.1000,0,0,0.0*
1,1,1.0000,0.0000,-0.5500*
1,1,1.0000,0.0000,-0.5500*
1,1,1.0000,0.0000,0.5500*
1,1,1.0000,0.0000,0.5500*
%
%ADD63ROUNDEDRECTD63*%
G04:AMPARAMS|DCode=64|XSize=1mm|YSize=1.8mm|CornerRadius=0.5mm|HoleSize=0mm|Usage=FLASHONLY|Rotation=0.000|XOffset=0mm|YOffset=0mm|HoleType=Round|Shape=RoundedRectangle|*
%AMROUNDEDRECTD64*
21,1,1.0000,0.8000,0,0,0.0*
21,1,0.0000,1.8000,0,0,0.0*
1,1,1.0000,0.0000,-0.4000*
1,1,1.0000,0.0000,-0.4000*
1,1,1.0000,0.0000,0.4000*
1,1,1.0000,0.0000,0.4000*
%
%ADD64ROUNDEDRECTD64*%
%ADD69C,0.9000*%
%ADD71C,0.6000*%
%ADD72C,0.4000*%
G04:AMPARAMS|DCode=73|XSize=0.3mm|YSize=0.5mm|CornerRadius=0.0495mm|HoleSize=0mm|Usage=FLASHONLY|Rotation=90.000|XOffset=0mm|YOffset=0mm|HoleType=Round|Shape=RoundedRectangle|*
%AMROUNDEDRECTD73*
21,1,0.3000,0.4010,0,0,90.0*
21,1,0.2010,0.5000,0,0,90.0*
1,1,0.0990,0.2005,0.1005*
1,1,0.0990,0.2005,-0.1005*
1,1,0.0990,-0.2005,-0.1005*
1,1,0.0990,-0.2005,0.1005*
%
%ADD73ROUNDEDRECTD73*%
G04:AMPARAMS|DCode=74|XSize=3mm|YSize=2.2mm|CornerRadius=0.055mm|HoleSize=0mm|Usage=FLASHONLY|Rotation=90.000|XOffset=0mm|YOffset=0mm|HoleType=Round|Shape=RoundedRectangle|*
%AMROUNDEDRECTD74*
21,1,3.0000,2.0900,0,0,90.0*
21,1,2.8900,2.2000,0,0,90.0*
1,1,0.1100,1.0450,1.4450*
1,1,0.1100,1.0450,-1.4450*
1,1,0.1100,-1.0450,-1.4450*
1,1,0.1100,-1.0450,1.4450*
%
%ADD74ROUNDEDRECTD74*%
%ADD75C,0.3810*%
%ADD76C,0.3500*%
%ADD77C,5.0000*%
%ADD78C,1.0000*%
%ADD79C,0.4500*%
%ADD80C,0.5000*%
G36*
X380922Y328736D02*
X380566Y328554D01*
X377059Y326006D01*
X373994Y322941D01*
X371446Y319434D01*
X369478Y315572D01*
X368138Y311449D01*
X367460Y307167D01*
Y306270D01*
X395000D01*
Y305000D01*
X396270D01*
Y277460D01*
X397168D01*
X401449Y278138D01*
X405572Y279478D01*
X409434Y281446D01*
X412941Y283994D01*
X416006Y287059D01*
X418554Y290566D01*
X420522Y294428D01*
X421200Y296514D01*
X422500Y296308D01*
Y237405D01*
X375999D01*
X375004Y236993D01*
X374592Y235998D01*
Y235540D01*
X370770D01*
Y233050D01*
X371122Y232998D01*
X371687Y232969D01*
X370770Y232052D01*
Y229500D01*
X368230D01*
Y229512D01*
X366031Y227313D01*
Y226031D01*
X372970D01*
X371598Y222298D01*
X371632Y221929D01*
X371735Y221409D01*
X371867Y220970D01*
X372029Y220609D01*
X372220Y220329D01*
X372440Y220130D01*
X372690Y220009D01*
X372970Y219970D01*
X365500Y219939D01*
X365880Y219985D01*
X366220Y220110D01*
X366520Y220315D01*
X366780Y220599D01*
X367000Y220962D01*
X367180Y221405D01*
X367320Y221927D01*
X367388Y222335D01*
X366031Y226031D01*
X363166Y227083D01*
X362962Y227000D01*
X362598Y226780D01*
X362315Y226520D01*
X362110Y226220D01*
X361985Y225880D01*
X361939Y225500D01*
X361969Y232969D01*
X362010Y232690D01*
X362130Y232440D01*
X362329Y232220D01*
X362609Y232029D01*
X362970Y231867D01*
X363003Y231857D01*
X363918Y232194D01*
X363740Y232404D01*
X363202Y232969D01*
X366031Y235798D01*
X366596Y235261D01*
X367162Y234780D01*
X367728Y234355D01*
X368230Y234029D01*
Y235737D01*
X368040Y235880D01*
X367537Y236307D01*
X367000Y236818D01*
X366903Y236855D01*
X345546Y258212D01*
X345512Y258305D01*
X344215Y259710D01*
X343716Y260336D01*
X343436Y260730D01*
X341761D01*
X342110Y260166D01*
X342592Y259488D01*
X343147Y258793D01*
X344478Y257351D01*
X341649Y254522D01*
X340825Y255319D01*
X339258Y256662D01*
X338515Y257209D01*
X337799Y257673D01*
X337111Y258053D01*
X336450Y258351D01*
X335816Y258565D01*
X335210Y258696D01*
X334630Y258743D01*
X337003Y260730D01*
X330594D01*
Y260607D01*
X329555Y260102D01*
X329294Y260097D01*
X328938Y260515D01*
X328566Y261010D01*
X328249Y261494D01*
X327987Y261967D01*
X327777Y262427D01*
X327616Y262877D01*
X327503Y263316D01*
X327434Y263748D01*
X327404Y264245D01*
X327361Y264335D01*
Y266361D01*
X316639D01*
Y257174D01*
X320199D01*
X320289Y257130D01*
X320786Y257100D01*
X321218Y257031D01*
X321657Y256918D01*
X322107Y256757D01*
X322568Y256547D01*
X323040Y256285D01*
X323524Y255968D01*
X324019Y255596D01*
X324523Y255167D01*
X325061Y254656D01*
X325249Y254126D01*
X324422Y252826D01*
X316639D01*
Y248790D01*
X316565Y248632D01*
X316550Y248342D01*
X316516Y248119D01*
X316459Y247888D01*
X316374Y247647D01*
X316261Y247395D01*
X316115Y247130D01*
X315936Y246854D01*
X315720Y246567D01*
X315468Y246270D01*
X315154Y245939D01*
X315104Y245810D01*
X305130Y235835D01*
X305000Y235785D01*
X304668Y235470D01*
X304370Y235216D01*
X304082Y234998D01*
X303803Y234816D01*
X303536Y234667D01*
X303281Y234549D01*
X303036Y234461D01*
X302802Y234400D01*
X302576Y234362D01*
X302285Y234343D01*
X302197Y234300D01*
X300700D01*
Y223700D01*
X307300D01*
Y228506D01*
X307400Y228612D01*
X308700Y228095D01*
Y223700D01*
X315300D01*
Y234300D01*
X312704D01*
X312207Y235501D01*
X318810Y242104D01*
X318939Y242154D01*
X319270Y242468D01*
X319567Y242720D01*
X319854Y242936D01*
X320130Y243115D01*
X320395Y243261D01*
X320647Y243374D01*
X320888Y243459D01*
X321119Y243517D01*
X321343Y243550D01*
X321632Y243564D01*
X321790Y243639D01*
X327361D01*
Y250510D01*
X328661Y251020D01*
X329602Y250006D01*
X330148Y249332D01*
X330621Y248681D01*
X331012Y248067D01*
X331323Y247493D01*
X331555Y246962D01*
X331713Y246477D01*
X331804Y246040D01*
X331843Y245551D01*
X331859Y245519D01*
X332023Y244694D01*
X332493Y243991D01*
X333196Y243521D01*
X334025Y243356D01*
X335008D01*
X335044Y243339D01*
X335541Y243309D01*
X335973Y243240D01*
X336412Y243127D01*
X336862Y242966D01*
X337323Y242756D01*
X337795Y242494D01*
X338279Y242177D01*
X338773Y241805D01*
X339278Y241376D01*
X339816Y240865D01*
X339912Y240827D01*
X340635Y240104D01*
Y229000D01*
Y223713D01*
X340593Y223618D01*
X340575Y222873D01*
X340522Y222196D01*
X340435Y221552D01*
X340314Y220941D01*
X340161Y220363D01*
X339977Y219816D01*
X339760Y219298D01*
X339512Y218809D01*
X339234Y218347D01*
X338891Y217866D01*
X338872Y217782D01*
X338659Y217569D01*
X337700Y215253D01*
Y212747D01*
X338659Y210431D01*
X340431Y208659D01*
X342747Y207700D01*
X345253D01*
X347569Y208659D01*
X349341Y210431D01*
X350300Y212747D01*
Y215253D01*
X349341Y217569D01*
X349128Y217782D01*
X349109Y217866D01*
X348767Y218346D01*
X348488Y218809D01*
X348240Y219298D01*
X348024Y219816D01*
X347839Y220363D01*
X347686Y220941D01*
X347643Y221160D01*
X348136Y222003D01*
X348697Y222447D01*
X348762Y222460D01*
X350730D01*
Y229000D01*
X353270D01*
Y222460D01*
X358730D01*
Y229000D01*
X361270D01*
Y222460D01*
X362460D01*
Y219270D01*
X369000D01*
Y216730D01*
X362460D01*
Y213460D01*
Y211270D01*
X369000D01*
Y208730D01*
X362460D01*
Y205460D01*
Y203270D01*
X369000D01*
Y200730D01*
X362460D01*
Y197460D01*
Y195270D01*
X369000D01*
Y192730D01*
X362460D01*
Y189460D01*
Y187270D01*
X369000D01*
Y184730D01*
X362460D01*
Y181460D01*
Y179270D01*
X369000D01*
Y176730D01*
X362460D01*
Y173460D01*
Y171270D01*
X369000D01*
Y168730D01*
X362460D01*
Y165460D01*
Y163270D01*
X369000D01*
Y160730D01*
X362460D01*
Y157460D01*
Y155270D01*
X369000D01*
Y152730D01*
X362460D01*
Y149460D01*
Y147270D01*
X369000D01*
Y144730D01*
X362460D01*
Y141460D01*
Y139270D01*
X369000D01*
Y136730D01*
X362460D01*
Y133460D01*
Y131270D01*
X369000D01*
Y128730D01*
X362460D01*
Y125460D01*
Y123270D01*
X369000D01*
Y120730D01*
X362460D01*
Y117600D01*
X362460Y117460D01*
X362122Y116300D01*
X356700D01*
Y105700D01*
X363300Y105700D01*
X363460Y104466D01*
Y104460D01*
X368230D01*
Y110500D01*
X370770D01*
Y104460D01*
X374592D01*
Y103998D01*
X375004Y103003D01*
X375999Y102591D01*
X422500D01*
Y38692D01*
X421200Y38486D01*
X420522Y40572D01*
X418554Y44434D01*
X416006Y47941D01*
X412941Y51006D01*
X409434Y53554D01*
X405572Y55522D01*
X401449Y56862D01*
X397168Y57540D01*
X396270D01*
Y30000D01*
X395000D01*
Y28730D01*
X367460D01*
Y27833D01*
X368138Y23551D01*
X369478Y19428D01*
X371446Y15566D01*
X373994Y12059D01*
X377059Y8994D01*
X380566Y6446D01*
X384428Y4478D01*
X386514Y3800D01*
X386308Y2500D01*
X220300D01*
Y12800D01*
X216916D01*
X216758Y12875D01*
X216261Y12900D01*
X215832Y12964D01*
X215394Y13074D01*
X214947Y13230D01*
X214488Y13437D01*
X214017Y13696D01*
X213534Y14009D01*
X213040Y14380D01*
X212537Y14807D01*
X212000Y15318D01*
X211756Y15900D01*
X212532Y17200D01*
X220300D01*
Y27800D01*
X217821D01*
X217810Y27827D01*
X217761Y28009D01*
X217718Y28271D01*
X217688Y28607D01*
X217677Y29046D01*
X217620Y29173D01*
Y32266D01*
X217677Y32393D01*
X217688Y32833D01*
X217718Y33168D01*
X217761Y33430D01*
X217810Y33612D01*
X217821Y33639D01*
X220361D01*
Y42826D01*
X209639D01*
Y33639D01*
X212179D01*
X212190Y33613D01*
X212239Y33430D01*
X212282Y33168D01*
X212312Y32832D01*
X212323Y32393D01*
X212380Y32266D01*
Y29173D01*
X212323Y29046D01*
X212312Y28607D01*
X212282Y28271D01*
X212239Y28009D01*
X212190Y27827D01*
X212179Y27800D01*
X209700D01*
Y19257D01*
X208499Y18759D01*
X206282Y20976D01*
Y24083D01*
X206026Y25370D01*
X205296Y26462D01*
X205296Y26462D01*
X194303Y37456D01*
X193211Y38185D01*
X191924Y38441D01*
X191924Y38441D01*
X141317D01*
X131759Y47999D01*
X132257Y49200D01*
X140300D01*
Y59194D01*
X140369Y59320D01*
X140346Y59396D01*
X140377Y59469D01*
X140300Y59654D01*
Y60800D01*
X139245D01*
X139119Y60869D01*
X138912Y60891D01*
X138902Y60894D01*
X138891Y60902D01*
X138842Y60956D01*
X138756Y61099D01*
X138653Y61355D01*
X138555Y61724D01*
X138476Y62205D01*
X138458Y62410D01*
X138580Y62675D01*
X138976Y63141D01*
X139683Y63593D01*
X162182D01*
X163460Y63540D01*
X163460Y62293D01*
Y57770D01*
X170000D01*
Y56500D01*
X171270D01*
Y49460D01*
X176540D01*
Y51562D01*
X177804Y52522D01*
X178448Y52435D01*
X179059Y52314D01*
X179487Y52201D01*
X179967Y51370D01*
X181370Y49967D01*
X183090Y48974D01*
X184730Y48534D01*
Y56000D01*
Y63466D01*
X183090Y63026D01*
X181370Y62034D01*
X179967Y60630D01*
X179487Y59799D01*
X179059Y59686D01*
X178448Y59565D01*
X177804Y59478D01*
X176540Y60437D01*
X176540Y63540D01*
X177818Y63593D01*
X179720D01*
X179979Y63700D01*
X180259Y63700D01*
X180456Y63782D01*
X180456Y63782D01*
X180457D01*
X180654Y63980D01*
X180715Y64005D01*
X180740Y64066D01*
X180934Y64260D01*
X180995Y64285D01*
X181020Y64345D01*
X181218Y64543D01*
Y64543D01*
X181218Y64543D01*
X181300Y64741D01*
Y65021D01*
X181407Y65280D01*
Y70135D01*
X211106D01*
X234112Y47130D01*
X234158Y47024D01*
X235872Y45369D01*
X238621Y42621D01*
X238943Y42405D01*
X239464Y41903D01*
X239659Y41431D01*
X241431Y39659D01*
X243747Y38700D01*
X246253D01*
X248569Y39659D01*
X248782Y39872D01*
X248866Y39891D01*
X249346Y40233D01*
X249809Y40512D01*
X250298Y40760D01*
X250816Y40976D01*
X251363Y41161D01*
X251941Y41314D01*
X252552Y41435D01*
X253196Y41522D01*
X253873Y41575D01*
X254618Y41593D01*
X254713Y41635D01*
X285513D01*
X285513Y41635D01*
X286801Y41891D01*
X287892Y42621D01*
X289378Y44107D01*
X289472Y44142D01*
X290011Y44643D01*
X290528Y45057D01*
X291060Y45419D01*
X291607Y45729D01*
X292173Y45992D01*
X292759Y46206D01*
X293366Y46374D01*
X293998Y46494D01*
X294656Y46567D01*
X295392Y46594D01*
X295483Y46635D01*
X319050D01*
X319050Y46635D01*
X320337Y46891D01*
X321429Y47621D01*
X328149Y54341D01*
X329509Y53862D01*
X330043Y52573D01*
X331323Y51293D01*
X332995Y50600D01*
X334805D01*
X336477Y51293D01*
X337757Y52573D01*
X338450Y54245D01*
Y56055D01*
X338254Y56529D01*
X338976Y57610D01*
X340595D01*
Y54650D01*
X340854Y52682D01*
X341614Y50847D01*
X342822Y49272D01*
X344398Y48064D01*
X346232Y47304D01*
X346930Y47212D01*
Y60150D01*
X348200D01*
Y61420D01*
X355805D01*
Y65650D01*
X355546Y67618D01*
X354786Y69453D01*
X353578Y71028D01*
X352002Y72236D01*
X350168Y72996D01*
X349821Y73462D01*
X349797Y73496D01*
Y77734D01*
X350005Y78149D01*
X352369D01*
Y83730D01*
X346154D01*
Y85000D01*
X344884D01*
Y91851D01*
X339939D01*
Y91051D01*
X338821Y90611D01*
Y90611D01*
X328871D01*
Y87821D01*
X328844Y87810D01*
X328662Y87761D01*
X328400Y87718D01*
X328064Y87688D01*
X327624Y87677D01*
X327498Y87620D01*
X326000D01*
X324997Y87421D01*
X324147Y86853D01*
X320647Y83353D01*
X320079Y82503D01*
X319880Y81500D01*
Y74316D01*
X319823Y74187D01*
X319799Y72950D01*
X315473D01*
Y72977D01*
X315224Y74228D01*
X314516Y75288D01*
X310076Y79728D01*
X310076Y79728D01*
X310076Y79728D01*
X306593Y83211D01*
Y95203D01*
X306344Y96453D01*
X305636Y97513D01*
X298775Y104374D01*
X299095Y105700D01*
X299300D01*
X299337Y106700D01*
X299310Y106871D01*
X299377Y107030D01*
X299300Y107215D01*
Y116300D01*
X292700D01*
Y111658D01*
X292308Y111352D01*
X291300Y111726D01*
Y116300D01*
X284700D01*
Y107215D01*
X284623Y107030D01*
X284687Y106876D01*
X284660Y106711D01*
X284700Y105700D01*
X284896D01*
X285550Y102901D01*
X285557Y102890D01*
Y100722D01*
X285806Y99472D01*
X286514Y98412D01*
X291502Y93424D01*
Y84902D01*
X290301Y84404D01*
X287853Y86853D01*
X287003Y87421D01*
X286000Y87620D01*
X282502D01*
X282376Y87677D01*
X281936Y87688D01*
X281600Y87718D01*
X281338Y87761D01*
X281156Y87810D01*
X281129Y87821D01*
Y90611D01*
X271179D01*
Y90611D01*
X270061Y91051D01*
Y91851D01*
X266528D01*
X266527Y91857D01*
X266471Y91984D01*
Y101301D01*
X266466Y101325D01*
Y102761D01*
X267870Y104164D01*
X268000Y104214D01*
X268258Y104460D01*
X269230D01*
Y106759D01*
X269186Y106743D01*
X268827Y106581D01*
X268467Y106384D01*
X268108Y106150D01*
X267749Y105881D01*
X267390Y105576D01*
X267031Y105234D01*
X265234Y107030D01*
X265576Y107390D01*
X265881Y107749D01*
X266150Y108108D01*
X266384Y108467D01*
X266581Y108827D01*
X266743Y109186D01*
X266869Y109545D01*
X266959Y109904D01*
X267013Y110263D01*
X267031Y110623D01*
X269230Y108423D01*
Y110500D01*
Y116540D01*
X264460D01*
X263620Y117492D01*
Y125918D01*
X264678Y126824D01*
X265700Y126700D01*
X266657Y126674D01*
X266850Y126698D01*
X267031Y126623D01*
X267215Y126700D01*
X276300D01*
Y133300D01*
X267215D01*
X267031Y133377D01*
X266850Y133302D01*
X266657Y133326D01*
X265700Y133300D01*
Y133063D01*
X264117Y132627D01*
X264109Y132620D01*
X263000D01*
X261997Y132421D01*
X261147Y131853D01*
X259147Y129853D01*
X258579Y129003D01*
X258380Y128000D01*
Y112005D01*
X256157Y109782D01*
X254537Y110453D01*
X252540Y110716D01*
Y110700D01*
X251537Y110501D01*
X250687Y109933D01*
X249313D01*
X248463Y110501D01*
X247460Y110700D01*
Y110716D01*
X245463Y110453D01*
X243602Y109682D01*
X242004Y108456D01*
X240778Y106858D01*
X240007Y104997D01*
X239744Y103000D01*
X240007Y101003D01*
X240778Y99142D01*
X242004Y97544D01*
X243602Y96318D01*
X245463Y95547D01*
X245824Y95499D01*
X257336Y83988D01*
X257386Y83858D01*
X257631Y83601D01*
Y78149D01*
X260146D01*
X260146Y78143D01*
X260203Y78017D01*
Y73496D01*
X260179Y73462D01*
X259832Y72996D01*
X257997Y72236D01*
X256422Y71028D01*
X255214Y69453D01*
X254454Y67618D01*
X254195Y65650D01*
Y61420D01*
X261800D01*
Y58880D01*
X254195D01*
Y54650D01*
X254454Y52682D01*
X255214Y50847D01*
X255759Y50137D01*
X255345Y48726D01*
X254618Y48407D01*
X253873Y48425D01*
X253196Y48478D01*
X252552Y48565D01*
X251941Y48686D01*
X251363Y48839D01*
X250816Y49023D01*
X250298Y49240D01*
X249809Y49488D01*
X249347Y49767D01*
X248866Y50109D01*
X248782Y50128D01*
X248569Y50341D01*
X246253Y51300D01*
X244081D01*
X243984Y51325D01*
X243798Y51300D01*
X243747D01*
X243722Y51290D01*
X243147Y51211D01*
X242405Y51157D01*
X241722Y51156D01*
X241095Y51207D01*
X240525Y51304D01*
X240009Y51447D01*
X239543Y51631D01*
X239122Y51855D01*
X238739Y52122D01*
X238327Y52488D01*
X238240Y52518D01*
X238213Y52546D01*
X238170Y52609D01*
X238145Y52614D01*
X214879Y75879D01*
X213788Y76609D01*
X212500Y76865D01*
X212500Y76865D01*
X181407D01*
Y106720D01*
X181300Y106979D01*
X181300Y107259D01*
X181218Y107456D01*
X181218Y107456D01*
Y107457D01*
X181020Y107654D01*
X180995Y107715D01*
X180934Y107740D01*
X180740Y107934D01*
X180715Y107995D01*
X180655Y108020D01*
X180457Y108218D01*
X180457D01*
X180457Y108218D01*
X180259Y108300D01*
X179979D01*
X179720Y108407D01*
X176406D01*
Y109476D01*
X176145Y110790D01*
X175401Y111903D01*
X174288Y112647D01*
X172974Y112908D01*
X172657D01*
X172620Y112991D01*
Y114751D01*
X172480Y115457D01*
X172512Y115527D01*
X173113Y116219D01*
X173500Y116479D01*
X174000Y116380D01*
X188266D01*
X188659Y115431D01*
X190431Y113659D01*
X192747Y112700D01*
X195253D01*
X197569Y113659D01*
X199341Y115431D01*
X199702Y116303D01*
X228016D01*
X228143Y116246D01*
X228583Y116235D01*
X228918Y116205D01*
X229180Y116162D01*
X229363Y116113D01*
X229389Y116102D01*
Y113871D01*
X240611D01*
Y115716D01*
X240646Y115731D01*
X240824Y115779D01*
X241083Y115822D01*
X241418Y115851D01*
X241857Y115863D01*
X241984Y115919D01*
X243266D01*
X243393Y115863D01*
X243833Y115851D01*
X244168Y115822D01*
X244430Y115778D01*
X244613Y115730D01*
X244639Y115719D01*
Y113639D01*
X255361D01*
Y122826D01*
X244639D01*
Y121360D01*
X244613Y121349D01*
X244430Y121301D01*
X244168Y121257D01*
X243832Y121228D01*
X243393Y121216D01*
X243267Y121160D01*
X241984D01*
X241857Y121216D01*
X241418Y121228D01*
X241083Y121257D01*
X240824Y121300D01*
X240646Y121348D01*
X240611Y121363D01*
Y123821D01*
X229389D01*
Y121744D01*
X229363Y121733D01*
X229180Y121684D01*
X228918Y121641D01*
X228582Y121611D01*
X228143Y121600D01*
X228016Y121543D01*
X199765D01*
X199341Y122569D01*
X198365Y123545D01*
X197569Y124341D01*
X195253Y125300D01*
X192747D01*
X190431Y124341D01*
X188659Y122569D01*
X188266Y121620D01*
X175085D01*
X173706Y123000D01*
X165227Y131478D01*
Y135664D01*
X166527Y136487D01*
X166680Y136424D01*
Y140000D01*
Y143576D01*
X166527Y143513D01*
X165227Y144336D01*
Y147380D01*
X167950D01*
X168304Y147450D01*
X168457D01*
X168599Y147509D01*
X168953Y147579D01*
X169253Y147780D01*
X169394Y147838D01*
X170000Y148071D01*
X170606Y147838D01*
X170747Y147780D01*
X171047Y147579D01*
X171401Y147509D01*
X171543Y147450D01*
X171696D01*
X172050Y147380D01*
X178650D01*
X179653Y147579D01*
X180503Y148147D01*
X182235Y149880D01*
X183527D01*
X183630Y149827D01*
X184950Y149724D01*
Y141540D01*
X183710D01*
Y138770D01*
X190000D01*
Y137500D01*
X191270D01*
Y133460D01*
X196290D01*
Y135160D01*
X203730D01*
Y145000D01*
X206270D01*
Y135160D01*
X214340D01*
X214950Y134700D01*
Y134700D01*
X223535D01*
X223720Y134623D01*
X223852Y134678D01*
X223992Y134650D01*
X225050Y134700D01*
Y134771D01*
X225825Y134821D01*
X226265Y134823D01*
X226401Y134880D01*
X226933D01*
X227854Y133959D01*
X227904Y133829D01*
X228219Y133497D01*
X228473Y133200D01*
X228691Y132911D01*
X228874Y132633D01*
X229023Y132365D01*
X229140Y132110D01*
X229228Y131866D01*
X229290Y131631D01*
X229327Y131405D01*
X229346Y131114D01*
X229389Y131026D01*
Y126179D01*
X240611D01*
Y130978D01*
X240686Y131136D01*
X240700Y131426D01*
X240734Y131649D01*
X240791Y131880D01*
X240876Y132121D01*
X240989Y132374D01*
X241135Y132639D01*
X241314Y132914D01*
X241530Y133202D01*
X241782Y133498D01*
X242096Y133829D01*
X242146Y133959D01*
X243339Y135152D01*
X244639Y134614D01*
Y127174D01*
X255361D01*
Y131210D01*
X255436Y131368D01*
X255450Y131657D01*
X255483Y131881D01*
X255541Y132112D01*
X255626Y132353D01*
X255739Y132605D01*
X255885Y132870D01*
X256064Y133146D01*
X256280Y133433D01*
X256532Y133730D01*
X256846Y134061D01*
X256896Y134190D01*
X258085Y135380D01*
X264109D01*
X264117Y135373D01*
X265700Y134937D01*
Y134700D01*
X266657Y134674D01*
X266850Y134698D01*
X267031Y134623D01*
X267215Y134700D01*
X276150D01*
X276300Y134700D01*
X277450Y134338D01*
Y134294D01*
X277990Y132989D01*
X278989Y131990D01*
X280294Y131450D01*
X281706D01*
X283011Y131990D01*
X283044Y132023D01*
X283149Y132044D01*
X283224Y132093D01*
X283259Y132111D01*
X283343Y132142D01*
X283475Y132180D01*
X283650Y132219D01*
X283841Y132249D01*
X284769Y132318D01*
X285125Y132323D01*
X285257Y132380D01*
X288729D01*
X288855Y132323D01*
X289580Y132304D01*
X290146Y132251D01*
X290350Y132219D01*
X290525Y132180D01*
X290657Y132142D01*
X290741Y132111D01*
X290776Y132093D01*
X290851Y132044D01*
X290956Y132023D01*
X290989Y131990D01*
X292294Y131450D01*
X293706D01*
X295011Y131990D01*
X296010Y132989D01*
X296550Y134294D01*
Y135706D01*
X296010Y137011D01*
X295011Y138010D01*
X293706Y138550D01*
X292294D01*
X290989Y138010D01*
X290956Y137977D01*
X290851Y137956D01*
X290776Y137907D01*
X290741Y137889D01*
X290657Y137858D01*
X290525Y137820D01*
X290350Y137781D01*
X290159Y137751D01*
X289231Y137682D01*
X288875Y137677D01*
X288743Y137620D01*
X285271D01*
X285145Y137677D01*
X284420Y137696D01*
X283854Y137749D01*
X283650Y137781D01*
X283475Y137820D01*
X283343Y137858D01*
X283259Y137889D01*
X283224Y137907D01*
X283149Y137956D01*
X283044Y137977D01*
X283011Y138010D01*
X281706Y138550D01*
X280294D01*
X278989Y138010D01*
X277990Y137011D01*
X277600Y136068D01*
X276300Y136327D01*
Y141300D01*
X267215D01*
X267031Y141377D01*
X266850Y141302D01*
X266657Y141326D01*
X265700Y141300D01*
Y141063D01*
X264117Y140627D01*
X264109Y140620D01*
X257000D01*
X255997Y140421D01*
X255147Y139853D01*
X253190Y137896D01*
X253061Y137846D01*
X252730Y137532D01*
X252433Y137280D01*
X252146Y137064D01*
X251870Y136885D01*
X251605Y136739D01*
X251353Y136626D01*
X251112Y136541D01*
X250881Y136483D01*
X250658Y136450D01*
X250368Y136435D01*
X250210Y136361D01*
X246386D01*
X245848Y137661D01*
X251567Y143380D01*
X264109D01*
X264117Y143373D01*
X265700Y142937D01*
Y142700D01*
X266657Y142674D01*
X266850Y142698D01*
X267031Y142623D01*
X267215Y142700D01*
X276300D01*
Y149300D01*
X267215D01*
X267031Y149377D01*
X266850Y149302D01*
X266657Y149326D01*
X265700Y149300D01*
Y149063D01*
X264117Y148627D01*
X264109Y148620D01*
X256807D01*
X255611Y148871D01*
Y151100D01*
X255646Y151114D01*
X255824Y151162D01*
X256083Y151205D01*
X256418Y151235D01*
X256857Y151246D01*
X256984Y151303D01*
X264133D01*
X264156Y151286D01*
X265700Y150908D01*
Y150700D01*
X266695Y150664D01*
X266869Y150690D01*
X267031Y150623D01*
X267215Y150700D01*
X276300D01*
Y157300D01*
X267215D01*
X267031Y157377D01*
X266845Y157300D01*
X266776Y157300D01*
X266619Y157315D01*
X265700Y157300D01*
Y157034D01*
X264095Y156543D01*
X260075D01*
X259897Y157833D01*
X260658Y158342D01*
X261971Y159655D01*
X264579D01*
X265700Y159112D01*
Y158700D01*
X266845D01*
X267031Y158623D01*
X267215Y158700D01*
X276300D01*
Y165300D01*
X267215D01*
X267031Y165377D01*
X266845Y165300D01*
X265700D01*
Y164888D01*
X264579Y164345D01*
X261000D01*
X261000Y164345D01*
X260103Y164167D01*
X259342Y163658D01*
X259342Y163658D01*
X258029Y162345D01*
X255611D01*
Y171129D01*
X244389D01*
Y169888D01*
X244354Y169825D01*
X244335Y169677D01*
X244324Y169666D01*
X244220Y169603D01*
X244016Y169520D01*
X243709Y169438D01*
X243304Y169371D01*
X242805Y169327D01*
X242500Y169319D01*
X242196Y169327D01*
X241698Y169371D01*
X241294Y169438D01*
X240991Y169520D01*
X240793Y169601D01*
X240694Y169661D01*
X240680Y169801D01*
X240611Y169928D01*
Y171129D01*
X229389D01*
Y167635D01*
X229346Y167546D01*
X229320Y167119D01*
X229262Y166758D01*
X229166Y166389D01*
X229030Y166009D01*
X228852Y165619D01*
X228628Y165217D01*
X228358Y164804D01*
X228039Y164379D01*
X227669Y163946D01*
X227225Y163479D01*
X227184Y163371D01*
X225442Y161629D01*
X173009D01*
X172006Y161430D01*
X171239Y162481D01*
X182864Y174105D01*
X185968D01*
X185968Y174105D01*
X187256Y174361D01*
X187999Y174858D01*
X190476D01*
X191306Y175023D01*
X192009Y175493D01*
X192479Y176196D01*
X192644Y177026D01*
Y182974D01*
X192479Y183804D01*
X192142Y184308D01*
X192045Y184543D01*
X191987Y184567D01*
X191958Y184622D01*
X191866Y184700D01*
X191845Y184727D01*
X191786Y184832D01*
X191709Y185023D01*
X191628Y185300D01*
X191554Y185655D01*
X191494Y186069D01*
X191417Y187167D01*
X191413Y187446D01*
X191416Y187738D01*
X191489Y188937D01*
X191544Y189362D01*
X191610Y189693D01*
X191612Y189700D01*
X192300D01*
Y190842D01*
X192377Y191024D01*
X192316Y191172D01*
X192344Y191329D01*
X192300Y191393D01*
Y200300D01*
X187915D01*
X187758Y200375D01*
X187261Y200400D01*
X186832Y200464D01*
X186394Y200574D01*
X185947Y200730D01*
X185488Y200937D01*
X185016Y201196D01*
X184534Y201509D01*
X184040Y201880D01*
X183711Y202160D01*
X183783Y202727D01*
X184211Y203460D01*
X185230D01*
Y210000D01*
Y216540D01*
X180929D01*
X180598Y217840D01*
X193664Y230905D01*
X200928D01*
X201031Y230863D01*
X201133Y230905D01*
X201208D01*
X201293Y230888D01*
X201386Y230905D01*
X206270D01*
X206270Y230905D01*
X207558Y231161D01*
X208364Y231700D01*
X216300D01*
Y269300D01*
X203700D01*
Y238502D01*
X203664Y238438D01*
X203638Y238222D01*
X203629Y238199D01*
X203615Y238178D01*
X203554Y238122D01*
X203405Y238032D01*
X203146Y237926D01*
X202775Y237827D01*
X202294Y237747D01*
X201710Y237695D01*
X200993Y237677D01*
X200899Y237635D01*
X192270D01*
X192270Y237635D01*
X190982Y237379D01*
X189891Y236649D01*
X174621Y221379D01*
X173892Y220288D01*
X173635Y219000D01*
X173635Y219000D01*
Y204000D01*
X173635Y204000D01*
X173892Y202712D01*
X174621Y201621D01*
X178145Y198097D01*
X178182Y198000D01*
X178693Y197463D01*
X179120Y196960D01*
X179491Y196466D01*
X179804Y195983D01*
X180063Y195512D01*
X180270Y195053D01*
X180427Y194606D01*
X180536Y194168D01*
X180600Y193739D01*
X180625Y193242D01*
X180700Y193084D01*
Y189700D01*
X183768D01*
X183832Y189664D01*
X184048Y189638D01*
X184071Y189629D01*
X184092Y189615D01*
X184148Y189554D01*
X184238Y189405D01*
X184344Y189146D01*
X184443Y188775D01*
X184523Y188294D01*
X184575Y187710D01*
X184585Y187302D01*
X184583Y187167D01*
X184506Y186069D01*
X184446Y185655D01*
X184371Y185300D01*
X184291Y185023D01*
X184214Y184832D01*
X184155Y184726D01*
X184134Y184700D01*
X184042Y184622D01*
X184013Y184567D01*
X183955Y184543D01*
X183858Y184308D01*
X183521Y183804D01*
X183356Y182974D01*
Y181082D01*
X183199Y181033D01*
X182918Y180975D01*
X182005Y180888D01*
X181442Y180877D01*
X181242Y180789D01*
X180182Y180578D01*
X179091Y179849D01*
X179091Y179849D01*
X177501Y178259D01*
X176687Y178590D01*
X176300Y178897D01*
Y181253D01*
X175341Y183569D01*
X173569Y185341D01*
X171253Y186300D01*
X168747D01*
X166431Y185341D01*
X166210Y185119D01*
X166118Y185097D01*
X165449Y184606D01*
X164816Y184188D01*
X164194Y183824D01*
X163584Y183512D01*
X162987Y183252D01*
X162401Y183042D01*
X161324Y183735D01*
X161129Y184067D01*
Y185611D01*
X151179D01*
Y174389D01*
X161129D01*
Y175933D01*
X161325Y176265D01*
X162401Y176958D01*
X162987Y176748D01*
X163584Y176488D01*
X164177Y176185D01*
X165463Y175383D01*
X166118Y174903D01*
X166210Y174881D01*
X166431Y174659D01*
X168747Y173700D01*
X171103D01*
X171410Y173313D01*
X171741Y172499D01*
X157106Y157865D01*
X146151D01*
X146052Y157907D01*
X144620Y157927D01*
X143493Y157983D01*
X142657Y158073D01*
X142390Y158120D01*
X142215Y158165D01*
X142169Y158181D01*
X142112Y158215D01*
X142060Y158222D01*
X142055Y158223D01*
X142049Y158223D01*
X141904Y158243D01*
X141599Y158447D01*
X139964Y158772D01*
X132360D01*
X130726Y158447D01*
X129462Y157602D01*
X129434Y157597D01*
X129357Y157547D01*
X129327Y157535D01*
X129324Y157531D01*
X129300Y157521D01*
X129160Y157477D01*
X128940Y157427D01*
X128678Y157385D01*
X127385Y157293D01*
X126864Y157287D01*
X126814Y157266D01*
X126763Y157282D01*
X126571Y157183D01*
X125593Y156989D01*
X124501Y156259D01*
X124501Y156259D01*
X123155Y154913D01*
X121744Y155341D01*
X121586Y156135D01*
X120660Y157521D01*
X119274Y158447D01*
X117639Y158772D01*
X115633D01*
X115605Y158805D01*
X115527Y158939D01*
X115433Y159182D01*
X115343Y159536D01*
X115271Y159994D01*
X115224Y160551D01*
X115207Y161235D01*
X115118Y161435D01*
X114909Y162487D01*
X114179Y163579D01*
X114179Y163579D01*
X111379Y166379D01*
X111348Y166400D01*
X111742Y167700D01*
X129800D01*
Y176266D01*
X129836Y176329D01*
X129854Y176477D01*
X129865Y176488D01*
X129970Y176551D01*
X130173Y176633D01*
X130480Y176716D01*
X130886Y176783D01*
X131384Y176827D01*
X132007Y176843D01*
X132112Y176890D01*
X136559D01*
X136664Y176843D01*
X137287Y176827D01*
X137785Y176783D01*
X138191Y176716D01*
X138498Y176633D01*
X138701Y176551D01*
X138806Y176488D01*
X138817Y176477D01*
X138835Y176329D01*
X138871Y176266D01*
Y174389D01*
X148821D01*
Y185611D01*
X138871D01*
Y183734D01*
X138835Y183671D01*
X138817Y183523D01*
X138806Y183512D01*
X138701Y183449D01*
X138498Y183367D01*
X138191Y183284D01*
X137785Y183217D01*
X137287Y183173D01*
X136664Y183157D01*
X136559Y183110D01*
X132112D01*
X132007Y183157D01*
X131384Y183173D01*
X130886Y183217D01*
X130480Y183284D01*
X130173Y183367D01*
X129970Y183449D01*
X129865Y183512D01*
X129854Y183523D01*
X129836Y183671D01*
X129800Y183734D01*
Y191300D01*
X111708D01*
X111551Y191375D01*
X111125Y191396D01*
X110766Y191450D01*
X110399Y191542D01*
X110023Y191674D01*
X109634Y191848D01*
X109234Y192069D01*
X108822Y192336D01*
X108399Y192653D01*
X107966Y193021D01*
X107500Y193465D01*
X107392Y193506D01*
X53840Y247058D01*
Y256270D01*
X53603Y257460D01*
X53300Y257913D01*
Y272300D01*
X28700D01*
Y248700D01*
X46996D01*
X47059Y248664D01*
X47207Y248646D01*
X47218Y248635D01*
X47281Y248530D01*
X47364Y248327D01*
X47446Y248020D01*
X47513Y247614D01*
X47557Y247116D01*
X47573Y246493D01*
X47620Y246388D01*
Y245770D01*
X47857Y244580D01*
X48531Y243571D01*
X99707Y192396D01*
X100200Y191300D01*
Y190033D01*
X100174Y189970D01*
X100190Y189931D01*
X100176Y189891D01*
X100200Y189841D01*
Y168665D01*
X100200Y167700D01*
X99039Y167365D01*
X84488D01*
X83200Y167108D01*
X82109Y166379D01*
X82109Y166379D01*
X80621Y164891D01*
X79892Y163800D01*
X79685Y162761D01*
X79594Y162561D01*
X79553Y161404D01*
X79509Y160963D01*
X79449Y160574D01*
X79377Y160253D01*
X79300Y160005D01*
X79227Y159834D01*
X79171Y159739D01*
X79147Y159710D01*
X79050Y159629D01*
X79019Y159569D01*
X78955Y159543D01*
X78858Y159308D01*
X78521Y158804D01*
X78356Y157975D01*
Y156992D01*
X78339Y156956D01*
X78309Y156459D01*
X78240Y156027D01*
X78127Y155588D01*
X77966Y155138D01*
X77756Y154677D01*
X77494Y154205D01*
X77177Y153721D01*
X76805Y153226D01*
X76376Y152722D01*
X75865Y152184D01*
X75827Y152088D01*
X72621Y148881D01*
X71891Y147790D01*
X71635Y146502D01*
X71635Y146502D01*
Y126000D01*
X71635Y126000D01*
X71891Y124712D01*
X72621Y123621D01*
X81238Y115004D01*
X81238Y115004D01*
X82330Y114274D01*
X83617Y114018D01*
X83617Y114018D01*
X101323D01*
X102734Y112608D01*
X102236Y111407D01*
X88280D01*
X88021Y111300D01*
X87741Y111300D01*
X87544Y111218D01*
X87544Y111218D01*
X87543D01*
X87346Y111020D01*
X87285Y110995D01*
X87260Y110934D01*
X87066Y110740D01*
X87005Y110715D01*
X86980Y110654D01*
X86782Y110457D01*
Y110457D01*
X86782Y110456D01*
X86700Y110259D01*
Y109979D01*
X86593Y109720D01*
Y103398D01*
X85588Y102573D01*
X85450Y102600D01*
X76270D01*
Y85000D01*
Y67400D01*
X85450D01*
X86656Y67639D01*
X87580Y68257D01*
X88075Y68143D01*
X88880Y67781D01*
Y59500D01*
X89079Y58497D01*
X89647Y57647D01*
X94024Y53270D01*
X95864D01*
X95477Y53720D01*
X95198Y54006D01*
X96994Y55802D01*
X97554Y55271D01*
X97730Y55125D01*
Y56976D01*
X94120Y60585D01*
Y64593D01*
X120054D01*
X120219Y64661D01*
X120396Y64635D01*
X120700Y64860D01*
X120835Y64917D01*
X122135Y64393D01*
Y49500D01*
X122135Y49500D01*
X122392Y48212D01*
X123121Y47121D01*
X137544Y32697D01*
X138636Y31968D01*
X139924Y31712D01*
X139924Y31712D01*
X190530D01*
X192241Y30001D01*
X191743Y28800D01*
X174700D01*
Y26054D01*
X174673Y26043D01*
X174491Y25994D01*
X174229Y25951D01*
X173893Y25921D01*
X173454Y25910D01*
X173327Y25853D01*
X156673D01*
X156546Y25910D01*
X156107Y25921D01*
X155771Y25951D01*
X155509Y25994D01*
X155327Y26043D01*
X155300Y26054D01*
Y28800D01*
X136200D01*
Y26054D01*
X136173Y26043D01*
X135991Y25994D01*
X135729Y25951D01*
X135393Y25921D01*
X134953Y25910D01*
X134827Y25853D01*
X121734D01*
X121607Y25910D01*
X121168Y25921D01*
X120833Y25951D01*
X120574Y25994D01*
X120396Y26042D01*
X120361Y26056D01*
Y27826D01*
X109639D01*
Y18639D01*
X120361D01*
Y20410D01*
X120396Y20424D01*
X120574Y20472D01*
X120833Y20515D01*
X121168Y20545D01*
X121607Y20556D01*
X121734Y20613D01*
X134827D01*
X134953Y20556D01*
X135393Y20545D01*
X135729Y20515D01*
X135991Y20472D01*
X136173Y20423D01*
X136200Y20412D01*
Y15700D01*
X155300D01*
Y20412D01*
X155327Y20423D01*
X155509Y20472D01*
X155771Y20515D01*
X156107Y20545D01*
X156546Y20556D01*
X156673Y20613D01*
X173327D01*
X173454Y20556D01*
X173893Y20545D01*
X174229Y20515D01*
X174491Y20472D01*
X174673Y20423D01*
X174700Y20412D01*
Y15700D01*
X193800D01*
Y26743D01*
X195001Y27241D01*
X199553Y22689D01*
Y19583D01*
X199553Y19583D01*
X199809Y18295D01*
X200538Y17204D01*
X207145Y10597D01*
X207182Y10500D01*
X207693Y9963D01*
X208120Y9460D01*
X208491Y8966D01*
X208804Y8483D01*
X209063Y8012D01*
X209270Y7553D01*
X209426Y7106D01*
X209536Y6668D01*
X209600Y6239D01*
X209625Y5742D01*
X209700Y5584D01*
Y2500D01*
X193800D01*
Y14300D01*
X174700D01*
Y11232D01*
X174664Y11168D01*
X174638Y10952D01*
X174629Y10929D01*
X174615Y10908D01*
X174554Y10852D01*
X174405Y10761D01*
X174146Y10656D01*
X173775Y10557D01*
X173294Y10477D01*
X172710Y10425D01*
X171994Y10407D01*
X171899Y10365D01*
X158101D01*
X158006Y10407D01*
X157289Y10425D01*
X156706Y10477D01*
X156225Y10557D01*
X155854Y10656D01*
X155595Y10761D01*
X155446Y10852D01*
X155385Y10907D01*
X155370Y10929D01*
X155362Y10952D01*
X155336Y11168D01*
X155300Y11232D01*
Y14300D01*
X136200D01*
Y11232D01*
X136164Y11168D01*
X136138Y10952D01*
X136130Y10929D01*
X136115Y10908D01*
X136054Y10852D01*
X135905Y10761D01*
X135646Y10656D01*
X135275Y10557D01*
X134794Y10477D01*
X134211Y10425D01*
X133493Y10407D01*
X133399Y10365D01*
X113394D01*
X62789Y60969D01*
X62995Y62005D01*
X63407Y63000D01*
Y66602D01*
X64412Y67427D01*
X64550Y67400D01*
X73730D01*
Y85000D01*
Y102600D01*
X64550D01*
X64412Y102573D01*
X63407Y103398D01*
Y112000D01*
X62995Y112995D01*
X62000Y113407D01*
X10000D01*
X9005Y112995D01*
X8593Y112000D01*
Y67000D01*
X9005Y66005D01*
X12476Y62534D01*
X12776Y62410D01*
X13021Y62196D01*
X13254Y62212D01*
X13471Y62122D01*
X13771Y62247D01*
X14095Y62269D01*
X14482Y62460D01*
X28730D01*
Y72000D01*
X31270D01*
Y62460D01*
X44619D01*
X45508Y61844D01*
X45921Y61754D01*
X46310Y61593D01*
X52649D01*
X109621Y4621D01*
X109621Y4621D01*
X110712Y3891D01*
X111172Y3800D01*
X111044Y2500D01*
X38692D01*
X38486Y3800D01*
X40572Y4478D01*
X44434Y6446D01*
X47941Y8994D01*
X51006Y12059D01*
X53554Y15566D01*
X55522Y19428D01*
X56862Y23551D01*
X57540Y27833D01*
Y28730D01*
X30000D01*
Y30000D01*
X28730D01*
Y57540D01*
X27833D01*
X23551Y56862D01*
X19428Y55522D01*
X15566Y53554D01*
X12059Y51006D01*
X8994Y47941D01*
X6446Y44434D01*
X4478Y40572D01*
X3800Y38486D01*
X2500Y38692D01*
Y247460D01*
X12730D01*
Y260500D01*
Y273540D01*
X2500D01*
Y296308D01*
X3800Y296514D01*
X4478Y294428D01*
X6446Y290566D01*
X8994Y287059D01*
X12059Y283994D01*
X15566Y281446D01*
X19428Y279478D01*
X23551Y278138D01*
X27833Y277460D01*
X28730D01*
Y305000D01*
X30000D01*
Y306270D01*
X57540D01*
Y307167D01*
X56862Y311449D01*
X55522Y315572D01*
X53554Y319434D01*
X51006Y322941D01*
X47941Y326006D01*
X44434Y328554D01*
X44078Y328736D01*
X44381Y330000D01*
X380619D01*
X380922Y328736D01*
D02*
G37*
G36*
X326034Y263595D02*
X326124Y263029D01*
X326270Y262464D01*
X326472Y261898D01*
X326730Y261332D01*
X327043Y260767D01*
X327413Y260201D01*
X327839Y259635D01*
X328321Y259070D01*
X328859Y258504D01*
X326030Y255676D01*
X325465Y256213D01*
X324899Y256695D01*
X324333Y257121D01*
X323767Y257491D01*
X323202Y257805D01*
X322636Y258062D01*
X322070Y258264D01*
X321505Y258410D01*
X320939Y258500D01*
X320373Y258535D01*
X326000Y264161D01*
X326034Y263595D01*
D02*
G37*
G36*
X51969Y250030D02*
X52480Y246530D01*
X48980D01*
X48962Y247196D01*
X48910Y247792D01*
X48822Y248318D01*
X48700Y248775D01*
X48542Y249163D01*
X48350Y249481D01*
X48123Y249730D01*
X47860Y249910D01*
X47562Y250020D01*
X47230Y250061D01*
X51969Y250030D01*
D02*
G37*
G36*
X332849Y254541D02*
X334361Y253253D01*
X335081Y252729D01*
X335778Y252284D01*
X336451Y251919D01*
X337100Y251634D01*
X337725Y251428D01*
X338326Y251303D01*
X338904Y251257D01*
X333245Y245662D01*
X333200Y246240D01*
X333075Y246840D01*
X332871Y247464D01*
X332588Y248110D01*
X332226Y248780D01*
X331785Y249473D01*
X331265Y250189D01*
X330665Y250929D01*
X329229Y252477D01*
X332057Y255305D01*
X332849Y254541D01*
D02*
G37*
G36*
X321562Y244970D02*
X321203Y244952D01*
X320844Y244898D01*
X320484Y244808D01*
X320125Y244683D01*
X319766Y244521D01*
X319407Y244323D01*
X319048Y244090D01*
X318688Y243820D01*
X318329Y243515D01*
X317970Y243174D01*
X316174Y244970D01*
X316515Y245329D01*
X316820Y245688D01*
X317090Y246047D01*
X317323Y246407D01*
X317521Y246766D01*
X317682Y247125D01*
X317808Y247484D01*
X317898Y247843D01*
X317952Y248203D01*
X317970Y248562D01*
X321562Y244970D01*
D02*
G37*
G36*
X340789Y249804D02*
X340879Y249238D01*
X341025Y248673D01*
X341227Y248107D01*
X341485Y247541D01*
X341799Y246976D01*
X342168Y246410D01*
X342594Y245844D01*
X343076Y245279D01*
X343614Y244713D01*
X340785Y241884D01*
X340219Y242422D01*
X339654Y242904D01*
X339088Y243330D01*
X338522Y243699D01*
X337957Y244013D01*
X337391Y244271D01*
X336825Y244473D01*
X336260Y244619D01*
X335694Y244709D01*
X335128Y244743D01*
X340755Y250370D01*
X340789Y249804D01*
D02*
G37*
G36*
X205030Y233030D02*
X201031Y232270D01*
Y236270D01*
X201791Y236290D01*
X202472Y236350D01*
X203073Y236450D01*
X203595Y236590D01*
X204038Y236770D01*
X204401Y236990D01*
X204685Y237250D01*
X204890Y237550D01*
X205015Y237890D01*
X205061Y238270D01*
X205030Y233030D01*
D02*
G37*
G36*
X358031Y225500D02*
X355000Y227015D01*
X354962Y227000D01*
X354599Y226780D01*
X354315Y226520D01*
X354110Y226220D01*
X353985Y225880D01*
X353939Y225500D01*
X353969Y232969D01*
X354010Y232690D01*
X354129Y232440D01*
X354329Y232220D01*
X354609Y232029D01*
X354969Y231867D01*
X355003Y231857D01*
X358031Y232969D01*
Y225500D01*
D02*
G37*
G36*
X307766Y232969D02*
X307424Y232610D01*
X307118Y232251D01*
X306847Y231892D01*
X306611Y231533D01*
X306411Y231173D01*
X306246Y230814D01*
X306116Y230455D01*
X306022Y230096D01*
X305963Y229737D01*
X305939Y229377D01*
X302377Y232939D01*
X302737Y232963D01*
X303096Y233022D01*
X303455Y233116D01*
X303814Y233246D01*
X304174Y233411D01*
X304533Y233611D01*
X304892Y233847D01*
X305251Y234118D01*
X305610Y234424D01*
X305970Y234766D01*
X307766Y232969D01*
D02*
G37*
G36*
X346020Y222800D02*
X346078Y222046D01*
X346177Y221321D01*
X346314Y220625D01*
X346491Y219958D01*
X346706Y219319D01*
X346961Y218708D01*
X347256Y218127D01*
X347589Y217574D01*
X347962Y217050D01*
X340038D01*
X340411Y217574D01*
X340744Y218127D01*
X341039Y218708D01*
X341294Y219319D01*
X341510Y219958D01*
X341686Y220625D01*
X341823Y221321D01*
X341922Y222046D01*
X341980Y222800D01*
X342000Y223583D01*
X346000D01*
X346020Y222800D01*
D02*
G37*
G36*
X372970Y216031D02*
X372690Y215991D01*
X372440Y215870D01*
X372220Y215671D01*
X372029Y215390D01*
X371867Y215030D01*
X371735Y214590D01*
X371632Y214070D01*
X371625Y214010D01*
X371632Y213930D01*
X371735Y213410D01*
X371867Y212969D01*
X372029Y212610D01*
X372220Y212330D01*
X372440Y212129D01*
X372690Y212010D01*
X372970Y211970D01*
X365500Y211939D01*
X365880Y211985D01*
X366220Y212110D01*
X366520Y212315D01*
X366780Y212598D01*
X367000Y212962D01*
X367180Y213405D01*
X367320Y213927D01*
X367332Y214000D01*
X367320Y214073D01*
X367180Y214595D01*
X367000Y215038D01*
X366780Y215401D01*
X366520Y215685D01*
X366220Y215890D01*
X365880Y216015D01*
X365500Y216061D01*
X372970Y216031D01*
D02*
G37*
G36*
Y208030D02*
X372690Y207990D01*
X372440Y207871D01*
X372220Y207670D01*
X372029Y207390D01*
X371867Y207031D01*
X371735Y206590D01*
X371632Y206070D01*
X371625Y206010D01*
X371632Y205930D01*
X371735Y205410D01*
X371867Y204970D01*
X372029Y204610D01*
X372220Y204329D01*
X372440Y204130D01*
X372690Y204009D01*
X372970Y203969D01*
X365500Y203939D01*
X365880Y203985D01*
X366220Y204110D01*
X366520Y204315D01*
X366780Y204599D01*
X367000Y204962D01*
X367180Y205405D01*
X367320Y205927D01*
X367332Y206000D01*
X367320Y206073D01*
X367180Y206595D01*
X367000Y207038D01*
X366780Y207401D01*
X366520Y207685D01*
X366220Y207890D01*
X365880Y208015D01*
X365500Y208061D01*
X372970Y208030D01*
D02*
G37*
G36*
Y200030D02*
X372690Y199991D01*
X372440Y199870D01*
X372220Y199671D01*
X372029Y199391D01*
X371867Y199030D01*
X371735Y198591D01*
X371632Y198071D01*
X371625Y198010D01*
X371632Y197929D01*
X371735Y197409D01*
X371867Y196970D01*
X372029Y196609D01*
X372220Y196329D01*
X372440Y196129D01*
X372690Y196010D01*
X372970Y195970D01*
X365500Y195939D01*
X365880Y195985D01*
X366220Y196110D01*
X366520Y196315D01*
X366780Y196598D01*
X367000Y196962D01*
X367180Y197405D01*
X367320Y197927D01*
X367332Y198000D01*
X367320Y198073D01*
X367180Y198595D01*
X367000Y199038D01*
X366780Y199401D01*
X366520Y199685D01*
X366220Y199890D01*
X365880Y200015D01*
X365500Y200061D01*
X372970Y200030D01*
D02*
G37*
G36*
X182596Y201261D02*
X183162Y200780D01*
X183727Y200355D01*
X184293Y199988D01*
X184859Y199677D01*
X185425Y199422D01*
X185990Y199224D01*
X186556Y199083D01*
X187122Y198998D01*
X187687Y198969D01*
X182031Y193313D01*
X182002Y193878D01*
X181917Y194444D01*
X181776Y195010D01*
X181578Y195575D01*
X181323Y196141D01*
X181012Y196707D01*
X180644Y197272D01*
X180220Y197838D01*
X179739Y198404D01*
X179202Y198969D01*
X182031Y201798D01*
X182596Y201261D01*
D02*
G37*
G36*
X107025Y191974D02*
X107521Y191553D01*
X108015Y191182D01*
X108510Y190861D01*
X109005Y190588D01*
X109500Y190366D01*
X109995Y190192D01*
X110490Y190068D01*
X110985Y189994D01*
X111480Y189970D01*
X101581D01*
X102026Y189994D01*
X102373Y190068D01*
X102620Y190192D01*
X102769Y190366D01*
X102818Y190588D01*
X102769Y190861D01*
X102620Y191182D01*
X102373Y191553D01*
X102026Y191974D01*
X101581Y192444D01*
X106531D01*
X107025Y191974D01*
D02*
G37*
G36*
X372970Y192031D02*
X372690Y191991D01*
X372440Y191870D01*
X372220Y191670D01*
X372029Y191390D01*
X371867Y191031D01*
X371735Y190590D01*
X371632Y190070D01*
X371625Y190010D01*
X371632Y189930D01*
X371735Y189410D01*
X371867Y188969D01*
X372029Y188610D01*
X372220Y188330D01*
X372440Y188130D01*
X372690Y188009D01*
X372970Y187969D01*
X365500Y187939D01*
X365880Y187985D01*
X366220Y188110D01*
X366520Y188315D01*
X366780Y188598D01*
X367000Y188962D01*
X367180Y189405D01*
X367320Y189927D01*
X367332Y190000D01*
X367320Y190073D01*
X367180Y190595D01*
X367000Y191038D01*
X366780Y191401D01*
X366520Y191685D01*
X366220Y191890D01*
X365880Y192015D01*
X365500Y192061D01*
X372970Y192031D01*
D02*
G37*
G36*
X190970Y191031D02*
X190785Y190991D01*
X190620Y190870D01*
X190475Y190671D01*
X190349Y190390D01*
X190242Y190030D01*
X190155Y189590D01*
X190087Y189070D01*
X190010Y187791D01*
X190005Y187444D01*
X190011Y187106D01*
X190094Y185919D01*
X190168Y185410D01*
X190262Y184958D01*
X190378Y184562D01*
X190514Y184224D01*
X190672Y183942D01*
X190850Y183716D01*
X191050Y183548D01*
X184950D01*
X185150Y183716D01*
X185328Y183942D01*
X185486Y184224D01*
X185622Y184562D01*
X185738Y184958D01*
X185832Y185410D01*
X185905Y185919D01*
X185989Y187106D01*
X185993Y187310D01*
X185980Y187791D01*
X185920Y188472D01*
X185820Y189073D01*
X185680Y189595D01*
X185500Y190038D01*
X185280Y190401D01*
X185020Y190685D01*
X184720Y190890D01*
X184380Y191015D01*
X184000Y191061D01*
X190970Y191031D01*
D02*
G37*
G36*
X166950Y176038D02*
X166253Y176549D01*
X164870Y177411D01*
X164186Y177761D01*
X163505Y178057D01*
X162829Y178299D01*
X162156Y178488D01*
X161488Y178622D01*
X161253Y178651D01*
X161040Y178616D01*
X160708Y178527D01*
X160426Y178412D01*
X160194Y178273D01*
X160012Y178108D01*
X159881Y177917D01*
X159799Y177701D01*
X159768Y177460D01*
Y182540D01*
X159799Y182299D01*
X159881Y182083D01*
X160012Y181892D01*
X160194Y181727D01*
X160426Y181588D01*
X160708Y181473D01*
X161040Y181384D01*
X161253Y181349D01*
X161488Y181378D01*
X162156Y181512D01*
X162829Y181701D01*
X163505Y181943D01*
X164186Y182239D01*
X164870Y182589D01*
X165560Y182993D01*
X166253Y183451D01*
X166950Y183962D01*
Y176038D01*
D02*
G37*
G36*
X372970Y184030D02*
X372690Y183990D01*
X372440Y183871D01*
X372220Y183671D01*
X372029Y183391D01*
X371867Y183030D01*
X371735Y182591D01*
X371632Y182071D01*
X371625Y182010D01*
X371632Y181929D01*
X371735Y181409D01*
X371867Y180970D01*
X372029Y180609D01*
X372220Y180329D01*
X372440Y180130D01*
X372690Y180009D01*
X372970Y179970D01*
X365500Y179939D01*
X365880Y179985D01*
X366220Y180110D01*
X366520Y180315D01*
X366780Y180599D01*
X367000Y180962D01*
X367180Y181405D01*
X367320Y181927D01*
X367332Y182000D01*
X367320Y182073D01*
X367180Y182595D01*
X367000Y183038D01*
X366780Y183401D01*
X366520Y183685D01*
X366220Y183890D01*
X365880Y184015D01*
X365500Y184061D01*
X372970Y184030D01*
D02*
G37*
G36*
X140232Y176500D02*
X140191Y176833D01*
X140081Y177130D01*
X139901Y177393D01*
X139652Y177620D01*
X139334Y177812D01*
X138946Y177970D01*
X138489Y178092D01*
X137963Y178180D01*
X137367Y178232D01*
X136701Y178250D01*
Y181750D01*
X137367Y181768D01*
X137963Y181820D01*
X138489Y181908D01*
X138946Y182030D01*
X139334Y182188D01*
X139652Y182380D01*
X139901Y182607D01*
X140081Y182870D01*
X140191Y183167D01*
X140232Y183500D01*
Y176500D01*
D02*
G37*
G36*
X128480Y183167D02*
X128590Y182870D01*
X128770Y182607D01*
X129019Y182380D01*
X129337Y182188D01*
X129725Y182030D01*
X130182Y181908D01*
X130708Y181820D01*
X131304Y181768D01*
X131969Y181750D01*
Y178250D01*
X131304Y178232D01*
X130708Y178180D01*
X130182Y178092D01*
X129725Y177970D01*
X129337Y177812D01*
X129019Y177620D01*
X128770Y177393D01*
X128590Y177130D01*
X128480Y176833D01*
X128439Y176500D01*
Y183500D01*
X128480Y183167D01*
D02*
G37*
G36*
X185213Y176277D02*
X181470Y175470D01*
Y179470D01*
X182087Y179482D01*
X183127Y179582D01*
X183550Y179669D01*
X183910Y179781D01*
X184205Y179917D01*
X184436Y180079D01*
X184603Y180266D01*
X184705Y180477D01*
X184743Y180713D01*
X185213Y176277D01*
D02*
G37*
G36*
X372970Y176031D02*
X372690Y175991D01*
X372440Y175870D01*
X372220Y175671D01*
X372029Y175390D01*
X371867Y175030D01*
X371735Y174590D01*
X371632Y174070D01*
X371625Y174010D01*
X371632Y173930D01*
X371735Y173410D01*
X371867Y172969D01*
X372029Y172610D01*
X372220Y172330D01*
X372440Y172129D01*
X372690Y172010D01*
X372970Y171970D01*
X365500Y171939D01*
X365880Y171985D01*
X366220Y172110D01*
X366520Y172315D01*
X366780Y172598D01*
X367000Y172962D01*
X367180Y173405D01*
X367320Y173927D01*
X367332Y174000D01*
X367320Y174073D01*
X367180Y174595D01*
X367000Y175038D01*
X366780Y175401D01*
X366520Y175685D01*
X366220Y175890D01*
X365880Y176015D01*
X365500Y176061D01*
X372970Y176031D01*
D02*
G37*
G36*
X245750Y162654D02*
X245709Y162987D01*
X245599Y163284D01*
X245420Y163547D01*
X245171Y163774D01*
X244852Y163966D01*
X244465Y164124D01*
X244008Y164247D01*
X243481Y164334D01*
X242885Y164387D01*
X242500Y164397D01*
X242115Y164387D01*
X241520Y164334D01*
X240995Y164247D01*
X240540Y164124D01*
X240155Y163966D01*
X239840Y163774D01*
X239595Y163547D01*
X239420Y163284D01*
X239315Y162987D01*
X239280Y162654D01*
Y169654D01*
X239315Y169321D01*
X239420Y169024D01*
X239595Y168761D01*
X239840Y168534D01*
X240155Y168341D01*
X240540Y168184D01*
X240995Y168061D01*
X241520Y167974D01*
X242115Y167921D01*
X242500Y167911D01*
X242885Y167921D01*
X243481Y167974D01*
X244008Y168061D01*
X244465Y168184D01*
X244852Y168341D01*
X245171Y168534D01*
X245420Y168761D01*
X245599Y169024D01*
X245709Y169321D01*
X245750Y169654D01*
Y162654D01*
D02*
G37*
G36*
X372970Y168030D02*
X372690Y167990D01*
X372440Y167871D01*
X372220Y167670D01*
X372029Y167390D01*
X371867Y167031D01*
X371735Y166590D01*
X371632Y166070D01*
X371625Y166010D01*
X371632Y165930D01*
X371735Y165410D01*
X371867Y164970D01*
X372029Y164610D01*
X372220Y164329D01*
X372440Y164130D01*
X372690Y164009D01*
X372970Y163969D01*
X365500Y163939D01*
X365880Y163985D01*
X366220Y164110D01*
X366520Y164315D01*
X366780Y164599D01*
X367000Y164962D01*
X367180Y165405D01*
X367320Y165927D01*
X367332Y166000D01*
X367320Y166073D01*
X367180Y166595D01*
X367000Y167038D01*
X366780Y167401D01*
X366520Y167685D01*
X366220Y167890D01*
X365880Y168015D01*
X365500Y168061D01*
X372970Y168030D01*
D02*
G37*
G36*
X235670Y162540D02*
X235175Y162509D01*
X234680Y162430D01*
X234185Y162301D01*
X233690Y162124D01*
X233195Y161898D01*
X232700Y161623D01*
X232205Y161299D01*
X231710Y160926D01*
X231215Y160505D01*
X230720Y160034D01*
X228245Y162509D01*
X228715Y163004D01*
X229137Y163499D01*
X229510Y163994D01*
X229834Y164489D01*
X230109Y164984D01*
X230335Y165479D01*
X230512Y165974D01*
X230640Y166469D01*
X230720Y166964D01*
X230750Y167459D01*
X235670Y162540D01*
D02*
G37*
G36*
X267031Y160030D02*
X265030Y161000D01*
Y163000D01*
X267031Y163969D01*
Y160030D01*
D02*
G37*
G36*
X85010Y161885D02*
X85094Y160785D01*
X85168Y160312D01*
X85262Y159889D01*
X85378Y159519D01*
X85514Y159199D01*
X85672Y158931D01*
X85850Y158714D01*
X86050Y158548D01*
X79950D01*
X80150Y158714D01*
X80328Y158931D01*
X80486Y159199D01*
X80622Y159519D01*
X80738Y159889D01*
X80832Y160312D01*
X80906Y160785D01*
X80958Y161309D01*
X81000Y162512D01*
X85000D01*
X85010Y161885D01*
D02*
G37*
G36*
X113818Y160474D02*
X113873Y159825D01*
X113964Y159251D01*
X114091Y158753D01*
X114254Y158330D01*
X114454Y157984D01*
X114690Y157712D01*
X114962Y157517D01*
X115271Y157397D01*
X115616Y157353D01*
X107997Y156539D01*
X108340Y156835D01*
X108646Y157169D01*
X108917Y157540D01*
X109151Y157949D01*
X109349Y158396D01*
X109512Y158881D01*
X109638Y159404D01*
X109728Y159965D01*
X109782Y160563D01*
X109800Y161200D01*
X113800D01*
X113818Y160474D01*
D02*
G37*
G36*
X372970Y160030D02*
X372690Y159991D01*
X372440Y159871D01*
X372220Y159670D01*
X372029Y159390D01*
X371867Y159031D01*
X371735Y158590D01*
X371632Y158070D01*
X371625Y158010D01*
X371632Y157929D01*
X371735Y157409D01*
X371867Y156969D01*
X372029Y156609D01*
X372220Y156329D01*
X372440Y156130D01*
X372690Y156010D01*
X372970Y155969D01*
X365500Y155939D01*
X365880Y155985D01*
X366220Y156110D01*
X366520Y156315D01*
X366780Y156599D01*
X367000Y156962D01*
X367180Y157405D01*
X367320Y157927D01*
X367332Y158000D01*
X367320Y158073D01*
X367180Y158595D01*
X367000Y159038D01*
X366780Y159401D01*
X366520Y159685D01*
X366220Y159890D01*
X365880Y160015D01*
X365500Y160061D01*
X372970Y160030D01*
D02*
G37*
G36*
X240694Y157491D02*
X240426Y157208D01*
X240185Y156925D01*
X239973Y156642D01*
X239789Y156359D01*
X239634Y156077D01*
X239506Y155794D01*
X239408Y155511D01*
X239337Y155228D01*
X239294Y154945D01*
X239280Y154662D01*
X236452Y157491D01*
X236735Y157505D01*
X237017Y157547D01*
X237300Y157618D01*
X237583Y157717D01*
X237866Y157844D01*
X238149Y158000D01*
X238432Y158184D01*
X238715Y158396D01*
X238997Y158636D01*
X239280Y158905D01*
X240694Y157491D01*
D02*
G37*
G36*
X107922Y160021D02*
X108237Y159597D01*
X108158Y159270D01*
X108036Y158906D01*
X107894Y158586D01*
X107734Y158306D01*
X107556Y158062D01*
X107359Y157847D01*
X107078Y157605D01*
X107045Y157541D01*
X107016Y157521D01*
X106978Y157464D01*
X106902Y157423D01*
X106864Y157294D01*
X106089Y156135D01*
X105764Y154500D01*
X106089Y152865D01*
X107016Y151479D01*
X108401Y150553D01*
X110036Y150228D01*
X117639D01*
X119274Y150553D01*
X120335Y151262D01*
X121429Y150854D01*
X121635Y150686D01*
Y139313D01*
X121429Y139146D01*
X120335Y138738D01*
X119274Y139447D01*
X117639Y139772D01*
X110036D01*
X108401Y139447D01*
X108035Y139202D01*
X107773Y139140D01*
X107485Y138933D01*
X107229Y138774D01*
X106969Y138634D01*
X106703Y138514D01*
X106431Y138412D01*
X106150Y138329D01*
X105861Y138263D01*
X105562Y138216D01*
X105250Y138187D01*
X104885Y138176D01*
X104760Y138120D01*
X102173D01*
X102046Y138177D01*
X101607Y138188D01*
X101271Y138218D01*
X101009Y138261D01*
X100827Y138310D01*
X100800Y138321D01*
Y140300D01*
X93912D01*
X93374Y141600D01*
X94061Y142287D01*
X94659Y143730D01*
X90000D01*
Y146270D01*
X94659D01*
X94292Y147154D01*
X94638Y148257D01*
X94996Y148594D01*
X95730D01*
Y150875D01*
X95509Y150773D01*
X95150Y150573D01*
X94790Y150338D01*
X94431Y150067D01*
X94072Y149760D01*
X93713Y149419D01*
X91917Y151215D01*
X92258Y151574D01*
X92565Y151933D01*
X92836Y152292D01*
X93071Y152652D01*
X93272Y153011D01*
X93436Y153370D01*
X93566Y153729D01*
X93661Y154089D01*
X93720Y154448D01*
X93743Y154807D01*
X95730Y152820D01*
Y155000D01*
X97000D01*
Y156270D01*
X102908D01*
Y157975D01*
X102647Y159288D01*
X102615Y159335D01*
X103310Y160635D01*
X107316D01*
X107922Y160021D01*
D02*
G37*
G36*
X267031Y152030D02*
X264491Y152653D01*
Y155193D01*
X267031Y155969D01*
Y152030D01*
D02*
G37*
G36*
X141569Y156903D02*
X141798Y156819D01*
X142095Y156744D01*
X142457Y156679D01*
X143383Y156580D01*
X144575Y156520D01*
X146033Y156500D01*
Y152500D01*
X145271Y152495D01*
X142457Y152321D01*
X142095Y152256D01*
X141798Y152182D01*
X141569Y152097D01*
X141406Y152002D01*
Y156998D01*
X141569Y156903D01*
D02*
G37*
G36*
X130919Y152002D02*
X127214Y151880D01*
X126880Y155880D01*
X127443Y155887D01*
X128840Y155986D01*
X129208Y156045D01*
X129528Y156117D01*
X129799Y156203D01*
X130022Y156302D01*
X130196Y156414D01*
X130321Y156539D01*
X130919Y152002D01*
D02*
G37*
G36*
X254306Y156222D02*
X254382Y156006D01*
X254509Y155815D01*
X254687Y155650D01*
X254915Y155511D01*
X255195Y155396D01*
X255525Y155307D01*
X255906Y155244D01*
X256338Y155206D01*
X256820Y155193D01*
Y152653D01*
X256338Y152640D01*
X255906Y152602D01*
X255525Y152539D01*
X255195Y152450D01*
X254915Y152336D01*
X254687Y152196D01*
X254509Y152031D01*
X254382Y151840D01*
X254306Y151624D01*
X254280Y151383D01*
Y156463D01*
X254306Y156222D01*
D02*
G37*
G36*
X161082Y150693D02*
X160754Y150365D01*
X160186Y149515D01*
X159987Y148512D01*
Y130393D01*
X159872Y130253D01*
X158451Y130005D01*
X152620Y135836D01*
Y141512D01*
X152421Y142515D01*
X151853Y143365D01*
X148516Y146701D01*
X147666Y147269D01*
X146664Y147469D01*
X145321D01*
X145205Y147524D01*
X145193Y147520D01*
X145181Y147525D01*
X144843Y147536D01*
X144797Y147541D01*
X143878Y148915D01*
X142808Y149630D01*
X143165Y150955D01*
X145319Y151088D01*
X146042Y151093D01*
X146143Y151135D01*
X158500D01*
X158500Y151135D01*
X159788Y151391D01*
X160254Y151703D01*
X161082Y150693D01*
D02*
G37*
G36*
X226194Y153969D02*
X223720Y151031D01*
X218770Y153969D01*
X219265Y153994D01*
X219760Y154068D01*
X220255Y154192D01*
X220750Y154366D01*
X221245Y154588D01*
X221740Y154860D01*
X222235Y155182D01*
X222730Y155553D01*
X223225Y155974D01*
X223720Y156444D01*
X226194Y153969D01*
D02*
G37*
G36*
X186280Y151031D02*
X183741Y151230D01*
Y153770D01*
X186280Y153969D01*
Y151031D01*
D02*
G37*
G36*
X233548Y150232D02*
X233265Y150212D01*
X232983Y150164D01*
X232700Y150089D01*
X232417Y149986D01*
X232134Y149855D01*
X231851Y149697D01*
X231568Y149511D01*
X231285Y149298D01*
X231003Y149056D01*
X230720Y148787D01*
X229306Y150201D01*
X229575Y150484D01*
X229816Y150767D01*
X230030Y151050D01*
X230216Y151333D01*
X230374Y151616D01*
X230504Y151898D01*
X230607Y152181D01*
X230683Y152464D01*
X230730Y152747D01*
X230750Y153030D01*
X233548Y150232D01*
D02*
G37*
G36*
X249312D02*
X248953Y150208D01*
X248594Y150149D01*
X248234Y150055D01*
X247875Y149925D01*
X247516Y149760D01*
X247157Y149560D01*
X246797Y149324D01*
X246438Y149053D01*
X246079Y148747D01*
X245720Y148405D01*
X243924Y150201D01*
X244265Y150561D01*
X244572Y150920D01*
X244842Y151279D01*
X245078Y151638D01*
X245278Y151997D01*
X245443Y152357D01*
X245573Y152716D01*
X245667Y153075D01*
X245727Y153434D01*
X245750Y153793D01*
X249312Y150232D01*
D02*
G37*
G36*
X85370Y151245D02*
X84804Y151211D01*
X84238Y151121D01*
X83673Y150975D01*
X83107Y150773D01*
X82541Y150515D01*
X81976Y150202D01*
X81410Y149832D01*
X80844Y149406D01*
X80279Y148924D01*
X79713Y148386D01*
X76884Y151215D01*
X77422Y151781D01*
X77904Y152346D01*
X78330Y152912D01*
X78699Y153478D01*
X79013Y154043D01*
X79271Y154609D01*
X79473Y155175D01*
X79619Y155740D01*
X79709Y156306D01*
X79743Y156872D01*
X85370Y151245D01*
D02*
G37*
G36*
X372970Y152030D02*
X372690Y151990D01*
X372440Y151870D01*
X372220Y151671D01*
X372029Y151390D01*
X371867Y151031D01*
X371735Y150590D01*
X371632Y150070D01*
X371625Y150010D01*
X371632Y149930D01*
X371735Y149410D01*
X371867Y148969D01*
X372029Y148610D01*
X372220Y148329D01*
X372440Y148130D01*
X372690Y148010D01*
X372970Y147970D01*
X365500Y147939D01*
X365880Y147985D01*
X366220Y148110D01*
X366520Y148315D01*
X366780Y148598D01*
X367000Y148962D01*
X367180Y149405D01*
X367320Y149927D01*
X367332Y150000D01*
X367320Y150073D01*
X367180Y150595D01*
X367000Y151038D01*
X366780Y151401D01*
X366520Y151685D01*
X366220Y151890D01*
X365880Y152015D01*
X365500Y152061D01*
X372970Y152030D01*
D02*
G37*
G36*
X223739Y148880D02*
X223799Y148800D01*
X223899Y148730D01*
X224039Y148669D01*
X224219Y148617D01*
X224440Y148575D01*
X224699Y148542D01*
X225340Y148505D01*
X225720Y148500D01*
Y146500D01*
X225340Y146495D01*
X224440Y146425D01*
X224219Y146383D01*
X224039Y146331D01*
X223899Y146270D01*
X223799Y146200D01*
X223739Y146120D01*
X223720Y146031D01*
Y148969D01*
X223739Y148880D01*
D02*
G37*
G36*
X267031Y144031D02*
X264491Y144730D01*
Y147270D01*
X267031Y147970D01*
Y144031D01*
D02*
G37*
G36*
X141867Y147128D02*
X142209Y146916D01*
X142557Y146729D01*
X142910Y146567D01*
X143268Y146430D01*
X143631Y146318D01*
X143999Y146231D01*
X144373Y146168D01*
X144751Y146131D01*
X145135Y146119D01*
X145010Y143579D01*
X144578Y143568D01*
X144161Y143535D01*
X143761Y143482D01*
X143376Y143406D01*
X143008Y143309D01*
X142656Y143191D01*
X142319Y143051D01*
X141999Y142890D01*
X141694Y142707D01*
X141406Y142502D01*
X141529Y147364D01*
X141867Y147128D01*
D02*
G37*
G36*
X223745Y143932D02*
X223821Y143898D01*
X223948Y143868D01*
X224126Y143842D01*
X224634Y143802D01*
X226259Y143770D01*
Y141230D01*
X225777Y141228D01*
X223821Y141102D01*
X223745Y141068D01*
X223720Y141031D01*
Y143969D01*
X223745Y143932D01*
D02*
G37*
G36*
X372970Y144031D02*
X372690Y143990D01*
X372440Y143870D01*
X372220Y143671D01*
X372029Y143391D01*
X371867Y143031D01*
X371735Y142591D01*
X371632Y142071D01*
X371625Y142010D01*
X371632Y141930D01*
X371735Y141410D01*
X371867Y140969D01*
X372029Y140610D01*
X372220Y140330D01*
X372440Y140129D01*
X372690Y140009D01*
X372970Y139970D01*
X365500Y139939D01*
X365880Y139985D01*
X366220Y140110D01*
X366520Y140315D01*
X366780Y140598D01*
X367000Y140962D01*
X367180Y141405D01*
X367320Y141927D01*
X367332Y142000D01*
X367320Y142073D01*
X367180Y142595D01*
X367000Y143038D01*
X366780Y143401D01*
X366520Y143685D01*
X366220Y143890D01*
X365880Y144015D01*
X365500Y144061D01*
X372970Y144031D01*
D02*
G37*
G36*
X223745Y138932D02*
X223821Y138898D01*
X223948Y138868D01*
X224126Y138842D01*
X224634Y138802D01*
X226259Y138770D01*
Y136230D01*
X225777Y136228D01*
X223821Y136102D01*
X223745Y136068D01*
X223720Y136031D01*
Y138969D01*
X223745Y138932D01*
D02*
G37*
G36*
X267031Y136031D02*
X264491Y136730D01*
Y139270D01*
X267031Y139970D01*
Y136031D01*
D02*
G37*
G36*
X291628Y133217D02*
X291480Y133315D01*
X291305Y133402D01*
X291101Y133479D01*
X290870Y133545D01*
X290611Y133602D01*
X290323Y133648D01*
X289664Y133709D01*
X288893Y133730D01*
Y136270D01*
X289292Y136275D01*
X290323Y136352D01*
X290611Y136398D01*
X290870Y136455D01*
X291101Y136521D01*
X291305Y136598D01*
X291480Y136685D01*
X291628Y136783D01*
Y133217D01*
D02*
G37*
G36*
X282520Y136685D02*
X282695Y136598D01*
X282899Y136521D01*
X283130Y136455D01*
X283389Y136398D01*
X283677Y136352D01*
X284336Y136291D01*
X285107Y136270D01*
Y133730D01*
X284708Y133725D01*
X283677Y133648D01*
X283389Y133602D01*
X283130Y133545D01*
X282899Y133479D01*
X282695Y133402D01*
X282520Y133315D01*
X282372Y133217D01*
Y136783D01*
X282520Y136685D01*
D02*
G37*
G36*
X108594Y133002D02*
X108270Y133236D01*
X107936Y133444D01*
X107592Y133629D01*
X107240Y133788D01*
X106878Y133923D01*
X106506Y134034D01*
X106126Y134120D01*
X105736Y134181D01*
X105336Y134218D01*
X104927Y134230D01*
Y136770D01*
X105336Y136782D01*
X105736Y136819D01*
X106126Y136881D01*
X106506Y136966D01*
X106878Y137077D01*
X107240Y137212D01*
X107592Y137372D01*
X107936Y137556D01*
X108270Y137764D01*
X108594Y137998D01*
Y133002D01*
D02*
G37*
G36*
X99470Y137799D02*
X99552Y137583D01*
X99683Y137392D01*
X99865Y137227D01*
X100097Y137087D01*
X100379Y136973D01*
X100711Y136884D01*
X101094Y136821D01*
X101527Y136783D01*
X102009Y136770D01*
Y134230D01*
X101527Y134217D01*
X101094Y134179D01*
X100711Y134116D01*
X100379Y134027D01*
X100097Y133912D01*
X99865Y133773D01*
X99683Y133608D01*
X99552Y133417D01*
X99470Y133201D01*
X99439Y132960D01*
Y138040D01*
X99470Y137799D01*
D02*
G37*
G36*
X372970Y136031D02*
X372690Y135990D01*
X372440Y135871D01*
X372220Y135670D01*
X372029Y135391D01*
X371867Y135030D01*
X371735Y134591D01*
X371632Y134071D01*
X371625Y134010D01*
X371632Y133930D01*
X371735Y133410D01*
X371867Y132970D01*
X372029Y132610D01*
X372220Y132330D01*
X372440Y132129D01*
X372690Y132009D01*
X372970Y131969D01*
X365500Y131939D01*
X365880Y131985D01*
X366220Y132110D01*
X366520Y132315D01*
X366780Y132598D01*
X367000Y132962D01*
X367180Y133405D01*
X367320Y133927D01*
X367332Y134000D01*
X367320Y134073D01*
X367180Y134595D01*
X367000Y135038D01*
X366780Y135401D01*
X366520Y135685D01*
X366220Y135890D01*
X365880Y136015D01*
X365500Y136061D01*
X372970Y136031D01*
D02*
G37*
G36*
X255826Y135030D02*
X255485Y134671D01*
X255180Y134312D01*
X254910Y133953D01*
X254677Y133593D01*
X254479Y133234D01*
X254318Y132875D01*
X254192Y132516D01*
X254102Y132156D01*
X254048Y131797D01*
X254030Y131438D01*
X250438Y135030D01*
X250797Y135048D01*
X251157Y135102D01*
X251516Y135192D01*
X251875Y135317D01*
X252234Y135479D01*
X252593Y135677D01*
X252953Y135910D01*
X253312Y136180D01*
X253671Y136485D01*
X254030Y136826D01*
X255826Y135030D01*
D02*
G37*
G36*
X241076Y134799D02*
X240735Y134439D01*
X240430Y134080D01*
X240160Y133721D01*
X239927Y133362D01*
X239729Y133003D01*
X239568Y132643D01*
X239442Y132284D01*
X239352Y131925D01*
X239298Y131566D01*
X239280Y131207D01*
X235688Y134799D01*
X236047Y134817D01*
X236406Y134871D01*
X236766Y134960D01*
X237125Y135086D01*
X237484Y135248D01*
X237843Y135445D01*
X238203Y135679D01*
X238562Y135948D01*
X238921Y136253D01*
X239280Y136595D01*
X241076Y134799D01*
D02*
G37*
G36*
X231079Y136253D02*
X231438Y135947D01*
X231798Y135676D01*
X232157Y135440D01*
X232516Y135240D01*
X232875Y135075D01*
X233234Y134945D01*
X233594Y134851D01*
X233953Y134792D01*
X234312Y134768D01*
X230750Y131207D01*
X230727Y131566D01*
X230667Y131925D01*
X230573Y132284D01*
X230443Y132643D01*
X230278Y133003D01*
X230078Y133362D01*
X229842Y133721D01*
X229572Y134080D01*
X229265Y134439D01*
X228924Y134799D01*
X230720Y136595D01*
X231079Y136253D01*
D02*
G37*
G36*
X138299Y132640D02*
X138083Y132559D01*
X137892Y132427D01*
X137727Y132245D01*
X137587Y132013D01*
X137473Y131731D01*
X137384Y131399D01*
X137321Y131016D01*
X137283Y130584D01*
X137270Y130101D01*
X134730D01*
X134717Y130584D01*
X134679Y131016D01*
X134616Y131399D01*
X134527Y131731D01*
X134412Y132013D01*
X134273Y132245D01*
X134108Y132427D01*
X133917Y132559D01*
X133701Y132640D01*
X133460Y132671D01*
X138540D01*
X138299Y132640D01*
D02*
G37*
G36*
X267031Y128031D02*
X264491Y128730D01*
Y131270D01*
X267031Y131969D01*
Y128031D01*
D02*
G37*
G36*
X137275Y126708D02*
X137352Y125677D01*
X137398Y125389D01*
X137455Y125130D01*
X137521Y124899D01*
X137598Y124695D01*
X137685Y124520D01*
X137783Y124373D01*
X134217D01*
X134315Y124520D01*
X134402Y124695D01*
X134479Y124899D01*
X134545Y125130D01*
X134602Y125389D01*
X134648Y125677D01*
X134710Y126336D01*
X134730Y127107D01*
X137270D01*
X137275Y126708D01*
D02*
G37*
G36*
X372970Y128031D02*
X372690Y127991D01*
X372440Y127871D01*
X372220Y127670D01*
X372029Y127390D01*
X371867Y127030D01*
X371735Y126590D01*
X371632Y126070D01*
X371625Y126010D01*
X371632Y125929D01*
X371735Y125409D01*
X371867Y124970D01*
X372029Y124609D01*
X372220Y124330D01*
X372440Y124129D01*
X372690Y124010D01*
X372970Y123969D01*
X365500Y123939D01*
X365880Y123985D01*
X366220Y124110D01*
X366520Y124315D01*
X366780Y124599D01*
X367000Y124962D01*
X367180Y125405D01*
X367320Y125927D01*
X367332Y126000D01*
X367320Y126073D01*
X367180Y126595D01*
X367000Y127038D01*
X366780Y127401D01*
X366520Y127685D01*
X366220Y127890D01*
X365880Y128015D01*
X365500Y128061D01*
X372970Y128031D01*
D02*
G37*
G36*
X147380Y140427D02*
Y134751D01*
X147579Y133748D01*
X148147Y132898D01*
X155024Y126021D01*
X156864D01*
X156477Y126471D01*
X156198Y126757D01*
X157994Y128553D01*
X158554Y128022D01*
X159063Y127600D01*
X159299Y127429D01*
X159522Y127286D01*
X159733Y127169D01*
X159931Y127080D01*
X160117Y127017D01*
X160290Y126982D01*
X159329Y126021D01*
X160000D01*
Y124751D01*
X161270D01*
Y124080D01*
X162231Y125041D01*
X162267Y124868D01*
X162329Y124683D01*
X162418Y124484D01*
X162535Y124274D01*
X162678Y124050D01*
X162849Y123814D01*
X163272Y123305D01*
X163802Y122745D01*
X162006Y120949D01*
X161720Y121228D01*
X161270Y121615D01*
Y119775D01*
X166885Y114160D01*
X166419Y112787D01*
X165712Y112647D01*
X164599Y111903D01*
X163855Y110790D01*
X163594Y109476D01*
Y108407D01*
X158820D01*
X158561Y108300D01*
X158281Y108300D01*
X158084Y108218D01*
X158084Y108218D01*
X158083D01*
X157886Y108020D01*
X157825Y107995D01*
X157802Y107938D01*
X157604Y107857D01*
X157545Y107798D01*
X157461Y107596D01*
X157322Y107457D01*
Y107457D01*
X157322Y107457D01*
X157299Y107400D01*
X142201D01*
Y107400D01*
X142178Y107457D01*
X142039Y107596D01*
X141955Y107798D01*
X141896Y107857D01*
X141699Y107938D01*
X141675Y107995D01*
X141614Y108020D01*
X141417Y108218D01*
X141219Y108300D01*
X140939Y108300D01*
X140680Y108407D01*
X139000D01*
X138198Y108835D01*
X138109Y109288D01*
X137379Y110379D01*
X137379Y110379D01*
X128365Y119394D01*
Y131310D01*
X133179D01*
X133190Y131283D01*
X133239Y131101D01*
X133282Y130839D01*
X133312Y130503D01*
X133323Y130064D01*
X133380Y129937D01*
Y127271D01*
X133323Y127145D01*
X133304Y126420D01*
X133251Y125854D01*
X133219Y125650D01*
X133180Y125475D01*
X133142Y125343D01*
X133111Y125259D01*
X133093Y125224D01*
X133044Y125149D01*
X133023Y125044D01*
X132991Y125011D01*
X132450Y123706D01*
Y122294D01*
X132991Y120989D01*
X133989Y119991D01*
X135294Y119450D01*
X136706D01*
X138011Y119991D01*
X139010Y120989D01*
X139550Y122294D01*
Y123706D01*
X139010Y125011D01*
X138977Y125044D01*
X138956Y125149D01*
X138907Y125224D01*
X138890Y125259D01*
X138858Y125343D01*
X138820Y125475D01*
X138781Y125650D01*
X138751Y125841D01*
X138682Y126769D01*
X138677Y127125D01*
X138620Y127257D01*
Y129937D01*
X138677Y130064D01*
X138688Y130504D01*
X138718Y130839D01*
X138761Y131101D01*
X138810Y131283D01*
X138821Y131310D01*
X144153D01*
Y139690D01*
X144154D01*
X143798Y140852D01*
X144538Y141901D01*
X145795Y142011D01*
X147380Y140427D01*
D02*
G37*
G36*
X230750Y116383D02*
X230719Y116624D01*
X230638Y116840D01*
X230506Y117031D01*
X230324Y117196D01*
X230093Y117336D01*
X229810Y117450D01*
X229478Y117539D01*
X229095Y117602D01*
X228663Y117640D01*
X228180Y117653D01*
Y120193D01*
X228663Y120206D01*
X229095Y120244D01*
X229478Y120307D01*
X229810Y120396D01*
X230093Y120511D01*
X230324Y120650D01*
X230506Y120815D01*
X230638Y121006D01*
X230719Y121222D01*
X230750Y121463D01*
Y116383D01*
D02*
G37*
G36*
X246000Y115999D02*
X245969Y116241D01*
X245888Y116457D01*
X245756Y116647D01*
X245574Y116812D01*
X245343Y116952D01*
X245060Y117066D01*
X244728Y117155D01*
X244345Y117219D01*
X243913Y117257D01*
X243430Y117269D01*
Y119810D01*
X243913Y119822D01*
X244345Y119860D01*
X244728Y119924D01*
X245060Y120013D01*
X245343Y120127D01*
X245574Y120267D01*
X245756Y120432D01*
X245888Y120622D01*
X245969Y120838D01*
X246000Y121080D01*
Y115999D01*
D02*
G37*
G36*
X239306Y120838D02*
X239382Y120622D01*
X239509Y120432D01*
X239687Y120267D01*
X239915Y120127D01*
X240195Y120013D01*
X240525Y119924D01*
X240906Y119860D01*
X241338Y119822D01*
X241820Y119810D01*
Y117269D01*
X241338Y117257D01*
X240906Y117219D01*
X240525Y117155D01*
X240195Y117066D01*
X239915Y116952D01*
X239687Y116812D01*
X239509Y116647D01*
X239382Y116457D01*
X239306Y116241D01*
X239280Y115999D01*
Y121080D01*
X239306Y120838D01*
D02*
G37*
G36*
X372970Y120030D02*
X372690Y119991D01*
X372440Y119871D01*
X372220Y119670D01*
X372029Y119390D01*
X371867Y119031D01*
X371735Y118590D01*
X371632Y118070D01*
X371559Y117471D01*
X371531Y117036D01*
X371632Y115929D01*
X371735Y115409D01*
X371867Y114970D01*
X372029Y114609D01*
X372220Y114330D01*
X372440Y114129D01*
X372690Y114010D01*
X372970Y113969D01*
X366031D01*
X366310Y114010D01*
X366559Y114129D01*
X366780Y114330D01*
X366971Y114609D01*
X367133Y114970D01*
X367265Y115409D01*
X367368Y115929D01*
X367441Y116530D01*
X367467Y116934D01*
X367420Y117472D01*
X367320Y118073D01*
X367180Y118595D01*
X367000Y119038D01*
X366780Y119401D01*
X366520Y119685D01*
X366220Y119890D01*
X365880Y120015D01*
X365500Y120061D01*
X372970Y120030D01*
D02*
G37*
G36*
X171283Y112344D02*
X171321Y111911D01*
X171384Y111529D01*
X171473Y111197D01*
X171588Y110914D01*
X171727Y110682D01*
X171892Y110501D01*
X172083Y110369D01*
X172299Y110288D01*
X172540Y110257D01*
X167460D01*
X167701Y110288D01*
X167917Y110369D01*
X168108Y110501D01*
X168273Y110682D01*
X168412Y110914D01*
X168527Y111197D01*
X168616Y111529D01*
X168679Y111911D01*
X168717Y112344D01*
X168730Y112827D01*
X171270D01*
X171283Y112344D01*
D02*
G37*
G36*
X297080Y103352D02*
X293270D01*
X294030Y107030D01*
X297969D01*
X297080Y103352D01*
D02*
G37*
G36*
X290730Y103221D02*
X286920D01*
X286031Y107030D01*
X289970D01*
X290730Y103221D01*
D02*
G37*
G36*
X179918Y106918D02*
X180000Y106720D01*
Y76865D01*
X178101D01*
X178006Y76907D01*
X177290Y76926D01*
X176707Y76977D01*
X176540Y77005D01*
Y80540D01*
X171270D01*
Y73500D01*
Y66460D01*
X176540D01*
Y69995D01*
X176707Y70023D01*
X177290Y70075D01*
X178006Y70093D01*
X178101Y70135D01*
X180000D01*
Y65280D01*
X179918Y65082D01*
X179720Y65000D01*
X139000D01*
Y67960D01*
X143230D01*
Y75000D01*
Y82040D01*
X139000D01*
Y107000D01*
X140680D01*
X140878Y106918D01*
X140901Y106861D01*
X140960Y106803D01*
Y101270D01*
X158540D01*
Y106803D01*
X158599Y106861D01*
X158622Y106918D01*
X158820Y107000D01*
X164858D01*
Y104523D01*
X165023Y103694D01*
X165493Y102991D01*
X166196Y102521D01*
X167026Y102356D01*
X172974D01*
X173804Y102521D01*
X174507Y102991D01*
X174977Y103694D01*
X175142Y104523D01*
Y107000D01*
X179720D01*
X179918Y106918D01*
D02*
G37*
G36*
X62000Y102101D02*
X60700Y101061D01*
X60505Y101099D01*
X59770D01*
Y97000D01*
X58500D01*
Y95730D01*
X53453D01*
X53636Y94811D01*
X54307Y93807D01*
X54345Y93782D01*
Y92218D01*
X54307Y92193D01*
X53636Y91189D01*
X53453Y90270D01*
X58500D01*
Y87730D01*
X53453D01*
X53636Y86811D01*
X54307Y85807D01*
X54345Y85782D01*
Y84218D01*
X54307Y84193D01*
X53636Y83189D01*
X53453Y82270D01*
X58500D01*
Y79730D01*
X53453D01*
X53636Y78811D01*
X54307Y77807D01*
X55311Y77136D01*
X55841Y77031D01*
Y75705D01*
X55795Y75696D01*
X55201Y75299D01*
X54804Y74705D01*
X54665Y74005D01*
Y71995D01*
X54804Y71295D01*
X55201Y70701D01*
X55795Y70304D01*
X56495Y70165D01*
X60505D01*
X60700Y70204D01*
X61823Y69501D01*
X62000Y69272D01*
Y63000D01*
X46310D01*
X45300Y63700D01*
X45300Y64300D01*
Y80300D01*
X14700D01*
Y64138D01*
X13471Y63529D01*
X10000Y67000D01*
Y112000D01*
X62000D01*
Y102101D01*
D02*
G37*
G36*
X256350Y106810D02*
X257620Y105540D01*
Y100460D01*
X255080Y97920D01*
X252540D01*
Y108080D01*
X256350Y106810D01*
D02*
G37*
G36*
X247460Y97920D02*
X244920D01*
X242380Y100460D01*
Y105540D01*
X247460Y108080D01*
Y97920D01*
D02*
G37*
G36*
X88266Y138969D02*
X87924Y138610D01*
X87618Y138251D01*
X87347Y137892D01*
X87111Y137533D01*
X86911Y137174D01*
X86746Y136814D01*
X86616Y136455D01*
X86568Y136270D01*
X89040D01*
Y137742D01*
X89285Y138000D01*
X89335Y138130D01*
X90900Y139694D01*
X92200Y139156D01*
Y129700D01*
X100800D01*
Y132679D01*
X100827Y132690D01*
X101009Y132739D01*
X101271Y132782D01*
X101607Y132812D01*
X102046Y132823D01*
X102173Y132880D01*
X104760D01*
X104885Y132823D01*
X105250Y132813D01*
X105562Y132784D01*
X105861Y132737D01*
X106150Y132671D01*
X106431Y132588D01*
X106703Y132486D01*
X106969Y132366D01*
X107229Y132226D01*
X107485Y132066D01*
X107773Y131860D01*
X108035Y131798D01*
X108401Y131553D01*
X110036Y131228D01*
X117639D01*
X119274Y131553D01*
X120335Y132262D01*
X121429Y131854D01*
X121635Y131686D01*
Y118000D01*
X121635Y118000D01*
X121891Y116712D01*
X122621Y115621D01*
X131635Y106606D01*
Y92818D01*
X131488Y92698D01*
X130335Y92104D01*
X130167Y92248D01*
X130142Y92256D01*
X130098Y92294D01*
X129925Y92350D01*
X129925Y92350D01*
X129857Y92372D01*
X129688Y92516D01*
X129491Y92580D01*
X129298Y92660D01*
X129077D01*
X129011Y92688D01*
X128952D01*
X128952Y92688D01*
X128760Y92767D01*
X128695D01*
X127800Y93044D01*
Y107400D01*
X119862D01*
X119772Y107444D01*
X119275Y107473D01*
X118843Y107542D01*
X118404Y107656D01*
X117954Y107816D01*
X117493Y108026D01*
X117021Y108288D01*
X116537Y108605D01*
X116042Y108977D01*
X115538Y109407D01*
X115000Y109918D01*
X114903Y109955D01*
X105096Y119762D01*
X104005Y120491D01*
X102717Y120747D01*
X102717Y120747D01*
X85011D01*
X78598Y127160D01*
X78929Y128460D01*
X82230D01*
Y135000D01*
X83500D01*
Y136270D01*
X85547D01*
X82877Y138939D01*
X83237Y138963D01*
X83596Y139022D01*
X83955Y139116D01*
X84314Y139246D01*
X84674Y139411D01*
X85033Y139611D01*
X85392Y139847D01*
X85751Y140118D01*
X86110Y140424D01*
X86469Y140766D01*
X88266Y138969D01*
D02*
G37*
G36*
X265133Y91338D02*
X265172Y90906D01*
X265235Y90525D01*
X265324Y90195D01*
X265438Y89915D01*
X265578Y89687D01*
X265743Y89509D01*
X265934Y89382D01*
X266150Y89306D01*
X266391Y89280D01*
X261311D01*
X261552Y89306D01*
X261768Y89382D01*
X261959Y89509D01*
X262124Y89687D01*
X262263Y89915D01*
X262378Y90195D01*
X262467Y90525D01*
X262530Y90906D01*
X262568Y91338D01*
X262581Y91820D01*
X265121D01*
X265133Y91338D01*
D02*
G37*
G36*
X260232Y81236D02*
X260208Y81595D01*
X260149Y81954D01*
X260055Y82314D01*
X259925Y82673D01*
X259760Y83032D01*
X259560Y83391D01*
X259324Y83750D01*
X259053Y84110D01*
X258747Y84469D01*
X258405Y84828D01*
Y88420D01*
X258747Y88097D01*
X259053Y87845D01*
X259324Y87666D01*
X259560Y87558D01*
X259760Y87522D01*
X259925Y87558D01*
X260055Y87666D01*
X260149Y87845D01*
X260208Y88097D01*
X260232Y88420D01*
Y81236D01*
D02*
G37*
G36*
X330232Y82460D02*
X330201Y82701D01*
X330119Y82917D01*
X329988Y83108D01*
X329806Y83273D01*
X329574Y83413D01*
X329292Y83527D01*
X328960Y83616D01*
X328577Y83679D01*
X328144Y83717D01*
X327661Y83730D01*
Y86270D01*
X328144Y86283D01*
X328577Y86321D01*
X328960Y86384D01*
X329292Y86473D01*
X329574Y86587D01*
X329806Y86727D01*
X329988Y86892D01*
X330119Y87083D01*
X330201Y87299D01*
X330232Y87540D01*
Y82460D01*
D02*
G37*
G36*
X279799Y87299D02*
X279881Y87083D01*
X280012Y86892D01*
X280194Y86727D01*
X280426Y86587D01*
X280708Y86473D01*
X281040Y86384D01*
X281423Y86321D01*
X281856Y86283D01*
X282339Y86270D01*
Y83730D01*
X281856Y83717D01*
X281423Y83679D01*
X281040Y83616D01*
X280708Y83527D01*
X280426Y83413D01*
X280194Y83273D01*
X280012Y83108D01*
X279881Y82917D01*
X279799Y82701D01*
X279768Y82460D01*
Y87540D01*
X279799Y87299D01*
D02*
G37*
G36*
X348447Y78180D02*
X345907D01*
X344637Y80720D01*
X349717D01*
X348447Y78180D01*
D02*
G37*
G36*
X265122Y80719D02*
X264906Y80638D01*
X264715Y80506D01*
X264550Y80324D01*
X264410Y80092D01*
X264296Y79810D01*
X264207Y79478D01*
X264144Y79095D01*
X264106Y78663D01*
X264093Y78180D01*
X261553D01*
X261540Y78663D01*
X261502Y79095D01*
X261439Y79478D01*
X261350Y79810D01*
X261236Y80092D01*
X261096Y80324D01*
X260931Y80506D01*
X260740Y80638D01*
X260524Y80719D01*
X260283Y80750D01*
X265363D01*
X265122Y80719D01*
D02*
G37*
G36*
X323772Y73677D02*
X323898Y71721D01*
X323932Y71645D01*
X323969Y71620D01*
X321031D01*
X321068Y71645D01*
X321102Y71721D01*
X321132Y71848D01*
X321158Y72026D01*
X321198Y72534D01*
X321230Y74159D01*
X323770D01*
X323772Y73677D01*
D02*
G37*
G36*
X293772D02*
X293898Y71721D01*
X293932Y71645D01*
X293969Y71620D01*
X291031D01*
X291068Y71645D01*
X291102Y71721D01*
X291132Y71848D01*
X291158Y72026D01*
X291198Y72534D01*
X291230Y74159D01*
X293770D01*
X293772Y73677D01*
D02*
G37*
G36*
X174009Y77120D02*
X174130Y76780D01*
X174329Y76480D01*
X174610Y76220D01*
X174970Y76000D01*
X175410Y75820D01*
X175930Y75680D01*
X176530Y75580D01*
X177209Y75520D01*
X177969Y75500D01*
Y71500D01*
X177209Y71480D01*
X176530Y71420D01*
X175930Y71320D01*
X175410Y71180D01*
X174970Y71000D01*
X174610Y70780D01*
X174329Y70520D01*
X174130Y70220D01*
X174009Y69880D01*
X173969Y69500D01*
Y77500D01*
X174009Y77120D01*
D02*
G37*
G36*
X264093Y72599D02*
X264105Y72221D01*
X264143Y71849D01*
X264205Y71484D01*
X264293Y71126D01*
X264405Y70775D01*
X264542Y70431D01*
X264704Y70094D01*
X264891Y69763D01*
X265103Y69439D01*
X265339Y69123D01*
X260292Y70354D01*
X260532Y70456D01*
X260746Y70599D01*
X260935Y70780D01*
X261099Y71002D01*
X261238Y71262D01*
X261351Y71563D01*
X261439Y71902D01*
X261503Y72282D01*
X261540Y72701D01*
X261553Y73159D01*
X264093Y72599D01*
D02*
G37*
G36*
X348460Y72701D02*
X348497Y72282D01*
X348560Y71902D01*
X348649Y71563D01*
X348762Y71262D01*
X348901Y71002D01*
X349065Y70780D01*
X349254Y70599D01*
X349468Y70456D01*
X349708Y70354D01*
X344660Y69123D01*
X344897Y69439D01*
X345109Y69763D01*
X345296Y70094D01*
X345458Y70431D01*
X345595Y70775D01*
X345708Y71126D01*
X345795Y71484D01*
X345857Y71849D01*
X345895Y72221D01*
X345907Y72599D01*
X348447Y73159D01*
X348460Y72701D01*
D02*
G37*
G36*
X93637Y71505D02*
X93455Y71324D01*
X93294Y71119D01*
X93155Y70888D01*
X93038Y70633D01*
X92941Y70353D01*
X92866Y70047D01*
X92813Y69717D01*
X92781Y69362D01*
X92770Y68981D01*
X90230D01*
X90219Y69362D01*
X90187Y69717D01*
X90134Y70047D01*
X90059Y70353D01*
X89963Y70633D01*
X89845Y70888D01*
X89706Y71119D01*
X89545Y71324D01*
X89363Y71505D01*
X89160Y71660D01*
X93840D01*
X93637Y71505D01*
D02*
G37*
G36*
X270061Y63360D02*
X270030Y63601D01*
X269948Y63817D01*
X269817Y64008D01*
X269635Y64173D01*
X269403Y64313D01*
X269121Y64427D01*
X268789Y64516D01*
X268412Y64578D01*
X268035Y64516D01*
X267703Y64427D01*
X267421Y64313D01*
X267189Y64173D01*
X267007Y64008D01*
X266876Y63817D01*
X266794Y63601D01*
X266763Y63360D01*
X265916Y68421D01*
X266139Y68183D01*
X266383Y67970D01*
X266647Y67783D01*
X266932Y67620D01*
X267237Y67483D01*
X267563Y67370D01*
X267910Y67283D01*
X268277Y67220D01*
X268334Y67214D01*
X268406Y67221D01*
X268789Y67284D01*
X269121Y67373D01*
X269403Y67488D01*
X269635Y67627D01*
X269817Y67792D01*
X269948Y67983D01*
X270030Y68199D01*
X270061Y68440D01*
Y63360D01*
D02*
G37*
G36*
X127500Y66530D02*
X123500D01*
X121531Y70531D01*
X129469D01*
X127500Y66530D01*
D02*
G37*
G36*
X110145Y105197D02*
X110182Y105100D01*
X110693Y104563D01*
X111123Y104058D01*
X111460Y103610D01*
Y101270D01*
X113981D01*
X113937Y101544D01*
X113791Y102110D01*
X113589Y102675D01*
X113331Y103241D01*
X113017Y103807D01*
X112647Y104373D01*
X112221Y104938D01*
X111740Y105504D01*
X111202Y106069D01*
X114031Y108898D01*
X114596Y108360D01*
X115162Y107879D01*
X115728Y107453D01*
X116293Y107083D01*
X116859Y106769D01*
X117425Y106511D01*
X117990Y106309D01*
X118556Y106163D01*
X119122Y106073D01*
X119687Y106039D01*
X114918Y101270D01*
X120250D01*
Y100000D01*
X121520D01*
Y91360D01*
X128760D01*
X128952Y91280D01*
X129011D01*
X129055Y91242D01*
X129253Y91178D01*
X129421Y91034D01*
X129662Y90956D01*
X129848Y90784D01*
X130000Y90638D01*
Y82040D01*
X126770D01*
Y75000D01*
X125500D01*
Y73730D01*
X118960D01*
Y67960D01*
X120432D01*
X120815Y67270D01*
X120054Y66000D01*
X94120D01*
Y68816D01*
X94177Y68942D01*
X94186Y69278D01*
X94210Y69541D01*
X94246Y69767D01*
X94293Y69956D01*
X94345Y70109D01*
X94400Y70228D01*
X94455Y70319D01*
X94509Y70388D01*
X94563Y70442D01*
X94695Y70542D01*
X94744Y70627D01*
X94835Y70665D01*
X94932Y70900D01*
X95196Y71295D01*
X95230Y71466D01*
X95235Y71474D01*
X95233Y71481D01*
X95335Y71995D01*
Y74005D01*
X95196Y74705D01*
X94799Y75299D01*
X94205Y75696D01*
X94159Y75705D01*
Y77031D01*
X94689Y77136D01*
X95693Y77807D01*
X96364Y78811D01*
X96547Y79730D01*
X91500D01*
Y82270D01*
X96547D01*
X96364Y83189D01*
X95693Y84193D01*
X95655Y84218D01*
Y85782D01*
X95693Y85807D01*
X96364Y86811D01*
X96547Y87730D01*
X91500D01*
Y90270D01*
X96547D01*
X96364Y91189D01*
X95693Y92193D01*
X95655Y92218D01*
Y93782D01*
X95693Y93807D01*
X96364Y94811D01*
X96547Y95730D01*
X91500D01*
Y97000D01*
X90230D01*
Y101099D01*
X89495D01*
X89300Y101061D01*
X88000Y102101D01*
Y109720D01*
X88082Y109918D01*
X88280Y110000D01*
X105342D01*
X110145Y105197D01*
D02*
G37*
G36*
X339970Y68199D02*
X340052Y67983D01*
X340183Y67792D01*
X340365Y67627D01*
X340597Y67488D01*
X340879Y67373D01*
X341211Y67284D01*
X341594Y67221D01*
X341666Y67214D01*
X341723Y67220D01*
X342090Y67283D01*
X342437Y67370D01*
X342762Y67483D01*
X343068Y67620D01*
X343353Y67783D01*
X343617Y67970D01*
X343861Y68183D01*
X344085Y68421D01*
X343237Y63360D01*
X343206Y63601D01*
X343124Y63817D01*
X342993Y64008D01*
X342811Y64173D01*
X342579Y64313D01*
X342297Y64427D01*
X341965Y64516D01*
X341588Y64578D01*
X341211Y64516D01*
X340879Y64427D01*
X340597Y64313D01*
X340365Y64173D01*
X340183Y64008D01*
X340052Y63817D01*
X339970Y63601D01*
X339939Y63360D01*
Y68440D01*
X339970Y68199D01*
D02*
G37*
G36*
X137020Y62709D02*
X137079Y62030D01*
X137177Y61430D01*
X137315Y60910D01*
X137492Y60469D01*
X137709Y60110D01*
X137965Y59830D01*
X138260Y59630D01*
X138595Y59510D01*
X138969Y59469D01*
X131031D01*
X131405Y59510D01*
X131740Y59630D01*
X132035Y59830D01*
X132291Y60110D01*
X132508Y60469D01*
X132685Y60910D01*
X132823Y61430D01*
X132921Y62030D01*
X132980Y62709D01*
X133000Y63470D01*
X137000D01*
X137020Y62709D01*
D02*
G37*
G36*
X174009Y59620D02*
X174130Y59280D01*
X174329Y58980D01*
X174610Y58720D01*
X174970Y58500D01*
X175410Y58320D01*
X175930Y58180D01*
X176530Y58080D01*
X177207Y58020D01*
X177954Y58078D01*
X178679Y58177D01*
X179375Y58314D01*
X180042Y58491D01*
X180681Y58706D01*
X181292Y58961D01*
X181873Y59256D01*
X182426Y59589D01*
X182950Y59962D01*
Y52038D01*
X182426Y52411D01*
X181873Y52744D01*
X181292Y53039D01*
X180681Y53294D01*
X180042Y53509D01*
X179375Y53686D01*
X178679Y53823D01*
X177954Y53921D01*
X177205Y53980D01*
X176530Y53921D01*
X175930Y53823D01*
X175410Y53685D01*
X174970Y53508D01*
X174610Y53291D01*
X174329Y53035D01*
X174130Y52740D01*
X174009Y52405D01*
X173969Y52031D01*
Y60000D01*
X174009Y59620D01*
D02*
G37*
G36*
X289090Y54291D02*
X289691Y53810D01*
X290315Y53386D01*
X290963Y53018D01*
X291634Y52707D01*
X292329Y52453D01*
X293047Y52255D01*
X293788Y52113D01*
X294553Y52028D01*
X295341Y52000D01*
Y48000D01*
X294553Y47972D01*
X293788Y47887D01*
X293047Y47745D01*
X292329Y47547D01*
X291634Y47293D01*
X290963Y46982D01*
X290315Y46614D01*
X289691Y46190D01*
X289090Y45709D01*
X288513Y45172D01*
X284856Y47172D01*
X285365Y47737D01*
X285761Y48303D01*
X286044Y48869D01*
X286214Y49434D01*
X286270Y50000D01*
X286214Y50566D01*
X286044Y51131D01*
X285761Y51697D01*
X285365Y52263D01*
X284856Y52828D01*
X288513Y54828D01*
X289090Y54291D01*
D02*
G37*
G36*
X237867Y51014D02*
X238387Y50653D01*
X238952Y50351D01*
X239563Y50110D01*
X240218Y49929D01*
X240919Y49809D01*
X241665Y49749D01*
X242457Y49750D01*
X243293Y49810D01*
X244175Y49932D01*
X240467Y42891D01*
X235135Y48037D01*
X237392Y51436D01*
X237867Y51014D01*
D02*
G37*
G36*
X248574Y48589D02*
X249127Y48256D01*
X249708Y47961D01*
X250319Y47706D01*
X250958Y47491D01*
X251625Y47314D01*
X252321Y47177D01*
X253046Y47078D01*
X253800Y47020D01*
X254583Y47000D01*
Y43000D01*
X253800Y42980D01*
X253046Y42922D01*
X252321Y42823D01*
X251625Y42686D01*
X250958Y42509D01*
X250319Y42294D01*
X249708Y42039D01*
X249127Y41744D01*
X248574Y41411D01*
X248050Y41038D01*
Y48962D01*
X248574Y48589D01*
D02*
G37*
G36*
X217299Y34969D02*
X217083Y34888D01*
X216892Y34756D01*
X216727Y34574D01*
X216588Y34343D01*
X216473Y34060D01*
X216384Y33728D01*
X216321Y33345D01*
X216283Y32913D01*
X216270Y32430D01*
X213730D01*
X213717Y32913D01*
X213679Y33345D01*
X213616Y33728D01*
X213527Y34060D01*
X213412Y34343D01*
X213273Y34574D01*
X213108Y34756D01*
X212917Y34888D01*
X212701Y34969D01*
X212460Y35000D01*
X217540D01*
X217299Y34969D01*
D02*
G37*
G36*
X216283Y28527D02*
X216321Y28094D01*
X216384Y27711D01*
X216473Y27379D01*
X216588Y27097D01*
X216727Y26865D01*
X216892Y26683D01*
X217083Y26552D01*
X217299Y26470D01*
X217540Y26439D01*
X212460D01*
X212701Y26470D01*
X212917Y26552D01*
X213108Y26683D01*
X213273Y26865D01*
X213412Y27097D01*
X213527Y27379D01*
X213616Y27711D01*
X213679Y28094D01*
X213717Y28527D01*
X213730Y29009D01*
X216270D01*
X216283Y28527D01*
D02*
G37*
G36*
X176061Y20693D02*
X176030Y20934D01*
X175948Y21150D01*
X175817Y21341D01*
X175635Y21506D01*
X175403Y21645D01*
X175121Y21760D01*
X174789Y21849D01*
X174406Y21912D01*
X173973Y21950D01*
X173491Y21963D01*
Y24503D01*
X173973Y24516D01*
X174406Y24554D01*
X174789Y24617D01*
X175121Y24706D01*
X175403Y24820D01*
X175635Y24960D01*
X175817Y25125D01*
X175948Y25316D01*
X176030Y25532D01*
X176061Y25773D01*
Y20693D01*
D02*
G37*
G36*
X153970Y25532D02*
X154052Y25316D01*
X154183Y25125D01*
X154365Y24960D01*
X154597Y24820D01*
X154879Y24706D01*
X155211Y24617D01*
X155594Y24554D01*
X156027Y24516D01*
X156510Y24503D01*
Y21963D01*
X156027Y21950D01*
X155594Y21912D01*
X155211Y21849D01*
X154879Y21760D01*
X154597Y21645D01*
X154365Y21506D01*
X154183Y21341D01*
X154052Y21150D01*
X153970Y20934D01*
X153939Y20693D01*
Y25773D01*
X153970Y25532D01*
D02*
G37*
G36*
X137561Y20693D02*
X137530Y20934D01*
X137448Y21150D01*
X137317Y21341D01*
X137135Y21506D01*
X136903Y21645D01*
X136621Y21760D01*
X136289Y21849D01*
X135906Y21912D01*
X135473Y21950D01*
X134991Y21963D01*
Y24503D01*
X135473Y24516D01*
X135906Y24554D01*
X136289Y24617D01*
X136621Y24706D01*
X136903Y24820D01*
X137135Y24960D01*
X137317Y25125D01*
X137448Y25316D01*
X137530Y25532D01*
X137561Y25773D01*
Y20693D01*
D02*
G37*
G36*
X119056Y25532D02*
X119132Y25316D01*
X119259Y25125D01*
X119437Y24960D01*
X119665Y24820D01*
X119945Y24706D01*
X120275Y24617D01*
X120656Y24554D01*
X121088Y24516D01*
X121570Y24503D01*
Y21963D01*
X121088Y21950D01*
X120656Y21912D01*
X120275Y21849D01*
X119945Y21760D01*
X119665Y21645D01*
X119437Y21506D01*
X119259Y21341D01*
X119132Y21150D01*
X119056Y20934D01*
X119030Y20693D01*
Y25773D01*
X119056Y25532D01*
D02*
G37*
G36*
X183115Y23921D02*
X181870Y20558D01*
X181682Y20825D01*
X181479Y21064D01*
X181260Y21274D01*
X181025Y21457D01*
X180774Y21612D01*
X180506Y21738D01*
X180223Y21837D01*
X179923Y21907D01*
X179607Y21949D01*
X179276Y21963D01*
X179810Y24503D01*
X183115Y23921D01*
D02*
G37*
G36*
X211596Y13760D02*
X212162Y13280D01*
X212728Y12855D01*
X213293Y12488D01*
X213859Y12177D01*
X214425Y11922D01*
X214990Y11724D01*
X215556Y11583D01*
X216122Y11498D01*
X216687Y11470D01*
X211031Y5813D01*
X211002Y6378D01*
X210917Y6944D01*
X210776Y7510D01*
X210578Y8075D01*
X210323Y8641D01*
X210012Y9207D01*
X209645Y9772D01*
X209220Y10338D01*
X208739Y10904D01*
X208202Y11470D01*
X211031Y14298D01*
X211596Y13760D01*
D02*
G37*
G36*
X182505Y3434D02*
X182081Y3732D01*
X181623Y3998D01*
X181130Y4233D01*
X180603Y4436D01*
X180041Y4609D01*
X179446Y4749D01*
X178815Y4859D01*
X178151Y4937D01*
X176719Y5000D01*
Y9000D01*
X177452Y9016D01*
X178815Y9141D01*
X179446Y9251D01*
X180041Y9391D01*
X180603Y9564D01*
X181130Y9767D01*
X181623Y10002D01*
X182081Y10268D01*
X182505Y10566D01*
Y3434D01*
D02*
G37*
G36*
X147919Y10268D02*
X148377Y10002D01*
X148870Y9767D01*
X149397Y9564D01*
X149959Y9391D01*
X150554Y9251D01*
X151185Y9141D01*
X151849Y9063D01*
X153281Y9000D01*
Y5000D01*
X152548Y4984D01*
X151185Y4859D01*
X150554Y4749D01*
X149959Y4609D01*
X149397Y4436D01*
X148870Y4233D01*
X148377Y3998D01*
X147919Y3732D01*
X147495Y3434D01*
Y10566D01*
X147919Y10268D01*
D02*
G37*
G36*
X137561Y9072D02*
X138315Y9141D01*
X138946Y9251D01*
X139542Y9391D01*
X140103Y9564D01*
X140630Y9767D01*
X141123Y10002D01*
X141581Y10268D01*
X142005Y10566D01*
Y3434D01*
X141581Y3732D01*
X141123Y3998D01*
X140630Y4233D01*
X140103Y4436D01*
X139542Y4609D01*
X138946Y4749D01*
X138315Y4859D01*
X137651Y4937D01*
X137561Y4941D01*
Y3000D01*
X137515Y3380D01*
X137390Y3720D01*
X137185Y4020D01*
X136902Y4280D01*
X136538Y4500D01*
X136095Y4680D01*
X135573Y4820D01*
X134972Y4920D01*
X134291Y4980D01*
X133531Y5000D01*
Y9000D01*
X134291Y9020D01*
X134972Y9080D01*
X135573Y9180D01*
X136095Y9320D01*
X136538Y9500D01*
X136902Y9720D01*
X137185Y9980D01*
X137390Y10280D01*
X137515Y10620D01*
X137561Y11000D01*
Y9072D01*
D02*
G37*
G36*
X176061Y3000D02*
X176015Y3380D01*
X175890Y3720D01*
X175685Y4020D01*
X175401Y4280D01*
X175038Y4500D01*
X174595Y4680D01*
X174073Y4820D01*
X173472Y4920D01*
X172791Y4980D01*
X172031Y5000D01*
Y9000D01*
X172791Y9020D01*
X173472Y9080D01*
X174073Y9180D01*
X174595Y9320D01*
X175038Y9500D01*
X175401Y9720D01*
X175685Y9980D01*
X175890Y10280D01*
X176015Y10620D01*
X176061Y11000D01*
Y3000D01*
D02*
G37*
G36*
X153985Y10620D02*
X154110Y10280D01*
X154315Y9980D01*
X154599Y9720D01*
X154962Y9500D01*
X155405Y9320D01*
X155927Y9180D01*
X156528Y9080D01*
X157209Y9020D01*
X157970Y9000D01*
Y5000D01*
X157209Y4980D01*
X156528Y4920D01*
X155927Y4820D01*
X155405Y4680D01*
X154962Y4500D01*
X154599Y4280D01*
X154315Y4020D01*
X154110Y3720D01*
X153985Y3380D01*
X153939Y3000D01*
Y11000D01*
X153985Y10620D01*
D02*
G37*
%LPC*%
G36*
X196540Y327540D02*
X187770D01*
Y309270D01*
X196540D01*
Y327540D01*
D02*
G37*
G36*
X263540D02*
X254770D01*
Y309270D01*
X263540D01*
Y327540D01*
D02*
G37*
G36*
X185230D02*
X176460D01*
Y309270D01*
X185230D01*
Y327540D01*
D02*
G37*
G36*
X252230D02*
X243460D01*
Y309270D01*
X252230D01*
Y327540D01*
D02*
G37*
G36*
X263540Y306730D02*
X254770D01*
Y288460D01*
X263540D01*
Y306730D01*
D02*
G37*
G36*
X252230D02*
X243460D01*
Y288460D01*
X252230D01*
Y306730D01*
D02*
G37*
G36*
X196540D02*
X187770D01*
Y288460D01*
X196540D01*
Y306730D01*
D02*
G37*
G36*
X185230D02*
X176460D01*
Y288460D01*
X185230D01*
Y306730D01*
D02*
G37*
G36*
X393730Y303730D02*
X367460D01*
Y302833D01*
X368138Y298551D01*
X369478Y294428D01*
X371446Y290566D01*
X373994Y287059D01*
X377059Y283994D01*
X380566Y281446D01*
X384428Y279478D01*
X388551Y278138D01*
X392832Y277460D01*
X393730D01*
Y303730D01*
D02*
G37*
G36*
X57540D02*
X31270D01*
Y277460D01*
X32167D01*
X36449Y278138D01*
X40572Y279478D01*
X44434Y281446D01*
X47941Y283994D01*
X51006Y287059D01*
X53554Y290566D01*
X55522Y294428D01*
X56862Y298551D01*
X57540Y302833D01*
Y303730D01*
D02*
G37*
G36*
X339975Y267908D02*
X338270D01*
Y263270D01*
X340036D01*
X340755Y263872D01*
X340797Y263297D01*
X340803Y263270D01*
X343406D01*
Y264477D01*
X343145Y265790D01*
X342401Y266903D01*
X341288Y267647D01*
X339975Y267908D01*
D02*
G37*
G36*
X335730D02*
X334025D01*
X332712Y267647D01*
X331599Y266903D01*
X330855Y265790D01*
X330594Y264477D01*
Y263270D01*
X335730D01*
Y267908D01*
D02*
G37*
G36*
X26540Y273540D02*
X15270D01*
Y261770D01*
X26540D01*
Y273540D01*
D02*
G37*
G36*
X237540Y270540D02*
X231270D01*
Y251770D01*
X237540D01*
Y270540D01*
D02*
G37*
G36*
X228730D02*
X222460D01*
Y251770D01*
X228730D01*
Y270540D01*
D02*
G37*
G36*
X26540Y259230D02*
X15270D01*
Y247460D01*
X26540D01*
Y259230D01*
D02*
G37*
G36*
X228730Y249230D02*
X222460D01*
Y230460D01*
X228730D01*
Y249230D01*
D02*
G37*
G36*
X284540Y235540D02*
X281270D01*
Y229000D01*
X278730D01*
Y235540D01*
X271770D01*
Y229500D01*
Y223460D01*
X274722D01*
X275161Y222584D01*
X274531Y221300D01*
X267215D01*
X267031Y221377D01*
X266850Y221302D01*
X266657Y221326D01*
X265700Y221300D01*
Y221063D01*
X264117Y220627D01*
X264109Y220620D01*
X254500D01*
X253497Y220421D01*
X252647Y219853D01*
X252094Y219300D01*
X249851D01*
X249693Y219375D01*
X249403Y219389D01*
X249180Y219423D01*
X248949Y219481D01*
X248708Y219565D01*
X248456Y219678D01*
X248191Y219824D01*
X247915Y220004D01*
X247627Y220219D01*
X247331Y220471D01*
X247000Y220786D01*
X246870Y220835D01*
X245283Y222423D01*
X244433Y222991D01*
X243430Y223190D01*
X224935D01*
X223933Y222991D01*
X223083Y222423D01*
X213280Y212620D01*
X210673D01*
X210546Y212677D01*
X210107Y212688D01*
X209771Y212718D01*
X209509Y212761D01*
X209327Y212810D01*
X209300Y212821D01*
Y215300D01*
X197700D01*
Y204700D01*
X209300D01*
Y207179D01*
X209327Y207190D01*
X209509Y207239D01*
X209771Y207282D01*
X210107Y207312D01*
X210546Y207323D01*
X210673Y207380D01*
X214366D01*
X215368Y207579D01*
X216218Y208147D01*
X223499Y215428D01*
X224700Y214930D01*
Y212803D01*
X224657Y212715D01*
X224638Y212424D01*
X224600Y212198D01*
X224539Y211964D01*
X224451Y211719D01*
X224333Y211464D01*
X224184Y211197D01*
X224002Y210919D01*
X223784Y210630D01*
X223530Y210332D01*
X223215Y210000D01*
X223165Y209871D01*
X210915Y197620D01*
X210673D01*
X210546Y197677D01*
X210107Y197688D01*
X209771Y197718D01*
X209509Y197761D01*
X209327Y197810D01*
X209300Y197821D01*
Y200300D01*
X197700D01*
Y189700D01*
X209300D01*
Y192179D01*
X209327Y192190D01*
X209509Y192239D01*
X209771Y192282D01*
X210107Y192312D01*
X210546Y192323D01*
X210673Y192380D01*
X212000D01*
X213003Y192579D01*
X213853Y193147D01*
X222259Y201553D01*
X223460Y201056D01*
Y197770D01*
X230000D01*
X236540D01*
Y202579D01*
X236564Y203545D01*
X237728Y203810D01*
X255065D01*
X256067Y204009D01*
X256917Y204577D01*
X259720Y207380D01*
X263508D01*
X264460Y206540D01*
Y203270D01*
X271000D01*
X272046D01*
X271377Y203939D01*
X271737Y203963D01*
X272096Y204022D01*
X272455Y204116D01*
X272814Y204246D01*
X273173Y204411D01*
X273533Y204611D01*
X273892Y204847D01*
X274251Y205118D01*
X274610Y205424D01*
X274970Y205766D01*
X276766Y203969D01*
X276424Y203610D01*
X276134Y203270D01*
X277976D01*
X279583Y204877D01*
X279718Y204932D01*
X280034Y205244D01*
X280576Y205718D01*
X290165Y196130D01*
X290214Y196000D01*
X290460Y195742D01*
Y191020D01*
X298980D01*
Y199540D01*
X294258D01*
X294000Y199786D01*
X293870Y199835D01*
X282853Y210853D01*
X282620Y211008D01*
Y222109D01*
X282627Y222117D01*
X282721Y222460D01*
X284540D01*
Y222466D01*
X284700Y223700D01*
X285840Y223700D01*
X291300D01*
Y234300D01*
X284700Y234300D01*
X284540Y235534D01*
Y235540D01*
D02*
G37*
G36*
X171540Y243540D02*
X157270D01*
Y228770D01*
X171540D01*
Y243540D01*
D02*
G37*
G36*
X154730D02*
X140460D01*
Y228770D01*
X154730D01*
Y243540D01*
D02*
G37*
G36*
X339300Y234300D02*
X332700D01*
Y223700D01*
X339300D01*
Y234300D01*
D02*
G37*
G36*
X331300D02*
X324700D01*
Y223700D01*
X331300D01*
Y234300D01*
D02*
G37*
G36*
X299300D02*
X292700D01*
Y223700D01*
X299300D01*
Y234300D01*
D02*
G37*
G36*
X323300D02*
X316700D01*
Y225215D01*
X316623Y225030D01*
X316698Y224850D01*
X316674Y224657D01*
X316700Y223700D01*
X316937D01*
X317350Y222203D01*
X317323Y222145D01*
X317304Y221420D01*
X317251Y220854D01*
X317218Y220650D01*
X317180Y220475D01*
X317142Y220343D01*
X317111Y220259D01*
X317093Y220224D01*
X317044Y220149D01*
X317023Y220044D01*
X316991Y220011D01*
X316450Y218706D01*
Y217294D01*
X316991Y215989D01*
X317989Y214991D01*
X319294Y214450D01*
X320706D01*
X322011Y214991D01*
X323009Y215989D01*
X323550Y217294D01*
Y218706D01*
X323009Y220011D01*
X322977Y220044D01*
X322956Y220149D01*
X322907Y220224D01*
X322890Y220259D01*
X322858Y220343D01*
X322820Y220475D01*
X322781Y220650D01*
X322751Y220841D01*
X322682Y221769D01*
X322677Y222125D01*
X322648Y222194D01*
X323063Y223700D01*
X323300D01*
X323326Y224657D01*
X323302Y224850D01*
X323377Y225030D01*
X323300Y225215D01*
Y234300D01*
D02*
G37*
G36*
X237540Y249230D02*
X231270D01*
Y230460D01*
X233742D01*
X234000Y230215D01*
X234129Y230165D01*
X237147Y227147D01*
X237997Y226579D01*
X239000Y226380D01*
X264045D01*
X264460Y226172D01*
Y223460D01*
X269230D01*
Y229500D01*
Y235540D01*
X264460D01*
Y231828D01*
X264045Y231620D01*
X240085D01*
X237835Y233871D01*
X237785Y234000D01*
X237540Y234258D01*
Y249230D01*
D02*
G37*
G36*
X171540Y226230D02*
X157270D01*
Y211460D01*
X171540D01*
Y226230D01*
D02*
G37*
G36*
X154730D02*
X140460D01*
Y211460D01*
X154730D01*
Y226230D01*
D02*
G37*
G36*
X193540Y216540D02*
X187770D01*
Y211270D01*
X193540D01*
Y216540D01*
D02*
G37*
G36*
X104224Y229300D02*
X101776D01*
X99410Y228666D01*
X97290Y227442D01*
X95558Y225710D01*
X94334Y223590D01*
X93700Y221224D01*
Y218776D01*
X94334Y216410D01*
X95558Y214290D01*
X97290Y212558D01*
X99410Y211334D01*
X101776Y210700D01*
X104224D01*
X106590Y211334D01*
X108710Y212558D01*
X110442Y214290D01*
X111666Y216410D01*
X112300Y218776D01*
Y221224D01*
X111666Y223590D01*
X110442Y225710D01*
X108710Y227442D01*
X106590Y228666D01*
X104224Y229300D01*
D02*
G37*
G36*
X34224D02*
X31776D01*
X29410Y228666D01*
X27290Y227442D01*
X25558Y225710D01*
X24334Y223590D01*
X23700Y221224D01*
Y218776D01*
X24334Y216410D01*
X25558Y214290D01*
X27290Y212558D01*
X29410Y211334D01*
X31776Y210700D01*
X34224D01*
X36590Y211334D01*
X38710Y212558D01*
X40442Y214290D01*
X41666Y216410D01*
X42300Y218776D01*
Y221224D01*
X41666Y223590D01*
X40442Y225710D01*
X38710Y227442D01*
X36590Y228666D01*
X34224Y229300D01*
D02*
G37*
G36*
X193540Y208730D02*
X187770D01*
Y203460D01*
X193540D01*
Y208730D01*
D02*
G37*
G36*
X277540Y200730D02*
X274962D01*
X274939Y200377D01*
X274586Y200730D01*
X271000D01*
X264460D01*
Y197460D01*
X264466D01*
X265700Y197300D01*
X265700Y196160D01*
Y190700D01*
X276300D01*
X276300Y197300D01*
X277534Y197460D01*
X277540D01*
Y200730D01*
D02*
G37*
G36*
X255300Y202300D02*
X244700D01*
Y190700D01*
X255300D01*
Y202300D01*
D02*
G37*
G36*
X236540Y195230D02*
X231270D01*
Y189460D01*
X236540D01*
Y195230D01*
D02*
G37*
G36*
X228730D02*
X223460D01*
Y189460D01*
X228730D01*
Y195230D01*
D02*
G37*
G36*
X276300Y189300D02*
X265700D01*
Y182700D01*
X276300D01*
Y189300D01*
D02*
G37*
G36*
X204477Y186406D02*
X203270D01*
Y181270D01*
X207908D01*
Y182974D01*
X207647Y184288D01*
X206903Y185401D01*
X205790Y186145D01*
X204477Y186406D01*
D02*
G37*
G36*
X200730D02*
X199524D01*
X198210Y186145D01*
X197097Y185401D01*
X196353Y184288D01*
X196092Y182974D01*
Y181270D01*
X200730D01*
Y186406D01*
D02*
G37*
G36*
X35540Y192540D02*
X23270D01*
Y180770D01*
X35540D01*
Y192540D01*
D02*
G37*
G36*
X20730D02*
X8460D01*
Y180770D01*
X20730D01*
Y192540D01*
D02*
G37*
G36*
X276300Y181300D02*
X265700D01*
Y174700D01*
X276300D01*
Y181300D01*
D02*
G37*
G36*
X207908Y178730D02*
X203270D01*
Y173594D01*
X204477D01*
X205790Y173855D01*
X206903Y174599D01*
X207647Y175712D01*
X207908Y177026D01*
Y178730D01*
D02*
G37*
G36*
X200730D02*
X196092D01*
Y177026D01*
X196353Y175712D01*
X197097Y174599D01*
X198210Y173855D01*
X199524Y173594D01*
X200730D01*
Y178730D01*
D02*
G37*
G36*
X282706Y173550D02*
X281294D01*
X279989Y173009D01*
X279956Y172977D01*
X279851Y172956D01*
X279776Y172907D01*
X279741Y172889D01*
X279657Y172858D01*
X279525Y172820D01*
X279350Y172781D01*
X279159Y172751D01*
X278231Y172682D01*
X277875Y172677D01*
X277743Y172620D01*
X277677D01*
X277553Y172676D01*
X276681Y172703D01*
X276382Y172731D01*
X276300Y172743D01*
Y173300D01*
X275154D01*
X274970Y173377D01*
X274841Y173323D01*
X274705Y173352D01*
X274627Y173300D01*
X265700D01*
Y166700D01*
X274627D01*
X274705Y166648D01*
X274841Y166677D01*
X274970Y166623D01*
X275154Y166700D01*
X276300D01*
Y167257D01*
X276366Y167267D01*
X277086Y167317D01*
X277530Y167323D01*
X277661Y167380D01*
X277729D01*
X277855Y167323D01*
X278580Y167304D01*
X279146Y167251D01*
X279350Y167218D01*
X279525Y167180D01*
X279657Y167142D01*
X279741Y167111D01*
X279776Y167093D01*
X279851Y167044D01*
X279956Y167023D01*
X279989Y166991D01*
X281294Y166450D01*
X282706D01*
X284011Y166991D01*
X285009Y167989D01*
X285550Y169294D01*
Y170706D01*
X285009Y172011D01*
X284011Y173009D01*
X282706Y173550D01*
D02*
G37*
G36*
X35540Y178230D02*
X23270D01*
Y166460D01*
X35540D01*
Y178230D01*
D02*
G37*
G36*
X20730D02*
X8460D01*
Y166460D01*
X20730D01*
Y178230D01*
D02*
G37*
G36*
X173320Y143576D02*
Y141270D01*
X175626D01*
X175263Y142147D01*
X174197Y143213D01*
X173320Y143576D01*
D02*
G37*
G36*
X349540Y148980D02*
X341020D01*
Y140460D01*
X349540D01*
Y148980D01*
D02*
G37*
G36*
X298980D02*
X290460D01*
Y140460D01*
X298980D01*
Y148980D01*
D02*
G37*
G36*
X310040Y199540D02*
Y199540D01*
X301520D01*
Y189750D01*
X300250D01*
Y188480D01*
X290460D01*
Y179960D01*
X290460D01*
Y179790D01*
X290460D01*
Y171270D01*
X300250D01*
Y168730D01*
X290460D01*
Y160210D01*
X290460D01*
Y160040D01*
X290460D01*
Y151520D01*
X300250D01*
Y150250D01*
X301520D01*
Y140460D01*
X310040D01*
Y140460D01*
X310210D01*
Y140460D01*
X318730D01*
Y150250D01*
X321270D01*
Y140460D01*
X329790D01*
Y140460D01*
X329960D01*
Y140460D01*
X338480D01*
Y150250D01*
X339750D01*
Y151520D01*
X349540D01*
Y160040D01*
X349540D01*
Y160210D01*
X349540D01*
Y168730D01*
X339750D01*
Y171270D01*
X349540D01*
Y179790D01*
X345675D01*
X345675Y179793D01*
X346701Y181093D01*
X347000D01*
X347995Y181505D01*
X348407Y182500D01*
Y191000D01*
X347995Y191995D01*
X347013Y192977D01*
X346120Y194524D01*
X344524Y196120D01*
X342977Y197013D01*
X341995Y197995D01*
X341000Y198407D01*
X332500D01*
X331505Y197995D01*
X331093Y197000D01*
Y196701D01*
X329793Y195675D01*
X329790Y195675D01*
Y199540D01*
X321270D01*
Y189750D01*
X318730D01*
Y199540D01*
X310210D01*
Y199540D01*
X310040D01*
D02*
G37*
G36*
X175626Y138730D02*
X173320D01*
Y136424D01*
X174197Y136787D01*
X175263Y137853D01*
X175626Y138730D01*
D02*
G37*
G36*
X169220Y143576D02*
Y140000D01*
Y136424D01*
X170000Y136747D01*
X170780Y136424D01*
Y140000D01*
Y143576D01*
X170000Y143253D01*
X169220Y143576D01*
D02*
G37*
G36*
X188730Y136230D02*
X183710D01*
Y133460D01*
X188730D01*
Y136230D01*
D02*
G37*
G36*
X276300Y125300D02*
X265700D01*
Y118700D01*
X276300D01*
Y125300D01*
D02*
G37*
G36*
X276540Y116540D02*
X275499Y116540D01*
X271770D01*
Y110500D01*
Y104460D01*
X276540D01*
Y104466D01*
X276700Y105700D01*
X277840Y105700D01*
X283300D01*
Y116300D01*
X277740D01*
X276540Y116540D01*
D02*
G37*
G36*
X355300Y116300D02*
X348700D01*
Y105700D01*
X355300D01*
Y116300D01*
D02*
G37*
G36*
X347300D02*
X340700D01*
Y105700D01*
X347300D01*
Y116300D01*
D02*
G37*
G36*
X339300D02*
X332700D01*
Y105700D01*
X339300D01*
Y116300D01*
D02*
G37*
G36*
X331300D02*
X324700D01*
Y105700D01*
X331300D01*
Y116300D01*
D02*
G37*
G36*
X323300D02*
X316700D01*
Y105700D01*
X323300D01*
Y116300D01*
D02*
G37*
G36*
X315300D02*
X308700D01*
Y105700D01*
X315300D01*
Y116300D01*
D02*
G37*
G36*
X307300D02*
X300700D01*
Y105700D01*
X307300D01*
Y116300D01*
D02*
G37*
G36*
X352369Y91851D02*
X347424D01*
Y86270D01*
X352369D01*
Y91851D01*
D02*
G37*
G36*
X229706Y99550D02*
X228294D01*
X226989Y99010D01*
X225991Y98011D01*
X225450Y96706D01*
Y96206D01*
X225344Y95966D01*
X225340Y95767D01*
X225324Y95637D01*
X225294Y95501D01*
X225247Y95357D01*
X225180Y95202D01*
X225091Y95035D01*
X224979Y94857D01*
X224839Y94668D01*
X224671Y94469D01*
X224449Y94235D01*
X224400Y94106D01*
X218167Y87873D01*
X218038Y87823D01*
X217512Y87325D01*
X217074Y86962D01*
X216907Y86841D01*
X216756Y86744D01*
X216636Y86677D01*
X216554Y86640D01*
X216517Y86628D01*
X216429Y86610D01*
X216340Y86550D01*
X216294D01*
X214989Y86010D01*
X213990Y85011D01*
X213450Y83706D01*
Y82294D01*
X213990Y80989D01*
X214989Y79991D01*
X216294Y79450D01*
X217706D01*
X219011Y79991D01*
X220009Y80989D01*
X220550Y82294D01*
Y82340D01*
X220610Y82429D01*
X220628Y82517D01*
X220640Y82554D01*
X220677Y82636D01*
X220744Y82756D01*
X220841Y82907D01*
X220954Y83064D01*
X221562Y83769D01*
X221810Y84024D01*
X221863Y84157D01*
X228154Y90448D01*
X228291Y90505D01*
X230619Y92828D01*
X231011Y92991D01*
X232010Y93989D01*
X232550Y95294D01*
Y96706D01*
X232010Y98011D01*
X231011Y99010D01*
X229706Y99550D01*
D02*
G37*
G36*
X187270Y63466D02*
Y57270D01*
X193466D01*
X193026Y58910D01*
X192034Y60630D01*
X190630Y62034D01*
X188910Y63026D01*
X187270Y63466D01*
D02*
G37*
G36*
X100270Y56659D02*
Y53270D01*
X103659D01*
X103061Y54713D01*
X101713Y56061D01*
X100270Y56659D01*
D02*
G37*
G36*
X168730Y55230D02*
X163460D01*
Y49460D01*
X168730D01*
Y55230D01*
D02*
G37*
G36*
X193466Y54730D02*
X187270D01*
Y48534D01*
X188910Y48974D01*
X190630Y49967D01*
X192034Y51370D01*
X193026Y53090D01*
X193466Y54730D01*
D02*
G37*
G36*
X103976Y50730D02*
X102125D01*
X102271Y50554D01*
X102802Y49994D01*
X101006Y48198D01*
X100720Y48477D01*
X100270Y48864D01*
Y47024D01*
X108104Y39190D01*
X108154Y39061D01*
X108399Y38803D01*
Y38037D01*
X110619D01*
X110528Y38234D01*
X110328Y38593D01*
X110092Y38953D01*
X109822Y39312D01*
X109515Y39671D01*
X109174Y40030D01*
X110970Y41826D01*
X111329Y41485D01*
X111688Y41178D01*
X112048Y40908D01*
X112407Y40672D01*
X112766Y40472D01*
X113125Y40307D01*
X113484Y40177D01*
X113730Y40112D01*
Y42601D01*
X112197D01*
X111939Y42846D01*
X111810Y42896D01*
X103976Y50730D01*
D02*
G37*
G36*
X97730D02*
X94341D01*
X94939Y49287D01*
X96287Y47939D01*
X97730Y47341D01*
Y50730D01*
D02*
G37*
G36*
X355805Y58880D02*
X349470D01*
Y47212D01*
X350168Y47304D01*
X352002Y48064D01*
X353578Y49272D01*
X354786Y50847D01*
X355546Y52682D01*
X355805Y54650D01*
Y58880D01*
D02*
G37*
G36*
X220361Y56361D02*
X209639D01*
Y47174D01*
X220361D01*
Y56361D01*
D02*
G37*
G36*
X121601Y42601D02*
X116270D01*
Y38037D01*
X121601D01*
Y42601D01*
D02*
G37*
G36*
X113730Y39168D02*
X112599Y38037D01*
X113730D01*
Y39168D01*
D02*
G37*
G36*
X393730Y57540D02*
X392832D01*
X388551Y56862D01*
X384428Y55522D01*
X380566Y53554D01*
X377059Y51006D01*
X373994Y47941D01*
X371446Y44434D01*
X369478Y40572D01*
X368138Y36449D01*
X367460Y32167D01*
Y31270D01*
X393730D01*
Y57540D01*
D02*
G37*
G36*
X32167D02*
X31270D01*
Y31270D01*
X57540D01*
Y32167D01*
X56862Y36449D01*
X55522Y40572D01*
X53554Y44434D01*
X51006Y47941D01*
X47941Y51006D01*
X44434Y53554D01*
X40572Y55522D01*
X36449Y56862D01*
X32167Y57540D01*
D02*
G37*
G36*
X121601Y35497D02*
X116270D01*
Y30933D01*
X121601D01*
Y35497D01*
D02*
G37*
G36*
X113730D02*
X108399D01*
Y30933D01*
X113730D01*
Y35497D01*
D02*
G37*
G36*
X349470Y29788D02*
Y19620D01*
X355805D01*
Y22350D01*
X355546Y24318D01*
X354786Y26153D01*
X353578Y27728D01*
X352002Y28936D01*
X350168Y29696D01*
X349470Y29788D01*
D02*
G37*
G36*
X346930D02*
X346232Y29696D01*
X344398Y28936D01*
X342822Y27728D01*
X341614Y26153D01*
X340854Y24318D01*
X340595Y22350D01*
Y19620D01*
X346930D01*
Y29788D01*
D02*
G37*
G36*
X263070D02*
Y19620D01*
X269405D01*
Y22350D01*
X269146Y24318D01*
X268386Y26153D01*
X267178Y27728D01*
X265602Y28936D01*
X263768Y29696D01*
X263070Y29788D01*
D02*
G37*
G36*
X260530D02*
X259832Y29696D01*
X257997Y28936D01*
X256422Y27728D01*
X255214Y26153D01*
X254454Y24318D01*
X254195Y22350D01*
Y19620D01*
X260530D01*
Y29788D01*
D02*
G37*
G36*
X355805Y17080D02*
X349470D01*
Y6912D01*
X350168Y7004D01*
X352002Y7764D01*
X353578Y8972D01*
X354786Y10547D01*
X355546Y12382D01*
X355805Y14350D01*
Y17080D01*
D02*
G37*
G36*
X346930D02*
X340595D01*
Y14350D01*
X340854Y12382D01*
X341614Y10547D01*
X342822Y8972D01*
X344398Y7764D01*
X346232Y7004D01*
X346930Y6912D01*
Y17080D01*
D02*
G37*
G36*
X269405D02*
X263070D01*
Y6912D01*
X263768Y7004D01*
X265602Y7764D01*
X267178Y8972D01*
X268386Y10547D01*
X269146Y12382D01*
X269405Y14350D01*
Y17080D01*
D02*
G37*
G36*
X260530D02*
X254195D01*
Y14350D01*
X254454Y12382D01*
X255214Y10547D01*
X256422Y8972D01*
X257997Y7764D01*
X259832Y7004D01*
X260530Y6912D01*
Y17080D01*
D02*
G37*
%LPD*%
G36*
X278030Y226460D02*
X275592Y227679D01*
X275211Y227616D01*
X274879Y227527D01*
X274597Y227412D01*
X274365Y227273D01*
X274183Y227108D01*
X274052Y226917D01*
X273970Y226701D01*
X273939Y226460D01*
Y231540D01*
X273970Y231299D01*
X274052Y231083D01*
X274183Y230892D01*
X274365Y230727D01*
X274597Y230588D01*
X274879Y230473D01*
X275211Y230384D01*
X275592Y230321D01*
X278030Y231540D01*
Y226460D01*
D02*
G37*
G36*
X281270Y222491D02*
X278730D01*
X278030Y225030D01*
X281970D01*
X281270Y222491D01*
D02*
G37*
G36*
X267031Y216031D02*
X264491Y216730D01*
Y219270D01*
X267031Y219970D01*
Y216031D01*
D02*
G37*
G36*
X246390Y219424D02*
X246749Y219119D01*
X247108Y218850D01*
X247467Y218616D01*
X247827Y218419D01*
X248186Y218257D01*
X248545Y218131D01*
X248904Y218041D01*
X249263Y217987D01*
X249623Y217969D01*
X246031Y214377D01*
X246012Y214737D01*
X245959Y215096D01*
X245869Y215455D01*
X245743Y215814D01*
X245581Y216173D01*
X245384Y216533D01*
X245150Y216892D01*
X244881Y217251D01*
X244576Y217610D01*
X244234Y217969D01*
X246031Y219766D01*
X246390Y219424D01*
D02*
G37*
G36*
X267031Y208030D02*
X264491Y208730D01*
Y211270D01*
X267031Y211970D01*
Y208030D01*
D02*
G37*
G36*
X207970Y212299D02*
X208052Y212083D01*
X208183Y211892D01*
X208365Y211727D01*
X208597Y211588D01*
X208879Y211473D01*
X209211Y211384D01*
X209594Y211321D01*
X210027Y211283D01*
X210509Y211270D01*
Y208730D01*
X210027Y208717D01*
X209594Y208679D01*
X209211Y208616D01*
X208879Y208527D01*
X208597Y208412D01*
X208365Y208273D01*
X208183Y208108D01*
X208052Y207917D01*
X207970Y207701D01*
X207939Y207460D01*
Y212540D01*
X207970Y212299D01*
D02*
G37*
G36*
X233988Y212263D02*
X234041Y211904D01*
X234131Y211545D01*
X234257Y211186D01*
X234419Y210827D01*
X234616Y210467D01*
X234850Y210108D01*
X235119Y209749D01*
X235424Y209390D01*
X235766Y209030D01*
X233969Y207234D01*
X233610Y207576D01*
X233251Y207881D01*
X232892Y208150D01*
X232533Y208384D01*
X232173Y208582D01*
X231814Y208743D01*
X231455Y208869D01*
X231096Y208959D01*
X230737Y209013D01*
X230377Y209030D01*
X233969Y212623D01*
X233988Y212263D01*
D02*
G37*
G36*
X229623Y209061D02*
X229263Y209037D01*
X228904Y208978D01*
X228545Y208884D01*
X228186Y208754D01*
X227826Y208589D01*
X227467Y208389D01*
X227108Y208153D01*
X226749Y207882D01*
X226390Y207576D01*
X226031Y207234D01*
X224234Y209030D01*
X224576Y209390D01*
X224882Y209749D01*
X225153Y210108D01*
X225389Y210467D01*
X225589Y210827D01*
X225754Y211186D01*
X225884Y211545D01*
X225978Y211904D01*
X226037Y212263D01*
X226061Y212623D01*
X229623Y209061D01*
D02*
G37*
G36*
X280000Y209000D02*
X281000Y207730D01*
X280892Y207712D01*
X280758Y207658D01*
X280597Y207568D01*
X280409Y207443D01*
X279076Y206275D01*
X278730Y205934D01*
X276934Y207730D01*
X277275Y208097D01*
X277581Y208478D01*
X277850Y208875D01*
X278083Y209286D01*
X278281Y209712D01*
X278443Y210153D01*
X278568Y210609D01*
X278658Y211080D01*
X278712Y211565D01*
X278730Y212066D01*
X280000Y209000D01*
D02*
G37*
G36*
X293390Y198424D02*
X293749Y198119D01*
X294108Y197850D01*
X294467Y197616D01*
X294827Y197418D01*
X295186Y197257D01*
X295545Y197131D01*
X295904Y197041D01*
X296263Y196987D01*
X296623Y196970D01*
X293030Y193377D01*
X293013Y193737D01*
X292959Y194096D01*
X292869Y194455D01*
X292743Y194814D01*
X292582Y195173D01*
X292384Y195533D01*
X292150Y195892D01*
X291881Y196251D01*
X291576Y196610D01*
X291234Y196970D01*
X293030Y198766D01*
X293390Y198424D01*
D02*
G37*
G36*
X207970Y197299D02*
X208052Y197083D01*
X208183Y196892D01*
X208365Y196727D01*
X208597Y196588D01*
X208879Y196473D01*
X209211Y196384D01*
X209594Y196321D01*
X210027Y196283D01*
X210509Y196270D01*
Y193730D01*
X210027Y193717D01*
X209594Y193679D01*
X209211Y193616D01*
X208879Y193527D01*
X208597Y193412D01*
X208365Y193273D01*
X208183Y193108D01*
X208052Y192917D01*
X207970Y192701D01*
X207939Y192460D01*
Y197540D01*
X207970Y197299D01*
D02*
G37*
G36*
X321270Y222491D02*
X318730D01*
X318030Y225030D01*
X321969D01*
X321270Y222491D01*
D02*
G37*
G36*
X321275Y221708D02*
X321352Y220677D01*
X321398Y220389D01*
X321455Y220130D01*
X321521Y219898D01*
X321598Y219695D01*
X321685Y219520D01*
X321783Y219373D01*
X318217D01*
X318315Y219520D01*
X318402Y219695D01*
X318479Y219898D01*
X318545Y220130D01*
X318602Y220389D01*
X318648Y220677D01*
X318710Y221336D01*
X318730Y222107D01*
X321270D01*
X321275Y221708D01*
D02*
G37*
G36*
X234963Y236263D02*
X235022Y235904D01*
X235116Y235545D01*
X235246Y235186D01*
X235411Y234827D01*
X235611Y234467D01*
X235847Y234108D01*
X236118Y233749D01*
X236424Y233390D01*
X236766Y233030D01*
X234970Y231234D01*
X234610Y231576D01*
X234251Y231882D01*
X233892Y232153D01*
X233533Y232389D01*
X233173Y232589D01*
X232814Y232754D01*
X232455Y232884D01*
X232096Y232978D01*
X231737Y233037D01*
X231377Y233061D01*
X234939Y236623D01*
X234963Y236263D01*
D02*
G37*
G36*
X267031Y226460D02*
X264491Y227730D01*
Y230270D01*
X267031Y231540D01*
Y226460D01*
D02*
G37*
G36*
X280627Y168217D02*
X280480Y168314D01*
X280305Y168402D01*
X280102Y168479D01*
X279870Y168545D01*
X279611Y168602D01*
X279323Y168648D01*
X278664Y168710D01*
X277893Y168730D01*
Y171270D01*
X278292Y171275D01*
X279323Y171352D01*
X279611Y171398D01*
X279870Y171455D01*
X280102Y171521D01*
X280305Y171598D01*
X280480Y171685D01*
X280627Y171783D01*
Y168217D01*
D02*
G37*
G36*
X274995Y171837D02*
X275071Y171718D01*
X275198Y171613D01*
X275376Y171522D01*
X275604Y171445D01*
X275884Y171382D01*
X276214Y171333D01*
X276595Y171298D01*
X277509Y171270D01*
Y168730D01*
X277027Y168723D01*
X276214Y168667D01*
X275884Y168618D01*
X275604Y168555D01*
X275376Y168478D01*
X275198Y168387D01*
X275071Y168282D01*
X274995Y168163D01*
X274970Y168030D01*
Y171970D01*
X274995Y171837D01*
D02*
G37*
G36*
X347000Y191000D02*
Y182500D01*
X332500D01*
Y197000D01*
X341000D01*
X347000Y191000D01*
D02*
G37*
G36*
X229645Y93844D02*
X227297Y91501D01*
X225471Y93267D01*
X225721Y93531D01*
X225944Y93795D01*
X226140Y94061D01*
X226309Y94327D01*
X226450Y94593D01*
X226565Y94861D01*
X226652Y95128D01*
X226712Y95397D01*
X226745Y95666D01*
X226751Y95935D01*
X229645Y93844D01*
D02*
G37*
G36*
X220802Y85006D02*
X220523Y84720D01*
X219849Y83937D01*
X219678Y83701D01*
X219535Y83477D01*
X219418Y83267D01*
X219329Y83069D01*
X219266Y82883D01*
X219231Y82710D01*
X216710Y85231D01*
X216883Y85267D01*
X217069Y85329D01*
X217267Y85418D01*
X217477Y85535D01*
X217701Y85678D01*
X217937Y85849D01*
X218446Y86271D01*
X219006Y86802D01*
X220802Y85006D01*
D02*
G37*
%LPC*%
G36*
X102908Y153730D02*
X98270D01*
Y148594D01*
X99476D01*
X100790Y148855D01*
X101903Y149599D01*
X102647Y150712D01*
X102908Y152025D01*
Y153730D01*
D02*
G37*
G36*
X158730Y123481D02*
X155341D01*
X155939Y122038D01*
X157287Y120690D01*
X158730Y120092D01*
Y123481D01*
D02*
G37*
G36*
X172974Y98908D02*
X171270D01*
Y94270D01*
X176406D01*
Y95477D01*
X176145Y96790D01*
X175401Y97903D01*
X174288Y98647D01*
X172974Y98908D01*
D02*
G37*
G36*
X168730D02*
X167026D01*
X165712Y98647D01*
X164599Y97903D01*
X163855Y96790D01*
X163594Y95477D01*
Y94270D01*
X168730D01*
Y98908D01*
D02*
G37*
G36*
X158540Y98730D02*
X151020D01*
Y91360D01*
X158540D01*
Y98730D01*
D02*
G37*
G36*
X148480D02*
X140960D01*
Y91360D01*
X148480D01*
Y98730D01*
D02*
G37*
G36*
X176406Y91730D02*
X171270D01*
Y87092D01*
X172974D01*
X174288Y87353D01*
X175401Y88097D01*
X176145Y89210D01*
X176406Y90524D01*
Y91730D01*
D02*
G37*
G36*
X168730D02*
X163594D01*
Y90524D01*
X163855Y89210D01*
X164599Y88097D01*
X165712Y87353D01*
X167026Y87092D01*
X168730D01*
Y91730D01*
D02*
G37*
G36*
X151040Y82040D02*
X145770D01*
Y76270D01*
X151040D01*
Y82040D01*
D02*
G37*
G36*
X168730Y80540D02*
X163460D01*
Y74770D01*
X168730D01*
Y80540D01*
D02*
G37*
G36*
X151040Y73730D02*
X145770D01*
Y67960D01*
X151040D01*
Y73730D01*
D02*
G37*
G36*
X168730Y72230D02*
X163460D01*
Y66460D01*
X168730D01*
Y72230D01*
D02*
G37*
G36*
X46540Y107540D02*
X31270D01*
Y99270D01*
X46540D01*
Y107540D01*
D02*
G37*
G36*
X28730D02*
X13460D01*
Y99270D01*
X28730D01*
Y107540D01*
D02*
G37*
G36*
X57230Y101099D02*
X56495D01*
X55311Y100864D01*
X54307Y100193D01*
X53636Y99189D01*
X53453Y98270D01*
X57230D01*
Y101099D01*
D02*
G37*
G36*
X46540Y96730D02*
X31270D01*
Y91061D01*
X32030D01*
X32025Y91035D01*
X32020Y90969D01*
X32005Y90304D01*
X32000Y89000D01*
X31270D01*
Y88460D01*
X46540D01*
Y96730D01*
D02*
G37*
G36*
X28730D02*
X13460D01*
Y88460D01*
X28730D01*
Y89000D01*
X28000D01*
X27970Y91061D01*
X28730D01*
Y96730D01*
D02*
G37*
G36*
X89040Y133730D02*
X84770D01*
Y128460D01*
X89040D01*
Y133730D01*
D02*
G37*
G36*
X93505Y101099D02*
X92770D01*
Y98270D01*
X96547D01*
X96364Y99189D01*
X95693Y100193D01*
X94689Y100864D01*
X93505Y101099D01*
D02*
G37*
G36*
X118980Y98730D02*
X111460D01*
Y91360D01*
X118980D01*
Y98730D01*
D02*
G37*
G36*
X124230Y82040D02*
X118960D01*
Y76270D01*
X124230D01*
Y82040D01*
D02*
G37*
%LPD*%
D11*
X261000Y162000D02*
X271000D01*
X259000Y160000D02*
X261000Y162000D01*
X235000Y153846D02*
X235635D01*
X241789Y160000D01*
X259000D01*
X234365Y153846D02*
X235000D01*
X228018Y147500D02*
X234365Y153846D01*
X220000Y147500D02*
X228018D01*
D14*
X230000Y250500D02*
D03*
X210000D02*
D03*
D15*
X253500Y308000D02*
D03*
X186500D02*
D03*
D16*
X30000Y72000D02*
D03*
Y98000D02*
D03*
D17*
X235000Y131154D02*
D03*
Y118846D02*
D03*
X250000Y166154D02*
D03*
Y153846D02*
D03*
X235000Y166154D02*
D03*
Y153846D02*
D03*
D18*
X337000Y248000D02*
D03*
Y262000D02*
D03*
X170000Y107000D02*
D03*
Y93000D02*
D03*
D19*
X307500Y65900D02*
D03*
X322500D02*
D03*
X317500D02*
D03*
X312500D02*
D03*
X302500D02*
D03*
X297500D02*
D03*
X292500D02*
D03*
X287500D02*
D03*
D20*
X337000D02*
D03*
X273000D02*
D03*
X329000D02*
D03*
X281000D02*
D03*
D21*
X346154Y85000D02*
D03*
X333846D02*
D03*
X276154D02*
D03*
X263846D02*
D03*
X156154Y180000D02*
D03*
X143846D02*
D03*
D22*
X322000Y261767D02*
D03*
Y248233D02*
D03*
X250000Y131767D02*
D03*
Y118233D02*
D03*
X115000Y36767D02*
D03*
Y23233D02*
D03*
X215000Y51767D02*
D03*
Y38233D02*
D03*
D23*
X244920Y103000D02*
D03*
X255080D02*
D03*
D24*
X41000Y260500D02*
D03*
X22000Y179500D02*
D03*
D25*
X14000Y260500D02*
D03*
D26*
X115000Y179500D02*
D03*
D27*
X156000Y227500D02*
D03*
D28*
X96500Y135000D02*
D03*
X83500D02*
D03*
D29*
X145750Y22250D02*
D03*
Y7750D02*
D03*
X184250Y22250D02*
D03*
Y7750D02*
D03*
D30*
X250000Y196500D02*
D03*
Y213500D02*
D03*
X144500Y75000D02*
D03*
X125500D02*
D03*
X135000Y55000D02*
D03*
X230000Y196500D02*
D03*
Y213500D02*
D03*
X170000Y56500D02*
D03*
Y73500D02*
D03*
D31*
X203500Y210000D02*
D03*
X186500D02*
D03*
X203500Y195000D02*
D03*
X186500D02*
D03*
D32*
X97000Y155000D02*
D03*
X83000D02*
D03*
X202000Y180000D02*
D03*
X188000D02*
D03*
D33*
X339258Y189258D02*
D03*
D34*
X369500Y229500D02*
D03*
X270500D02*
D03*
Y110500D02*
D03*
X369500D02*
D03*
D35*
X320000Y150250D02*
D03*
Y170000D02*
D03*
Y189750D02*
D03*
X300250Y150250D02*
D03*
Y170000D02*
D03*
Y189750D02*
D03*
X339750Y150250D02*
D03*
Y170000D02*
D03*
D36*
X369000Y218000D02*
D03*
Y210000D02*
D03*
Y202000D02*
D03*
Y194000D02*
D03*
Y186000D02*
D03*
Y178000D02*
D03*
Y170000D02*
D03*
Y162000D02*
D03*
Y154000D02*
D03*
Y146000D02*
D03*
Y138000D02*
D03*
Y130000D02*
D03*
Y122000D02*
D03*
X271000D02*
D03*
Y130000D02*
D03*
Y138000D02*
D03*
Y146000D02*
D03*
Y154000D02*
D03*
Y162000D02*
D03*
Y170000D02*
D03*
Y178000D02*
D03*
Y186000D02*
D03*
Y194000D02*
D03*
Y202000D02*
D03*
Y210000D02*
D03*
Y218000D02*
D03*
D37*
X360000Y111000D02*
D03*
X352000D02*
D03*
X344000D02*
D03*
X336000D02*
D03*
X328000D02*
D03*
X320000D02*
D03*
X312000D02*
D03*
X304000D02*
D03*
X296000D02*
D03*
X288000D02*
D03*
X280000D02*
D03*
Y229000D02*
D03*
X288000D02*
D03*
X296000D02*
D03*
X304000D02*
D03*
X312000D02*
D03*
X320000D02*
D03*
X328000D02*
D03*
X336000D02*
D03*
X344000D02*
D03*
X352000D02*
D03*
X360000D02*
D03*
D38*
X205000Y145000D02*
D03*
D39*
X220000Y137500D02*
D03*
Y142500D02*
D03*
Y147500D02*
D03*
Y152500D02*
D03*
X190000Y137500D02*
D03*
Y142500D02*
D03*
Y147500D02*
D03*
Y152500D02*
D03*
D40*
X120250Y100000D02*
D03*
X149750D02*
D03*
D41*
X136162Y135500D02*
D03*
D42*
Y145000D02*
D03*
Y154500D02*
D03*
X113838D02*
D03*
Y135500D02*
D03*
D43*
X172050Y140000D02*
D03*
Y150000D02*
D03*
X167950D02*
D03*
Y140000D02*
D03*
D44*
X215000Y22500D02*
D03*
Y7500D02*
D03*
D47*
X252540Y97920D02*
G03*
X252540Y108080I0J5080D01*
G01*
X247460D02*
G03*
X247460Y97920I0J-5080D01*
G01*
X170000Y56500D02*
X170500Y56000D01*
X281000Y209000D02*
X300250Y189750D01*
X280000Y209000D02*
X281000D01*
X239000Y229000D02*
X280000D01*
Y209000D02*
Y229000D01*
X273000Y202000D02*
X280000Y209000D01*
X271000Y202000D02*
X273000D01*
X230000Y238000D02*
Y250500D01*
Y238000D02*
X239000Y229000D01*
X263851Y85755D02*
Y101301D01*
X263846Y101306D02*
X263851Y101301D01*
X262823Y84727D02*
X263851Y85755D01*
X263846Y101306D02*
Y103846D01*
X244920Y100109D02*
X261938Y83092D01*
X263846Y103846D02*
X270500Y110500D01*
X262823Y61173D02*
Y84727D01*
X261800Y60150D02*
Y62454D01*
Y60150D02*
X262823Y61173D01*
X347177Y61173D02*
X348200Y60150D01*
X347177Y61173D02*
Y83977D01*
X346154Y85000D02*
X347177Y83977D01*
X348200Y60150D02*
Y62454D01*
X344754Y65900D02*
X348200Y62454D01*
X337000Y65900D02*
X344754D01*
X261800Y62454D02*
X265246Y65900D01*
X273000D01*
X244920Y100109D02*
Y103000D01*
X320000Y218000D02*
Y229000D01*
X115000Y23233D02*
X182301D01*
X281000Y135000D02*
X293000D01*
X228625Y95625D02*
X229000Y96000D01*
X228625Y94625D02*
Y95625D01*
X217000Y83000D02*
X228625Y94625D01*
X136162Y145000D02*
X136314Y144849D01*
X146664D01*
X150000Y141512D01*
Y134751D02*
Y141512D01*
Y134751D02*
X170000Y114751D01*
Y107000D02*
Y114751D01*
X89625Y144625D02*
X90000Y145000D01*
X89625Y142125D02*
Y144625D01*
X83500Y136000D02*
X89625Y142125D01*
X83500Y135000D02*
Y136000D01*
X90000Y145000D02*
X90375Y145375D01*
Y147877D01*
X97000Y154502D01*
Y155000D01*
X162607Y130393D02*
Y148512D01*
Y130393D02*
X174000Y119000D01*
X194000D01*
X164095Y150000D02*
X167950D01*
X162607Y148512D02*
X164095Y150000D01*
X194000Y119000D02*
X194077Y118923D01*
X234923D01*
X235000Y118846D01*
X257170Y107090D02*
X261000Y110920D01*
X304000Y229000D02*
Y231000D01*
X304730Y231730D01*
X304730D01*
X321233Y248233D01*
X322000D01*
X322500Y65900D02*
Y81500D01*
X326000Y85000D01*
X333846D01*
X292500Y65900D02*
Y78500D01*
X286000Y85000D02*
X292500Y78500D01*
X276154Y85000D02*
X286000D01*
X114233Y36767D02*
X115000D01*
X91500Y59500D02*
X114233Y36767D01*
X91500Y59500D02*
Y73000D01*
X182301Y23233D02*
X183767Y21767D01*
X215000Y22500D02*
Y38233D01*
X136000Y123000D02*
Y135338D01*
X136162Y135500D01*
X250000Y213500D02*
Y214000D01*
X243430Y220570D02*
X250000Y214000D01*
X224935Y220570D02*
X243430D01*
X214366Y210000D02*
X224935Y220570D01*
X203500Y210000D02*
X214366D01*
X230000Y213000D02*
X236570Y206430D01*
X255065D01*
X258634Y210000D01*
X271000D01*
X254500Y218000D02*
X271000D01*
X253230Y216730D02*
X254500Y218000D01*
X252730Y216730D02*
X253230D01*
X250000Y214000D02*
X252730Y216730D01*
X212000Y195000D02*
X230000Y213000D01*
X203500Y195000D02*
X212000D01*
X156154Y180000D02*
X170000D01*
X271000Y170000D02*
X282000D01*
X96500Y135000D02*
X97000Y135500D01*
X113838D01*
X167950Y153950D02*
X173009Y159009D01*
X227220D01*
X167950Y150000D02*
Y153950D01*
X181150Y152500D02*
X190000D01*
X178650Y150000D02*
X181150Y152500D01*
X172050Y150000D02*
X178650D01*
X263000Y130000D02*
X271000D01*
X261000Y128000D02*
X263000Y130000D01*
X261000Y110920D02*
Y128000D01*
X255080Y105000D02*
X257170Y107090D01*
X235000Y118846D02*
X235307Y118539D01*
X249693D01*
X250000Y118233D01*
X257000Y138000D02*
X271000D01*
X250767Y131767D02*
X257000Y138000D01*
X250000Y131767D02*
X250767D01*
X250481Y146000D02*
X271000D01*
X235635Y131154D02*
X250481Y146000D01*
X235000Y131154D02*
X235635D01*
X270923Y153923D02*
X271000Y154000D01*
X250077Y153923D02*
X270923D01*
X250000Y153846D02*
X250077Y153923D01*
X234365Y131154D02*
X235000D01*
X228018Y137500D02*
X234365Y131154D01*
X220000Y137500D02*
X228018D01*
X249365Y153846D02*
X250000D01*
X238018Y142500D02*
X249365Y153846D01*
X220000Y142500D02*
X238018D01*
X247460Y97920D02*
Y108080D01*
X252540Y97920D02*
Y108080D01*
D62*
X333900Y55150D02*
D03*
X276100D02*
D03*
D63*
X348200Y60150D02*
D03*
X261800D02*
D03*
D64*
X348200Y18350D02*
D03*
X261800D02*
D03*
D69*
X185250Y7000D02*
D03*
X144750D02*
D03*
D71*
X339750Y160125D02*
D03*
X320000D02*
D03*
X300250D02*
D03*
X339750Y179875D02*
D03*
X320000D02*
D03*
X300250D02*
D03*
X310125Y150250D02*
D03*
Y170000D02*
D03*
Y189750D02*
D03*
X329875Y150250D02*
D03*
Y170000D02*
D03*
Y189750D02*
D03*
D72*
X30000Y89000D02*
G03*
X30290Y85604I20000J0D01*
G01*
D02*
G03*
X34215Y82300I3939J696D01*
G01*
X47201Y79801D02*
G03*
X44000Y82300I-3201J-801D01*
G01*
X49996Y69013D02*
G03*
X50000Y69000I3872J1003D01*
G01*
X30000Y89000D02*
Y98000D01*
X34215Y82300D02*
X44000D01*
X47201Y79801D02*
X49996Y69013D01*
X170500Y56000D02*
X186000D01*
X337000Y262000D02*
X337498D01*
X339530Y259968D01*
Y259470D02*
Y259968D01*
Y259470D02*
X369500Y229500D01*
Y110500D02*
Y229500D01*
X352500D02*
X369500D01*
X352000Y229000D02*
X352500Y229500D01*
X344000Y214000D02*
Y229000D01*
X245000Y45000D02*
X285513D01*
X212500Y73500D02*
X241000Y45000D01*
X285513D02*
X290513Y50000D01*
X241000Y45000D02*
X245000D01*
X170000Y73500D02*
X212500D01*
X336502Y248000D02*
X337498D01*
X344000Y241498D01*
Y229000D02*
Y241498D01*
X334470Y250032D02*
X336502Y248000D01*
X334470Y250032D02*
Y250064D01*
X322767Y261767D02*
X334470Y250064D01*
X322000Y261767D02*
X322767D01*
X319050Y50000D02*
X328000Y58950D01*
X282000Y58513D02*
X290513Y50000D01*
X319050D01*
X281000Y65900D02*
X282000Y64900D01*
X328000Y58950D02*
Y64900D01*
X282000Y58513D02*
Y64900D01*
X328000D02*
X329000Y65900D01*
X144750Y7000D02*
X185250D01*
X50000Y69000D02*
X112000Y7000D01*
X144750D01*
X125500Y49500D02*
Y75000D01*
Y49500D02*
X139924Y35076D01*
X191924D01*
X202917Y24083D01*
Y19583D02*
Y24083D01*
Y19583D02*
X215000Y7500D01*
X177000Y219000D02*
X192270Y234270D01*
X206270D01*
X177000Y204000D02*
Y219000D01*
Y204000D02*
X186000Y195000D01*
X136162Y154500D02*
X158500D01*
X181470Y177470D01*
X185968D01*
X188000Y179502D02*
Y193500D01*
X185968Y177470D02*
X188000Y179502D01*
X135542Y153880D02*
X136162Y154500D01*
X210000Y238000D02*
Y250500D01*
X206270Y234270D02*
X210000Y238000D01*
X186000Y195000D02*
X186500D01*
X188000Y193500D01*
X83617Y117383D02*
X102717D01*
X75000Y126000D02*
Y146502D01*
Y126000D02*
X83617Y117383D01*
X75000Y146502D02*
X83000Y154502D01*
X102717Y117383D02*
X120100Y100000D01*
X120250D01*
X113297Y154500D02*
X113838D01*
X111800Y155997D02*
X113297Y154500D01*
X111800Y155997D02*
Y161200D01*
X109000Y164000D02*
X111800Y161200D01*
X84488Y164000D02*
X109000D01*
X83000Y162512D02*
X84488Y164000D01*
X83000Y154502D02*
Y162512D01*
X125000Y118000D02*
X135000Y108000D01*
X125000Y118000D02*
Y152000D01*
X135000Y55000D02*
Y108000D01*
X126880Y153880D02*
X135542D01*
X125000Y152000D02*
X126880Y153880D01*
D73*
X91500Y73000D02*
D03*
Y81000D02*
D03*
Y89000D02*
D03*
Y97000D02*
D03*
X58500D02*
D03*
Y89000D02*
D03*
Y81000D02*
D03*
Y73000D02*
D03*
D74*
X75000Y85000D02*
D03*
D75*
X305203Y74855D02*
X307765Y77417D01*
X304673Y74855D02*
X305203D01*
X302795Y72977D02*
X304673Y74855D01*
X302795Y66195D02*
Y72977D01*
X307765Y77417D02*
X312205Y72977D01*
X296975Y79227D02*
X297205Y78997D01*
X288825Y100722D02*
X294770Y94777D01*
Y82559D02*
X296975Y80354D01*
X297205Y66195D02*
Y78997D01*
X294770Y82559D02*
Y94777D01*
X297205Y66195D02*
X297795Y65605D01*
X296975Y79227D02*
Y80354D01*
X307205Y58822D02*
Y60000D01*
X305327Y56945D02*
X307205Y58822D01*
X299673Y56945D02*
X305327D01*
X297795Y58822D02*
X299673Y56945D01*
X297795Y58822D02*
Y65605D01*
X288825Y100722D02*
Y108175D01*
X288000Y109000D02*
X288825Y108175D01*
X288000Y109000D02*
Y111000D01*
X312205Y69745D02*
Y72977D01*
X295175Y103352D02*
X303325Y95203D01*
X295175Y103352D02*
Y108175D01*
X296000Y109000D01*
Y111000D01*
X303325Y81858D02*
X307765Y77417D01*
X303325Y81858D02*
Y95203D01*
D76*
X115000Y184500D02*
X119500Y180000D01*
X143846D01*
X112000Y184500D02*
X115000D01*
X50730Y245770D02*
X112000Y184500D01*
X50730Y245770D02*
Y256270D01*
X41500Y265500D02*
X50730Y256270D01*
X41000Y265500D02*
X41500D01*
X235000Y166154D02*
X250000D01*
X234365D02*
X235000D01*
X227220Y159009D02*
X234365Y166154D01*
X227220Y157470D02*
Y159009D01*
X222250Y152500D02*
X227220Y157470D01*
X220000Y152500D02*
X222250D01*
D77*
X30000Y30000D02*
D03*
X395000D02*
D03*
X30000Y305000D02*
D03*
X395000D02*
D03*
D78*
X22000Y179500D02*
D03*
X14000Y260500D02*
D03*
X186000Y56000D02*
D03*
X344000Y214000D02*
D03*
X245000Y45000D02*
D03*
X194000Y119000D02*
D03*
X30000Y72000D02*
D03*
X156000Y232500D02*
D03*
X170000Y180000D02*
D03*
D79*
X160000Y124751D02*
D03*
X99000Y52000D02*
D03*
X320000Y218000D02*
D03*
X293000Y135000D02*
D03*
X281000D02*
D03*
X229000Y96000D02*
D03*
X217000Y83000D02*
D03*
X90000Y145000D02*
D03*
X230000Y196000D02*
D03*
X250000D02*
D03*
X183767Y21767D02*
D03*
X215000Y51767D02*
D03*
X136000Y123000D02*
D03*
X282000Y170000D02*
D03*
D80*
X80000Y85000D02*
D03*
X70000D02*
D03*
X75000Y78000D02*
D03*
Y92000D02*
D03*
X205000Y145000D02*
D03*
M02*
