M48
;Layer_Color=9474304
;FILE_FORMAT=4:4
METRIC,TZ
;TYPE=PLATED
T01F00S00C0.2000
T02F00S00C0.3000
T03F00S00C0.5000
T04F00S00C0.6000
T06F00S00C2.5000
;TYPE=NON_PLATED
T07F00S00C0.6500
T08F00S00C1.6000
%
T01
X75000Y78000
X80000Y85000
X70000
X75000Y92000
X205000Y145000
T02
X99000Y52000
X136000Y123000
X160000Y124751
X229000Y96000
X217000Y83000
X215000Y51767
X183767Y21767
X281000Y135000
X293000
X300250Y160125
X310125Y150250
X320000Y160125
X339750
X329875Y150250
Y170000
X339750Y179875
X329875Y189750
X320000Y179875
X300250
X310125Y189750
Y170000
X282000
X250000Y196000
X230000
X320000Y218000
X90000Y145000
T03
X30000Y72000
X186000Y56000
X245000Y45000
X194000Y119000
X170000Y180000
X156000Y232500
X344000Y214000
X22000Y179500
X14000Y260500
T04
X144750Y7000
X185250
T06
X30000Y30000
X395000
Y305000
X30000
T07
X276100Y55150
X333900
T08
X33000Y220000
X103000
M30
