M48
;Layer_Color=9474304
;FILE_FORMAT=2:5
INCH,TZ
;TYPE=PLATED
T01F00S00C0.00787
T02F00S00C0.01181
T03F00S00C0.01968
T05F00S00C0.02756
T06F00S00C0.09843
;TYPE=NON_PLATED
T07F00S00C0.02559
T08F00S00C0.05906
%
T01
X41339Y28740
X43307Y31496
X39370
X41339Y34252
X90551Y53150
T02
X84646Y21654
X108268
X109274Y32173
X98425Y51635
X70866Y51181
X71324Y59055
X71653Y72835
X80709Y73425
Y80118
X90551Y86024
Y90551
X100394Y82677
X110236Y84646
X124016Y82677
X120226Y74705
X116339Y70817
X124114
X131890
X128002Y74705
Y66929
X131890Y63041
X128002Y59153
X124114Y63041
X116339
X120226Y59153
Y66929
X98425Y58601
X64961Y86614
X65551Y92520
X124016Y108268
Y135236
X159055Y109646
X43307Y108858
X8268Y134449
T03
X29921Y6299
X41732
X53543
X47638Y18110
X35827
X24016
X6299Y29921
X12205Y41732
X18110Y53543
X29921
X33465Y43307
X47638Y41732
X53543Y29921
X6299Y53543
X59449Y18110
X71260
X65354Y6299
X100787
X112598
X136220
X142126Y18110
X148031Y29921
X159842
X136220
Y53543
X124409
X112598
X94882Y41732
X84646Y64961
X83071Y112598
X71260
X59449
Y136220
X71260
X83071
X88976Y148031
X100787
X112598
X124409
X136220
X148031
X153937Y136220
X159842Y124409
X148031
X142126Y112598
X130315
X118504
Y136220
X130315
X142126Y159842
X148031Y100787
X159842
X136220
Y77165
X77165Y124409
Y148031
X65354
X53543
X41732
X29921
X18110
X24016Y136220
X35827
X29921Y124409
X18110
X6299
X12205Y112598
X6299Y100787
X12205Y88976
X24016
X35827
X47638
X53543Y77165
X41732
X29921
X18110
X6299
X12205Y65354
X24016
X35827
X47638
X35827Y112598
T05
X59252Y118110
Y125984
T06
X11811Y11811
X155512
Y159449
X11811
T07
X98858Y21713
X121614
T08
X125984Y122638
X41339Y121457
M30
