G04*
G04 #@! TF.GenerationSoftware,Altium Limited,Altium Designer,25.2.1 (25)*
G04*
G04 Layer_Color=2752767*
%FSLAX25Y25*%
%MOIN*%
G70*
G04*
G04 #@! TF.SameCoordinates,1F312145-2A38-4454-B551-27999C65A1A9*
G04*
G04*
G04 #@! TF.FilePolarity,Positive*
G04*
G01*
G75*
%ADD78C,0.00500*%
%ADD79C,0.00667*%
%ADD80C,0.00400*%
D78*
X41339Y119457D02*
X42339Y120457D01*
X43339D01*
X42339Y121457D01*
X43339Y122457D01*
X42339D01*
X41339Y123457D01*
X40339Y122457D01*
X39339D01*
X40339Y121457D01*
X39339Y120457D01*
X40339D01*
X41339Y119457D01*
Y120257D02*
X41939Y120857D01*
X42539D01*
X41939Y121457D01*
X42539Y122057D01*
X41939D01*
X41339Y122657D01*
X40739Y122057D01*
X40139D01*
X40739Y121457D01*
X40139Y120857D01*
X40739D01*
X41339Y120257D01*
X93228Y5224D02*
X91228Y9224D01*
X95228D01*
X93228Y5224D01*
X127244D02*
X125244Y9224D01*
X129244D01*
X127244Y5224D01*
X96858Y19713D02*
Y23713D01*
X100858D01*
Y19713D01*
X96858D01*
X119614D02*
Y23713D01*
X123614D01*
Y19713D01*
X119614D01*
X125984Y120638D02*
X126984Y121638D01*
X127984D01*
X126984Y122638D01*
X127984Y123638D01*
X126984D01*
X125984Y124638D01*
X124984Y123638D01*
X123984D01*
X124984Y122638D01*
X123984Y121638D01*
X124984D01*
X125984Y120638D01*
Y121438D02*
X126584Y122038D01*
X127184D01*
X126584Y122638D01*
X127184Y123238D01*
X126584D01*
X125984Y123838D01*
X125384Y123238D01*
X124784D01*
X125384Y122638D01*
X124784Y122038D01*
X125384D01*
X125984Y121438D01*
X57252Y116110D02*
Y120110D01*
X61252D01*
Y116110D01*
X57252D01*
X58052Y116910D02*
Y119310D01*
X60452D01*
Y116910D01*
X58052D01*
X57252Y123984D02*
Y127984D01*
X61252D01*
Y123984D01*
X57252D01*
X58052Y124784D02*
Y127184D01*
X60452D01*
Y124784D01*
X58052D01*
X159842Y122409D02*
X160842Y123409D01*
X161842D01*
X160842Y124409D01*
X161842Y125409D01*
X160842D01*
X159842Y126409D01*
X158842Y125409D01*
X157842D01*
X158842Y124409D01*
X157842Y123409D01*
X158842D01*
X159842Y122409D01*
Y98787D02*
X160842Y99787D01*
X161842D01*
X160842Y100787D01*
X161842Y101787D01*
X160842D01*
X159842Y102787D01*
X158842Y101787D01*
X157842D01*
X158842Y100787D01*
X157842Y99787D01*
X158842D01*
X159842Y98787D01*
Y27921D02*
X160842Y28921D01*
X161842D01*
X160842Y29921D01*
X161842Y30921D01*
X160842D01*
X159842Y31921D01*
X158842Y30921D01*
X157842D01*
X158842Y29921D01*
X157842Y28921D01*
X158842D01*
X159842Y27921D01*
X148031Y146031D02*
X149031Y147031D01*
X150031D01*
X149031Y148031D01*
X150031Y149031D01*
X149031D01*
X148031Y150031D01*
X147031Y149031D01*
X146031D01*
X147031Y148031D01*
X146031Y147031D01*
X147031D01*
X148031Y146031D01*
X153937Y134220D02*
X154937Y135220D01*
X155937D01*
X154937Y136220D01*
X155937Y137220D01*
X154937D01*
X153937Y138220D01*
X152937Y137220D01*
X151937D01*
X152937Y136220D01*
X151937Y135220D01*
X152937D01*
X153937Y134220D01*
X148031Y122409D02*
X149031Y123409D01*
X150031D01*
X149031Y124409D01*
X150031Y125409D01*
X149031D01*
X148031Y126409D01*
X147031Y125409D01*
X146031D01*
X147031Y124409D01*
X146031Y123409D01*
X147031D01*
X148031Y122409D01*
Y98787D02*
X149031Y99787D01*
X150031D01*
X149031Y100787D01*
X150031Y101787D01*
X149031D01*
X148031Y102787D01*
X147031Y101787D01*
X146031D01*
X147031Y100787D01*
X146031Y99787D01*
X147031D01*
X148031Y98787D01*
Y27921D02*
X149031Y28921D01*
X150031D01*
X149031Y29921D01*
X150031Y30921D01*
X149031D01*
X148031Y31921D01*
X147031Y30921D01*
X146031D01*
X147031Y29921D01*
X146031Y28921D01*
X147031D01*
X148031Y27921D01*
X142126Y157842D02*
X143126Y158842D01*
X144126D01*
X143126Y159842D01*
X144126Y160842D01*
X143126D01*
X142126Y161842D01*
X141126Y160842D01*
X140126D01*
X141126Y159842D01*
X140126Y158842D01*
X141126D01*
X142126Y157842D01*
X136220Y146031D02*
X137220Y147031D01*
X138220D01*
X137220Y148031D01*
X138220Y149031D01*
X137220D01*
X136220Y150031D01*
X135220Y149031D01*
X134220D01*
X135220Y148031D01*
X134220Y147031D01*
X135220D01*
X136220Y146031D01*
X142126Y110598D02*
X143126Y111598D01*
X144126D01*
X143126Y112598D01*
X144126Y113598D01*
X143126D01*
X142126Y114598D01*
X141126Y113598D01*
X140126D01*
X141126Y112598D01*
X140126Y111598D01*
X141126D01*
X142126Y110598D01*
X136220Y98787D02*
X137220Y99787D01*
X138220D01*
X137220Y100787D01*
X138220Y101787D01*
X137220D01*
X136220Y102787D01*
X135220Y101787D01*
X134220D01*
X135220Y100787D01*
X134220Y99787D01*
X135220D01*
X136220Y98787D01*
Y75165D02*
X137220Y76165D01*
X138220D01*
X137220Y77165D01*
X138220Y78165D01*
X137220D01*
X136220Y79165D01*
X135220Y78165D01*
X134220D01*
X135220Y77165D01*
X134220Y76165D01*
X135220D01*
X136220Y75165D01*
Y51543D02*
X137220Y52543D01*
X138220D01*
X137220Y53543D01*
X138220Y54543D01*
X137220D01*
X136220Y55543D01*
X135220Y54543D01*
X134220D01*
X135220Y53543D01*
X134220Y52543D01*
X135220D01*
X136220Y51543D01*
Y27921D02*
X137220Y28921D01*
X138220D01*
X137220Y29921D01*
X138220Y30921D01*
X137220D01*
X136220Y31921D01*
X135220Y30921D01*
X134220D01*
X135220Y29921D01*
X134220Y28921D01*
X135220D01*
X136220Y27921D01*
X142126Y16110D02*
X143126Y17110D01*
X144126D01*
X143126Y18110D01*
X144126Y19110D01*
X143126D01*
X142126Y20110D01*
X141126Y19110D01*
X140126D01*
X141126Y18110D01*
X140126Y17110D01*
X141126D01*
X142126Y16110D01*
X136220Y4299D02*
X137220Y5299D01*
X138220D01*
X137220Y6299D01*
X138220Y7299D01*
X137220D01*
X136220Y8299D01*
X135220Y7299D01*
X134220D01*
X135220Y6299D01*
X134220Y5299D01*
X135220D01*
X136220Y4299D01*
X124409Y146031D02*
X125409Y147031D01*
X126409D01*
X125409Y148031D01*
X126409Y149031D01*
X125409D01*
X124409Y150031D01*
X123409Y149031D01*
X122409D01*
X123409Y148031D01*
X122409Y147031D01*
X123409D01*
X124409Y146031D01*
X130315Y134220D02*
X131315Y135220D01*
X132315D01*
X131315Y136220D01*
X132315Y137220D01*
X131315D01*
X130315Y138220D01*
X129315Y137220D01*
X128315D01*
X129315Y136220D01*
X128315Y135220D01*
X129315D01*
X130315Y134220D01*
Y110598D02*
X131315Y111598D01*
X132315D01*
X131315Y112598D01*
X132315Y113598D01*
X131315D01*
X130315Y114598D01*
X129315Y113598D01*
X128315D01*
X129315Y112598D01*
X128315Y111598D01*
X129315D01*
X130315Y110598D01*
X124409Y51543D02*
X125409Y52543D01*
X126409D01*
X125409Y53543D01*
X126409Y54543D01*
X125409D01*
X124409Y55543D01*
X123409Y54543D01*
X122409D01*
X123409Y53543D01*
X122409Y52543D01*
X123409D01*
X124409Y51543D01*
X112598Y146031D02*
X113598Y147031D01*
X114598D01*
X113598Y148031D01*
X114598Y149031D01*
X113598D01*
X112598Y150031D01*
X111598Y149031D01*
X110598D01*
X111598Y148031D01*
X110598Y147031D01*
X111598D01*
X112598Y146031D01*
X118504Y134220D02*
X119504Y135220D01*
X120504D01*
X119504Y136220D01*
X120504Y137220D01*
X119504D01*
X118504Y138220D01*
X117504Y137220D01*
X116504D01*
X117504Y136220D01*
X116504Y135220D01*
X117504D01*
X118504Y134220D01*
Y110598D02*
X119504Y111598D01*
X120504D01*
X119504Y112598D01*
X120504Y113598D01*
X119504D01*
X118504Y114598D01*
X117504Y113598D01*
X116504D01*
X117504Y112598D01*
X116504Y111598D01*
X117504D01*
X118504Y110598D01*
X112598Y51543D02*
X113598Y52543D01*
X114598D01*
X113598Y53543D01*
X114598Y54543D01*
X113598D01*
X112598Y55543D01*
X111598Y54543D01*
X110598D01*
X111598Y53543D01*
X110598Y52543D01*
X111598D01*
X112598Y51543D01*
Y4299D02*
X113598Y5299D01*
X114598D01*
X113598Y6299D01*
X114598Y7299D01*
X113598D01*
X112598Y8299D01*
X111598Y7299D01*
X110598D01*
X111598Y6299D01*
X110598Y5299D01*
X111598D01*
X112598Y4299D01*
X100787Y146031D02*
X101787Y147031D01*
X102787D01*
X101787Y148031D01*
X102787Y149031D01*
X101787D01*
X100787Y150031D01*
X99787Y149031D01*
X98787D01*
X99787Y148031D01*
X98787Y147031D01*
X99787D01*
X100787Y146031D01*
Y4299D02*
X101787Y5299D01*
X102787D01*
X101787Y6299D01*
X102787Y7299D01*
X101787D01*
X100787Y8299D01*
X99787Y7299D01*
X98787D01*
X99787Y6299D01*
X98787Y5299D01*
X99787D01*
X100787Y4299D01*
X88976Y146031D02*
X89976Y147031D01*
X90976D01*
X89976Y148031D01*
X90976Y149031D01*
X89976D01*
X88976Y150031D01*
X87976Y149031D01*
X86976D01*
X87976Y148031D01*
X86976Y147031D01*
X87976D01*
X88976Y146031D01*
X94882Y39732D02*
X95882Y40732D01*
X96882D01*
X95882Y41732D01*
X96882Y42732D01*
X95882D01*
X94882Y43732D01*
X93882Y42732D01*
X92882D01*
X93882Y41732D01*
X92882Y40732D01*
X93882D01*
X94882Y39732D01*
X77165Y146031D02*
X78165Y147031D01*
X79165D01*
X78165Y148031D01*
X79165Y149031D01*
X78165D01*
X77165Y150031D01*
X76165Y149031D01*
X75165D01*
X76165Y148031D01*
X75165Y147031D01*
X76165D01*
X77165Y146031D01*
X83071Y134220D02*
X84071Y135220D01*
X85071D01*
X84071Y136220D01*
X85071Y137220D01*
X84071D01*
X83071Y138220D01*
X82071Y137220D01*
X81071D01*
X82071Y136220D01*
X81071Y135220D01*
X82071D01*
X83071Y134220D01*
X77165Y122409D02*
X78165Y123409D01*
X79165D01*
X78165Y124409D01*
X79165Y125409D01*
X78165D01*
X77165Y126409D01*
X76165Y125409D01*
X75165D01*
X76165Y124409D01*
X75165Y123409D01*
X76165D01*
X77165Y122409D01*
X83071Y110598D02*
X84071Y111598D01*
X85071D01*
X84071Y112598D01*
X85071Y113598D01*
X84071D01*
X83071Y114598D01*
X82071Y113598D01*
X81071D01*
X82071Y112598D01*
X81071Y111598D01*
X82071D01*
X83071Y110598D01*
X65354Y146031D02*
X66354Y147031D01*
X67354D01*
X66354Y148031D01*
X67354Y149031D01*
X66354D01*
X65354Y150031D01*
X64354Y149031D01*
X63354D01*
X64354Y148031D01*
X63354Y147031D01*
X64354D01*
X65354Y146031D01*
X71260Y134220D02*
X72260Y135220D01*
X73260D01*
X72260Y136220D01*
X73260Y137220D01*
X72260D01*
X71260Y138220D01*
X70260Y137220D01*
X69260D01*
X70260Y136220D01*
X69260Y135220D01*
X70260D01*
X71260Y134220D01*
Y110598D02*
X72260Y111598D01*
X73260D01*
X72260Y112598D01*
X73260Y113598D01*
X72260D01*
X71260Y114598D01*
X70260Y113598D01*
X69260D01*
X70260Y112598D01*
X69260Y111598D01*
X70260D01*
X71260Y110598D01*
Y16110D02*
X72260Y17110D01*
X73260D01*
X72260Y18110D01*
X73260Y19110D01*
X72260D01*
X71260Y20110D01*
X70260Y19110D01*
X69260D01*
X70260Y18110D01*
X69260Y17110D01*
X70260D01*
X71260Y16110D01*
X65354Y4299D02*
X66354Y5299D01*
X67354D01*
X66354Y6299D01*
X67354Y7299D01*
X66354D01*
X65354Y8299D01*
X64354Y7299D01*
X63354D01*
X64354Y6299D01*
X63354Y5299D01*
X64354D01*
X65354Y4299D01*
X53543Y146031D02*
X54543Y147031D01*
X55543D01*
X54543Y148031D01*
X55543Y149031D01*
X54543D01*
X53543Y150031D01*
X52543Y149031D01*
X51543D01*
X52543Y148031D01*
X51543Y147031D01*
X52543D01*
X53543Y146031D01*
X59449Y134220D02*
X60449Y135220D01*
X61449D01*
X60449Y136220D01*
X61449Y137220D01*
X60449D01*
X59449Y138220D01*
X58449Y137220D01*
X57449D01*
X58449Y136220D01*
X57449Y135220D01*
X58449D01*
X59449Y134220D01*
Y110598D02*
X60449Y111598D01*
X61449D01*
X60449Y112598D01*
X61449Y113598D01*
X60449D01*
X59449Y114598D01*
X58449Y113598D01*
X57449D01*
X58449Y112598D01*
X57449Y111598D01*
X58449D01*
X59449Y110598D01*
X53543Y75165D02*
X54543Y76165D01*
X55543D01*
X54543Y77165D01*
X55543Y78165D01*
X54543D01*
X53543Y79165D01*
X52543Y78165D01*
X51543D01*
X52543Y77165D01*
X51543Y76165D01*
X52543D01*
X53543Y75165D01*
Y27921D02*
X54543Y28921D01*
X55543D01*
X54543Y29921D01*
X55543Y30921D01*
X54543D01*
X53543Y31921D01*
X52543Y30921D01*
X51543D01*
X52543Y29921D01*
X51543Y28921D01*
X52543D01*
X53543Y27921D01*
X59449Y16110D02*
X60449Y17110D01*
X61449D01*
X60449Y18110D01*
X61449Y19110D01*
X60449D01*
X59449Y20110D01*
X58449Y19110D01*
X57449D01*
X58449Y18110D01*
X57449Y17110D01*
X58449D01*
X59449Y16110D01*
X53543Y4299D02*
X54543Y5299D01*
X55543D01*
X54543Y6299D01*
X55543Y7299D01*
X54543D01*
X53543Y8299D01*
X52543Y7299D01*
X51543D01*
X52543Y6299D01*
X51543Y5299D01*
X52543D01*
X53543Y4299D01*
X41732Y146031D02*
X42732Y147031D01*
X43732D01*
X42732Y148031D01*
X43732Y149031D01*
X42732D01*
X41732Y150031D01*
X40732Y149031D01*
X39732D01*
X40732Y148031D01*
X39732Y147031D01*
X40732D01*
X41732Y146031D01*
X47638Y86976D02*
X48638Y87976D01*
X49638D01*
X48638Y88976D01*
X49638Y89976D01*
X48638D01*
X47638Y90976D01*
X46638Y89976D01*
X45638D01*
X46638Y88976D01*
X45638Y87976D01*
X46638D01*
X47638Y86976D01*
X41732Y75165D02*
X42732Y76165D01*
X43732D01*
X42732Y77165D01*
X43732Y78165D01*
X42732D01*
X41732Y79165D01*
X40732Y78165D01*
X39732D01*
X40732Y77165D01*
X39732Y76165D01*
X40732D01*
X41732Y75165D01*
X47638Y63354D02*
X48638Y64354D01*
X49638D01*
X48638Y65354D01*
X49638Y66354D01*
X48638D01*
X47638Y67354D01*
X46638Y66354D01*
X45638D01*
X46638Y65354D01*
X45638Y64354D01*
X46638D01*
X47638Y63354D01*
Y39732D02*
X48638Y40732D01*
X49638D01*
X48638Y41732D01*
X49638Y42732D01*
X48638D01*
X47638Y43732D01*
X46638Y42732D01*
X45638D01*
X46638Y41732D01*
X45638Y40732D01*
X46638D01*
X47638Y39732D01*
Y16110D02*
X48638Y17110D01*
X49638D01*
X48638Y18110D01*
X49638Y19110D01*
X48638D01*
X47638Y20110D01*
X46638Y19110D01*
X45638D01*
X46638Y18110D01*
X45638Y17110D01*
X46638D01*
X47638Y16110D01*
X41732Y4299D02*
X42732Y5299D01*
X43732D01*
X42732Y6299D01*
X43732Y7299D01*
X42732D01*
X41732Y8299D01*
X40732Y7299D01*
X39732D01*
X40732Y6299D01*
X39732Y5299D01*
X40732D01*
X41732Y4299D01*
X29921Y146031D02*
X30921Y147031D01*
X31921D01*
X30921Y148031D01*
X31921Y149031D01*
X30921D01*
X29921Y150031D01*
X28921Y149031D01*
X27921D01*
X28921Y148031D01*
X27921Y147031D01*
X28921D01*
X29921Y146031D01*
X35827Y134220D02*
X36827Y135220D01*
X37827D01*
X36827Y136220D01*
X37827Y137220D01*
X36827D01*
X35827Y138220D01*
X34827Y137220D01*
X33827D01*
X34827Y136220D01*
X33827Y135220D01*
X34827D01*
X35827Y134220D01*
X29921Y122409D02*
X30921Y123409D01*
X31921D01*
X30921Y124409D01*
X31921Y125409D01*
X30921D01*
X29921Y126409D01*
X28921Y125409D01*
X27921D01*
X28921Y124409D01*
X27921Y123409D01*
X28921D01*
X29921Y122409D01*
X35827Y110598D02*
X36827Y111598D01*
X37827D01*
X36827Y112598D01*
X37827Y113598D01*
X36827D01*
X35827Y114598D01*
X34827Y113598D01*
X33827D01*
X34827Y112598D01*
X33827Y111598D01*
X34827D01*
X35827Y110598D01*
Y86976D02*
X36827Y87976D01*
X37827D01*
X36827Y88976D01*
X37827Y89976D01*
X36827D01*
X35827Y90976D01*
X34827Y89976D01*
X33827D01*
X34827Y88976D01*
X33827Y87976D01*
X34827D01*
X35827Y86976D01*
X29921Y75165D02*
X30921Y76165D01*
X31921D01*
X30921Y77165D01*
X31921Y78165D01*
X30921D01*
X29921Y79165D01*
X28921Y78165D01*
X27921D01*
X28921Y77165D01*
X27921Y76165D01*
X28921D01*
X29921Y75165D01*
X35827Y63354D02*
X36827Y64354D01*
X37827D01*
X36827Y65354D01*
X37827Y66354D01*
X36827D01*
X35827Y67354D01*
X34827Y66354D01*
X33827D01*
X34827Y65354D01*
X33827Y64354D01*
X34827D01*
X35827Y63354D01*
X29921Y51543D02*
X30921Y52543D01*
X31921D01*
X30921Y53543D01*
X31921Y54543D01*
X30921D01*
X29921Y55543D01*
X28921Y54543D01*
X27921D01*
X28921Y53543D01*
X27921Y52543D01*
X28921D01*
X29921Y51543D01*
X35827Y16110D02*
X36827Y17110D01*
X37827D01*
X36827Y18110D01*
X37827Y19110D01*
X36827D01*
X35827Y20110D01*
X34827Y19110D01*
X33827D01*
X34827Y18110D01*
X33827Y17110D01*
X34827D01*
X35827Y16110D01*
X29921Y4299D02*
X30921Y5299D01*
X31921D01*
X30921Y6299D01*
X31921Y7299D01*
X30921D01*
X29921Y8299D01*
X28921Y7299D01*
X27921D01*
X28921Y6299D01*
X27921Y5299D01*
X28921D01*
X29921Y4299D01*
X18110Y146031D02*
X19110Y147031D01*
X20110D01*
X19110Y148031D01*
X20110Y149031D01*
X19110D01*
X18110Y150031D01*
X17110Y149031D01*
X16110D01*
X17110Y148031D01*
X16110Y147031D01*
X17110D01*
X18110Y146031D01*
X24016Y134220D02*
X25016Y135220D01*
X26016D01*
X25016Y136220D01*
X26016Y137220D01*
X25016D01*
X24016Y138220D01*
X23016Y137220D01*
X22016D01*
X23016Y136220D01*
X22016Y135220D01*
X23016D01*
X24016Y134220D01*
X18110Y122409D02*
X19110Y123409D01*
X20110D01*
X19110Y124409D01*
X20110Y125409D01*
X19110D01*
X18110Y126409D01*
X17110Y125409D01*
X16110D01*
X17110Y124409D01*
X16110Y123409D01*
X17110D01*
X18110Y122409D01*
X24016Y86976D02*
X25016Y87976D01*
X26016D01*
X25016Y88976D01*
X26016Y89976D01*
X25016D01*
X24016Y90976D01*
X23016Y89976D01*
X22016D01*
X23016Y88976D01*
X22016Y87976D01*
X23016D01*
X24016Y86976D01*
X18110Y75165D02*
X19110Y76165D01*
X20110D01*
X19110Y77165D01*
X20110Y78165D01*
X19110D01*
X18110Y79165D01*
X17110Y78165D01*
X16110D01*
X17110Y77165D01*
X16110Y76165D01*
X17110D01*
X18110Y75165D01*
X24016Y63354D02*
X25016Y64354D01*
X26016D01*
X25016Y65354D01*
X26016Y66354D01*
X25016D01*
X24016Y67354D01*
X23016Y66354D01*
X22016D01*
X23016Y65354D01*
X22016Y64354D01*
X23016D01*
X24016Y63354D01*
X18110Y51543D02*
X19110Y52543D01*
X20110D01*
X19110Y53543D01*
X20110Y54543D01*
X19110D01*
X18110Y55543D01*
X17110Y54543D01*
X16110D01*
X17110Y53543D01*
X16110Y52543D01*
X17110D01*
X18110Y51543D01*
X24016Y16110D02*
X25016Y17110D01*
X26016D01*
X25016Y18110D01*
X26016Y19110D01*
X25016D01*
X24016Y20110D01*
X23016Y19110D01*
X22016D01*
X23016Y18110D01*
X22016Y17110D01*
X23016D01*
X24016Y16110D01*
X6299Y122409D02*
X7299Y123409D01*
X8299D01*
X7299Y124409D01*
X8299Y125409D01*
X7299D01*
X6299Y126409D01*
X5299Y125409D01*
X4299D01*
X5299Y124409D01*
X4299Y123409D01*
X5299D01*
X6299Y122409D01*
X12205Y110598D02*
X13205Y111598D01*
X14205D01*
X13205Y112598D01*
X14205Y113598D01*
X13205D01*
X12205Y114598D01*
X11205Y113598D01*
X10205D01*
X11205Y112598D01*
X10205Y111598D01*
X11205D01*
X12205Y110598D01*
X6299Y98787D02*
X7299Y99787D01*
X8299D01*
X7299Y100787D01*
X8299Y101787D01*
X7299D01*
X6299Y102787D01*
X5299Y101787D01*
X4299D01*
X5299Y100787D01*
X4299Y99787D01*
X5299D01*
X6299Y98787D01*
X12205Y86976D02*
X13205Y87976D01*
X14205D01*
X13205Y88976D01*
X14205Y89976D01*
X13205D01*
X12205Y90976D01*
X11205Y89976D01*
X10205D01*
X11205Y88976D01*
X10205Y87976D01*
X11205D01*
X12205Y86976D01*
X6299Y75165D02*
X7299Y76165D01*
X8299D01*
X7299Y77165D01*
X8299Y78165D01*
X7299D01*
X6299Y79165D01*
X5299Y78165D01*
X4299D01*
X5299Y77165D01*
X4299Y76165D01*
X5299D01*
X6299Y75165D01*
X12205Y63354D02*
X13205Y64354D01*
X14205D01*
X13205Y65354D01*
X14205Y66354D01*
X13205D01*
X12205Y67354D01*
X11205Y66354D01*
X10205D01*
X11205Y65354D01*
X10205Y64354D01*
X11205D01*
X12205Y63354D01*
X6299Y51543D02*
X7299Y52543D01*
X8299D01*
X7299Y53543D01*
X8299Y54543D01*
X7299D01*
X6299Y55543D01*
X5299Y54543D01*
X4299D01*
X5299Y53543D01*
X4299Y52543D01*
X5299D01*
X6299Y51543D01*
X12205Y39732D02*
X13205Y40732D01*
X14205D01*
X13205Y41732D01*
X14205Y42732D01*
X13205D01*
X12205Y43732D01*
X11205Y42732D01*
X10205D01*
X11205Y41732D01*
X10205Y40732D01*
X11205D01*
X12205Y39732D01*
X6299Y27921D02*
X7299Y28921D01*
X8299D01*
X7299Y29921D01*
X8299Y30921D01*
X7299D01*
X6299Y31921D01*
X5299Y30921D01*
X4299D01*
X5299Y29921D01*
X4299Y28921D01*
X5299D01*
X6299Y27921D01*
X108274Y31172D02*
Y30173D01*
X110274D01*
Y31172D01*
X111274D01*
Y33173D01*
X110274D01*
Y34172D01*
X108274D01*
Y33173D01*
X107274D01*
Y31172D01*
X108274D01*
X107268Y20653D02*
Y19654D01*
X109268D01*
Y20653D01*
X110268D01*
Y22654D01*
X109268D01*
Y23653D01*
X107268D01*
Y22654D01*
X106268D01*
Y20653D01*
X107268D01*
X64551Y91520D02*
Y90520D01*
X66551D01*
Y91520D01*
X67551D01*
Y93520D01*
X66551D01*
Y94520D01*
X64551D01*
Y93520D01*
X63551D01*
Y91520D01*
X64551D01*
X79709Y72425D02*
Y71425D01*
X81709D01*
Y72425D01*
X82709D01*
Y74425D01*
X81709D01*
Y75425D01*
X79709D01*
Y74425D01*
X78709D01*
Y72425D01*
X79709D01*
X70653Y71835D02*
Y70835D01*
X72654D01*
Y71835D01*
X73654D01*
Y73835D01*
X72654D01*
Y74835D01*
X70653D01*
Y73835D01*
X69653D01*
Y71835D01*
X70653D01*
X70324Y58055D02*
Y57055D01*
X72324D01*
Y58055D01*
X73324D01*
Y60055D01*
X72324D01*
Y61055D01*
X70324D01*
Y60055D01*
X69324D01*
Y58055D01*
X70324D01*
X158055Y108646D02*
Y107646D01*
X160055D01*
Y108646D01*
X161055D01*
Y110646D01*
X160055D01*
Y111646D01*
X158055D01*
Y110646D01*
X157055D01*
Y108646D01*
X158055D01*
X123016Y134236D02*
Y133236D01*
X125016D01*
Y134236D01*
X126016D01*
Y136236D01*
X125016D01*
Y137236D01*
X123016D01*
Y136236D01*
X122016D01*
Y134236D01*
X123016D01*
X7268Y133449D02*
Y132449D01*
X9268D01*
Y133449D01*
X10268D01*
Y135449D01*
X9268D01*
Y136449D01*
X7268D01*
Y135449D01*
X6268D01*
Y133449D01*
X7268D01*
X42307Y107858D02*
Y106858D01*
X44307D01*
Y107858D01*
X45307D01*
Y109858D01*
X44307D01*
Y110858D01*
X42307D01*
Y109858D01*
X41307D01*
Y107858D01*
X42307D01*
X109236Y83646D02*
Y82646D01*
X111236D01*
Y83646D01*
X112236D01*
Y85646D01*
X111236D01*
Y86646D01*
X109236D01*
Y85646D01*
X108236D01*
Y83646D01*
X109236D01*
X89551Y85024D02*
Y84024D01*
X91551D01*
Y85024D01*
X92551D01*
Y87024D01*
X91551D01*
Y88024D01*
X89551D01*
Y87024D01*
X88551D01*
Y85024D01*
X89551D01*
X63961Y85614D02*
Y84614D01*
X65961D01*
Y85614D01*
X66961D01*
Y87614D01*
X65961D01*
Y88614D01*
X63961D01*
Y87614D01*
X62961D01*
Y85614D01*
X63961D01*
X89551Y89551D02*
Y88551D01*
X91551D01*
Y89551D01*
X92551D01*
Y91551D01*
X91551D01*
Y92551D01*
X89551D01*
Y91551D01*
X88551D01*
Y89551D01*
X89551D01*
X123016Y107268D02*
Y106268D01*
X125016D01*
Y107268D01*
X126016D01*
Y109268D01*
X125016D01*
Y110268D01*
X123016D01*
Y109268D01*
X122016D01*
Y107268D01*
X123016D01*
Y81677D02*
Y80677D01*
X125016D01*
Y81677D01*
X126016D01*
Y83677D01*
X125016D01*
Y84677D01*
X123016D01*
Y83677D01*
X122016D01*
Y81677D01*
X123016D01*
X69866Y50181D02*
Y49181D01*
X71866D01*
Y50181D01*
X72866D01*
Y52181D01*
X71866D01*
Y53181D01*
X69866D01*
Y52181D01*
X68866D01*
Y50181D01*
X69866D01*
X83646Y20653D02*
Y19654D01*
X85646D01*
Y20653D01*
X86646D01*
Y22654D01*
X85646D01*
Y23653D01*
X83646D01*
Y22654D01*
X82646D01*
Y20653D01*
X83646D01*
X79709Y79118D02*
Y78118D01*
X81709D01*
Y79118D01*
X82709D01*
Y81118D01*
X81709D01*
Y82118D01*
X79709D01*
Y81118D01*
X78709D01*
Y79118D01*
X79709D01*
X99394Y81677D02*
Y80677D01*
X101394D01*
Y81677D01*
X102394D01*
Y83677D01*
X101394D01*
Y84677D01*
X99394D01*
Y83677D01*
X98394D01*
Y81677D01*
X99394D01*
X97425Y57601D02*
Y56601D01*
X99425D01*
Y57601D01*
X100425D01*
Y59601D01*
X99425D01*
Y60601D01*
X97425D01*
Y59601D01*
X96425D01*
Y57601D01*
X97425D01*
Y50635D02*
Y49635D01*
X99425D01*
Y50635D01*
X100425D01*
Y52635D01*
X99425D01*
Y53635D01*
X97425D01*
Y52635D01*
X96425D01*
Y50635D01*
X97425D01*
X33465Y41307D02*
X34465Y42307D01*
X35465D01*
X34465Y43307D01*
X35465Y44307D01*
X34465D01*
X33465Y45307D01*
X32465Y44307D01*
X31465D01*
X32465Y43307D01*
X31465Y42307D01*
X32465D01*
X33465Y41307D01*
X84646Y62961D02*
X85646Y63961D01*
X86646D01*
X85646Y64961D01*
X86646Y65961D01*
X85646D01*
X84646Y66961D01*
X83646Y65961D01*
X82646D01*
X83646Y64961D01*
X82646Y63961D01*
X83646D01*
X84646Y62961D01*
X41307Y29496D02*
X42307Y31496D01*
X41307Y33496D01*
X43307Y32496D01*
X45307Y33496D01*
X44307Y31496D01*
X45307Y29496D01*
X43307Y30496D01*
X41307Y29496D01*
X37370D02*
X38370Y31496D01*
X37370Y33496D01*
X39370Y32496D01*
X41370Y33496D01*
X40370Y31496D01*
X41370Y29496D01*
X39370Y30496D01*
X37370Y29496D01*
X39339Y26740D02*
X40339Y28740D01*
X39339Y30740D01*
X41339Y29740D01*
X43339Y30740D01*
X42339Y28740D01*
X43339Y26740D01*
X41339Y27740D01*
X39339Y26740D01*
Y32252D02*
X40339Y34252D01*
X39339Y36252D01*
X41339Y35252D01*
X43339Y36252D01*
X42339Y34252D01*
X43339Y32252D01*
X41339Y33252D01*
X39339Y32252D01*
X130890Y62041D02*
Y61041D01*
X132890D01*
Y62041D01*
X133890D01*
Y64041D01*
X132890D01*
Y65041D01*
X130890D01*
Y64041D01*
X129890D01*
Y62041D01*
X130890D01*
X123114D02*
Y61041D01*
X125114D01*
Y62041D01*
X126114D01*
Y64041D01*
X125114D01*
Y65041D01*
X123114D01*
Y64041D01*
X122114D01*
Y62041D01*
X123114D01*
X115339D02*
Y61041D01*
X117339D01*
Y62041D01*
X118339D01*
Y64041D01*
X117339D01*
Y65041D01*
X115339D01*
Y64041D01*
X114339D01*
Y62041D01*
X115339D01*
X130890Y69817D02*
Y68817D01*
X132890D01*
Y69817D01*
X133890D01*
Y71817D01*
X132890D01*
Y72817D01*
X130890D01*
Y71817D01*
X129890D01*
Y69817D01*
X130890D01*
X123114D02*
Y68817D01*
X125114D01*
Y69817D01*
X126114D01*
Y71817D01*
X125114D01*
Y72817D01*
X123114D01*
Y71817D01*
X122114D01*
Y69817D01*
X123114D01*
X115339D02*
Y68817D01*
X117339D01*
Y69817D01*
X118339D01*
Y71817D01*
X117339D01*
Y72817D01*
X115339D01*
Y71817D01*
X114339D01*
Y69817D01*
X115339D01*
X119226Y58153D02*
Y57153D01*
X121226D01*
Y58153D01*
X122226D01*
Y60154D01*
X121226D01*
Y61154D01*
X119226D01*
Y60154D01*
X118226D01*
Y58153D01*
X119226D01*
Y65929D02*
Y64929D01*
X121226D01*
Y65929D01*
X122226D01*
Y67929D01*
X121226D01*
Y68929D01*
X119226D01*
Y67929D01*
X118226D01*
Y65929D01*
X119226D01*
Y73705D02*
Y72705D01*
X121226D01*
Y73705D01*
X122226D01*
Y75705D01*
X121226D01*
Y76705D01*
X119226D01*
Y75705D01*
X118226D01*
Y73705D01*
X119226D01*
X127002Y58153D02*
Y57153D01*
X129002D01*
Y58153D01*
X130002D01*
Y60154D01*
X129002D01*
Y61154D01*
X127002D01*
Y60154D01*
X126002D01*
Y58153D01*
X127002D01*
Y65929D02*
Y64929D01*
X129002D01*
Y65929D01*
X130002D01*
Y67929D01*
X129002D01*
Y68929D01*
X127002D01*
Y67929D01*
X126002D01*
Y65929D01*
X127002D01*
Y73705D02*
Y72705D01*
X129002D01*
Y73705D01*
X130002D01*
Y75705D01*
X129002D01*
Y76705D01*
X127002D01*
Y75705D01*
X126002D01*
Y73705D01*
X127002D01*
X88551Y51150D02*
X89551Y53150D01*
X88551Y55150D01*
X90551Y54150D01*
X92551Y55150D01*
X91551Y53150D01*
X92551Y51150D01*
X90551Y52150D01*
X88551Y51150D01*
D79*
X95228Y23681D02*
G03*
X95228Y23681I-2000J0D01*
G01*
X129244D02*
G03*
X129244Y23681I-2000J0D01*
G01*
X13811Y11811D02*
G03*
X13811Y11811I-2000J0D01*
G01*
X157512D02*
G03*
X157512Y11811I-2000J0D01*
G01*
X13811Y159449D02*
G03*
X13811Y159449I-2000J0D01*
G01*
X157512D02*
G03*
X157512Y159449I-2000J0D01*
G01*
D80*
X13011Y11811D02*
G03*
X13011Y11811I-1200J0D01*
G01*
X156712D02*
G03*
X156712Y11811I-1200J0D01*
G01*
X13011Y159449D02*
G03*
X13011Y159449I-1200J0D01*
G01*
X156712D02*
G03*
X156712Y159449I-1200J0D01*
G01*
M02*
