G04*
G04 #@! TF.GenerationSoftware,Altium Limited,Altium Designer,25.2.1 (25)*
G04*
G04 Layer_Color=16711935*
%FSLAX25Y25*%
%MOIN*%
G70*
G04*
G04 #@! TF.SameCoordinates,1F312145-2A38-4454-B551-27999C65A1A9*
G04*
G04*
G04 #@! TF.FilePolarity,Positive*
G04*
G01*
G75*
%ADD65C,0.01000*%
%ADD74C,0.00591*%
D65*
X110236Y104331D02*
G03*
X114173Y108268I0J3937D01*
G01*
X90551D02*
G03*
X94488Y104331I3937J0D01*
G01*
Y139764D02*
G03*
X90551Y135827I0J-3937D01*
G01*
X114173D02*
G03*
X110236Y139764I-3937J0D01*
G01*
X157480Y0D02*
G03*
X167323Y9843I0J9843D01*
G01*
X167372Y161417D02*
G03*
X157480Y171309I-9892J0D01*
G01*
X9843D02*
G03*
X-49Y161417I0J-9892D01*
G01*
X49Y8863D02*
G03*
X9843Y0I9794J979D01*
G01*
X94488Y139764D02*
X110236D01*
X90551Y108268D02*
Y135827D01*
X114173Y108268D02*
Y135827D01*
X94488Y104331D02*
X110236D01*
X49Y8863D02*
Y161319D01*
X167372Y9892D02*
Y161417D01*
X9843Y171309D02*
X157480D01*
X9843Y0D02*
X157480D01*
D74*
X47339Y31348D02*
Y33971D01*
X46814Y34496D01*
X45764D01*
X45239Y33971D01*
Y31348D01*
X44190Y34496D02*
X43141D01*
X43665D01*
Y31348D01*
X44190Y31872D01*
M02*
