G04*
G04 #@! TF.GenerationSoftware,Altium Limited,Altium Designer,25.2.1 (25)*
G04*
G04 Layer_Color=32768*
%FSLAX25Y25*%
%MOIN*%
G70*
G04*
G04 #@! TF.SameCoordinates,1F312145-2A38-4454-B551-27999C65A1A9*
G04*
G04*
G04 #@! TF.FilePolarity,Positive*
G04*
G01*
G75*
G36*
X37087Y62054D02*
X37107Y62052D01*
X37130Y62050D01*
X37156Y62046D01*
X37183Y62043D01*
X37242Y62029D01*
X37273Y62019D01*
X37307Y62007D01*
X37338Y61994D01*
X37369Y61980D01*
X37401Y61960D01*
X37430Y61941D01*
X37432Y61939D01*
X37436Y61935D01*
X37446Y61929D01*
X37456Y61919D01*
X37468Y61907D01*
X37483Y61894D01*
X37499Y61876D01*
X37516Y61856D01*
X37534Y61835D01*
X37552Y61811D01*
X37569Y61784D01*
X37587Y61756D01*
X37605Y61725D01*
X37620Y61692D01*
X37636Y61655D01*
X37648Y61617D01*
X37452Y61570D01*
Y61572D01*
X37450Y61578D01*
X37446Y61586D01*
X37442Y61598D01*
X37436Y61611D01*
X37430Y61627D01*
X37413Y61662D01*
X37391Y61702D01*
X37366Y61741D01*
X37334Y61778D01*
X37317Y61794D01*
X37299Y61809D01*
X37297D01*
X37295Y61813D01*
X37289Y61817D01*
X37281Y61821D01*
X37271Y61827D01*
X37260Y61833D01*
X37230Y61849D01*
X37193Y61862D01*
X37150Y61874D01*
X37101Y61882D01*
X37046Y61886D01*
X37029D01*
X37017Y61884D01*
X37003D01*
X36985Y61882D01*
X36966Y61878D01*
X36944Y61876D01*
X36899Y61866D01*
X36850Y61851D01*
X36801Y61829D01*
X36778Y61817D01*
X36754Y61801D01*
X36752D01*
X36748Y61798D01*
X36742Y61794D01*
X36735Y61786D01*
X36715Y61768D01*
X36691Y61743D01*
X36664Y61711D01*
X36636Y61672D01*
X36611Y61629D01*
X36591Y61578D01*
Y61576D01*
X36590Y61572D01*
X36588Y61564D01*
X36584Y61555D01*
X36580Y61541D01*
X36576Y61525D01*
X36572Y61507D01*
X36568Y61490D01*
X36560Y61445D01*
X36552Y61396D01*
X36546Y61343D01*
X36544Y61288D01*
Y61286D01*
Y61280D01*
Y61270D01*
Y61257D01*
X36546Y61239D01*
X36548Y61219D01*
Y61198D01*
X36552Y61174D01*
X36558Y61121D01*
X36568Y61067D01*
X36582Y61008D01*
X36599Y60953D01*
Y60951D01*
X36601Y60947D01*
X36605Y60939D01*
X36611Y60929D01*
X36617Y60918D01*
X36623Y60904D01*
X36642Y60873D01*
X36668Y60837D01*
X36697Y60802D01*
X36733Y60769D01*
X36774Y60739D01*
X36776D01*
X36780Y60735D01*
X36786Y60733D01*
X36795Y60728D01*
X36805Y60724D01*
X36819Y60718D01*
X36850Y60704D01*
X36889Y60690D01*
X36933Y60680D01*
X36979Y60673D01*
X37031Y60669D01*
X37046D01*
X37058Y60671D01*
X37074Y60673D01*
X37089Y60675D01*
X37109Y60676D01*
X37128Y60680D01*
X37174Y60692D01*
X37221Y60710D01*
X37246Y60720D01*
X37270Y60733D01*
X37293Y60747D01*
X37315Y60765D01*
X37317Y60767D01*
X37321Y60769D01*
X37326Y60774D01*
X37334Y60782D01*
X37342Y60792D01*
X37354Y60806D01*
X37366Y60820D01*
X37377Y60837D01*
X37391Y60855D01*
X37405Y60876D01*
X37417Y60900D01*
X37430Y60925D01*
X37442Y60955D01*
X37454Y60984D01*
X37464Y61016D01*
X37473Y61051D01*
X37673Y61000D01*
Y60998D01*
X37669Y60990D01*
X37666Y60976D01*
X37662Y60959D01*
X37654Y60939D01*
X37644Y60916D01*
X37634Y60890D01*
X37620Y60861D01*
X37607Y60831D01*
X37589Y60800D01*
X37571Y60771D01*
X37550Y60739D01*
X37528Y60708D01*
X37503Y60678D01*
X37475Y60651D01*
X37446Y60625D01*
X37444Y60624D01*
X37438Y60620D01*
X37430Y60614D01*
X37417Y60606D01*
X37401Y60596D01*
X37381Y60584D01*
X37360Y60575D01*
X37336Y60563D01*
X37307Y60549D01*
X37277Y60539D01*
X37244Y60527D01*
X37209Y60518D01*
X37172Y60510D01*
X37132Y60504D01*
X37091Y60500D01*
X37048Y60498D01*
X37025D01*
X37007Y60500D01*
X36987Y60502D01*
X36962Y60504D01*
X36936Y60506D01*
X36907Y60510D01*
X36844Y60522D01*
X36778Y60539D01*
X36744Y60551D01*
X36711Y60565D01*
X36680Y60579D01*
X36650Y60596D01*
X36648Y60598D01*
X36644Y60600D01*
X36636Y60606D01*
X36625Y60616D01*
X36613Y60625D01*
X36597Y60637D01*
X36582Y60653D01*
X36564Y60671D01*
X36544Y60688D01*
X36527Y60710D01*
X36507Y60733D01*
X36487Y60761D01*
X36468Y60788D01*
X36450Y60818D01*
X36433Y60851D01*
X36417Y60884D01*
Y60886D01*
X36413Y60892D01*
X36409Y60904D01*
X36405Y60918D01*
X36399Y60935D01*
X36391Y60955D01*
X36386Y60978D01*
X36378Y61006D01*
X36370Y61035D01*
X36364Y61067D01*
X36356Y61100D01*
X36350Y61133D01*
X36342Y61210D01*
X36339Y61288D01*
Y61290D01*
Y61298D01*
Y61312D01*
X36340Y61327D01*
Y61349D01*
X36342Y61372D01*
X36346Y61398D01*
X36350Y61427D01*
X36354Y61458D01*
X36360Y61492D01*
X36376Y61560D01*
X36397Y61629D01*
X36411Y61664D01*
X36427Y61698D01*
X36429Y61700D01*
X36431Y61705D01*
X36437Y61715D01*
X36444Y61727D01*
X36452Y61741D01*
X36464Y61758D01*
X36478Y61776D01*
X36493Y61798D01*
X36529Y61841D01*
X36574Y61884D01*
X36625Y61927D01*
X36654Y61947D01*
X36683Y61964D01*
X36685Y61966D01*
X36691Y61968D01*
X36701Y61972D01*
X36713Y61978D01*
X36729Y61986D01*
X36746Y61994D01*
X36768Y62002D01*
X36791Y62011D01*
X36819Y62019D01*
X36846Y62027D01*
X36909Y62043D01*
X36977Y62052D01*
X37013Y62056D01*
X37072D01*
X37087Y62054D01*
D02*
G37*
G36*
X38771Y61835D02*
X38169D01*
X38089Y61427D01*
X38091Y61429D01*
X38095Y61431D01*
X38103Y61437D01*
X38112Y61443D01*
X38124Y61449D01*
X38140Y61458D01*
X38155Y61466D01*
X38175Y61476D01*
X38218Y61494D01*
X38265Y61507D01*
X38318Y61519D01*
X38346Y61521D01*
X38373Y61523D01*
X38393D01*
X38406Y61521D01*
X38422Y61519D01*
X38442Y61515D01*
X38463Y61511D01*
X38489Y61506D01*
X38514Y61500D01*
X38540Y61490D01*
X38567Y61478D01*
X38596Y61466D01*
X38624Y61449D01*
X38651Y61431D01*
X38679Y61409D01*
X38704Y61386D01*
X38706Y61384D01*
X38710Y61380D01*
X38716Y61372D01*
X38726Y61361D01*
X38736Y61347D01*
X38747Y61331D01*
X38761Y61312D01*
X38773Y61290D01*
X38787Y61266D01*
X38798Y61239D01*
X38810Y61212D01*
X38820Y61180D01*
X38830Y61145D01*
X38836Y61110D01*
X38840Y61072D01*
X38842Y61033D01*
Y61031D01*
Y61023D01*
Y61014D01*
X38840Y61000D01*
X38838Y60982D01*
X38836Y60961D01*
X38832Y60937D01*
X38826Y60914D01*
X38812Y60857D01*
X38802Y60827D01*
X38791Y60798D01*
X38777Y60769D01*
X38761Y60739D01*
X38743Y60710D01*
X38722Y60680D01*
X38720Y60678D01*
X38716Y60673D01*
X38706Y60663D01*
X38695Y60653D01*
X38681Y60637D01*
X38663Y60624D01*
X38642Y60606D01*
X38618Y60590D01*
X38591Y60573D01*
X38561Y60555D01*
X38530Y60541D01*
X38495Y60527D01*
X38455Y60516D01*
X38414Y60506D01*
X38371Y60500D01*
X38326Y60498D01*
X38306D01*
X38293Y60500D01*
X38275Y60502D01*
X38254Y60504D01*
X38232Y60508D01*
X38206Y60512D01*
X38153Y60526D01*
X38126Y60535D01*
X38099Y60547D01*
X38069Y60559D01*
X38042Y60575D01*
X38016Y60592D01*
X37991Y60612D01*
X37989Y60614D01*
X37985Y60618D01*
X37979Y60624D01*
X37971Y60633D01*
X37960Y60645D01*
X37950Y60659D01*
X37936Y60675D01*
X37924Y60694D01*
X37911Y60714D01*
X37899Y60737D01*
X37885Y60763D01*
X37875Y60790D01*
X37863Y60820D01*
X37856Y60849D01*
X37848Y60882D01*
X37844Y60918D01*
X38038Y60931D01*
Y60929D01*
X38040Y60925D01*
Y60918D01*
X38042Y60908D01*
X38046Y60896D01*
X38050Y60882D01*
X38058Y60853D01*
X38071Y60818D01*
X38089Y60782D01*
X38110Y60749D01*
X38136Y60720D01*
X38140Y60718D01*
X38150Y60710D01*
X38167Y60698D01*
X38189Y60686D01*
X38216Y60673D01*
X38250Y60663D01*
X38285Y60655D01*
X38326Y60651D01*
X38340D01*
X38350Y60653D01*
X38359Y60655D01*
X38373Y60657D01*
X38404Y60663D01*
X38442Y60675D01*
X38479Y60694D01*
X38498Y60704D01*
X38518Y60718D01*
X38536Y60733D01*
X38553Y60751D01*
X38555Y60753D01*
X38557Y60755D01*
X38561Y60761D01*
X38567Y60769D01*
X38575Y60778D01*
X38583Y60792D01*
X38591Y60806D01*
X38600Y60821D01*
X38616Y60861D01*
X38632Y60906D01*
X38642Y60959D01*
X38645Y60986D01*
Y61018D01*
Y61019D01*
Y61025D01*
Y61033D01*
X38644Y61043D01*
Y61057D01*
X38642Y61072D01*
X38634Y61108D01*
X38624Y61149D01*
X38608Y61190D01*
X38587Y61231D01*
X38573Y61251D01*
X38557Y61268D01*
Y61270D01*
X38553Y61272D01*
X38548Y61276D01*
X38542Y61282D01*
X38522Y61298D01*
X38495Y61316D01*
X38461Y61331D01*
X38422Y61347D01*
X38375Y61357D01*
X38352Y61361D01*
X38308D01*
X38293Y61359D01*
X38269Y61355D01*
X38246Y61351D01*
X38218Y61343D01*
X38189Y61331D01*
X38161Y61317D01*
X38157Y61316D01*
X38150Y61310D01*
X38138Y61302D01*
X38122Y61288D01*
X38105Y61274D01*
X38085Y61255D01*
X38067Y61235D01*
X38052Y61212D01*
X37877Y61237D01*
X38022Y62011D01*
X38771D01*
Y61835D01*
D02*
G37*
G36*
X81012Y52242D02*
X81034D01*
X81057Y52240D01*
X81083Y52236D01*
X81112Y52232D01*
X81144Y52228D01*
X81177Y52223D01*
X81245Y52207D01*
X81314Y52185D01*
X81349Y52172D01*
X81383Y52156D01*
X81385Y52154D01*
X81391Y52152D01*
X81400Y52146D01*
X81412Y52138D01*
X81426Y52130D01*
X81444Y52119D01*
X81461Y52105D01*
X81483Y52089D01*
X81526Y52054D01*
X81569Y52009D01*
X81612Y51958D01*
X81632Y51929D01*
X81649Y51899D01*
X81651Y51897D01*
X81653Y51891D01*
X81657Y51881D01*
X81663Y51870D01*
X81671Y51854D01*
X81679Y51836D01*
X81687Y51815D01*
X81696Y51791D01*
X81704Y51764D01*
X81712Y51736D01*
X81728Y51674D01*
X81738Y51605D01*
X81741Y51570D01*
Y51511D01*
X81739Y51495D01*
X81738Y51476D01*
X81735Y51452D01*
X81732Y51427D01*
X81728Y51399D01*
X81714Y51341D01*
X81704Y51309D01*
X81692Y51276D01*
X81679Y51244D01*
X81665Y51213D01*
X81645Y51182D01*
X81626Y51152D01*
X81624Y51150D01*
X81620Y51147D01*
X81614Y51137D01*
X81604Y51127D01*
X81592Y51115D01*
X81579Y51099D01*
X81561Y51084D01*
X81542Y51066D01*
X81520Y51048D01*
X81496Y51031D01*
X81469Y51013D01*
X81441Y50996D01*
X81410Y50978D01*
X81377Y50962D01*
X81340Y50947D01*
X81302Y50935D01*
X81255Y51131D01*
X81257D01*
X81263Y51133D01*
X81271Y51137D01*
X81283Y51141D01*
X81296Y51147D01*
X81312Y51152D01*
X81347Y51170D01*
X81387Y51192D01*
X81426Y51217D01*
X81463Y51248D01*
X81479Y51266D01*
X81494Y51284D01*
Y51286D01*
X81498Y51288D01*
X81502Y51293D01*
X81506Y51301D01*
X81512Y51311D01*
X81518Y51323D01*
X81534Y51352D01*
X81547Y51389D01*
X81559Y51433D01*
X81567Y51482D01*
X81571Y51537D01*
Y51554D01*
X81569Y51566D01*
Y51580D01*
X81567Y51597D01*
X81563Y51617D01*
X81561Y51639D01*
X81551Y51683D01*
X81536Y51732D01*
X81514Y51781D01*
X81502Y51805D01*
X81487Y51829D01*
Y51831D01*
X81483Y51834D01*
X81479Y51840D01*
X81471Y51848D01*
X81453Y51868D01*
X81428Y51891D01*
X81396Y51919D01*
X81357Y51946D01*
X81314Y51972D01*
X81263Y51991D01*
X81261D01*
X81257Y51993D01*
X81249Y51995D01*
X81240Y51999D01*
X81226Y52003D01*
X81210Y52007D01*
X81193Y52011D01*
X81175Y52015D01*
X81130Y52023D01*
X81081Y52030D01*
X81028Y52036D01*
X80973Y52038D01*
X80971D01*
X80965D01*
X80955D01*
X80942D01*
X80924Y52036D01*
X80905Y52034D01*
X80883D01*
X80859Y52030D01*
X80806Y52025D01*
X80752Y52015D01*
X80693Y52001D01*
X80638Y51983D01*
X80636D01*
X80632Y51981D01*
X80624Y51977D01*
X80614Y51972D01*
X80603Y51966D01*
X80589Y51960D01*
X80558Y51940D01*
X80522Y51915D01*
X80487Y51885D01*
X80454Y51850D01*
X80424Y51809D01*
Y51807D01*
X80420Y51803D01*
X80418Y51797D01*
X80413Y51787D01*
X80409Y51778D01*
X80403Y51764D01*
X80389Y51732D01*
X80375Y51693D01*
X80366Y51650D01*
X80358Y51603D01*
X80354Y51552D01*
Y51537D01*
X80356Y51525D01*
X80358Y51509D01*
X80360Y51493D01*
X80361Y51474D01*
X80366Y51454D01*
X80377Y51409D01*
X80395Y51362D01*
X80405Y51337D01*
X80418Y51313D01*
X80432Y51290D01*
X80450Y51268D01*
X80452Y51266D01*
X80454Y51262D01*
X80459Y51256D01*
X80467Y51248D01*
X80477Y51241D01*
X80491Y51229D01*
X80505Y51217D01*
X80522Y51205D01*
X80540Y51192D01*
X80562Y51178D01*
X80585Y51166D01*
X80611Y51152D01*
X80640Y51141D01*
X80669Y51129D01*
X80701Y51119D01*
X80736Y51109D01*
X80685Y50909D01*
X80683D01*
X80675Y50913D01*
X80661Y50917D01*
X80644Y50921D01*
X80624Y50929D01*
X80601Y50939D01*
X80575Y50949D01*
X80546Y50962D01*
X80516Y50976D01*
X80485Y50994D01*
X80456Y51011D01*
X80424Y51033D01*
X80393Y51054D01*
X80364Y51080D01*
X80336Y51107D01*
X80311Y51137D01*
X80309Y51139D01*
X80305Y51144D01*
X80299Y51152D01*
X80291Y51166D01*
X80281Y51182D01*
X80269Y51201D01*
X80260Y51223D01*
X80248Y51247D01*
X80234Y51276D01*
X80224Y51305D01*
X80213Y51339D01*
X80203Y51374D01*
X80195Y51411D01*
X80189Y51450D01*
X80185Y51491D01*
X80183Y51535D01*
Y51558D01*
X80185Y51576D01*
X80187Y51595D01*
X80189Y51621D01*
X80191Y51646D01*
X80195Y51676D01*
X80207Y51738D01*
X80224Y51805D01*
X80236Y51838D01*
X80250Y51872D01*
X80264Y51903D01*
X80281Y51932D01*
X80283Y51934D01*
X80285Y51938D01*
X80291Y51946D01*
X80301Y51958D01*
X80311Y51970D01*
X80322Y51985D01*
X80338Y52001D01*
X80356Y52019D01*
X80373Y52038D01*
X80395Y52056D01*
X80418Y52075D01*
X80446Y52095D01*
X80473Y52115D01*
X80503Y52132D01*
X80536Y52150D01*
X80569Y52166D01*
X80571D01*
X80577Y52170D01*
X80589Y52174D01*
X80603Y52177D01*
X80620Y52183D01*
X80640Y52191D01*
X80663Y52197D01*
X80691Y52205D01*
X80720Y52213D01*
X80752Y52219D01*
X80785Y52226D01*
X80818Y52232D01*
X80895Y52240D01*
X80973Y52244D01*
X80975D01*
X80983D01*
X80997D01*
X81012Y52242D01*
D02*
G37*
G36*
X81716Y50114D02*
Y49963D01*
X80740D01*
Y49759D01*
X80569D01*
Y49963D01*
X80209D01*
Y50147D01*
X80569D01*
Y50801D01*
X80740D01*
X81716Y50114D01*
D02*
G37*
G36*
X44388Y45799D02*
X44404Y45797D01*
X44424Y45795D01*
X44447Y45791D01*
X44471Y45785D01*
X44522Y45772D01*
X44549Y45762D01*
X44576Y45752D01*
X44606Y45738D01*
X44633Y45723D01*
X44659Y45705D01*
X44684Y45684D01*
X44686Y45682D01*
X44690Y45678D01*
X44696Y45672D01*
X44706Y45662D01*
X44716Y45650D01*
X44728Y45636D01*
X44739Y45619D01*
X44753Y45601D01*
X44765Y45580D01*
X44778Y45556D01*
X44790Y45531D01*
X44802Y45503D01*
X44814Y45474D01*
X44822Y45444D01*
X44829Y45411D01*
X44833Y45376D01*
X44649Y45350D01*
Y45352D01*
X44647Y45358D01*
X44645Y45366D01*
X44643Y45376D01*
X44639Y45390D01*
X44635Y45403D01*
X44624Y45439D01*
X44610Y45476D01*
X44590Y45513D01*
X44569Y45550D01*
X44557Y45566D01*
X44543Y45580D01*
X44539Y45581D01*
X44530Y45589D01*
X44514Y45601D01*
X44490Y45613D01*
X44463Y45627D01*
X44431Y45636D01*
X44394Y45644D01*
X44355Y45648D01*
X44341D01*
X44333Y45646D01*
X44322D01*
X44308Y45644D01*
X44279Y45636D01*
X44243Y45627D01*
X44206Y45611D01*
X44169Y45587D01*
X44151Y45574D01*
X44134Y45558D01*
X44132Y45556D01*
X44130Y45554D01*
X44126Y45548D01*
X44120Y45542D01*
X44104Y45523D01*
X44089Y45495D01*
X44073Y45464D01*
X44057Y45425D01*
X44047Y45382D01*
X44043Y45358D01*
Y45335D01*
Y45333D01*
Y45329D01*
Y45323D01*
X44045Y45313D01*
Y45303D01*
X44047Y45289D01*
X44053Y45260D01*
X44063Y45227D01*
X44079Y45191D01*
X44100Y45158D01*
X44112Y45141D01*
X44128Y45125D01*
X44132Y45121D01*
X44143Y45111D01*
X44161Y45099D01*
X44184Y45084D01*
X44216Y45068D01*
X44251Y45056D01*
X44292Y45046D01*
X44339Y45042D01*
X44361D01*
X44375Y45044D01*
X44394Y45046D01*
X44418Y45050D01*
X44443Y45056D01*
X44471Y45062D01*
X44449Y44899D01*
X44445D01*
X44439Y44901D01*
X44429Y44903D01*
X44408D01*
X44400Y44901D01*
X44377Y44899D01*
X44349Y44895D01*
X44316Y44888D01*
X44281Y44878D01*
X44243Y44862D01*
X44208Y44843D01*
X44206D01*
X44204Y44839D01*
X44192Y44831D01*
X44177Y44815D01*
X44159Y44796D01*
X44141Y44768D01*
X44128Y44735D01*
X44116Y44696D01*
X44114Y44674D01*
X44112Y44651D01*
Y44649D01*
Y44647D01*
X44114Y44633D01*
X44116Y44615D01*
X44120Y44592D01*
X44130Y44566D01*
X44141Y44539D01*
X44159Y44509D01*
X44183Y44484D01*
X44186Y44480D01*
X44194Y44472D01*
X44210Y44462D01*
X44230Y44449D01*
X44255Y44437D01*
X44287Y44425D01*
X44320Y44417D01*
X44359Y44415D01*
X44369D01*
X44377Y44417D01*
X44398Y44419D01*
X44424Y44423D01*
X44451Y44433D01*
X44482Y44445D01*
X44512Y44460D01*
X44541Y44484D01*
X44545Y44488D01*
X44553Y44496D01*
X44565Y44511D01*
X44578Y44535D01*
X44594Y44562D01*
X44610Y44598D01*
X44622Y44639D01*
X44631Y44686D01*
X44816Y44653D01*
Y44651D01*
X44814Y44645D01*
X44812Y44635D01*
X44808Y44621D01*
X44804Y44607D01*
X44798Y44588D01*
X44792Y44568D01*
X44784Y44547D01*
X44763Y44502D01*
X44737Y44455D01*
X44704Y44407D01*
X44684Y44386D01*
X44663Y44366D01*
X44661Y44364D01*
X44657Y44362D01*
X44651Y44357D01*
X44641Y44351D01*
X44629Y44343D01*
X44616Y44333D01*
X44598Y44323D01*
X44581Y44313D01*
X44559Y44306D01*
X44537Y44296D01*
X44486Y44278D01*
X44428Y44266D01*
X44396Y44264D01*
X44363Y44262D01*
X44341D01*
X44331Y44264D01*
X44318D01*
X44288Y44268D01*
X44253Y44276D01*
X44216Y44284D01*
X44177Y44298D01*
X44137Y44315D01*
X44135D01*
X44134Y44317D01*
X44128Y44321D01*
X44120Y44325D01*
X44102Y44337D01*
X44079Y44353D01*
X44053Y44374D01*
X44026Y44400D01*
X44000Y44427D01*
X43979Y44460D01*
Y44462D01*
X43977Y44464D01*
X43969Y44476D01*
X43961Y44496D01*
X43949Y44519D01*
X43940Y44549D01*
X43930Y44582D01*
X43924Y44617D01*
X43922Y44655D01*
Y44656D01*
Y44658D01*
Y44670D01*
X43924Y44690D01*
X43928Y44713D01*
X43936Y44741D01*
X43944Y44770D01*
X43957Y44802D01*
X43975Y44833D01*
X43977Y44837D01*
X43985Y44847D01*
X43996Y44860D01*
X44014Y44878D01*
X44036Y44899D01*
X44063Y44921D01*
X44094Y44941D01*
X44130Y44960D01*
X44128D01*
X44124Y44962D01*
X44116Y44964D01*
X44108Y44966D01*
X44096Y44970D01*
X44083Y44976D01*
X44053Y44988D01*
X44020Y45005D01*
X43987Y45029D01*
X43951Y45056D01*
X43922Y45090D01*
Y45092D01*
X43918Y45094D01*
X43914Y45099D01*
X43910Y45107D01*
X43904Y45117D01*
X43898Y45127D01*
X43885Y45156D01*
X43871Y45191D01*
X43859Y45233D01*
X43851Y45278D01*
X43847Y45331D01*
Y45333D01*
Y45338D01*
Y45350D01*
X43849Y45364D01*
X43851Y45382D01*
X43855Y45401D01*
X43859Y45423D01*
X43865Y45446D01*
X43873Y45472D01*
X43883Y45499D01*
X43894Y45527D01*
X43908Y45556D01*
X43926Y45584D01*
X43945Y45613D01*
X43967Y45640D01*
X43992Y45666D01*
X43994Y45668D01*
X43998Y45672D01*
X44006Y45678D01*
X44018Y45687D01*
X44032Y45697D01*
X44049Y45709D01*
X44069Y45721D01*
X44091Y45733D01*
X44116Y45746D01*
X44143Y45758D01*
X44173Y45770D01*
X44206Y45779D01*
X44239Y45789D01*
X44277Y45795D01*
X44314Y45799D01*
X44355Y45801D01*
X44375D01*
X44388Y45799D01*
D02*
G37*
G36*
X45670D02*
X45690Y45797D01*
X45715Y45795D01*
X45741Y45793D01*
X45770Y45789D01*
X45833Y45778D01*
X45900Y45760D01*
X45933Y45748D01*
X45966Y45734D01*
X45998Y45721D01*
X46027Y45703D01*
X46029Y45701D01*
X46033Y45699D01*
X46041Y45693D01*
X46052Y45684D01*
X46064Y45674D01*
X46080Y45662D01*
X46095Y45646D01*
X46113Y45629D01*
X46133Y45611D01*
X46150Y45589D01*
X46170Y45566D01*
X46190Y45538D01*
X46209Y45511D01*
X46227Y45482D01*
X46244Y45448D01*
X46260Y45415D01*
Y45413D01*
X46264Y45407D01*
X46268Y45395D01*
X46272Y45382D01*
X46278Y45364D01*
X46286Y45344D01*
X46292Y45321D01*
X46299Y45293D01*
X46307Y45264D01*
X46313Y45233D01*
X46321Y45199D01*
X46327Y45166D01*
X46335Y45090D01*
X46339Y45011D01*
Y45009D01*
Y45001D01*
Y44988D01*
X46337Y44972D01*
Y44950D01*
X46335Y44927D01*
X46331Y44901D01*
X46327Y44872D01*
X46323Y44841D01*
X46317Y44807D01*
X46301Y44739D01*
X46280Y44670D01*
X46266Y44635D01*
X46250Y44602D01*
X46248Y44600D01*
X46246Y44594D01*
X46241Y44584D01*
X46233Y44572D01*
X46225Y44558D01*
X46213Y44541D01*
X46199Y44523D01*
X46184Y44502D01*
X46148Y44458D01*
X46103Y44415D01*
X46052Y44372D01*
X46023Y44353D01*
X45994Y44335D01*
X45992Y44333D01*
X45986Y44331D01*
X45976Y44327D01*
X45964Y44321D01*
X45948Y44313D01*
X45931Y44306D01*
X45909Y44298D01*
X45886Y44288D01*
X45858Y44280D01*
X45831Y44272D01*
X45768Y44257D01*
X45700Y44247D01*
X45664Y44243D01*
X45605D01*
X45590Y44245D01*
X45570Y44247D01*
X45547Y44249D01*
X45521Y44253D01*
X45494Y44257D01*
X45435Y44270D01*
X45404Y44280D01*
X45370Y44292D01*
X45339Y44306D01*
X45308Y44319D01*
X45276Y44339D01*
X45247Y44359D01*
X45245Y44361D01*
X45241Y44364D01*
X45231Y44370D01*
X45221Y44380D01*
X45210Y44392D01*
X45194Y44405D01*
X45178Y44423D01*
X45161Y44443D01*
X45143Y44464D01*
X45125Y44488D01*
X45108Y44515D01*
X45090Y44543D01*
X45072Y44574D01*
X45057Y44607D01*
X45041Y44645D01*
X45029Y44682D01*
X45225Y44729D01*
Y44727D01*
X45227Y44721D01*
X45231Y44713D01*
X45235Y44701D01*
X45241Y44688D01*
X45247Y44672D01*
X45265Y44637D01*
X45286Y44598D01*
X45311Y44558D01*
X45343Y44521D01*
X45360Y44506D01*
X45378Y44490D01*
X45380D01*
X45382Y44486D01*
X45388Y44482D01*
X45396Y44478D01*
X45406Y44472D01*
X45417Y44466D01*
X45447Y44451D01*
X45484Y44437D01*
X45527Y44425D01*
X45576Y44417D01*
X45631Y44413D01*
X45649D01*
X45660Y44415D01*
X45674D01*
X45692Y44417D01*
X45711Y44421D01*
X45733Y44423D01*
X45778Y44433D01*
X45827Y44449D01*
X45876Y44470D01*
X45900Y44482D01*
X45923Y44498D01*
X45925D01*
X45929Y44502D01*
X45935Y44506D01*
X45943Y44513D01*
X45962Y44531D01*
X45986Y44556D01*
X46013Y44588D01*
X46041Y44627D01*
X46066Y44670D01*
X46086Y44721D01*
Y44723D01*
X46088Y44727D01*
X46090Y44735D01*
X46094Y44745D01*
X46097Y44758D01*
X46101Y44774D01*
X46105Y44792D01*
X46109Y44809D01*
X46117Y44854D01*
X46125Y44903D01*
X46131Y44956D01*
X46133Y45011D01*
Y45013D01*
Y45019D01*
Y45029D01*
Y45042D01*
X46131Y45060D01*
X46129Y45080D01*
Y45101D01*
X46125Y45125D01*
X46119Y45178D01*
X46109Y45233D01*
X46095Y45292D01*
X46078Y45346D01*
Y45348D01*
X46076Y45352D01*
X46072Y45360D01*
X46066Y45370D01*
X46060Y45382D01*
X46054Y45395D01*
X46035Y45427D01*
X46009Y45462D01*
X45980Y45497D01*
X45945Y45531D01*
X45904Y45560D01*
X45902D01*
X45898Y45564D01*
X45892Y45566D01*
X45882Y45572D01*
X45872Y45576D01*
X45858Y45581D01*
X45827Y45595D01*
X45788Y45609D01*
X45745Y45619D01*
X45698Y45627D01*
X45647Y45630D01*
X45631D01*
X45619Y45629D01*
X45604Y45627D01*
X45588Y45625D01*
X45568Y45623D01*
X45549Y45619D01*
X45504Y45607D01*
X45457Y45589D01*
X45431Y45580D01*
X45408Y45566D01*
X45384Y45552D01*
X45362Y45535D01*
X45360Y45533D01*
X45357Y45531D01*
X45351Y45525D01*
X45343Y45517D01*
X45335Y45507D01*
X45323Y45493D01*
X45311Y45480D01*
X45300Y45462D01*
X45286Y45444D01*
X45272Y45423D01*
X45261Y45399D01*
X45247Y45374D01*
X45235Y45344D01*
X45223Y45315D01*
X45213Y45284D01*
X45204Y45248D01*
X45004Y45299D01*
Y45301D01*
X45008Y45309D01*
X45012Y45323D01*
X45016Y45340D01*
X45023Y45360D01*
X45033Y45384D01*
X45043Y45409D01*
X45057Y45439D01*
X45070Y45468D01*
X45088Y45499D01*
X45106Y45529D01*
X45127Y45560D01*
X45149Y45591D01*
X45174Y45621D01*
X45202Y45648D01*
X45231Y45674D01*
X45233Y45676D01*
X45239Y45680D01*
X45247Y45685D01*
X45261Y45693D01*
X45276Y45703D01*
X45296Y45715D01*
X45317Y45725D01*
X45341Y45736D01*
X45370Y45750D01*
X45400Y45760D01*
X45433Y45772D01*
X45468Y45781D01*
X45506Y45789D01*
X45545Y45795D01*
X45586Y45799D01*
X45629Y45801D01*
X45653D01*
X45670Y45799D01*
D02*
G37*
G36*
X64646Y73865D02*
X64666Y73864D01*
X64689Y73861D01*
X64715Y73858D01*
X64742Y73854D01*
X64801Y73840D01*
X64833Y73830D01*
X64866Y73818D01*
X64897Y73805D01*
X64929Y73791D01*
X64960Y73771D01*
X64989Y73752D01*
X64991Y73750D01*
X64995Y73746D01*
X65005Y73740D01*
X65015Y73730D01*
X65027Y73718D01*
X65042Y73705D01*
X65058Y73687D01*
X65076Y73667D01*
X65093Y73646D01*
X65111Y73622D01*
X65128Y73595D01*
X65146Y73567D01*
X65164Y73536D01*
X65180Y73503D01*
X65195Y73466D01*
X65207Y73428D01*
X65011Y73381D01*
Y73383D01*
X65009Y73389D01*
X65005Y73397D01*
X65001Y73409D01*
X64995Y73422D01*
X64989Y73438D01*
X64972Y73473D01*
X64950Y73513D01*
X64925Y73552D01*
X64893Y73589D01*
X64876Y73605D01*
X64858Y73620D01*
X64856D01*
X64854Y73624D01*
X64848Y73628D01*
X64840Y73632D01*
X64831Y73638D01*
X64819Y73644D01*
X64789Y73660D01*
X64752Y73673D01*
X64709Y73685D01*
X64660Y73693D01*
X64605Y73697D01*
X64588D01*
X64576Y73695D01*
X64562D01*
X64544Y73693D01*
X64525Y73689D01*
X64503Y73687D01*
X64458Y73677D01*
X64409Y73662D01*
X64360Y73640D01*
X64337Y73628D01*
X64313Y73613D01*
X64311D01*
X64307Y73609D01*
X64301Y73605D01*
X64294Y73597D01*
X64274Y73579D01*
X64250Y73554D01*
X64223Y73522D01*
X64196Y73483D01*
X64170Y73440D01*
X64151Y73389D01*
Y73387D01*
X64148Y73383D01*
X64147Y73375D01*
X64143Y73366D01*
X64139Y73352D01*
X64135Y73336D01*
X64131Y73319D01*
X64127Y73301D01*
X64119Y73256D01*
X64111Y73207D01*
X64105Y73154D01*
X64103Y73099D01*
Y73097D01*
Y73091D01*
Y73081D01*
Y73068D01*
X64105Y73050D01*
X64107Y73030D01*
Y73009D01*
X64111Y72985D01*
X64117Y72932D01*
X64127Y72878D01*
X64141Y72819D01*
X64158Y72764D01*
Y72762D01*
X64160Y72758D01*
X64164Y72750D01*
X64170Y72740D01*
X64176Y72729D01*
X64182Y72715D01*
X64201Y72684D01*
X64227Y72648D01*
X64256Y72613D01*
X64292Y72580D01*
X64333Y72550D01*
X64335D01*
X64339Y72546D01*
X64345Y72544D01*
X64354Y72539D01*
X64364Y72535D01*
X64378Y72529D01*
X64409Y72515D01*
X64448Y72501D01*
X64491Y72491D01*
X64539Y72484D01*
X64590Y72480D01*
X64605D01*
X64617Y72482D01*
X64633Y72484D01*
X64648Y72486D01*
X64668Y72487D01*
X64688Y72491D01*
X64733Y72503D01*
X64780Y72521D01*
X64805Y72531D01*
X64829Y72544D01*
X64852Y72558D01*
X64874Y72576D01*
X64876Y72578D01*
X64880Y72580D01*
X64885Y72585D01*
X64893Y72593D01*
X64901Y72603D01*
X64913Y72617D01*
X64925Y72631D01*
X64936Y72648D01*
X64950Y72666D01*
X64964Y72688D01*
X64976Y72711D01*
X64989Y72737D01*
X65001Y72766D01*
X65013Y72795D01*
X65023Y72827D01*
X65033Y72862D01*
X65232Y72811D01*
Y72809D01*
X65228Y72801D01*
X65225Y72787D01*
X65221Y72770D01*
X65213Y72750D01*
X65203Y72727D01*
X65193Y72701D01*
X65180Y72672D01*
X65166Y72642D01*
X65148Y72611D01*
X65131Y72582D01*
X65109Y72550D01*
X65087Y72519D01*
X65062Y72490D01*
X65034Y72462D01*
X65005Y72437D01*
X65003Y72435D01*
X64997Y72431D01*
X64989Y72425D01*
X64976Y72417D01*
X64960Y72407D01*
X64940Y72395D01*
X64919Y72386D01*
X64895Y72374D01*
X64866Y72360D01*
X64837Y72350D01*
X64803Y72339D01*
X64768Y72329D01*
X64731Y72321D01*
X64691Y72315D01*
X64650Y72311D01*
X64607Y72309D01*
X64584D01*
X64566Y72311D01*
X64546Y72313D01*
X64521Y72315D01*
X64495Y72317D01*
X64466Y72321D01*
X64403Y72333D01*
X64337Y72350D01*
X64303Y72362D01*
X64270Y72376D01*
X64239Y72390D01*
X64209Y72407D01*
X64207Y72409D01*
X64203Y72411D01*
X64196Y72417D01*
X64184Y72427D01*
X64172Y72437D01*
X64156Y72448D01*
X64141Y72464D01*
X64123Y72482D01*
X64103Y72499D01*
X64086Y72521D01*
X64066Y72544D01*
X64047Y72572D01*
X64027Y72599D01*
X64009Y72629D01*
X63992Y72662D01*
X63976Y72695D01*
Y72697D01*
X63972Y72703D01*
X63968Y72715D01*
X63964Y72729D01*
X63958Y72746D01*
X63951Y72766D01*
X63945Y72789D01*
X63937Y72817D01*
X63929Y72846D01*
X63923Y72878D01*
X63915Y72911D01*
X63909Y72944D01*
X63902Y73021D01*
X63898Y73099D01*
Y73101D01*
Y73109D01*
Y73123D01*
X63900Y73138D01*
Y73160D01*
X63902Y73183D01*
X63906Y73209D01*
X63909Y73238D01*
X63913Y73270D01*
X63919Y73303D01*
X63935Y73371D01*
X63956Y73440D01*
X63970Y73475D01*
X63986Y73509D01*
X63988Y73511D01*
X63990Y73516D01*
X63996Y73526D01*
X64003Y73538D01*
X64011Y73552D01*
X64023Y73569D01*
X64037Y73587D01*
X64052Y73609D01*
X64088Y73652D01*
X64133Y73695D01*
X64184Y73738D01*
X64213Y73758D01*
X64243Y73775D01*
X64245Y73777D01*
X64250Y73779D01*
X64260Y73783D01*
X64272Y73789D01*
X64288Y73797D01*
X64305Y73805D01*
X64327Y73813D01*
X64350Y73822D01*
X64378Y73830D01*
X64405Y73838D01*
X64468Y73854D01*
X64537Y73864D01*
X64572Y73867D01*
X64631D01*
X64646Y73865D01*
D02*
G37*
G36*
X65934Y73846D02*
X65954Y73844D01*
X65975Y73842D01*
X65999Y73838D01*
X66024Y73832D01*
X66079Y73818D01*
X66107Y73809D01*
X66136Y73797D01*
X66165Y73783D01*
X66193Y73765D01*
X66218Y73748D01*
X66244Y73726D01*
X66246Y73724D01*
X66250Y73720D01*
X66255Y73715D01*
X66263Y73705D01*
X66273Y73693D01*
X66285Y73679D01*
X66295Y73664D01*
X66308Y73644D01*
X66320Y73624D01*
X66330Y73601D01*
X66352Y73550D01*
X66359Y73522D01*
X66365Y73493D01*
X66369Y73462D01*
X66371Y73428D01*
Y73424D01*
Y73413D01*
X66369Y73395D01*
X66367Y73371D01*
X66361Y73346D01*
X66356Y73315D01*
X66346Y73283D01*
X66334Y73250D01*
X66332Y73246D01*
X66326Y73234D01*
X66318Y73217D01*
X66304Y73195D01*
X66287Y73168D01*
X66265Y73136D01*
X66240Y73101D01*
X66210Y73066D01*
Y73064D01*
X66207Y73062D01*
X66201Y73056D01*
X66195Y73048D01*
X66185Y73038D01*
X66173Y73027D01*
X66159Y73013D01*
X66142Y72997D01*
X66124Y72979D01*
X66103Y72960D01*
X66079Y72936D01*
X66054Y72913D01*
X66024Y72887D01*
X65995Y72862D01*
X65960Y72833D01*
X65924Y72801D01*
X65922Y72799D01*
X65916Y72795D01*
X65909Y72787D01*
X65897Y72780D01*
X65885Y72768D01*
X65869Y72754D01*
X65836Y72725D01*
X65799Y72693D01*
X65764Y72662D01*
X65748Y72648D01*
X65734Y72635D01*
X65720Y72621D01*
X65711Y72611D01*
X65709Y72609D01*
X65703Y72603D01*
X65695Y72593D01*
X65683Y72580D01*
X65671Y72566D01*
X65658Y72548D01*
X65632Y72513D01*
X66373D01*
Y72335D01*
X65376D01*
Y72339D01*
Y72346D01*
Y72358D01*
X65377Y72376D01*
X65379Y72395D01*
X65383Y72417D01*
X65389Y72439D01*
X65397Y72462D01*
Y72464D01*
X65399Y72466D01*
X65401Y72472D01*
X65405Y72480D01*
X65413Y72499D01*
X65426Y72525D01*
X65444Y72556D01*
X65464Y72589D01*
X65489Y72625D01*
X65519Y72662D01*
X65521Y72664D01*
X65522Y72666D01*
X65528Y72672D01*
X65534Y72680D01*
X65554Y72701D01*
X65581Y72729D01*
X65615Y72762D01*
X65656Y72801D01*
X65705Y72844D01*
X65762Y72891D01*
X65764Y72893D01*
X65771Y72901D01*
X65785Y72911D01*
X65801Y72925D01*
X65820Y72942D01*
X65844Y72962D01*
X65869Y72983D01*
X65895Y73007D01*
X65950Y73058D01*
X66005Y73111D01*
X66030Y73138D01*
X66054Y73164D01*
X66075Y73187D01*
X66093Y73211D01*
X66095Y73213D01*
X66097Y73217D01*
X66101Y73223D01*
X66107Y73230D01*
X66112Y73242D01*
X66120Y73254D01*
X66138Y73283D01*
X66154Y73317D01*
X66167Y73354D01*
X66177Y73395D01*
X66181Y73415D01*
Y73434D01*
Y73436D01*
Y73440D01*
Y73444D01*
X66179Y73452D01*
X66177Y73473D01*
X66171Y73499D01*
X66161Y73528D01*
X66148Y73558D01*
X66128Y73589D01*
X66101Y73618D01*
X66097Y73622D01*
X66087Y73630D01*
X66069Y73642D01*
X66046Y73658D01*
X66016Y73671D01*
X65981Y73683D01*
X65940Y73691D01*
X65895Y73695D01*
X65881D01*
X65873Y73693D01*
X65862D01*
X65848Y73691D01*
X65818Y73685D01*
X65785Y73675D01*
X65748Y73662D01*
X65713Y73642D01*
X65681Y73615D01*
X65677Y73611D01*
X65670Y73601D01*
X65656Y73581D01*
X65642Y73558D01*
X65626Y73524D01*
X65613Y73487D01*
X65605Y73444D01*
X65601Y73393D01*
X65411Y73413D01*
Y73415D01*
X65413Y73422D01*
Y73432D01*
X65415Y73448D01*
X65419Y73466D01*
X65422Y73485D01*
X65428Y73509D01*
X65436Y73532D01*
X65454Y73585D01*
X65466Y73613D01*
X65479Y73638D01*
X65495Y73665D01*
X65513Y73691D01*
X65532Y73715D01*
X65556Y73736D01*
X65558Y73738D01*
X65562Y73740D01*
X65570Y73746D01*
X65579Y73754D01*
X65593Y73761D01*
X65609Y73771D01*
X65626Y73781D01*
X65648Y73793D01*
X65671Y73803D01*
X65697Y73813D01*
X65724Y73822D01*
X65756Y73830D01*
X65787Y73838D01*
X65822Y73844D01*
X65860Y73846D01*
X65899Y73848D01*
X65920D01*
X65934Y73846D01*
D02*
G37*
G36*
X6940Y24842D02*
X6956D01*
X6976Y24840D01*
X6997Y24838D01*
X7042Y24830D01*
X7091Y24820D01*
X7142Y24806D01*
X7191Y24789D01*
X7193D01*
X7197Y24787D01*
X7203Y24783D01*
X7213Y24779D01*
X7236Y24765D01*
X7264Y24748D01*
X7297Y24726D01*
X7328Y24699D01*
X7362Y24665D01*
X7389Y24628D01*
Y24626D01*
X7393Y24624D01*
X7395Y24618D01*
X7401Y24611D01*
X7405Y24601D01*
X7411Y24589D01*
X7424Y24559D01*
X7438Y24524D01*
X7450Y24485D01*
X7460Y24440D01*
X7463Y24393D01*
X7271Y24379D01*
Y24381D01*
Y24385D01*
X7270Y24393D01*
X7267Y24403D01*
X7265Y24415D01*
X7262Y24428D01*
X7252Y24460D01*
X7238Y24493D01*
X7220Y24528D01*
X7197Y24564D01*
X7166Y24593D01*
X7162Y24597D01*
X7156Y24599D01*
X7150Y24605D01*
X7140Y24611D01*
X7128Y24616D01*
X7115Y24622D01*
X7101Y24630D01*
X7083Y24636D01*
X7064Y24642D01*
X7042Y24648D01*
X7019Y24654D01*
X6993Y24659D01*
X6966Y24661D01*
X6936Y24665D01*
X6876D01*
X6860Y24663D01*
X6844Y24661D01*
X6805Y24657D01*
X6762Y24650D01*
X6719Y24638D01*
X6678Y24620D01*
X6658Y24611D01*
X6642Y24599D01*
X6638Y24595D01*
X6628Y24587D01*
X6617Y24573D01*
X6601Y24554D01*
X6585Y24530D01*
X6574Y24503D01*
X6564Y24471D01*
X6560Y24438D01*
Y24434D01*
Y24424D01*
X6564Y24411D01*
X6568Y24391D01*
X6574Y24369D01*
X6583Y24348D01*
X6597Y24326D01*
X6617Y24305D01*
X6621Y24303D01*
X6625Y24299D01*
X6630Y24297D01*
X6638Y24291D01*
X6648Y24285D01*
X6662Y24279D01*
X6676Y24273D01*
X6695Y24265D01*
X6717Y24256D01*
X6740Y24248D01*
X6768Y24238D01*
X6799Y24228D01*
X6834Y24218D01*
X6874Y24209D01*
X6917Y24199D01*
X6919D01*
X6927Y24197D01*
X6940Y24193D01*
X6956Y24189D01*
X6976Y24185D01*
X6999Y24179D01*
X7023Y24173D01*
X7050Y24166D01*
X7105Y24152D01*
X7160Y24136D01*
X7185Y24126D01*
X7211Y24118D01*
X7232Y24111D01*
X7250Y24103D01*
X7252D01*
X7256Y24101D01*
X7262Y24097D01*
X7271Y24091D01*
X7295Y24079D01*
X7324Y24062D01*
X7356Y24038D01*
X7387Y24013D01*
X7418Y23981D01*
X7444Y23948D01*
Y23946D01*
X7446Y23944D01*
X7450Y23938D01*
X7454Y23932D01*
X7463Y23913D01*
X7477Y23887D01*
X7489Y23856D01*
X7499Y23819D01*
X7507Y23779D01*
X7509Y23734D01*
Y23732D01*
Y23729D01*
Y23723D01*
X7507Y23715D01*
Y23703D01*
X7505Y23691D01*
X7501Y23662D01*
X7491Y23627D01*
X7479Y23589D01*
X7462Y23548D01*
X7438Y23509D01*
Y23507D01*
X7434Y23505D01*
X7430Y23499D01*
X7426Y23491D01*
X7409Y23472D01*
X7387Y23448D01*
X7360Y23423D01*
X7326Y23395D01*
X7285Y23368D01*
X7240Y23344D01*
X7238D01*
X7234Y23342D01*
X7226Y23338D01*
X7219Y23335D01*
X7205Y23331D01*
X7191Y23327D01*
X7175Y23321D01*
X7156Y23315D01*
X7115Y23305D01*
X7066Y23295D01*
X7011Y23288D01*
X6952Y23286D01*
X6932D01*
X6919Y23288D01*
X6901D01*
X6879Y23290D01*
X6858Y23291D01*
X6832Y23293D01*
X6780Y23299D01*
X6721Y23311D01*
X6664Y23325D01*
X6609Y23344D01*
X6607D01*
X6603Y23346D01*
X6595Y23350D01*
X6585Y23356D01*
X6576Y23362D01*
X6562Y23370D01*
X6531Y23389D01*
X6495Y23415D01*
X6460Y23446D01*
X6425Y23483D01*
X6393Y23525D01*
Y23527D01*
X6389Y23530D01*
X6385Y23536D01*
X6382Y23546D01*
X6376Y23558D01*
X6368Y23570D01*
X6362Y23585D01*
X6354Y23603D01*
X6339Y23644D01*
X6325Y23689D01*
X6315Y23742D01*
X6311Y23797D01*
X6499Y23813D01*
Y23811D01*
Y23807D01*
X6501Y23801D01*
Y23793D01*
X6505Y23774D01*
X6511Y23746D01*
X6519Y23717D01*
X6531Y23685D01*
X6544Y23654D01*
X6560Y23625D01*
X6562Y23621D01*
X6570Y23613D01*
X6582Y23599D01*
X6597Y23584D01*
X6619Y23564D01*
X6644Y23544D01*
X6676Y23525D01*
X6711Y23507D01*
X6713D01*
X6715Y23505D01*
X6721Y23503D01*
X6729Y23501D01*
X6738Y23497D01*
X6750Y23493D01*
X6780Y23485D01*
X6813Y23478D01*
X6852Y23470D01*
X6895Y23466D01*
X6942Y23464D01*
X6962D01*
X6983Y23466D01*
X7011Y23468D01*
X7040Y23472D01*
X7075Y23478D01*
X7109Y23485D01*
X7142Y23497D01*
X7144D01*
X7146Y23499D01*
X7156Y23503D01*
X7171Y23511D01*
X7191Y23521D01*
X7213Y23535D01*
X7234Y23550D01*
X7256Y23568D01*
X7273Y23589D01*
X7275Y23591D01*
X7279Y23599D01*
X7287Y23613D01*
X7295Y23629D01*
X7303Y23648D01*
X7311Y23670D01*
X7315Y23693D01*
X7316Y23719D01*
Y23723D01*
Y23731D01*
X7315Y23744D01*
X7311Y23760D01*
X7307Y23779D01*
X7299Y23801D01*
X7287Y23823D01*
X7273Y23842D01*
X7271Y23844D01*
X7265Y23852D01*
X7256Y23862D01*
X7242Y23874D01*
X7222Y23887D01*
X7199Y23901D01*
X7171Y23917D01*
X7138Y23930D01*
X7134Y23932D01*
X7126Y23934D01*
X7119Y23938D01*
X7109Y23940D01*
X7097Y23944D01*
X7081Y23948D01*
X7066Y23954D01*
X7046Y23958D01*
X7024Y23964D01*
X6999Y23971D01*
X6972Y23977D01*
X6940Y23985D01*
X6907Y23993D01*
X6870Y24003D01*
X6868D01*
X6860Y24005D01*
X6850Y24009D01*
X6836Y24011D01*
X6819Y24017D01*
X6801Y24021D01*
X6756Y24034D01*
X6709Y24048D01*
X6660Y24066D01*
X6617Y24081D01*
X6597Y24091D01*
X6579Y24099D01*
X6578D01*
X6576Y24101D01*
X6570Y24105D01*
X6562Y24109D01*
X6542Y24121D01*
X6519Y24138D01*
X6493Y24158D01*
X6466Y24181D01*
X6440Y24209D01*
X6419Y24238D01*
Y24240D01*
X6417Y24242D01*
X6411Y24254D01*
X6403Y24270D01*
X6393Y24293D01*
X6384Y24320D01*
X6376Y24354D01*
X6370Y24389D01*
X6368Y24426D01*
Y24428D01*
Y24432D01*
Y24438D01*
X6370Y24446D01*
X6372Y24467D01*
X6376Y24497D01*
X6384Y24530D01*
X6395Y24565D01*
X6411Y24603D01*
X6432Y24640D01*
Y24642D01*
X6436Y24644D01*
X6444Y24656D01*
X6460Y24675D01*
X6480Y24697D01*
X6507Y24720D01*
X6538Y24746D01*
X6578Y24769D01*
X6621Y24791D01*
X6623D01*
X6627Y24793D01*
X6633Y24797D01*
X6642Y24799D01*
X6654Y24803D01*
X6668Y24809D01*
X6683Y24812D01*
X6701Y24818D01*
X6742Y24826D01*
X6789Y24836D01*
X6842Y24842D01*
X6897Y24844D01*
X6925D01*
X6940Y24842D01*
D02*
G37*
G36*
X9688Y23311D02*
X9504D01*
Y24489D01*
X9500Y24487D01*
X9492Y24479D01*
X9476Y24465D01*
X9457Y24450D01*
X9431Y24430D01*
X9400Y24409D01*
X9367Y24385D01*
X9328Y24362D01*
X9325D01*
X9324Y24360D01*
X9318Y24356D01*
X9310Y24352D01*
X9288Y24340D01*
X9263Y24326D01*
X9233Y24311D01*
X9200Y24295D01*
X9167Y24279D01*
X9133Y24265D01*
Y24446D01*
X9135D01*
X9141Y24450D01*
X9149Y24454D01*
X9159Y24460D01*
X9173Y24465D01*
X9188Y24475D01*
X9225Y24495D01*
X9267Y24520D01*
X9314Y24552D01*
X9359Y24585D01*
X9404Y24622D01*
X9406Y24624D01*
X9410Y24626D01*
X9416Y24632D01*
X9424Y24640D01*
X9443Y24659D01*
X9469Y24687D01*
X9494Y24716D01*
X9522Y24752D01*
X9547Y24787D01*
X9568Y24824D01*
X9688D01*
Y23311D01*
D02*
G37*
G36*
X8859Y24640D02*
X8363D01*
Y23311D01*
X8163D01*
Y24640D01*
X7667D01*
Y24818D01*
X8859D01*
Y24640D01*
D02*
G37*
G36*
X150641Y24842D02*
X150657D01*
X150676Y24840D01*
X150698Y24838D01*
X150743Y24830D01*
X150792Y24820D01*
X150843Y24806D01*
X150892Y24789D01*
X150894D01*
X150898Y24787D01*
X150904Y24783D01*
X150913Y24779D01*
X150937Y24765D01*
X150964Y24748D01*
X150998Y24726D01*
X151029Y24699D01*
X151062Y24665D01*
X151090Y24628D01*
Y24626D01*
X151094Y24624D01*
X151096Y24618D01*
X151102Y24611D01*
X151105Y24601D01*
X151111Y24589D01*
X151125Y24559D01*
X151139Y24524D01*
X151151Y24485D01*
X151160Y24440D01*
X151164Y24393D01*
X150972Y24379D01*
Y24381D01*
Y24385D01*
X150970Y24393D01*
X150968Y24403D01*
X150966Y24415D01*
X150962Y24428D01*
X150953Y24460D01*
X150939Y24493D01*
X150921Y24528D01*
X150898Y24564D01*
X150866Y24593D01*
X150862Y24597D01*
X150857Y24599D01*
X150851Y24605D01*
X150841Y24611D01*
X150829Y24616D01*
X150815Y24622D01*
X150802Y24630D01*
X150784Y24636D01*
X150765Y24642D01*
X150743Y24648D01*
X150719Y24654D01*
X150694Y24659D01*
X150666Y24661D01*
X150637Y24665D01*
X150576D01*
X150561Y24663D01*
X150545Y24661D01*
X150506Y24657D01*
X150463Y24650D01*
X150419Y24638D01*
X150378Y24620D01*
X150359Y24611D01*
X150343Y24599D01*
X150339Y24595D01*
X150329Y24587D01*
X150318Y24573D01*
X150302Y24554D01*
X150286Y24530D01*
X150275Y24503D01*
X150265Y24471D01*
X150261Y24438D01*
Y24434D01*
Y24424D01*
X150265Y24411D01*
X150269Y24391D01*
X150275Y24369D01*
X150284Y24348D01*
X150298Y24326D01*
X150318Y24305D01*
X150321Y24303D01*
X150325Y24299D01*
X150331Y24297D01*
X150339Y24291D01*
X150349Y24285D01*
X150363Y24279D01*
X150376Y24273D01*
X150396Y24265D01*
X150417Y24256D01*
X150441Y24248D01*
X150469Y24238D01*
X150500Y24228D01*
X150535Y24218D01*
X150574Y24209D01*
X150618Y24199D01*
X150619D01*
X150627Y24197D01*
X150641Y24193D01*
X150657Y24189D01*
X150676Y24185D01*
X150700Y24179D01*
X150723Y24173D01*
X150751Y24166D01*
X150806Y24152D01*
X150861Y24136D01*
X150886Y24126D01*
X150911Y24118D01*
X150933Y24111D01*
X150951Y24103D01*
X150953D01*
X150956Y24101D01*
X150962Y24097D01*
X150972Y24091D01*
X150996Y24079D01*
X151025Y24062D01*
X151057Y24038D01*
X151088Y24013D01*
X151119Y23981D01*
X151145Y23948D01*
Y23946D01*
X151147Y23944D01*
X151151Y23938D01*
X151154Y23932D01*
X151164Y23913D01*
X151178Y23887D01*
X151190Y23856D01*
X151200Y23819D01*
X151207Y23779D01*
X151209Y23734D01*
Y23732D01*
Y23729D01*
Y23723D01*
X151207Y23715D01*
Y23703D01*
X151205Y23691D01*
X151201Y23662D01*
X151192Y23627D01*
X151180Y23589D01*
X151162Y23548D01*
X151139Y23509D01*
Y23507D01*
X151135Y23505D01*
X151131Y23499D01*
X151127Y23491D01*
X151109Y23472D01*
X151088Y23448D01*
X151060Y23423D01*
X151027Y23395D01*
X150986Y23368D01*
X150941Y23344D01*
X150939D01*
X150935Y23342D01*
X150927Y23338D01*
X150919Y23335D01*
X150906Y23331D01*
X150892Y23327D01*
X150876Y23321D01*
X150857Y23315D01*
X150815Y23305D01*
X150766Y23295D01*
X150712Y23288D01*
X150653Y23286D01*
X150633D01*
X150619Y23288D01*
X150602D01*
X150580Y23290D01*
X150559Y23291D01*
X150533Y23293D01*
X150480Y23299D01*
X150422Y23311D01*
X150365Y23325D01*
X150310Y23344D01*
X150308D01*
X150304Y23346D01*
X150296Y23350D01*
X150286Y23356D01*
X150276Y23362D01*
X150263Y23370D01*
X150231Y23389D01*
X150196Y23415D01*
X150161Y23446D01*
X150126Y23483D01*
X150094Y23525D01*
Y23527D01*
X150090Y23530D01*
X150086Y23536D01*
X150082Y23546D01*
X150076Y23558D01*
X150069Y23570D01*
X150063Y23585D01*
X150055Y23603D01*
X150039Y23644D01*
X150025Y23689D01*
X150016Y23742D01*
X150012Y23797D01*
X150200Y23813D01*
Y23811D01*
Y23807D01*
X150202Y23801D01*
Y23793D01*
X150206Y23774D01*
X150212Y23746D01*
X150220Y23717D01*
X150231Y23685D01*
X150245Y23654D01*
X150261Y23625D01*
X150263Y23621D01*
X150270Y23613D01*
X150282Y23599D01*
X150298Y23584D01*
X150320Y23564D01*
X150345Y23544D01*
X150376Y23525D01*
X150412Y23507D01*
X150414D01*
X150416Y23505D01*
X150422Y23503D01*
X150429Y23501D01*
X150439Y23497D01*
X150451Y23493D01*
X150480Y23485D01*
X150514Y23478D01*
X150553Y23470D01*
X150596Y23466D01*
X150643Y23464D01*
X150663D01*
X150684Y23466D01*
X150712Y23468D01*
X150741Y23472D01*
X150776Y23478D01*
X150810Y23485D01*
X150843Y23497D01*
X150845D01*
X150847Y23499D01*
X150857Y23503D01*
X150872Y23511D01*
X150892Y23521D01*
X150913Y23535D01*
X150935Y23550D01*
X150956Y23568D01*
X150974Y23589D01*
X150976Y23591D01*
X150980Y23599D01*
X150988Y23613D01*
X150996Y23629D01*
X151004Y23648D01*
X151011Y23670D01*
X151015Y23693D01*
X151017Y23719D01*
Y23723D01*
Y23731D01*
X151015Y23744D01*
X151011Y23760D01*
X151007Y23779D01*
X151000Y23801D01*
X150988Y23823D01*
X150974Y23842D01*
X150972Y23844D01*
X150966Y23852D01*
X150956Y23862D01*
X150943Y23874D01*
X150923Y23887D01*
X150900Y23901D01*
X150872Y23917D01*
X150839Y23930D01*
X150835Y23932D01*
X150827Y23934D01*
X150819Y23938D01*
X150810Y23940D01*
X150798Y23944D01*
X150782Y23948D01*
X150766Y23954D01*
X150747Y23958D01*
X150725Y23964D01*
X150700Y23971D01*
X150672Y23977D01*
X150641Y23985D01*
X150608Y23993D01*
X150570Y24003D01*
X150568D01*
X150561Y24005D01*
X150551Y24009D01*
X150537Y24011D01*
X150520Y24017D01*
X150502Y24021D01*
X150457Y24034D01*
X150410Y24048D01*
X150361Y24066D01*
X150318Y24081D01*
X150298Y24091D01*
X150280Y24099D01*
X150278D01*
X150276Y24101D01*
X150270Y24105D01*
X150263Y24109D01*
X150243Y24121D01*
X150220Y24138D01*
X150194Y24158D01*
X150167Y24181D01*
X150141Y24209D01*
X150120Y24238D01*
Y24240D01*
X150118Y24242D01*
X150112Y24254D01*
X150104Y24270D01*
X150094Y24293D01*
X150084Y24320D01*
X150076Y24354D01*
X150071Y24389D01*
X150069Y24426D01*
Y24428D01*
Y24432D01*
Y24438D01*
X150071Y24446D01*
X150073Y24467D01*
X150076Y24497D01*
X150084Y24530D01*
X150096Y24565D01*
X150112Y24603D01*
X150133Y24640D01*
Y24642D01*
X150137Y24644D01*
X150145Y24656D01*
X150161Y24675D01*
X150180Y24697D01*
X150208Y24720D01*
X150239Y24746D01*
X150278Y24769D01*
X150321Y24791D01*
X150323D01*
X150327Y24793D01*
X150333Y24797D01*
X150343Y24799D01*
X150355Y24803D01*
X150368Y24809D01*
X150384Y24812D01*
X150402Y24818D01*
X150443Y24826D01*
X150490Y24836D01*
X150543Y24842D01*
X150598Y24844D01*
X150625D01*
X150641Y24842D01*
D02*
G37*
G36*
X153224Y24822D02*
X153244Y24820D01*
X153265Y24818D01*
X153289Y24814D01*
X153314Y24809D01*
X153369Y24795D01*
X153397Y24785D01*
X153426Y24773D01*
X153455Y24759D01*
X153483Y24742D01*
X153508Y24724D01*
X153534Y24703D01*
X153536Y24701D01*
X153540Y24697D01*
X153546Y24691D01*
X153553Y24681D01*
X153563Y24669D01*
X153575Y24656D01*
X153585Y24640D01*
X153599Y24620D01*
X153610Y24601D01*
X153620Y24577D01*
X153642Y24526D01*
X153650Y24499D01*
X153655Y24469D01*
X153659Y24438D01*
X153661Y24405D01*
Y24401D01*
Y24389D01*
X153659Y24371D01*
X153657Y24348D01*
X153651Y24322D01*
X153646Y24291D01*
X153636Y24260D01*
X153624Y24226D01*
X153622Y24222D01*
X153616Y24211D01*
X153608Y24193D01*
X153595Y24171D01*
X153577Y24144D01*
X153556Y24113D01*
X153530Y24077D01*
X153501Y24042D01*
Y24040D01*
X153497Y24038D01*
X153491Y24032D01*
X153485Y24024D01*
X153475Y24015D01*
X153463Y24003D01*
X153450Y23989D01*
X153432Y23974D01*
X153414Y23956D01*
X153393Y23936D01*
X153369Y23913D01*
X153344Y23889D01*
X153314Y23864D01*
X153285Y23838D01*
X153250Y23809D01*
X153215Y23777D01*
X153212Y23776D01*
X153207Y23772D01*
X153199Y23764D01*
X153187Y23756D01*
X153175Y23744D01*
X153160Y23731D01*
X153126Y23701D01*
X153089Y23670D01*
X153054Y23638D01*
X153038Y23625D01*
X153024Y23611D01*
X153011Y23597D01*
X153001Y23587D01*
X152999Y23585D01*
X152993Y23580D01*
X152985Y23570D01*
X152973Y23556D01*
X152962Y23542D01*
X152948Y23525D01*
X152922Y23489D01*
X153663D01*
Y23311D01*
X152666D01*
Y23315D01*
Y23323D01*
Y23335D01*
X152668Y23352D01*
X152670Y23372D01*
X152673Y23393D01*
X152679Y23415D01*
X152687Y23438D01*
Y23440D01*
X152689Y23442D01*
X152691Y23448D01*
X152695Y23456D01*
X152703Y23476D01*
X152717Y23501D01*
X152734Y23532D01*
X152754Y23566D01*
X152779Y23601D01*
X152809Y23638D01*
X152811Y23640D01*
X152813Y23642D01*
X152819Y23648D01*
X152824Y23656D01*
X152844Y23677D01*
X152872Y23705D01*
X152905Y23738D01*
X152946Y23777D01*
X152995Y23821D01*
X153052Y23868D01*
X153054Y23870D01*
X153062Y23877D01*
X153075Y23887D01*
X153091Y23901D01*
X153111Y23919D01*
X153134Y23938D01*
X153160Y23960D01*
X153185Y23983D01*
X153240Y24034D01*
X153295Y24087D01*
X153320Y24115D01*
X153344Y24140D01*
X153365Y24164D01*
X153383Y24187D01*
X153385Y24189D01*
X153387Y24193D01*
X153391Y24199D01*
X153397Y24207D01*
X153403Y24218D01*
X153410Y24230D01*
X153428Y24260D01*
X153444Y24293D01*
X153457Y24330D01*
X153467Y24371D01*
X153471Y24391D01*
Y24411D01*
Y24412D01*
Y24417D01*
Y24420D01*
X153469Y24428D01*
X153467Y24450D01*
X153461Y24475D01*
X153452Y24505D01*
X153438Y24534D01*
X153418Y24565D01*
X153391Y24595D01*
X153387Y24599D01*
X153377Y24607D01*
X153359Y24618D01*
X153336Y24634D01*
X153307Y24648D01*
X153271Y24659D01*
X153230Y24667D01*
X153185Y24671D01*
X153171D01*
X153164Y24669D01*
X153152D01*
X153138Y24667D01*
X153109Y24661D01*
X153075Y24652D01*
X153038Y24638D01*
X153003Y24618D01*
X152971Y24591D01*
X152968Y24587D01*
X152960Y24577D01*
X152946Y24558D01*
X152932Y24534D01*
X152917Y24501D01*
X152903Y24464D01*
X152895Y24420D01*
X152891Y24369D01*
X152701Y24389D01*
Y24391D01*
X152703Y24399D01*
Y24409D01*
X152705Y24424D01*
X152709Y24442D01*
X152713Y24462D01*
X152719Y24485D01*
X152726Y24509D01*
X152744Y24562D01*
X152756Y24589D01*
X152769Y24614D01*
X152785Y24642D01*
X152803Y24667D01*
X152822Y24691D01*
X152846Y24712D01*
X152848Y24714D01*
X152852Y24716D01*
X152860Y24722D01*
X152869Y24730D01*
X152883Y24738D01*
X152899Y24748D01*
X152917Y24757D01*
X152938Y24769D01*
X152962Y24779D01*
X152987Y24789D01*
X153015Y24799D01*
X153046Y24806D01*
X153077Y24814D01*
X153112Y24820D01*
X153150Y24822D01*
X153189Y24824D01*
X153210D01*
X153224Y24822D01*
D02*
G37*
G36*
X152560Y24640D02*
X152064D01*
Y23311D01*
X151864D01*
Y24640D01*
X151368D01*
Y24818D01*
X152560D01*
Y24640D01*
D02*
G37*
G36*
X6940Y172480D02*
X6956D01*
X6976Y172478D01*
X6997Y172476D01*
X7042Y172468D01*
X7091Y172458D01*
X7142Y172444D01*
X7191Y172427D01*
X7193D01*
X7197Y172425D01*
X7203Y172421D01*
X7213Y172417D01*
X7236Y172403D01*
X7264Y172386D01*
X7297Y172364D01*
X7328Y172336D01*
X7362Y172303D01*
X7389Y172266D01*
Y172264D01*
X7393Y172262D01*
X7395Y172256D01*
X7401Y172248D01*
X7405Y172239D01*
X7411Y172227D01*
X7424Y172197D01*
X7438Y172162D01*
X7450Y172123D01*
X7460Y172078D01*
X7463Y172031D01*
X7271Y172017D01*
Y172019D01*
Y172023D01*
X7270Y172031D01*
X7267Y172040D01*
X7265Y172052D01*
X7262Y172066D01*
X7252Y172097D01*
X7238Y172131D01*
X7220Y172166D01*
X7197Y172201D01*
X7166Y172231D01*
X7162Y172235D01*
X7156Y172237D01*
X7150Y172242D01*
X7140Y172248D01*
X7128Y172254D01*
X7115Y172260D01*
X7101Y172268D01*
X7083Y172274D01*
X7064Y172280D01*
X7042Y172285D01*
X7019Y172291D01*
X6993Y172297D01*
X6966Y172299D01*
X6936Y172303D01*
X6876D01*
X6860Y172301D01*
X6844Y172299D01*
X6805Y172295D01*
X6762Y172287D01*
X6719Y172276D01*
X6678Y172258D01*
X6658Y172248D01*
X6642Y172237D01*
X6638Y172233D01*
X6628Y172225D01*
X6617Y172211D01*
X6601Y172192D01*
X6585Y172168D01*
X6574Y172141D01*
X6564Y172109D01*
X6560Y172076D01*
Y172072D01*
Y172062D01*
X6564Y172048D01*
X6568Y172029D01*
X6574Y172007D01*
X6583Y171986D01*
X6597Y171964D01*
X6617Y171942D01*
X6621Y171941D01*
X6625Y171937D01*
X6630Y171935D01*
X6638Y171929D01*
X6648Y171923D01*
X6662Y171917D01*
X6676Y171911D01*
X6695Y171903D01*
X6717Y171894D01*
X6740Y171886D01*
X6768Y171876D01*
X6799Y171866D01*
X6834Y171856D01*
X6874Y171846D01*
X6917Y171837D01*
X6919D01*
X6927Y171835D01*
X6940Y171831D01*
X6956Y171827D01*
X6976Y171823D01*
X6999Y171817D01*
X7023Y171811D01*
X7050Y171803D01*
X7105Y171790D01*
X7160Y171774D01*
X7185Y171764D01*
X7211Y171756D01*
X7232Y171748D01*
X7250Y171741D01*
X7252D01*
X7256Y171739D01*
X7262Y171735D01*
X7271Y171729D01*
X7295Y171717D01*
X7324Y171700D01*
X7356Y171676D01*
X7387Y171651D01*
X7418Y171619D01*
X7444Y171586D01*
Y171584D01*
X7446Y171582D01*
X7450Y171576D01*
X7454Y171570D01*
X7463Y171551D01*
X7477Y171525D01*
X7489Y171494D01*
X7499Y171457D01*
X7507Y171417D01*
X7509Y171372D01*
Y171370D01*
Y171366D01*
Y171360D01*
X7507Y171353D01*
Y171341D01*
X7505Y171329D01*
X7501Y171300D01*
X7491Y171264D01*
X7479Y171227D01*
X7462Y171186D01*
X7438Y171147D01*
Y171145D01*
X7434Y171143D01*
X7430Y171137D01*
X7426Y171129D01*
X7409Y171109D01*
X7387Y171086D01*
X7360Y171061D01*
X7326Y171033D01*
X7285Y171006D01*
X7240Y170982D01*
X7238D01*
X7234Y170980D01*
X7226Y170976D01*
X7219Y170972D01*
X7205Y170968D01*
X7191Y170965D01*
X7175Y170959D01*
X7156Y170953D01*
X7115Y170943D01*
X7066Y170933D01*
X7011Y170925D01*
X6952Y170923D01*
X6932D01*
X6919Y170925D01*
X6901D01*
X6879Y170927D01*
X6858Y170929D01*
X6832Y170931D01*
X6780Y170937D01*
X6721Y170949D01*
X6664Y170963D01*
X6609Y170982D01*
X6607D01*
X6603Y170984D01*
X6595Y170988D01*
X6585Y170994D01*
X6576Y171000D01*
X6562Y171008D01*
X6531Y171027D01*
X6495Y171053D01*
X6460Y171084D01*
X6425Y171121D01*
X6393Y171162D01*
Y171164D01*
X6389Y171168D01*
X6385Y171174D01*
X6382Y171184D01*
X6376Y171196D01*
X6368Y171207D01*
X6362Y171223D01*
X6354Y171241D01*
X6339Y171282D01*
X6325Y171327D01*
X6315Y171380D01*
X6311Y171435D01*
X6499Y171451D01*
Y171449D01*
Y171445D01*
X6501Y171439D01*
Y171431D01*
X6505Y171411D01*
X6511Y171384D01*
X6519Y171354D01*
X6531Y171323D01*
X6544Y171292D01*
X6560Y171262D01*
X6562Y171258D01*
X6570Y171251D01*
X6582Y171237D01*
X6597Y171221D01*
X6619Y171202D01*
X6644Y171182D01*
X6676Y171162D01*
X6711Y171145D01*
X6713D01*
X6715Y171143D01*
X6721Y171141D01*
X6729Y171139D01*
X6738Y171135D01*
X6750Y171131D01*
X6780Y171123D01*
X6813Y171115D01*
X6852Y171108D01*
X6895Y171104D01*
X6942Y171102D01*
X6962D01*
X6983Y171104D01*
X7011Y171106D01*
X7040Y171109D01*
X7075Y171115D01*
X7109Y171123D01*
X7142Y171135D01*
X7144D01*
X7146Y171137D01*
X7156Y171141D01*
X7171Y171149D01*
X7191Y171159D01*
X7213Y171172D01*
X7234Y171188D01*
X7256Y171206D01*
X7273Y171227D01*
X7275Y171229D01*
X7279Y171237D01*
X7287Y171251D01*
X7295Y171266D01*
X7303Y171286D01*
X7311Y171308D01*
X7315Y171331D01*
X7316Y171356D01*
Y171360D01*
Y171368D01*
X7315Y171382D01*
X7311Y171398D01*
X7307Y171417D01*
X7299Y171439D01*
X7287Y171460D01*
X7273Y171480D01*
X7271Y171482D01*
X7265Y171490D01*
X7256Y171500D01*
X7242Y171511D01*
X7222Y171525D01*
X7199Y171539D01*
X7171Y171555D01*
X7138Y171568D01*
X7134Y171570D01*
X7126Y171572D01*
X7119Y171576D01*
X7109Y171578D01*
X7097Y171582D01*
X7081Y171586D01*
X7066Y171592D01*
X7046Y171596D01*
X7024Y171601D01*
X6999Y171609D01*
X6972Y171615D01*
X6940Y171623D01*
X6907Y171631D01*
X6870Y171641D01*
X6868D01*
X6860Y171643D01*
X6850Y171647D01*
X6836Y171649D01*
X6819Y171654D01*
X6801Y171658D01*
X6756Y171672D01*
X6709Y171686D01*
X6660Y171703D01*
X6617Y171719D01*
X6597Y171729D01*
X6579Y171737D01*
X6578D01*
X6576Y171739D01*
X6570Y171743D01*
X6562Y171747D01*
X6542Y171758D01*
X6519Y171776D01*
X6493Y171795D01*
X6466Y171819D01*
X6440Y171846D01*
X6419Y171876D01*
Y171878D01*
X6417Y171880D01*
X6411Y171892D01*
X6403Y171907D01*
X6393Y171931D01*
X6384Y171958D01*
X6376Y171992D01*
X6370Y172027D01*
X6368Y172064D01*
Y172066D01*
Y172070D01*
Y172076D01*
X6370Y172084D01*
X6372Y172105D01*
X6376Y172135D01*
X6384Y172168D01*
X6395Y172203D01*
X6411Y172240D01*
X6432Y172278D01*
Y172280D01*
X6436Y172282D01*
X6444Y172293D01*
X6460Y172313D01*
X6480Y172335D01*
X6507Y172358D01*
X6538Y172383D01*
X6578Y172407D01*
X6621Y172429D01*
X6623D01*
X6627Y172431D01*
X6633Y172434D01*
X6642Y172436D01*
X6654Y172440D01*
X6668Y172446D01*
X6683Y172450D01*
X6701Y172456D01*
X6742Y172464D01*
X6789Y172474D01*
X6842Y172480D01*
X6897Y172482D01*
X6925D01*
X6940Y172480D01*
D02*
G37*
G36*
X9769Y171480D02*
X9972D01*
Y171309D01*
X9769D01*
Y170949D01*
X9584D01*
Y171309D01*
X8930D01*
Y171480D01*
X9618Y172456D01*
X9769D01*
Y171480D01*
D02*
G37*
G36*
X8859Y172278D02*
X8363D01*
Y170949D01*
X8163D01*
Y172278D01*
X7667D01*
Y172456D01*
X8859D01*
Y172278D01*
D02*
G37*
G36*
X150641Y172480D02*
X150657D01*
X150676Y172478D01*
X150698Y172476D01*
X150743Y172468D01*
X150792Y172458D01*
X150843Y172444D01*
X150892Y172427D01*
X150894D01*
X150898Y172425D01*
X150904Y172421D01*
X150913Y172417D01*
X150937Y172403D01*
X150964Y172386D01*
X150998Y172364D01*
X151029Y172336D01*
X151062Y172303D01*
X151090Y172266D01*
Y172264D01*
X151094Y172262D01*
X151096Y172256D01*
X151102Y172248D01*
X151105Y172239D01*
X151111Y172227D01*
X151125Y172197D01*
X151139Y172162D01*
X151151Y172123D01*
X151160Y172078D01*
X151164Y172031D01*
X150972Y172017D01*
Y172019D01*
Y172023D01*
X150970Y172031D01*
X150968Y172040D01*
X150966Y172052D01*
X150962Y172066D01*
X150953Y172097D01*
X150939Y172131D01*
X150921Y172166D01*
X150898Y172201D01*
X150866Y172231D01*
X150862Y172235D01*
X150857Y172237D01*
X150851Y172242D01*
X150841Y172248D01*
X150829Y172254D01*
X150815Y172260D01*
X150802Y172268D01*
X150784Y172274D01*
X150765Y172280D01*
X150743Y172285D01*
X150719Y172291D01*
X150694Y172297D01*
X150666Y172299D01*
X150637Y172303D01*
X150576D01*
X150561Y172301D01*
X150545Y172299D01*
X150506Y172295D01*
X150463Y172287D01*
X150419Y172276D01*
X150378Y172258D01*
X150359Y172248D01*
X150343Y172237D01*
X150339Y172233D01*
X150329Y172225D01*
X150318Y172211D01*
X150302Y172192D01*
X150286Y172168D01*
X150275Y172141D01*
X150265Y172109D01*
X150261Y172076D01*
Y172072D01*
Y172062D01*
X150265Y172048D01*
X150269Y172029D01*
X150275Y172007D01*
X150284Y171986D01*
X150298Y171964D01*
X150318Y171942D01*
X150321Y171941D01*
X150325Y171937D01*
X150331Y171935D01*
X150339Y171929D01*
X150349Y171923D01*
X150363Y171917D01*
X150376Y171911D01*
X150396Y171903D01*
X150417Y171894D01*
X150441Y171886D01*
X150469Y171876D01*
X150500Y171866D01*
X150535Y171856D01*
X150574Y171846D01*
X150618Y171837D01*
X150619D01*
X150627Y171835D01*
X150641Y171831D01*
X150657Y171827D01*
X150676Y171823D01*
X150700Y171817D01*
X150723Y171811D01*
X150751Y171803D01*
X150806Y171790D01*
X150861Y171774D01*
X150886Y171764D01*
X150911Y171756D01*
X150933Y171748D01*
X150951Y171741D01*
X150953D01*
X150956Y171739D01*
X150962Y171735D01*
X150972Y171729D01*
X150996Y171717D01*
X151025Y171700D01*
X151057Y171676D01*
X151088Y171651D01*
X151119Y171619D01*
X151145Y171586D01*
Y171584D01*
X151147Y171582D01*
X151151Y171576D01*
X151154Y171570D01*
X151164Y171551D01*
X151178Y171525D01*
X151190Y171494D01*
X151200Y171457D01*
X151207Y171417D01*
X151209Y171372D01*
Y171370D01*
Y171366D01*
Y171360D01*
X151207Y171353D01*
Y171341D01*
X151205Y171329D01*
X151201Y171300D01*
X151192Y171264D01*
X151180Y171227D01*
X151162Y171186D01*
X151139Y171147D01*
Y171145D01*
X151135Y171143D01*
X151131Y171137D01*
X151127Y171129D01*
X151109Y171109D01*
X151088Y171086D01*
X151060Y171061D01*
X151027Y171033D01*
X150986Y171006D01*
X150941Y170982D01*
X150939D01*
X150935Y170980D01*
X150927Y170976D01*
X150919Y170972D01*
X150906Y170968D01*
X150892Y170965D01*
X150876Y170959D01*
X150857Y170953D01*
X150815Y170943D01*
X150766Y170933D01*
X150712Y170925D01*
X150653Y170923D01*
X150633D01*
X150619Y170925D01*
X150602D01*
X150580Y170927D01*
X150559Y170929D01*
X150533Y170931D01*
X150480Y170937D01*
X150422Y170949D01*
X150365Y170963D01*
X150310Y170982D01*
X150308D01*
X150304Y170984D01*
X150296Y170988D01*
X150286Y170994D01*
X150276Y171000D01*
X150263Y171008D01*
X150231Y171027D01*
X150196Y171053D01*
X150161Y171084D01*
X150126Y171121D01*
X150094Y171162D01*
Y171164D01*
X150090Y171168D01*
X150086Y171174D01*
X150082Y171184D01*
X150076Y171196D01*
X150069Y171207D01*
X150063Y171223D01*
X150055Y171241D01*
X150039Y171282D01*
X150025Y171327D01*
X150016Y171380D01*
X150012Y171435D01*
X150200Y171451D01*
Y171449D01*
Y171445D01*
X150202Y171439D01*
Y171431D01*
X150206Y171411D01*
X150212Y171384D01*
X150220Y171354D01*
X150231Y171323D01*
X150245Y171292D01*
X150261Y171262D01*
X150263Y171258D01*
X150270Y171251D01*
X150282Y171237D01*
X150298Y171221D01*
X150320Y171202D01*
X150345Y171182D01*
X150376Y171162D01*
X150412Y171145D01*
X150414D01*
X150416Y171143D01*
X150422Y171141D01*
X150429Y171139D01*
X150439Y171135D01*
X150451Y171131D01*
X150480Y171123D01*
X150514Y171115D01*
X150553Y171108D01*
X150596Y171104D01*
X150643Y171102D01*
X150663D01*
X150684Y171104D01*
X150712Y171106D01*
X150741Y171109D01*
X150776Y171115D01*
X150810Y171123D01*
X150843Y171135D01*
X150845D01*
X150847Y171137D01*
X150857Y171141D01*
X150872Y171149D01*
X150892Y171159D01*
X150913Y171172D01*
X150935Y171188D01*
X150956Y171206D01*
X150974Y171227D01*
X150976Y171229D01*
X150980Y171237D01*
X150988Y171251D01*
X150996Y171266D01*
X151004Y171286D01*
X151011Y171308D01*
X151015Y171331D01*
X151017Y171356D01*
Y171360D01*
Y171368D01*
X151015Y171382D01*
X151011Y171398D01*
X151007Y171417D01*
X151000Y171439D01*
X150988Y171460D01*
X150974Y171480D01*
X150972Y171482D01*
X150966Y171490D01*
X150956Y171500D01*
X150943Y171511D01*
X150923Y171525D01*
X150900Y171539D01*
X150872Y171555D01*
X150839Y171568D01*
X150835Y171570D01*
X150827Y171572D01*
X150819Y171576D01*
X150810Y171578D01*
X150798Y171582D01*
X150782Y171586D01*
X150766Y171592D01*
X150747Y171596D01*
X150725Y171601D01*
X150700Y171609D01*
X150672Y171615D01*
X150641Y171623D01*
X150608Y171631D01*
X150570Y171641D01*
X150568D01*
X150561Y171643D01*
X150551Y171647D01*
X150537Y171649D01*
X150520Y171654D01*
X150502Y171658D01*
X150457Y171672D01*
X150410Y171686D01*
X150361Y171703D01*
X150318Y171719D01*
X150298Y171729D01*
X150280Y171737D01*
X150278D01*
X150276Y171739D01*
X150270Y171743D01*
X150263Y171747D01*
X150243Y171758D01*
X150220Y171776D01*
X150194Y171795D01*
X150167Y171819D01*
X150141Y171846D01*
X150120Y171876D01*
Y171878D01*
X150118Y171880D01*
X150112Y171892D01*
X150104Y171907D01*
X150094Y171931D01*
X150084Y171958D01*
X150076Y171992D01*
X150071Y172027D01*
X150069Y172064D01*
Y172066D01*
Y172070D01*
Y172076D01*
X150071Y172084D01*
X150073Y172105D01*
X150076Y172135D01*
X150084Y172168D01*
X150096Y172203D01*
X150112Y172240D01*
X150133Y172278D01*
Y172280D01*
X150137Y172282D01*
X150145Y172293D01*
X150161Y172313D01*
X150180Y172335D01*
X150208Y172358D01*
X150239Y172383D01*
X150278Y172407D01*
X150321Y172429D01*
X150323D01*
X150327Y172431D01*
X150333Y172434D01*
X150343Y172436D01*
X150355Y172440D01*
X150368Y172446D01*
X150384Y172450D01*
X150402Y172456D01*
X150443Y172464D01*
X150490Y172474D01*
X150543Y172480D01*
X150598Y172482D01*
X150625D01*
X150641Y172480D01*
D02*
G37*
G36*
X153195Y172460D02*
X153209D01*
X153238Y172456D01*
X153273Y172448D01*
X153311Y172440D01*
X153350Y172427D01*
X153389Y172409D01*
X153391D01*
X153393Y172407D01*
X153399Y172403D01*
X153407Y172399D01*
X153424Y172388D01*
X153448Y172372D01*
X153473Y172350D01*
X153501Y172325D01*
X153526Y172297D01*
X153548Y172264D01*
Y172262D01*
X153550Y172260D01*
X153557Y172248D01*
X153565Y172229D01*
X153577Y172205D01*
X153587Y172176D01*
X153597Y172143D01*
X153603Y172107D01*
X153604Y172070D01*
Y172068D01*
Y172066D01*
Y172054D01*
X153603Y172035D01*
X153599Y172011D01*
X153591Y171984D01*
X153583Y171954D01*
X153569Y171923D01*
X153552Y171892D01*
X153550Y171888D01*
X153542Y171878D01*
X153530Y171864D01*
X153512Y171846D01*
X153491Y171825D01*
X153463Y171803D01*
X153432Y171784D01*
X153397Y171764D01*
X153399D01*
X153403Y171762D01*
X153410Y171760D01*
X153418Y171758D01*
X153430Y171754D01*
X153444Y171748D01*
X153473Y171737D01*
X153507Y171719D01*
X153540Y171696D01*
X153575Y171668D01*
X153604Y171635D01*
Y171633D01*
X153608Y171631D01*
X153612Y171625D01*
X153616Y171617D01*
X153622Y171607D01*
X153628Y171598D01*
X153642Y171568D01*
X153655Y171533D01*
X153667Y171492D01*
X153675Y171447D01*
X153679Y171394D01*
Y171392D01*
Y171386D01*
Y171374D01*
X153677Y171360D01*
X153675Y171343D01*
X153671Y171323D01*
X153667Y171302D01*
X153661Y171278D01*
X153654Y171253D01*
X153644Y171225D01*
X153632Y171198D01*
X153618Y171168D01*
X153601Y171141D01*
X153581Y171112D01*
X153559Y171084D01*
X153534Y171059D01*
X153532Y171057D01*
X153528Y171053D01*
X153520Y171047D01*
X153508Y171037D01*
X153495Y171027D01*
X153477Y171016D01*
X153457Y171004D01*
X153436Y170992D01*
X153410Y170978D01*
X153383Y170966D01*
X153354Y170955D01*
X153320Y170945D01*
X153287Y170935D01*
X153250Y170929D01*
X153212Y170925D01*
X153171Y170923D01*
X153152D01*
X153138Y170925D01*
X153122Y170927D01*
X153103Y170929D01*
X153079Y170933D01*
X153056Y170939D01*
X153005Y170953D01*
X152977Y170963D01*
X152950Y170972D01*
X152920Y170986D01*
X152893Y171002D01*
X152867Y171019D01*
X152842Y171041D01*
X152840Y171043D01*
X152836Y171047D01*
X152830Y171053D01*
X152821Y171063D01*
X152811Y171074D01*
X152799Y171088D01*
X152787Y171106D01*
X152773Y171123D01*
X152762Y171145D01*
X152748Y171168D01*
X152736Y171194D01*
X152725Y171221D01*
X152713Y171251D01*
X152705Y171280D01*
X152697Y171313D01*
X152693Y171349D01*
X152877Y171374D01*
Y171372D01*
X152879Y171366D01*
X152881Y171359D01*
X152883Y171349D01*
X152887Y171335D01*
X152891Y171321D01*
X152903Y171286D01*
X152917Y171249D01*
X152936Y171212D01*
X152958Y171174D01*
X152970Y171159D01*
X152983Y171145D01*
X152987Y171143D01*
X152997Y171135D01*
X153013Y171123D01*
X153036Y171112D01*
X153063Y171098D01*
X153095Y171088D01*
X153132Y171080D01*
X153171Y171076D01*
X153185D01*
X153193Y171078D01*
X153205D01*
X153218Y171080D01*
X153248Y171088D01*
X153283Y171098D01*
X153320Y171114D01*
X153358Y171137D01*
X153375Y171151D01*
X153393Y171166D01*
X153395Y171168D01*
X153397Y171170D01*
X153401Y171176D01*
X153407Y171182D01*
X153422Y171202D01*
X153438Y171229D01*
X153454Y171260D01*
X153469Y171300D01*
X153479Y171343D01*
X153483Y171366D01*
Y171390D01*
Y171392D01*
Y171396D01*
Y171402D01*
X153481Y171411D01*
Y171421D01*
X153479Y171435D01*
X153473Y171464D01*
X153463Y171498D01*
X153448Y171533D01*
X153426Y171566D01*
X153414Y171584D01*
X153399Y171599D01*
X153395Y171604D01*
X153383Y171613D01*
X153365Y171625D01*
X153342Y171641D01*
X153311Y171656D01*
X153275Y171668D01*
X153234Y171678D01*
X153187Y171682D01*
X153165D01*
X153152Y171680D01*
X153132Y171678D01*
X153109Y171674D01*
X153083Y171668D01*
X153056Y171662D01*
X153077Y171825D01*
X153081D01*
X153087Y171823D01*
X153097Y171821D01*
X153118D01*
X153126Y171823D01*
X153150Y171825D01*
X153177Y171829D01*
X153210Y171837D01*
X153246Y171846D01*
X153283Y171862D01*
X153318Y171882D01*
X153320D01*
X153322Y171886D01*
X153334Y171894D01*
X153350Y171909D01*
X153367Y171929D01*
X153385Y171956D01*
X153399Y171990D01*
X153410Y172029D01*
X153412Y172050D01*
X153414Y172074D01*
Y172076D01*
Y172078D01*
X153412Y172091D01*
X153410Y172109D01*
X153407Y172133D01*
X153397Y172158D01*
X153385Y172186D01*
X153367Y172215D01*
X153344Y172240D01*
X153340Y172244D01*
X153332Y172252D01*
X153316Y172262D01*
X153297Y172276D01*
X153271Y172287D01*
X153240Y172299D01*
X153207Y172307D01*
X153167Y172309D01*
X153158D01*
X153150Y172307D01*
X153128Y172305D01*
X153103Y172301D01*
X153075Y172291D01*
X153044Y172280D01*
X153015Y172264D01*
X152985Y172240D01*
X152981Y172237D01*
X152973Y172229D01*
X152962Y172213D01*
X152948Y172189D01*
X152932Y172162D01*
X152917Y172127D01*
X152905Y172086D01*
X152895Y172039D01*
X152711Y172072D01*
Y172074D01*
X152713Y172080D01*
X152715Y172090D01*
X152719Y172103D01*
X152723Y172117D01*
X152728Y172137D01*
X152734Y172156D01*
X152742Y172178D01*
X152764Y172223D01*
X152789Y172270D01*
X152822Y172317D01*
X152842Y172338D01*
X152864Y172358D01*
X152866Y172360D01*
X152869Y172362D01*
X152875Y172368D01*
X152885Y172374D01*
X152897Y172382D01*
X152911Y172391D01*
X152928Y172401D01*
X152946Y172411D01*
X152968Y172419D01*
X152989Y172429D01*
X153040Y172446D01*
X153099Y172458D01*
X153130Y172460D01*
X153164Y172462D01*
X153185D01*
X153195Y172460D01*
D02*
G37*
G36*
X152560Y172278D02*
X152064D01*
Y170949D01*
X151864D01*
Y172278D01*
X151368D01*
Y172456D01*
X152560D01*
Y172278D01*
D02*
G37*
%LPC*%
G36*
X80740Y50621D02*
Y50147D01*
X81420D01*
X80740Y50621D01*
D02*
G37*
G36*
X9584Y172160D02*
X9110Y171480D01*
X9584D01*
Y172160D01*
D02*
G37*
%LPD*%
M02*
