G04*
G04 #@! TF.GenerationSoftware,Altium Limited,Altium Designer,25.2.1 (25)*
G04*
G04 Layer_Color=16711935*
%FSLAX25Y25*%
%MOIN*%
G70*
G04*
G04 #@! TF.SameCoordinates,1F312145-2A38-4454-B551-27999C65A1A9*
G04*
G04*
G04 #@! TF.FilePolarity,Positive*
G04*
G01*
G75*
%ADD10C,0.00394*%
%ADD76R,0.11811X0.01959*%
D10*
X47835Y26969D02*
G03*
X47835Y26969I-1969J0D01*
G01*
X91339Y50394D02*
G03*
X91339Y50394I-1575J0D01*
G01*
X15748Y134449D02*
X31496D01*
X15748Y133071D02*
Y134449D01*
X0Y133071D02*
X15748D01*
X0Y131299D02*
Y133071D01*
X-7874Y131299D02*
X0D01*
X-7874Y111614D02*
Y131299D01*
Y111614D02*
X0D01*
Y109843D02*
Y111614D01*
Y109843D02*
X47244D01*
Y134449D01*
X31496D02*
X47244D01*
X33268Y23425D02*
X49409D01*
X33268Y39567D02*
X49409D01*
X33268Y23425D02*
Y39567D01*
X49409Y23425D02*
Y39567D01*
X94488Y47244D02*
Y59055D01*
X86614Y47244D02*
Y59055D01*
X94488D01*
X86614Y47244D02*
X94488D01*
X17717Y38780D02*
X29528D01*
X17717Y24213D02*
X29528D01*
Y38780D01*
X17717Y24213D02*
Y38780D01*
X135827Y109646D02*
X151575D01*
Y111024D01*
X167323D01*
Y112795D01*
X175197D01*
Y132480D01*
X167323D02*
X175197D01*
X167323D02*
Y134252D01*
X120079D02*
X167323D01*
X120079Y109646D02*
Y134252D01*
Y109646D02*
X135827D01*
X53936Y133662D02*
X83857D01*
Y110434D02*
Y133662D01*
X53936Y110433D02*
X83858D01*
X53936Y110434D02*
Y114369D01*
X53937Y114370D01*
X60236D01*
X53937Y129724D02*
Y133661D01*
Y129724D02*
X60236D01*
Y114370D02*
Y129724D01*
D76*
X23623Y37800D02*
D03*
M02*
