G04*
G04 #@! TF.GenerationSoftware,Altium Limited,Altium Designer,25.2.1 (25)*
G04*
G04 Layer_Color=32896*
%FSLAX25Y25*%
%MOIN*%
G70*
G04*
G04 #@! TF.SameCoordinates,1F312145-2A38-4454-B551-27999C65A1A9*
G04*
G04*
G04 #@! TF.FilePolarity,Positive*
G04*
G01*
G75*
%ADD10C,0.00394*%
D10*
X88583Y82677D02*
X92520D01*
X90551Y80709D02*
Y84646D01*
X68898Y90551D02*
Y94488D01*
X66929Y92520D02*
X70866D01*
X108268Y11811D02*
X112205D01*
X110236Y9843D02*
Y13780D01*
X122146Y66929D02*
X126083D01*
X124114Y64961D02*
Y68898D01*
X64961Y59055D02*
X68898D01*
X66929Y57087D02*
Y61024D01*
X39370Y55118D02*
X43307D01*
X41339Y53150D02*
Y57087D01*
X120079Y31496D02*
X124016D01*
X122047Y29528D02*
Y33465D01*
X66929Y27559D02*
Y31496D01*
X64961Y29528D02*
X68898D01*
X80709Y74803D02*
Y78740D01*
X78740Y76772D02*
X82677D01*
X98425Y35433D02*
X102362D01*
X100394Y33465D02*
Y37402D01*
X39370Y51181D02*
X43307D01*
X41339Y49213D02*
Y53150D01*
X84646Y13780D02*
Y17717D01*
X82677Y15748D02*
X86614D01*
X94488Y88583D02*
X98425D01*
X96457Y86614D02*
Y90551D01*
X66929Y82677D02*
X70866D01*
X68898Y80709D02*
Y84646D01*
X80709Y27559D02*
Y31496D01*
X78740Y29528D02*
X82677D01*
X84646Y41339D02*
X88583D01*
X86614Y39370D02*
Y43307D01*
X84646Y3937D02*
Y7874D01*
X82677Y5906D02*
X86614D01*
X90551Y68898D02*
Y72835D01*
X88583Y70866D02*
X92520D01*
M02*
