G04*
G04 #@! TF.GenerationSoftware,Altium Limited,Altium Designer,25.2.1 (25)*
G04*
G04 Layer_Color=8388736*
%FSLAX25Y25*%
%MOIN*%
G70*
G04*
G04 #@! TF.SameCoordinates,1F312145-2A38-4454-B551-27999C65A1A9*
G04*
G04*
G04 #@! TF.FilePolarity,Negative*
G04*
G01*
G75*
%ADD15R,0.03150X0.03543*%
%ADD16R,0.03543X0.03150*%
%ADD21R,0.01181X0.04528*%
%ADD22R,0.02362X0.04528*%
%ADD23C,0.04752*%
%ADD24R,0.02756X0.02756*%
%ADD25R,0.05709X0.05709*%
%ADD26R,0.03150X0.01575*%
%ADD27R,0.01575X0.03150*%
%ADD30R,0.04921X0.04803*%
%ADD31R,0.05269X0.02275*%
G04:AMPARAMS|DCode=32|XSize=52.69mil|YSize=22.75mil|CornerRadius=11.38mil|HoleSize=0mil|Usage=FLASHONLY|Rotation=180.000|XOffset=0mil|YOffset=0mil|HoleType=Round|Shape=RoundedRectangle|*
%AMROUNDEDRECTD32*
21,1,0.05269,0.00000,0,0,180.0*
21,1,0.02993,0.02275,0,0,180.0*
1,1,0.02275,-0.01497,0.00000*
1,1,0.02275,0.01497,0.00000*
1,1,0.02275,0.01497,0.00000*
1,1,0.02275,-0.01497,0.00000*
%
%ADD32ROUNDEDRECTD32*%
%ADD33R,0.02237X0.02254*%
%ADD34R,0.02894X0.03394*%
%ADD35R,0.02362X0.02362*%
%ADD36R,0.02362X0.02362*%
%ADD37R,0.03394X0.02894*%
%ADD40R,0.03150X0.03150*%
%ADD41C,0.00689*%
G04:AMPARAMS|DCode=42|XSize=37.92mil|YSize=34mil|CornerRadius=7.25mil|HoleSize=0mil|Usage=FLASHONLY|Rotation=90.000|XOffset=0mil|YOffset=0mil|HoleType=Round|Shape=RoundedRectangle|*
%AMROUNDEDRECTD42*
21,1,0.03792,0.01950,0,0,90.0*
21,1,0.02342,0.03400,0,0,90.0*
1,1,0.01450,0.00975,0.01171*
1,1,0.01450,0.00975,-0.01171*
1,1,0.01450,-0.00975,-0.01171*
1,1,0.01450,-0.00975,0.01171*
%
%ADD42ROUNDEDRECTD42*%
%ADD43R,0.06706X0.12611*%
%ADD44R,0.06706X0.11824*%
G04:AMPARAMS|DCode=45|XSize=37.92mil|YSize=34mil|CornerRadius=7.25mil|HoleSize=0mil|Usage=FLASHONLY|Rotation=0.000|XOffset=0mil|YOffset=0mil|HoleType=Round|Shape=RoundedRectangle|*
%AMROUNDEDRECTD45*
21,1,0.03792,0.01950,0,0,0.0*
21,1,0.02342,0.03400,0,0,0.0*
1,1,0.01450,0.01171,-0.00975*
1,1,0.01450,-0.01171,-0.00975*
1,1,0.01450,-0.01171,0.00975*
1,1,0.01450,0.01171,0.00975*
%
%ADD45ROUNDEDRECTD45*%
G04:AMPARAMS|DCode=46|XSize=15.81mil|YSize=23.68mil|CornerRadius=3.95mil|HoleSize=0mil|Usage=FLASHONLY|Rotation=90.000|XOffset=0mil|YOffset=0mil|HoleType=Round|Shape=RoundedRectangle|*
%AMROUNDEDRECTD46*
21,1,0.01581,0.01579,0,0,90.0*
21,1,0.00791,0.02368,0,0,90.0*
1,1,0.00790,0.00789,0.00396*
1,1,0.00790,0.00789,-0.00396*
1,1,0.00790,-0.00789,-0.00396*
1,1,0.00790,-0.00789,0.00396*
%
%ADD46ROUNDEDRECTD46*%
G04:AMPARAMS|DCode=47|XSize=122.11mil|YSize=90.61mil|CornerRadius=4.17mil|HoleSize=0mil|Usage=FLASHONLY|Rotation=90.000|XOffset=0mil|YOffset=0mil|HoleType=Round|Shape=RoundedRectangle|*
%AMROUNDEDRECTD47*
21,1,0.12211,0.08228,0,0,90.0*
21,1,0.11378,0.09061,0,0,90.0*
1,1,0.00833,0.04114,0.05689*
1,1,0.00833,0.04114,-0.05689*
1,1,0.00833,-0.04114,-0.05689*
1,1,0.00833,-0.04114,0.05689*
%
%ADD47ROUNDEDRECTD47*%
%ADD48R,0.06548X0.06154*%
%ADD49R,0.01981X0.03753*%
%ADD50R,0.11824X0.06312*%
%ADD51C,0.03753*%
G04:AMPARAMS|DCode=52|XSize=39.37mil|YSize=70.87mil|CornerRadius=19.68mil|HoleSize=0mil|Usage=FLASHONLY|Rotation=0.000|XOffset=0mil|YOffset=0mil|HoleType=Round|Shape=RoundedRectangle|*
%AMROUNDEDRECTD52*
21,1,0.03937,0.03150,0,0,0.0*
21,1,0.00000,0.07087,0,0,0.0*
1,1,0.03937,0.00000,-0.01575*
1,1,0.03937,0.00000,-0.01575*
1,1,0.03937,0.00000,0.01575*
1,1,0.03937,0.00000,0.01575*
%
%ADD52ROUNDEDRECTD52*%
G04:AMPARAMS|DCode=53|XSize=39.37mil|YSize=82.68mil|CornerRadius=19.68mil|HoleSize=0mil|Usage=FLASHONLY|Rotation=0.000|XOffset=0mil|YOffset=0mil|HoleType=Round|Shape=RoundedRectangle|*
%AMROUNDEDRECTD53*
21,1,0.03937,0.04331,0,0,0.0*
21,1,0.00000,0.08268,0,0,0.0*
1,1,0.03937,0.00000,-0.02165*
1,1,0.03937,0.00000,-0.02165*
1,1,0.03937,0.00000,0.02165*
1,1,0.03937,0.00000,0.02165*
%
%ADD53ROUNDEDRECTD53*%
%ADD54C,0.02559*%
%ADD55R,0.05524X0.05524*%
%ADD56C,0.05524*%
%ADD57C,0.20485*%
%ADD58C,0.04737*%
%ADD59C,0.02572*%
%ADD60C,0.02769*%
%ADD61C,0.02362*%
G36*
X134744Y75197D02*
Y71850D01*
X129035D01*
Y77559D01*
X132382D01*
X134744Y75197D01*
D02*
G37*
D15*
X90551Y79331D02*
D03*
Y86024D02*
D03*
X70669Y33465D02*
D03*
X63189D02*
D03*
X66929Y25591D02*
D03*
X80709Y73425D02*
D03*
Y80118D02*
D03*
Y26181D02*
D03*
Y32874D02*
D03*
D16*
X72244Y92520D02*
D03*
X65551D02*
D03*
X72244Y82677D02*
D03*
X65551D02*
D03*
D21*
X103347Y25945D02*
D03*
X105315D02*
D03*
X107283D02*
D03*
X109252D02*
D03*
X113189D02*
D03*
X115157D02*
D03*
X117126D02*
D03*
X111221D02*
D03*
D22*
X100787D02*
D03*
X119685D02*
D03*
X97638D02*
D03*
X122835D02*
D03*
D23*
X131696Y74511D02*
D03*
D24*
X143602Y90354D02*
D03*
X104626D02*
D03*
Y43504D02*
D03*
X143602D02*
D03*
D25*
X124114Y59153D02*
D03*
Y66929D02*
D03*
Y74705D02*
D03*
X116339Y59153D02*
D03*
Y66929D02*
D03*
Y74705D02*
D03*
X131890Y59153D02*
D03*
Y66929D02*
D03*
D26*
X143405Y85827D02*
D03*
Y82677D02*
D03*
Y79528D02*
D03*
Y76378D02*
D03*
Y73228D02*
D03*
Y70079D02*
D03*
Y66929D02*
D03*
Y63779D02*
D03*
Y60630D02*
D03*
Y57480D02*
D03*
Y54331D02*
D03*
Y51181D02*
D03*
Y48031D02*
D03*
X104823D02*
D03*
Y51181D02*
D03*
Y54331D02*
D03*
Y57480D02*
D03*
Y60630D02*
D03*
Y63779D02*
D03*
Y66929D02*
D03*
Y70079D02*
D03*
Y73228D02*
D03*
Y76378D02*
D03*
Y79528D02*
D03*
Y82677D02*
D03*
Y85827D02*
D03*
D27*
X139862Y43701D02*
D03*
X136713D02*
D03*
X133563D02*
D03*
X130413D02*
D03*
X127264D02*
D03*
X124114D02*
D03*
X120965D02*
D03*
X117815D02*
D03*
X114665D02*
D03*
X111516D02*
D03*
X108366D02*
D03*
Y90158D02*
D03*
X111516D02*
D03*
X114665D02*
D03*
X117815D02*
D03*
X120965D02*
D03*
X124114D02*
D03*
X127264D02*
D03*
X130413D02*
D03*
X133563D02*
D03*
X136713D02*
D03*
X139862D02*
D03*
D30*
X61122Y43307D02*
D03*
X72736D02*
D03*
D31*
X71324Y55315D02*
D03*
D32*
Y59055D02*
D03*
Y62795D02*
D03*
X62535D02*
D03*
Y55315D02*
D03*
D33*
X43119Y55118D02*
D03*
X39559D02*
D03*
D34*
X119624Y31496D02*
D03*
X124470D02*
D03*
X102816Y35433D02*
D03*
X97971D02*
D03*
X88128Y70866D02*
D03*
X92974D02*
D03*
D35*
X43406Y51181D02*
D03*
X39272D02*
D03*
D36*
X84646Y13681D02*
D03*
Y17815D02*
D03*
D37*
X96457Y86160D02*
D03*
Y91005D02*
D03*
D40*
X84646Y8858D02*
D03*
Y2953D02*
D03*
D41*
X86152Y39370D02*
G03*
X86152Y39370I-344J0D01*
G01*
Y43307D02*
G03*
X86152Y43307I-344J0D01*
G01*
X87766Y39370D02*
G03*
X87766Y39370I-344J0D01*
G01*
Y43307D02*
G03*
X87766Y43307I-344J0D01*
G01*
D42*
X38583Y61024D02*
D03*
X44094D02*
D03*
Y45276D02*
D03*
X38583D02*
D03*
X71653Y72835D02*
D03*
X66142D02*
D03*
D43*
X43307Y108858D02*
D03*
Y135630D02*
D03*
X124016Y135236D02*
D03*
Y108465D02*
D03*
D44*
X21654D02*
D03*
X8268Y134449D02*
D03*
X145669Y135630D02*
D03*
X159055Y109646D02*
D03*
D45*
X80709Y50000D02*
D03*
Y44488D02*
D03*
D46*
X47835Y26772D02*
D03*
Y29921D02*
D03*
Y33071D02*
D03*
Y36220D02*
D03*
X34843D02*
D03*
Y33071D02*
D03*
Y29921D02*
D03*
Y26772D02*
D03*
D47*
X41339Y31496D02*
D03*
D48*
X90551Y53150D02*
D03*
D49*
X93504Y59055D02*
D03*
X91535D02*
D03*
X89567D02*
D03*
X87598D02*
D03*
X93504Y47244D02*
D03*
X91535D02*
D03*
X89567D02*
D03*
X87598D02*
D03*
D50*
X23622Y36614D02*
D03*
Y26378D02*
D03*
D51*
X41339Y121457D02*
D03*
X125984Y122638D02*
D03*
D52*
X93228Y7224D02*
D03*
X127244D02*
D03*
D53*
X93228Y23681D02*
D03*
X127244D02*
D03*
D54*
X98858Y21713D02*
D03*
X121614D02*
D03*
D55*
X59252Y118110D02*
D03*
D56*
Y125984D02*
D03*
D57*
X11811Y11811D02*
D03*
X155512D02*
D03*
X11811Y159449D02*
D03*
X155512D02*
D03*
D58*
X159842Y124409D02*
D03*
Y100787D02*
D03*
Y29921D02*
D03*
X148031Y148031D02*
D03*
X153937Y136220D02*
D03*
X148031Y124409D02*
D03*
Y100787D02*
D03*
Y29921D02*
D03*
X142126Y159842D02*
D03*
X136220Y148031D02*
D03*
X142126Y112598D02*
D03*
X136220Y100787D02*
D03*
Y77165D02*
D03*
Y53543D02*
D03*
Y29921D02*
D03*
X142126Y18110D02*
D03*
X136220Y6299D02*
D03*
X124409Y148031D02*
D03*
X130315Y136220D02*
D03*
Y112598D02*
D03*
X124409Y53543D02*
D03*
X112598Y148031D02*
D03*
X118504Y136220D02*
D03*
Y112598D02*
D03*
X112598Y53543D02*
D03*
Y6299D02*
D03*
X100787Y148031D02*
D03*
Y6299D02*
D03*
X88976Y148031D02*
D03*
X94882Y41732D02*
D03*
X77165Y148031D02*
D03*
X83071Y136220D02*
D03*
X77165Y124409D02*
D03*
X83071Y112598D02*
D03*
X65354Y148031D02*
D03*
X71260Y136220D02*
D03*
Y112598D02*
D03*
Y18110D02*
D03*
X65354Y6299D02*
D03*
X53543Y148031D02*
D03*
X59449Y136220D02*
D03*
Y112598D02*
D03*
X53543Y77165D02*
D03*
Y29921D02*
D03*
X59449Y18110D02*
D03*
X53543Y6299D02*
D03*
X41732Y148031D02*
D03*
X47638Y88976D02*
D03*
X41732Y77165D02*
D03*
X47638Y65354D02*
D03*
Y41732D02*
D03*
Y18110D02*
D03*
X41732Y6299D02*
D03*
X29921Y148031D02*
D03*
X35827Y136220D02*
D03*
X29921Y124409D02*
D03*
X35827Y112598D02*
D03*
Y88976D02*
D03*
X29921Y77165D02*
D03*
X35827Y65354D02*
D03*
X29921Y53543D02*
D03*
X35827Y18110D02*
D03*
X29921Y6299D02*
D03*
X18110Y148031D02*
D03*
X24016Y136220D02*
D03*
X18110Y124409D02*
D03*
X24016Y88976D02*
D03*
X18110Y77165D02*
D03*
X24016Y65354D02*
D03*
X18110Y53543D02*
D03*
X24016Y18110D02*
D03*
X6299Y124409D02*
D03*
X12205Y112598D02*
D03*
X6299Y100787D02*
D03*
X12205Y88976D02*
D03*
X6299Y77165D02*
D03*
X12205Y65354D02*
D03*
X6299Y53543D02*
D03*
X12205Y41732D02*
D03*
X6299Y29921D02*
D03*
X33465Y43307D02*
D03*
X84646Y64961D02*
D03*
D59*
X109274Y32173D02*
D03*
X108268Y21654D02*
D03*
X65551Y92520D02*
D03*
X80709Y73425D02*
D03*
X71653Y72835D02*
D03*
X71324Y59055D02*
D03*
X159055Y109646D02*
D03*
X124016Y135236D02*
D03*
X8268Y134449D02*
D03*
X43307Y108858D02*
D03*
X110236Y84646D02*
D03*
X90551Y86024D02*
D03*
X64961Y86614D02*
D03*
X90551Y90551D02*
D03*
X124016Y108268D02*
D03*
Y82677D02*
D03*
X70866Y51181D02*
D03*
X84646Y21654D02*
D03*
X80709Y80118D02*
D03*
X100394Y82677D02*
D03*
X98425Y58601D02*
D03*
Y51635D02*
D03*
D60*
X43307Y31496D02*
D03*
X39370D02*
D03*
X41339Y28740D02*
D03*
Y34252D02*
D03*
X90551Y53150D02*
D03*
D61*
X131890Y63041D02*
D03*
X124114D02*
D03*
X116339D02*
D03*
X131890Y70817D02*
D03*
X124114D02*
D03*
X116339D02*
D03*
X120226Y59153D02*
D03*
Y66929D02*
D03*
Y74705D02*
D03*
X128002Y59153D02*
D03*
Y66929D02*
D03*
Y74705D02*
D03*
M02*
