G04*
G04 #@! TF.GenerationSoftware,Altium Limited,Altium Designer,25.2.1 (25)*
G04*
G04 Layer_Color=32768*
%FSLAX25Y25*%
%MOIN*%
G70*
G04*
G04 #@! TF.SameCoordinates,1F312145-2A38-4454-B551-27999C65A1A9*
G04*
G04*
G04 #@! TF.FilePolarity,Positive*
G04*
G01*
G75*
%ADD10C,0.00394*%
%ADD12C,0.00787*%
G36*
X93073Y81503D02*
X93070Y81473D01*
Y81444D01*
X93067Y81408D01*
X93064Y81368D01*
X93057Y81287D01*
X93044Y81201D01*
X93028Y81119D01*
X93018Y81080D01*
X93005Y81047D01*
Y81044D01*
X93001Y81041D01*
X92998Y81031D01*
X92992Y81018D01*
X92975Y80985D01*
X92949Y80945D01*
X92916Y80900D01*
X92873Y80853D01*
X92821Y80808D01*
X92762Y80765D01*
X92759D01*
X92755Y80762D01*
X92746Y80755D01*
X92732Y80749D01*
X92696Y80732D01*
X92650Y80712D01*
X92595Y80693D01*
X92529Y80676D01*
X92457Y80663D01*
X92381Y80660D01*
X92378D01*
X92368D01*
X92355D01*
X92335Y80663D01*
X92313Y80667D01*
X92286Y80670D01*
X92224Y80683D01*
X92152Y80703D01*
X92076Y80732D01*
X92040Y80752D01*
X92001Y80775D01*
X91965Y80804D01*
X91929Y80834D01*
X91926Y80837D01*
X91922Y80840D01*
X91912Y80853D01*
X91899Y80867D01*
X91886Y80886D01*
X91870Y80909D01*
X91850Y80936D01*
X91830Y80965D01*
X91811Y81001D01*
X91791Y81041D01*
X91771Y81086D01*
X91752Y81136D01*
X91735Y81188D01*
X91719Y81244D01*
X91706Y81306D01*
X91696Y81372D01*
X91693Y81365D01*
X91686Y81349D01*
X91673Y81326D01*
X91657Y81296D01*
X91614Y81231D01*
X91591Y81201D01*
X91568Y81172D01*
Y81168D01*
X91561Y81165D01*
X91545Y81146D01*
X91515Y81119D01*
X91476Y81080D01*
X91430Y81037D01*
X91371Y80991D01*
X91306Y80942D01*
X91233Y80893D01*
X90551Y80457D01*
Y80876D01*
X91073Y81208D01*
X91076D01*
X91083Y81214D01*
X91096Y81221D01*
X91109Y81231D01*
X91128Y81244D01*
X91151Y81260D01*
X91201Y81293D01*
X91256Y81332D01*
X91312Y81372D01*
X91368Y81411D01*
X91417Y81450D01*
X91424Y81454D01*
X91437Y81467D01*
X91460Y81483D01*
X91483Y81506D01*
X91512Y81533D01*
X91542Y81562D01*
X91565Y81591D01*
X91588Y81621D01*
X91591Y81624D01*
X91594Y81634D01*
X91604Y81647D01*
X91614Y81667D01*
X91627Y81690D01*
X91637Y81716D01*
X91657Y81772D01*
Y81775D01*
X91660Y81782D01*
Y81795D01*
X91663Y81815D01*
X91666Y81841D01*
Y81874D01*
X91670Y81910D01*
Y82343D01*
X90551D01*
Y82677D01*
X93073D01*
Y81503D01*
D02*
G37*
G36*
X92450Y80020D02*
X92457Y80011D01*
X92463Y79997D01*
X92473Y79981D01*
X92483Y79958D01*
X92500Y79932D01*
X92532Y79870D01*
X92575Y79801D01*
X92627Y79722D01*
X92683Y79646D01*
X92746Y79571D01*
X92749Y79568D01*
X92752Y79561D01*
X92762Y79551D01*
X92775Y79538D01*
X92808Y79505D01*
X92854Y79463D01*
X92903Y79420D01*
X92962Y79374D01*
X93021Y79332D01*
X93083Y79295D01*
Y79096D01*
X90551D01*
Y79404D01*
X92522D01*
X92519Y79410D01*
X92506Y79423D01*
X92483Y79450D01*
X92457Y79483D01*
X92424Y79525D01*
X92388Y79578D01*
X92349Y79633D01*
X92309Y79699D01*
Y79702D01*
X92306Y79706D01*
X92299Y79715D01*
X92293Y79729D01*
X92273Y79765D01*
X92250Y79807D01*
X92224Y79856D01*
X92198Y79912D01*
X92172Y79968D01*
X92149Y80024D01*
X92450D01*
Y80020D01*
D02*
G37*
G36*
X93073Y77255D02*
Y77003D01*
X91440D01*
Y76662D01*
X91155D01*
Y77003D01*
X90551D01*
Y77311D01*
X91155D01*
Y78407D01*
X91440D01*
X93073Y77255D01*
D02*
G37*
G36*
X74113Y95091D02*
X74136D01*
X74185Y95085D01*
X74244Y95072D01*
X74306Y95058D01*
X74372Y95035D01*
X74437Y95006D01*
X74441D01*
X74444Y95003D01*
X74454Y94996D01*
X74467Y94990D01*
X74497Y94970D01*
X74536Y94944D01*
X74578Y94907D01*
X74625Y94865D01*
X74667Y94819D01*
X74703Y94763D01*
Y94760D01*
X74707Y94757D01*
X74720Y94737D01*
X74733Y94704D01*
X74752Y94665D01*
X74769Y94616D01*
X74785Y94560D01*
X74795Y94501D01*
X74798Y94438D01*
Y94435D01*
Y94432D01*
Y94412D01*
X74795Y94379D01*
X74788Y94340D01*
X74775Y94294D01*
X74762Y94245D01*
X74739Y94192D01*
X74710Y94140D01*
X74707Y94133D01*
X74693Y94117D01*
X74674Y94094D01*
X74644Y94064D01*
X74608Y94028D01*
X74562Y93992D01*
X74510Y93960D01*
X74451Y93927D01*
X74454D01*
X74461Y93923D01*
X74474Y93920D01*
X74487Y93917D01*
X74506Y93910D01*
X74529Y93901D01*
X74578Y93881D01*
X74634Y93851D01*
X74690Y93812D01*
X74749Y93766D01*
X74798Y93710D01*
Y93707D01*
X74805Y93704D01*
X74811Y93694D01*
X74818Y93681D01*
X74828Y93664D01*
X74838Y93648D01*
X74861Y93599D01*
X74884Y93540D01*
X74903Y93471D01*
X74916Y93395D01*
X74923Y93307D01*
Y93304D01*
Y93294D01*
Y93274D01*
X74920Y93251D01*
X74916Y93222D01*
X74910Y93189D01*
X74903Y93153D01*
X74893Y93113D01*
X74880Y93071D01*
X74864Y93025D01*
X74844Y92979D01*
X74821Y92930D01*
X74792Y92884D01*
X74759Y92835D01*
X74723Y92789D01*
X74680Y92746D01*
X74677Y92743D01*
X74670Y92736D01*
X74657Y92726D01*
X74638Y92710D01*
X74615Y92694D01*
X74585Y92674D01*
X74552Y92654D01*
X74516Y92634D01*
X74474Y92611D01*
X74428Y92592D01*
X74379Y92572D01*
X74323Y92556D01*
X74267Y92539D01*
X74205Y92529D01*
X74142Y92523D01*
X74073Y92520D01*
X74041D01*
X74018Y92523D01*
X73991Y92526D01*
X73959Y92529D01*
X73919Y92536D01*
X73880Y92546D01*
X73795Y92569D01*
X73749Y92585D01*
X73703Y92602D01*
X73654Y92625D01*
X73608Y92651D01*
X73565Y92680D01*
X73522Y92716D01*
X73519Y92720D01*
X73513Y92726D01*
X73503Y92736D01*
X73486Y92752D01*
X73470Y92772D01*
X73450Y92795D01*
X73431Y92825D01*
X73408Y92854D01*
X73388Y92890D01*
X73365Y92930D01*
X73345Y92972D01*
X73326Y93018D01*
X73306Y93067D01*
X73293Y93117D01*
X73280Y93172D01*
X73273Y93231D01*
X73581Y93274D01*
Y93271D01*
X73585Y93261D01*
X73588Y93248D01*
X73591Y93231D01*
X73598Y93208D01*
X73604Y93186D01*
X73624Y93126D01*
X73647Y93064D01*
X73680Y93002D01*
X73716Y92940D01*
X73736Y92913D01*
X73759Y92890D01*
X73765Y92887D01*
X73782Y92874D01*
X73808Y92854D01*
X73847Y92835D01*
X73893Y92812D01*
X73945Y92795D01*
X74008Y92782D01*
X74073Y92775D01*
X74096D01*
X74110Y92779D01*
X74129D01*
X74152Y92782D01*
X74201Y92795D01*
X74260Y92812D01*
X74323Y92838D01*
X74385Y92877D01*
X74414Y92900D01*
X74444Y92926D01*
X74447Y92930D01*
X74451Y92933D01*
X74457Y92943D01*
X74467Y92953D01*
X74493Y92985D01*
X74519Y93031D01*
X74546Y93084D01*
X74572Y93149D01*
X74588Y93222D01*
X74595Y93261D01*
Y93300D01*
Y93304D01*
Y93310D01*
Y93320D01*
X74592Y93336D01*
Y93353D01*
X74588Y93376D01*
X74578Y93425D01*
X74562Y93481D01*
X74536Y93540D01*
X74500Y93595D01*
X74480Y93625D01*
X74454Y93651D01*
X74447Y93658D01*
X74428Y93674D01*
X74398Y93694D01*
X74359Y93720D01*
X74306Y93746D01*
X74247Y93766D01*
X74178Y93782D01*
X74100Y93789D01*
X74064D01*
X74041Y93786D01*
X74008Y93782D01*
X73968Y93776D01*
X73926Y93766D01*
X73880Y93756D01*
X73916Y94028D01*
X73923D01*
X73932Y94025D01*
X73949Y94022D01*
X73985D01*
X73998Y94025D01*
X74037Y94028D01*
X74083Y94035D01*
X74139Y94048D01*
X74198Y94064D01*
X74260Y94091D01*
X74319Y94124D01*
X74323D01*
X74326Y94130D01*
X74346Y94143D01*
X74372Y94169D01*
X74401Y94202D01*
X74431Y94248D01*
X74454Y94304D01*
X74474Y94370D01*
X74477Y94406D01*
X74480Y94445D01*
Y94448D01*
Y94452D01*
X74477Y94475D01*
X74474Y94504D01*
X74467Y94543D01*
X74451Y94586D01*
X74431Y94632D01*
X74401Y94681D01*
X74362Y94724D01*
X74356Y94730D01*
X74342Y94744D01*
X74316Y94760D01*
X74283Y94783D01*
X74241Y94802D01*
X74188Y94822D01*
X74133Y94835D01*
X74067Y94839D01*
X74050D01*
X74037Y94835D01*
X74001Y94832D01*
X73959Y94826D01*
X73913Y94809D01*
X73860Y94789D01*
X73811Y94763D01*
X73762Y94724D01*
X73755Y94717D01*
X73742Y94704D01*
X73722Y94678D01*
X73699Y94639D01*
X73673Y94593D01*
X73647Y94534D01*
X73627Y94465D01*
X73611Y94386D01*
X73303Y94442D01*
Y94445D01*
X73306Y94455D01*
X73309Y94471D01*
X73316Y94494D01*
X73322Y94517D01*
X73332Y94550D01*
X73342Y94583D01*
X73355Y94619D01*
X73391Y94694D01*
X73434Y94773D01*
X73490Y94852D01*
X73522Y94888D01*
X73558Y94921D01*
X73562Y94924D01*
X73568Y94927D01*
X73578Y94937D01*
X73595Y94947D01*
X73614Y94960D01*
X73637Y94976D01*
X73667Y94993D01*
X73696Y95009D01*
X73732Y95022D01*
X73768Y95039D01*
X73854Y95068D01*
X73952Y95088D01*
X74005Y95091D01*
X74060Y95094D01*
X74096D01*
X74113Y95091D01*
D02*
G37*
G36*
X72479Y92562D02*
X72171D01*
Y94534D01*
X72164Y94530D01*
X72151Y94517D01*
X72125Y94494D01*
X72092Y94468D01*
X72050Y94435D01*
X71997Y94399D01*
X71941Y94360D01*
X71876Y94320D01*
X71873D01*
X71869Y94317D01*
X71859Y94310D01*
X71846Y94304D01*
X71810Y94284D01*
X71768Y94261D01*
X71718Y94235D01*
X71663Y94209D01*
X71607Y94183D01*
X71551Y94160D01*
Y94461D01*
X71554D01*
X71564Y94468D01*
X71577Y94475D01*
X71594Y94484D01*
X71617Y94494D01*
X71643Y94511D01*
X71705Y94543D01*
X71774Y94586D01*
X71853Y94639D01*
X71928Y94694D01*
X72004Y94757D01*
X72007Y94760D01*
X72014Y94763D01*
X72023Y94773D01*
X72036Y94786D01*
X72069Y94819D01*
X72112Y94865D01*
X72155Y94914D01*
X72201Y94973D01*
X72243Y95032D01*
X72279Y95094D01*
X72479D01*
Y92562D01*
D02*
G37*
G36*
X70101Y95081D02*
X70131D01*
X70167Y95078D01*
X70206Y95075D01*
X70288Y95068D01*
X70374Y95055D01*
X70456Y95039D01*
X70495Y95029D01*
X70528Y95016D01*
X70531D01*
X70534Y95012D01*
X70544Y95009D01*
X70557Y95003D01*
X70590Y94986D01*
X70629Y94960D01*
X70675Y94927D01*
X70721Y94885D01*
X70767Y94832D01*
X70810Y94773D01*
Y94770D01*
X70813Y94766D01*
X70820Y94757D01*
X70826Y94744D01*
X70843Y94707D01*
X70862Y94661D01*
X70882Y94606D01*
X70898Y94540D01*
X70912Y94468D01*
X70915Y94393D01*
Y94389D01*
Y94379D01*
Y94366D01*
X70912Y94347D01*
X70908Y94324D01*
X70905Y94297D01*
X70892Y94235D01*
X70872Y94163D01*
X70843Y94087D01*
X70823Y94051D01*
X70800Y94012D01*
X70771Y93976D01*
X70741Y93940D01*
X70738Y93937D01*
X70734Y93933D01*
X70721Y93923D01*
X70708Y93910D01*
X70688Y93897D01*
X70666Y93881D01*
X70639Y93861D01*
X70610Y93841D01*
X70574Y93822D01*
X70534Y93802D01*
X70488Y93782D01*
X70439Y93763D01*
X70387Y93746D01*
X70331Y93730D01*
X70269Y93717D01*
X70203Y93707D01*
X70210Y93704D01*
X70226Y93697D01*
X70249Y93684D01*
X70279Y93668D01*
X70344Y93625D01*
X70374Y93602D01*
X70403Y93579D01*
X70406D01*
X70410Y93572D01*
X70429Y93556D01*
X70456Y93527D01*
X70495Y93487D01*
X70538Y93441D01*
X70583Y93382D01*
X70633Y93317D01*
X70682Y93244D01*
X71118Y92562D01*
X70698D01*
X70367Y93084D01*
Y93087D01*
X70360Y93094D01*
X70354Y93107D01*
X70344Y93120D01*
X70331Y93140D01*
X70315Y93163D01*
X70282Y93212D01*
X70242Y93268D01*
X70203Y93323D01*
X70164Y93379D01*
X70124Y93428D01*
X70121Y93435D01*
X70108Y93448D01*
X70091Y93471D01*
X70069Y93494D01*
X70042Y93523D01*
X70013Y93553D01*
X69983Y93576D01*
X69954Y93599D01*
X69950Y93602D01*
X69941Y93605D01*
X69928Y93615D01*
X69908Y93625D01*
X69885Y93638D01*
X69859Y93648D01*
X69803Y93668D01*
X69800D01*
X69793Y93671D01*
X69780D01*
X69760Y93674D01*
X69734Y93678D01*
X69701D01*
X69665Y93681D01*
X69232D01*
Y92562D01*
X68898D01*
Y95085D01*
X70072D01*
X70101Y95081D01*
D02*
G37*
G36*
X111624Y13297D02*
Y13294D01*
Y13284D01*
Y13267D01*
Y13244D01*
X111620Y13218D01*
Y13189D01*
X111617Y13153D01*
X111614Y13117D01*
X111604Y13038D01*
X111591Y12956D01*
X111571Y12877D01*
X111558Y12838D01*
X111545Y12805D01*
Y12802D01*
X111542Y12798D01*
X111538Y12789D01*
X111532Y12775D01*
X111512Y12746D01*
X111486Y12707D01*
X111453Y12664D01*
X111410Y12621D01*
X111361Y12579D01*
X111302Y12539D01*
X111299D01*
X111296Y12536D01*
X111286Y12533D01*
X111273Y12526D01*
X111240Y12510D01*
X111191Y12497D01*
X111135Y12480D01*
X111069Y12464D01*
X110994Y12454D01*
X110912Y12451D01*
X110879D01*
X110856Y12454D01*
X110830Y12457D01*
X110797Y12461D01*
X110761Y12467D01*
X110725Y12474D01*
X110643Y12497D01*
X110600Y12513D01*
X110558Y12533D01*
X110515Y12552D01*
X110476Y12579D01*
X110440Y12608D01*
X110403Y12641D01*
X110400Y12644D01*
X110397Y12651D01*
X110387Y12661D01*
X110377Y12677D01*
X110364Y12697D01*
X110348Y12720D01*
X110331Y12749D01*
X110315Y12782D01*
X110302Y12821D01*
X110285Y12864D01*
X110272Y12910D01*
X110259Y12959D01*
X110249Y13015D01*
X110240Y13074D01*
X110236Y13136D01*
Y13205D01*
X110538Y13248D01*
Y13244D01*
Y13235D01*
Y13221D01*
X110541Y13202D01*
X110545Y13179D01*
X110548Y13153D01*
X110554Y13090D01*
X110567Y13025D01*
X110587Y12959D01*
X110610Y12900D01*
X110626Y12877D01*
X110643Y12854D01*
X110646Y12851D01*
X110663Y12838D01*
X110682Y12821D01*
X110715Y12802D01*
X110751Y12782D01*
X110797Y12766D01*
X110853Y12753D01*
X110912Y12749D01*
X110932D01*
X110958Y12753D01*
X110987Y12756D01*
X111020Y12762D01*
X111056Y12772D01*
X111092Y12785D01*
X111128Y12805D01*
X111132Y12808D01*
X111145Y12815D01*
X111158Y12828D01*
X111178Y12848D01*
X111200Y12871D01*
X111220Y12897D01*
X111240Y12926D01*
X111253Y12962D01*
X111256Y12966D01*
X111259Y12982D01*
X111266Y13005D01*
X111273Y13038D01*
X111279Y13084D01*
X111283Y13136D01*
X111289Y13202D01*
Y13277D01*
Y15016D01*
X111624D01*
Y13297D01*
D02*
G37*
G36*
X113208Y12493D02*
X112899D01*
Y14465D01*
X112893Y14461D01*
X112880Y14448D01*
X112854Y14425D01*
X112821Y14399D01*
X112778Y14366D01*
X112726Y14330D01*
X112670Y14291D01*
X112604Y14251D01*
X112601D01*
X112598Y14248D01*
X112588Y14242D01*
X112575Y14235D01*
X112539Y14215D01*
X112496Y14192D01*
X112447Y14166D01*
X112391Y14140D01*
X112335Y14114D01*
X112280Y14091D01*
Y14392D01*
X112283D01*
X112293Y14399D01*
X112306Y14406D01*
X112322Y14415D01*
X112345Y14425D01*
X112372Y14442D01*
X112434Y14475D01*
X112503Y14517D01*
X112581Y14570D01*
X112657Y14625D01*
X112732Y14688D01*
X112735Y14691D01*
X112742Y14694D01*
X112752Y14704D01*
X112765Y14717D01*
X112798Y14750D01*
X112840Y14796D01*
X112883Y14845D01*
X112929Y14904D01*
X112972Y14963D01*
X113008Y15025D01*
X113208D01*
Y12493D01*
D02*
G37*
G36*
X137266Y66431D02*
X135479Y65834D01*
X135476D01*
X135469Y65830D01*
X135456Y65827D01*
X135439Y65820D01*
X135416Y65814D01*
X135394Y65804D01*
X135338Y65788D01*
X135279Y65768D01*
X135216Y65748D01*
X135157Y65729D01*
X135105Y65712D01*
X135111Y65709D01*
X135131Y65702D01*
X135164Y65693D01*
X135206Y65680D01*
X135266Y65660D01*
X135334Y65637D01*
X135416Y65611D01*
X135512Y65578D01*
X137266Y64971D01*
Y64522D01*
X134744D01*
Y64843D01*
X136856D01*
X134744Y65581D01*
Y65880D01*
X136892Y66608D01*
X134744D01*
Y66929D01*
X137266D01*
Y66431D01*
D02*
G37*
G36*
Y63042D02*
X137263Y63013D01*
Y62950D01*
X137257Y62878D01*
X137250Y62803D01*
X137240Y62731D01*
X137227Y62669D01*
Y62665D01*
X137224Y62659D01*
X137220Y62646D01*
X137217Y62632D01*
X137211Y62613D01*
X137204Y62590D01*
X137188Y62541D01*
X137161Y62481D01*
X137132Y62419D01*
X137092Y62357D01*
X137047Y62298D01*
X137043Y62295D01*
X137040Y62288D01*
X137030Y62278D01*
X137017Y62265D01*
X137001Y62249D01*
X136981Y62229D01*
X136958Y62209D01*
X136932Y62186D01*
X136870Y62137D01*
X136794Y62088D01*
X136712Y62039D01*
X136617Y61999D01*
X136614D01*
X136604Y61996D01*
X136591Y61989D01*
X136571Y61983D01*
X136545Y61976D01*
X136515Y61967D01*
X136482Y61957D01*
X136443Y61947D01*
X136400Y61940D01*
X136354Y61931D01*
X136305Y61921D01*
X136253Y61914D01*
X136138Y61901D01*
X136017Y61898D01*
X136013D01*
X136004D01*
X135990D01*
X135968D01*
X135944Y61901D01*
X135915D01*
X135882Y61904D01*
X135846Y61908D01*
X135767Y61914D01*
X135682Y61927D01*
X135594Y61944D01*
X135508Y61967D01*
X135505D01*
X135498Y61970D01*
X135485Y61973D01*
X135472Y61980D01*
X135452Y61986D01*
X135430Y61993D01*
X135380Y62012D01*
X135321Y62035D01*
X135259Y62065D01*
X135197Y62101D01*
X135141Y62137D01*
X135134Y62140D01*
X135118Y62157D01*
X135092Y62177D01*
X135059Y62206D01*
X135023Y62239D01*
X134984Y62278D01*
X134947Y62324D01*
X134911Y62370D01*
X134908Y62376D01*
X134898Y62393D01*
X134882Y62419D01*
X134865Y62455D01*
X134846Y62498D01*
X134823Y62550D01*
X134803Y62609D01*
X134787Y62672D01*
Y62675D01*
X134783Y62678D01*
Y62688D01*
X134780Y62701D01*
X134777Y62718D01*
X134774Y62737D01*
X134767Y62787D01*
X134757Y62846D01*
X134751Y62915D01*
X134747Y62993D01*
X134744Y63075D01*
Y63984D01*
X137266D01*
Y63042D01*
D02*
G37*
G36*
X136643Y61324D02*
X136650Y61314D01*
X136656Y61301D01*
X136666Y61284D01*
X136676Y61261D01*
X136692Y61235D01*
X136725Y61173D01*
X136768Y61104D01*
X136820Y61025D01*
X136876Y60950D01*
X136938Y60874D01*
X136942Y60871D01*
X136945Y60865D01*
X136955Y60855D01*
X136968Y60842D01*
X137001Y60809D01*
X137047Y60766D01*
X137096Y60723D01*
X137155Y60677D01*
X137214Y60635D01*
X137276Y60599D01*
Y60399D01*
X134744D01*
Y60707D01*
X136715D01*
X136712Y60714D01*
X136699Y60727D01*
X136676Y60753D01*
X136650Y60786D01*
X136617Y60828D01*
X136581Y60881D01*
X136541Y60937D01*
X136502Y61002D01*
Y61006D01*
X136499Y61009D01*
X136492Y61019D01*
X136486Y61032D01*
X136466Y61068D01*
X136443Y61111D01*
X136417Y61160D01*
X136391Y61215D01*
X136364Y61271D01*
X136341Y61327D01*
X136643D01*
Y61324D01*
D02*
G37*
G36*
X63767Y59052D02*
X63793Y59049D01*
X63826Y59045D01*
X63866Y59039D01*
X63905Y59029D01*
X63990Y59006D01*
X64036Y58990D01*
X64082Y58973D01*
X64131Y58950D01*
X64177Y58924D01*
X64220Y58894D01*
X64262Y58858D01*
X64266Y58855D01*
X64272Y58849D01*
X64282Y58839D01*
X64299Y58822D01*
X64315Y58803D01*
X64335Y58780D01*
X64354Y58750D01*
X64377Y58721D01*
X64397Y58684D01*
X64420Y58645D01*
X64440Y58602D01*
X64459Y58557D01*
X64479Y58507D01*
X64492Y58458D01*
X64505Y58402D01*
X64512Y58343D01*
X64204Y58301D01*
Y58304D01*
X64200Y58314D01*
X64197Y58327D01*
X64194Y58343D01*
X64187Y58366D01*
X64180Y58389D01*
X64161Y58448D01*
X64138Y58511D01*
X64105Y58573D01*
X64069Y58635D01*
X64049Y58662D01*
X64026Y58684D01*
X64020Y58688D01*
X64003Y58701D01*
X63977Y58721D01*
X63938Y58740D01*
X63892Y58763D01*
X63839Y58780D01*
X63777Y58793D01*
X63712Y58799D01*
X63688D01*
X63675Y58796D01*
X63656D01*
X63633Y58793D01*
X63584Y58780D01*
X63525Y58763D01*
X63462Y58737D01*
X63400Y58698D01*
X63370Y58675D01*
X63341Y58648D01*
X63338Y58645D01*
X63334Y58642D01*
X63328Y58632D01*
X63318Y58622D01*
X63292Y58589D01*
X63265Y58543D01*
X63239Y58491D01*
X63213Y58425D01*
X63196Y58353D01*
X63190Y58314D01*
Y58275D01*
Y58271D01*
Y58265D01*
Y58255D01*
X63193Y58238D01*
Y58222D01*
X63196Y58199D01*
X63206Y58150D01*
X63223Y58094D01*
X63249Y58035D01*
X63285Y57979D01*
X63305Y57950D01*
X63331Y57924D01*
X63338Y57917D01*
X63357Y57901D01*
X63387Y57881D01*
X63426Y57855D01*
X63479Y57828D01*
X63538Y57809D01*
X63607Y57792D01*
X63685Y57786D01*
X63721D01*
X63744Y57789D01*
X63777Y57792D01*
X63816Y57799D01*
X63859Y57809D01*
X63905Y57819D01*
X63869Y57546D01*
X63862D01*
X63853Y57550D01*
X63836Y57553D01*
X63800D01*
X63787Y57550D01*
X63748Y57546D01*
X63702Y57540D01*
X63646Y57527D01*
X63587Y57510D01*
X63525Y57484D01*
X63465Y57451D01*
X63462D01*
X63459Y57445D01*
X63439Y57432D01*
X63413Y57405D01*
X63384Y57372D01*
X63354Y57327D01*
X63331Y57271D01*
X63311Y57205D01*
X63308Y57169D01*
X63305Y57130D01*
Y57126D01*
Y57123D01*
X63308Y57100D01*
X63311Y57071D01*
X63318Y57031D01*
X63334Y56989D01*
X63354Y56943D01*
X63384Y56894D01*
X63423Y56851D01*
X63429Y56844D01*
X63442Y56831D01*
X63469Y56815D01*
X63502Y56792D01*
X63544Y56772D01*
X63597Y56753D01*
X63652Y56739D01*
X63718Y56736D01*
X63735D01*
X63748Y56739D01*
X63784Y56743D01*
X63826Y56749D01*
X63872Y56766D01*
X63925Y56785D01*
X63974Y56812D01*
X64023Y56851D01*
X64030Y56858D01*
X64043Y56871D01*
X64062Y56897D01*
X64085Y56936D01*
X64112Y56982D01*
X64138Y57041D01*
X64158Y57110D01*
X64174Y57189D01*
X64482Y57133D01*
Y57130D01*
X64479Y57120D01*
X64476Y57104D01*
X64469Y57081D01*
X64463Y57058D01*
X64453Y57025D01*
X64443Y56992D01*
X64430Y56956D01*
X64394Y56880D01*
X64351Y56802D01*
X64295Y56723D01*
X64262Y56687D01*
X64227Y56654D01*
X64223Y56651D01*
X64217Y56648D01*
X64207Y56638D01*
X64190Y56628D01*
X64171Y56615D01*
X64148Y56598D01*
X64118Y56582D01*
X64089Y56566D01*
X64053Y56552D01*
X64016Y56536D01*
X63931Y56507D01*
X63833Y56487D01*
X63780Y56484D01*
X63725Y56480D01*
X63688D01*
X63672Y56484D01*
X63649D01*
X63600Y56490D01*
X63541Y56503D01*
X63479Y56516D01*
X63413Y56539D01*
X63347Y56569D01*
X63344D01*
X63341Y56572D01*
X63331Y56579D01*
X63318Y56585D01*
X63288Y56605D01*
X63249Y56631D01*
X63206Y56667D01*
X63161Y56710D01*
X63118Y56756D01*
X63082Y56812D01*
Y56815D01*
X63078Y56818D01*
X63065Y56838D01*
X63052Y56871D01*
X63033Y56910D01*
X63016Y56959D01*
X63000Y57015D01*
X62990Y57074D01*
X62987Y57136D01*
Y57140D01*
Y57143D01*
Y57163D01*
X62990Y57195D01*
X62997Y57235D01*
X63010Y57281D01*
X63023Y57330D01*
X63046Y57382D01*
X63075Y57435D01*
X63078Y57441D01*
X63092Y57458D01*
X63111Y57481D01*
X63141Y57510D01*
X63177Y57546D01*
X63223Y57582D01*
X63275Y57615D01*
X63334Y57648D01*
X63331D01*
X63324Y57651D01*
X63311Y57655D01*
X63298Y57658D01*
X63279Y57664D01*
X63256Y57674D01*
X63206Y57694D01*
X63151Y57723D01*
X63095Y57763D01*
X63036Y57809D01*
X62987Y57864D01*
Y57868D01*
X62980Y57871D01*
X62973Y57881D01*
X62967Y57894D01*
X62957Y57910D01*
X62947Y57927D01*
X62924Y57976D01*
X62901Y58035D01*
X62882Y58104D01*
X62868Y58179D01*
X62862Y58268D01*
Y58271D01*
Y58281D01*
Y58301D01*
X62865Y58324D01*
X62868Y58353D01*
X62875Y58386D01*
X62882Y58422D01*
X62892Y58461D01*
X62905Y58504D01*
X62921Y58550D01*
X62941Y58596D01*
X62964Y58645D01*
X62993Y58691D01*
X63026Y58740D01*
X63062Y58786D01*
X63105Y58829D01*
X63108Y58832D01*
X63115Y58839D01*
X63128Y58849D01*
X63147Y58865D01*
X63170Y58881D01*
X63200Y58901D01*
X63233Y58921D01*
X63269Y58940D01*
X63311Y58963D01*
X63357Y58983D01*
X63406Y59003D01*
X63462Y59019D01*
X63518Y59035D01*
X63580Y59045D01*
X63643Y59052D01*
X63712Y59055D01*
X63744D01*
X63767Y59052D01*
D02*
G37*
G36*
X65991D02*
X66021D01*
X66057Y59049D01*
X66096Y59045D01*
X66139Y59039D01*
X66230Y59026D01*
X66326Y59003D01*
X66424Y58973D01*
X66513Y58934D01*
X66516D01*
X66523Y58927D01*
X66536Y58921D01*
X66549Y58911D01*
X66588Y58885D01*
X66637Y58845D01*
X66690Y58796D01*
X66742Y58734D01*
X66791Y58665D01*
X66834Y58583D01*
Y58579D01*
X66837Y58573D01*
X66844Y58560D01*
X66847Y58540D01*
X66857Y58517D01*
X66864Y58488D01*
X66873Y58455D01*
X66880Y58416D01*
X66890Y58373D01*
X66900Y58327D01*
X66906Y58275D01*
X66913Y58219D01*
X66919Y58156D01*
X66926Y58091D01*
X66929Y58022D01*
Y57950D01*
Y56490D01*
X66595D01*
Y57946D01*
Y57950D01*
Y57960D01*
Y57979D01*
Y57999D01*
X66591Y58029D01*
Y58058D01*
X66588Y58094D01*
Y58130D01*
X66581Y58209D01*
X66568Y58291D01*
X66555Y58366D01*
X66545Y58399D01*
X66536Y58432D01*
Y58435D01*
X66532Y58438D01*
X66523Y58458D01*
X66509Y58484D01*
X66486Y58521D01*
X66457Y58557D01*
X66421Y58599D01*
X66378Y58635D01*
X66326Y58671D01*
X66322D01*
X66319Y58675D01*
X66299Y58684D01*
X66267Y58698D01*
X66224Y58711D01*
X66171Y58727D01*
X66109Y58740D01*
X66040Y58750D01*
X65962Y58753D01*
X65926D01*
X65903Y58750D01*
X65873Y58747D01*
X65837Y58744D01*
X65798Y58740D01*
X65758Y58734D01*
X65673Y58714D01*
X65584Y58684D01*
X65545Y58665D01*
X65506Y58642D01*
X65470Y58619D01*
X65437Y58589D01*
X65434Y58586D01*
X65430Y58579D01*
X65424Y58570D01*
X65411Y58557D01*
X65401Y58537D01*
X65388Y58511D01*
X65371Y58481D01*
X65358Y58445D01*
X65342Y58406D01*
X65329Y58360D01*
X65315Y58307D01*
X65302Y58248D01*
X65293Y58183D01*
X65286Y58110D01*
X65283Y58032D01*
X65279Y57946D01*
Y56490D01*
X64945D01*
Y57950D01*
Y57953D01*
Y57966D01*
Y57986D01*
Y58012D01*
X64948Y58045D01*
Y58081D01*
X64951Y58124D01*
X64955Y58166D01*
X64968Y58265D01*
X64981Y58366D01*
X65004Y58465D01*
X65017Y58511D01*
X65033Y58553D01*
Y58557D01*
X65037Y58563D01*
X65043Y58576D01*
X65050Y58589D01*
X65060Y58609D01*
X65073Y58632D01*
X65105Y58681D01*
X65148Y58740D01*
X65201Y58799D01*
X65266Y58862D01*
X65306Y58891D01*
X65345Y58917D01*
X65348D01*
X65355Y58924D01*
X65368Y58930D01*
X65384Y58940D01*
X65407Y58950D01*
X65434Y58960D01*
X65466Y58973D01*
X65502Y58986D01*
X65542Y58999D01*
X65588Y59013D01*
X65634Y59022D01*
X65686Y59032D01*
X65742Y59042D01*
X65801Y59049D01*
X65867Y59052D01*
X65932Y59055D01*
X65965D01*
X65991Y59052D01*
D02*
G37*
G36*
X38177Y55115D02*
X38203Y55112D01*
X38236Y55108D01*
X38275Y55102D01*
X38314Y55092D01*
X38400Y55069D01*
X38446Y55053D01*
X38492Y55036D01*
X38541Y55013D01*
X38587Y54987D01*
X38629Y54957D01*
X38672Y54921D01*
X38675Y54918D01*
X38682Y54912D01*
X38692Y54902D01*
X38708Y54885D01*
X38724Y54866D01*
X38744Y54843D01*
X38764Y54813D01*
X38787Y54784D01*
X38807Y54747D01*
X38829Y54708D01*
X38849Y54665D01*
X38869Y54620D01*
X38888Y54570D01*
X38902Y54521D01*
X38915Y54465D01*
X38921Y54406D01*
X38613Y54364D01*
Y54367D01*
X38610Y54377D01*
X38606Y54390D01*
X38603Y54406D01*
X38596Y54429D01*
X38590Y54452D01*
X38570Y54511D01*
X38547Y54574D01*
X38515Y54636D01*
X38478Y54698D01*
X38459Y54725D01*
X38436Y54747D01*
X38429Y54751D01*
X38413Y54764D01*
X38387Y54784D01*
X38347Y54803D01*
X38301Y54826D01*
X38249Y54843D01*
X38186Y54856D01*
X38121Y54862D01*
X38098D01*
X38085Y54859D01*
X38065D01*
X38042Y54856D01*
X37993Y54843D01*
X37934Y54826D01*
X37872Y54800D01*
X37809Y54761D01*
X37780Y54738D01*
X37750Y54711D01*
X37747Y54708D01*
X37744Y54705D01*
X37737Y54695D01*
X37727Y54685D01*
X37701Y54652D01*
X37675Y54606D01*
X37649Y54554D01*
X37622Y54488D01*
X37606Y54416D01*
X37599Y54377D01*
Y54338D01*
Y54334D01*
Y54328D01*
Y54318D01*
X37603Y54301D01*
Y54285D01*
X37606Y54262D01*
X37616Y54213D01*
X37632Y54157D01*
X37658Y54098D01*
X37694Y54042D01*
X37714Y54013D01*
X37740Y53987D01*
X37747Y53980D01*
X37767Y53964D01*
X37796Y53944D01*
X37836Y53918D01*
X37888Y53891D01*
X37947Y53872D01*
X38016Y53855D01*
X38095Y53849D01*
X38131D01*
X38154Y53852D01*
X38186Y53855D01*
X38226Y53862D01*
X38269Y53872D01*
X38314Y53882D01*
X38278Y53609D01*
X38272D01*
X38262Y53613D01*
X38246Y53616D01*
X38210D01*
X38196Y53613D01*
X38157Y53609D01*
X38111Y53603D01*
X38055Y53590D01*
X37996Y53573D01*
X37934Y53547D01*
X37875Y53514D01*
X37872D01*
X37868Y53508D01*
X37849Y53495D01*
X37822Y53468D01*
X37793Y53435D01*
X37763Y53390D01*
X37740Y53334D01*
X37721Y53268D01*
X37718Y53232D01*
X37714Y53193D01*
Y53189D01*
Y53186D01*
X37718Y53163D01*
X37721Y53134D01*
X37727Y53094D01*
X37744Y53052D01*
X37763Y53006D01*
X37793Y52957D01*
X37832Y52914D01*
X37839Y52907D01*
X37852Y52894D01*
X37878Y52878D01*
X37911Y52855D01*
X37954Y52835D01*
X38006Y52816D01*
X38062Y52802D01*
X38127Y52799D01*
X38144D01*
X38157Y52802D01*
X38193Y52806D01*
X38236Y52812D01*
X38282Y52829D01*
X38334Y52848D01*
X38383Y52875D01*
X38432Y52914D01*
X38439Y52921D01*
X38452Y52934D01*
X38472Y52960D01*
X38495Y52999D01*
X38521Y53045D01*
X38547Y53104D01*
X38567Y53173D01*
X38583Y53252D01*
X38892Y53196D01*
Y53193D01*
X38888Y53183D01*
X38885Y53167D01*
X38879Y53144D01*
X38872Y53121D01*
X38862Y53088D01*
X38852Y53055D01*
X38839Y53019D01*
X38803Y52943D01*
X38761Y52865D01*
X38705Y52786D01*
X38672Y52750D01*
X38636Y52717D01*
X38633Y52714D01*
X38626Y52711D01*
X38616Y52701D01*
X38600Y52691D01*
X38580Y52678D01*
X38557Y52661D01*
X38528Y52645D01*
X38498Y52629D01*
X38462Y52615D01*
X38426Y52599D01*
X38341Y52570D01*
X38242Y52550D01*
X38190Y52547D01*
X38134Y52543D01*
X38098D01*
X38082Y52547D01*
X38059D01*
X38009Y52553D01*
X37950Y52566D01*
X37888Y52579D01*
X37822Y52602D01*
X37757Y52632D01*
X37754D01*
X37750Y52635D01*
X37740Y52642D01*
X37727Y52648D01*
X37698Y52668D01*
X37658Y52694D01*
X37616Y52730D01*
X37570Y52773D01*
X37527Y52819D01*
X37491Y52875D01*
Y52878D01*
X37488Y52881D01*
X37475Y52901D01*
X37462Y52934D01*
X37442Y52973D01*
X37426Y53022D01*
X37409Y53078D01*
X37399Y53137D01*
X37396Y53199D01*
Y53203D01*
Y53206D01*
Y53226D01*
X37399Y53258D01*
X37406Y53298D01*
X37419Y53344D01*
X37432Y53393D01*
X37455Y53445D01*
X37485Y53498D01*
X37488Y53504D01*
X37501Y53521D01*
X37521Y53544D01*
X37550Y53573D01*
X37586Y53609D01*
X37632Y53645D01*
X37685Y53678D01*
X37744Y53711D01*
X37740D01*
X37734Y53714D01*
X37721Y53718D01*
X37708Y53721D01*
X37688Y53727D01*
X37665Y53737D01*
X37616Y53757D01*
X37560Y53786D01*
X37504Y53826D01*
X37445Y53872D01*
X37396Y53927D01*
Y53931D01*
X37389Y53934D01*
X37383Y53944D01*
X37376Y53957D01*
X37367Y53973D01*
X37357Y53990D01*
X37334Y54039D01*
X37311Y54098D01*
X37291Y54167D01*
X37278Y54242D01*
X37271Y54331D01*
Y54334D01*
Y54344D01*
Y54364D01*
X37275Y54387D01*
X37278Y54416D01*
X37284Y54449D01*
X37291Y54485D01*
X37301Y54524D01*
X37314Y54567D01*
X37330Y54613D01*
X37350Y54659D01*
X37373Y54708D01*
X37403Y54754D01*
X37435Y54803D01*
X37472Y54849D01*
X37514Y54892D01*
X37517Y54895D01*
X37524Y54902D01*
X37537Y54912D01*
X37557Y54928D01*
X37580Y54944D01*
X37609Y54964D01*
X37642Y54984D01*
X37678Y55003D01*
X37721Y55026D01*
X37767Y55046D01*
X37816Y55066D01*
X37872Y55082D01*
X37927Y55098D01*
X37990Y55108D01*
X38052Y55115D01*
X38121Y55118D01*
X38154D01*
X38177Y55115D01*
D02*
G37*
G36*
X41339Y52553D02*
X40164D01*
X40135Y52557D01*
X40105D01*
X40069Y52560D01*
X40030Y52563D01*
X39948Y52570D01*
X39863Y52583D01*
X39781Y52599D01*
X39741Y52609D01*
X39708Y52622D01*
X39705D01*
X39702Y52625D01*
X39692Y52629D01*
X39679Y52635D01*
X39646Y52652D01*
X39607Y52678D01*
X39561Y52711D01*
X39515Y52753D01*
X39469Y52806D01*
X39426Y52865D01*
Y52868D01*
X39423Y52871D01*
X39417Y52881D01*
X39410Y52894D01*
X39394Y52930D01*
X39374Y52976D01*
X39354Y53032D01*
X39338Y53098D01*
X39325Y53170D01*
X39321Y53245D01*
Y53249D01*
Y53258D01*
Y53272D01*
X39325Y53291D01*
X39328Y53314D01*
X39331Y53340D01*
X39344Y53403D01*
X39364Y53475D01*
X39394Y53550D01*
X39413Y53586D01*
X39436Y53626D01*
X39466Y53662D01*
X39495Y53698D01*
X39498Y53701D01*
X39502Y53705D01*
X39515Y53714D01*
X39528Y53727D01*
X39548Y53741D01*
X39571Y53757D01*
X39597Y53777D01*
X39626Y53796D01*
X39663Y53816D01*
X39702Y53836D01*
X39748Y53855D01*
X39797Y53875D01*
X39849Y53891D01*
X39905Y53908D01*
X39968Y53921D01*
X40033Y53931D01*
X40027Y53934D01*
X40010Y53941D01*
X39987Y53954D01*
X39958Y53970D01*
X39892Y54013D01*
X39863Y54036D01*
X39833Y54059D01*
X39830D01*
X39827Y54065D01*
X39807Y54082D01*
X39781Y54111D01*
X39741Y54151D01*
X39699Y54197D01*
X39653Y54255D01*
X39603Y54321D01*
X39554Y54393D01*
X39118Y55076D01*
X39538D01*
X39869Y54554D01*
Y54551D01*
X39876Y54544D01*
X39882Y54531D01*
X39892Y54518D01*
X39905Y54498D01*
X39922Y54475D01*
X39955Y54426D01*
X39994Y54370D01*
X40033Y54315D01*
X40073Y54259D01*
X40112Y54210D01*
X40115Y54203D01*
X40128Y54190D01*
X40145Y54167D01*
X40168Y54144D01*
X40194Y54115D01*
X40223Y54085D01*
X40253Y54062D01*
X40282Y54039D01*
X40286Y54036D01*
X40296Y54032D01*
X40309Y54023D01*
X40328Y54013D01*
X40351Y54000D01*
X40378Y53990D01*
X40433Y53970D01*
X40437D01*
X40443Y53967D01*
X40456D01*
X40476Y53964D01*
X40502Y53960D01*
X40535D01*
X40571Y53957D01*
X41004D01*
Y55076D01*
X41339D01*
Y52553D01*
D02*
G37*
G36*
X126114Y33743D02*
X126111Y33740D01*
X126104Y33730D01*
X126091Y33717D01*
X126072Y33697D01*
X126052Y33671D01*
X126026Y33638D01*
X125996Y33602D01*
X125963Y33562D01*
X125927Y33516D01*
X125891Y33464D01*
X125852Y33408D01*
X125809Y33346D01*
X125767Y33284D01*
X125724Y33211D01*
X125681Y33139D01*
X125636Y33061D01*
X125632Y33057D01*
X125626Y33041D01*
X125613Y33018D01*
X125596Y32988D01*
X125576Y32949D01*
X125557Y32903D01*
X125531Y32851D01*
X125504Y32792D01*
X125475Y32729D01*
X125445Y32660D01*
X125416Y32588D01*
X125386Y32513D01*
X125327Y32355D01*
X125275Y32188D01*
Y32185D01*
X125271Y32175D01*
X125265Y32155D01*
X125258Y32132D01*
X125252Y32103D01*
X125242Y32067D01*
X125235Y32027D01*
X125225Y31982D01*
X125216Y31932D01*
X125203Y31880D01*
X125193Y31821D01*
X125186Y31762D01*
X125170Y31634D01*
X125157Y31496D01*
X124838D01*
Y31499D01*
Y31509D01*
Y31525D01*
X124842Y31549D01*
Y31578D01*
X124845Y31611D01*
X124848Y31650D01*
X124855Y31696D01*
X124861Y31745D01*
X124868Y31801D01*
X124878Y31860D01*
X124888Y31922D01*
X124901Y31988D01*
X124917Y32060D01*
X124934Y32132D01*
X124953Y32211D01*
Y32218D01*
X124960Y32231D01*
X124966Y32254D01*
X124973Y32283D01*
X124986Y32323D01*
X124999Y32365D01*
X125016Y32414D01*
X125035Y32470D01*
X125055Y32533D01*
X125081Y32595D01*
X125134Y32733D01*
X125199Y32877D01*
X125271Y33024D01*
X125275Y33028D01*
X125281Y33041D01*
X125291Y33064D01*
X125308Y33090D01*
X125327Y33123D01*
X125350Y33162D01*
X125376Y33208D01*
X125406Y33254D01*
X125471Y33359D01*
X125547Y33471D01*
X125632Y33582D01*
X125717Y33687D01*
X124484D01*
Y33985D01*
X126114D01*
Y33743D01*
D02*
G37*
G36*
X123251Y34015D02*
X123281D01*
X123317Y34012D01*
X123356Y34008D01*
X123438Y34002D01*
X123523Y33989D01*
X123605Y33972D01*
X123645Y33963D01*
X123677Y33950D01*
X123681D01*
X123684Y33946D01*
X123694Y33943D01*
X123707Y33936D01*
X123740Y33920D01*
X123779Y33894D01*
X123825Y33861D01*
X123871Y33818D01*
X123917Y33766D01*
X123959Y33707D01*
Y33703D01*
X123963Y33700D01*
X123969Y33690D01*
X123976Y33677D01*
X123992Y33641D01*
X124012Y33595D01*
X124032Y33539D01*
X124048Y33474D01*
X124061Y33402D01*
X124064Y33326D01*
Y33323D01*
Y33313D01*
Y33300D01*
X124061Y33280D01*
X124058Y33257D01*
X124055Y33231D01*
X124041Y33169D01*
X124022Y33097D01*
X123992Y33021D01*
X123973Y32985D01*
X123950Y32946D01*
X123920Y32910D01*
X123891Y32874D01*
X123887Y32870D01*
X123884Y32867D01*
X123871Y32857D01*
X123858Y32844D01*
X123838Y32831D01*
X123815Y32815D01*
X123789Y32795D01*
X123759Y32775D01*
X123723Y32756D01*
X123684Y32736D01*
X123638Y32716D01*
X123589Y32697D01*
X123536Y32680D01*
X123480Y32664D01*
X123418Y32651D01*
X123353Y32641D01*
X123359Y32638D01*
X123376Y32631D01*
X123399Y32618D01*
X123428Y32601D01*
X123494Y32559D01*
X123523Y32536D01*
X123553Y32513D01*
X123556D01*
X123559Y32506D01*
X123579Y32490D01*
X123605Y32460D01*
X123645Y32421D01*
X123687Y32375D01*
X123733Y32316D01*
X123782Y32250D01*
X123831Y32178D01*
X124268Y31496D01*
X123848D01*
X123517Y32017D01*
Y32021D01*
X123510Y32027D01*
X123503Y32041D01*
X123494Y32054D01*
X123480Y32073D01*
X123464Y32096D01*
X123431Y32145D01*
X123392Y32201D01*
X123353Y32257D01*
X123313Y32313D01*
X123274Y32362D01*
X123271Y32368D01*
X123258Y32382D01*
X123241Y32405D01*
X123218Y32427D01*
X123192Y32457D01*
X123162Y32487D01*
X123133Y32509D01*
X123103Y32533D01*
X123100Y32536D01*
X123090Y32539D01*
X123077Y32549D01*
X123057Y32559D01*
X123035Y32572D01*
X123008Y32582D01*
X122952Y32601D01*
X122949D01*
X122943Y32605D01*
X122930D01*
X122910Y32608D01*
X122884Y32611D01*
X122851D01*
X122815Y32614D01*
X122382D01*
Y31496D01*
X122047D01*
Y34018D01*
X123221D01*
X123251Y34015D01*
D02*
G37*
G36*
X67703Y29524D02*
X67736D01*
X67775Y29521D01*
X67818Y29514D01*
X67864Y29508D01*
X67917Y29501D01*
X67969Y29491D01*
X68084Y29465D01*
X68199Y29426D01*
X68258Y29403D01*
X68317Y29377D01*
X68320Y29373D01*
X68330Y29370D01*
X68346Y29360D01*
X68366Y29347D01*
X68392Y29334D01*
X68422Y29314D01*
X68454Y29291D01*
X68491Y29265D01*
X68566Y29206D01*
X68645Y29131D01*
X68720Y29045D01*
X68753Y28996D01*
X68786Y28947D01*
X68789Y28944D01*
X68792Y28934D01*
X68802Y28918D01*
X68812Y28898D01*
X68822Y28872D01*
X68838Y28839D01*
X68851Y28806D01*
X68868Y28763D01*
X68881Y28721D01*
X68897Y28672D01*
X68910Y28619D01*
X68920Y28567D01*
X68940Y28448D01*
X68943Y28386D01*
X68946Y28321D01*
Y28288D01*
X68943Y28262D01*
X68940Y28232D01*
X68937Y28196D01*
X68933Y28157D01*
X68927Y28111D01*
X68907Y28016D01*
X68878Y27911D01*
X68858Y27855D01*
X68835Y27802D01*
X68809Y27746D01*
X68779Y27694D01*
X68776Y27691D01*
X68773Y27681D01*
X68763Y27668D01*
X68750Y27648D01*
X68730Y27625D01*
X68710Y27596D01*
X68687Y27566D01*
X68658Y27533D01*
X68628Y27501D01*
X68592Y27464D01*
X68553Y27428D01*
X68514Y27392D01*
X68468Y27360D01*
X68418Y27327D01*
X68313Y27264D01*
X68310Y27261D01*
X68300Y27258D01*
X68284Y27251D01*
X68261Y27241D01*
X68235Y27231D01*
X68199Y27218D01*
X68163Y27205D01*
X68120Y27189D01*
X68071Y27176D01*
X68018Y27163D01*
X67966Y27150D01*
X67907Y27140D01*
X67779Y27123D01*
X67710Y27117D01*
X67641D01*
X67638D01*
X67628D01*
X67611D01*
X67589D01*
X67562Y27120D01*
X67529D01*
X67493Y27123D01*
X67454Y27130D01*
X67369Y27140D01*
X67274Y27156D01*
X67175Y27179D01*
X67080Y27212D01*
X67077D01*
X67070Y27215D01*
X67057Y27222D01*
X67037Y27228D01*
X67018Y27238D01*
X66992Y27251D01*
X66936Y27284D01*
X66867Y27323D01*
X66795Y27373D01*
X66723Y27432D01*
X66650Y27497D01*
X66647Y27494D01*
X66644Y27487D01*
X66634Y27474D01*
X66624Y27458D01*
X66611Y27438D01*
X66595Y27412D01*
X66562Y27356D01*
X66523Y27291D01*
X66483Y27218D01*
X66447Y27143D01*
X66418Y27068D01*
X66188Y27169D01*
Y27172D01*
X66191Y27182D01*
X66198Y27196D01*
X66208Y27215D01*
X66217Y27241D01*
X66231Y27271D01*
X66247Y27304D01*
X66264Y27340D01*
X66306Y27422D01*
X66359Y27514D01*
X66421Y27609D01*
X66493Y27710D01*
Y27714D01*
X66487Y27724D01*
X66480Y27737D01*
X66470Y27760D01*
X66457Y27786D01*
X66444Y27815D01*
X66431Y27852D01*
X66418Y27891D01*
X66401Y27937D01*
X66388Y27983D01*
X66375Y28035D01*
X66362Y28091D01*
X66346Y28206D01*
X66342Y28268D01*
X66339Y28330D01*
Y28363D01*
X66342Y28389D01*
X66346Y28419D01*
X66349Y28452D01*
X66352Y28491D01*
X66359Y28537D01*
X66378Y28632D01*
X66408Y28737D01*
X66427Y28790D01*
X66450Y28842D01*
X66473Y28898D01*
X66503Y28950D01*
X66506Y28954D01*
X66509Y28963D01*
X66519Y28977D01*
X66532Y28996D01*
X66549Y29019D01*
X66572Y29045D01*
X66595Y29075D01*
X66621Y29108D01*
X66654Y29144D01*
X66687Y29177D01*
X66726Y29213D01*
X66769Y29249D01*
X66811Y29285D01*
X66860Y29318D01*
X66965Y29380D01*
X66969D01*
X66979Y29386D01*
X66995Y29393D01*
X67018Y29403D01*
X67047Y29413D01*
X67080Y29426D01*
X67119Y29439D01*
X67162Y29452D01*
X67211Y29469D01*
X67264Y29482D01*
X67320Y29495D01*
X67379Y29505D01*
X67503Y29521D01*
X67572Y29524D01*
X67641Y29528D01*
X67644D01*
X67658D01*
X67677D01*
X67703Y29524D01*
D02*
G37*
G36*
X68281Y26553D02*
X68287Y26543D01*
X68294Y26530D01*
X68304Y26513D01*
X68313Y26490D01*
X68330Y26464D01*
X68363Y26402D01*
X68405Y26333D01*
X68458Y26254D01*
X68514Y26179D01*
X68576Y26103D01*
X68579Y26100D01*
X68582Y26093D01*
X68592Y26084D01*
X68605Y26070D01*
X68638Y26038D01*
X68684Y25995D01*
X68733Y25952D01*
X68792Y25906D01*
X68851Y25864D01*
X68914Y25828D01*
Y25628D01*
X66382D01*
Y25936D01*
X68353D01*
X68349Y25943D01*
X68336Y25956D01*
X68313Y25982D01*
X68287Y26015D01*
X68254Y26057D01*
X68218Y26110D01*
X68179Y26166D01*
X68140Y26231D01*
Y26234D01*
X68136Y26238D01*
X68130Y26248D01*
X68123Y26261D01*
X68103Y26297D01*
X68081Y26339D01*
X68054Y26389D01*
X68028Y26444D01*
X68002Y26500D01*
X67979Y26556D01*
X68281D01*
Y26553D01*
D02*
G37*
G36*
X79869Y80855D02*
X79899Y80852D01*
X79935Y80849D01*
X79974Y80842D01*
X80013Y80832D01*
X80108Y80809D01*
X80158Y80793D01*
X80207Y80773D01*
X80256Y80750D01*
X80305Y80724D01*
X80354Y80695D01*
X80404Y80658D01*
X80407Y80655D01*
X80417Y80649D01*
X80433Y80632D01*
X80450Y80612D01*
X80476Y80589D01*
X80499Y80560D01*
X80528Y80524D01*
X80554Y80485D01*
X80584Y80439D01*
X80614Y80389D01*
X80637Y80337D01*
X80660Y80278D01*
X80679Y80212D01*
X80696Y80143D01*
X80705Y80071D01*
X80709Y79996D01*
Y79963D01*
X80705Y79940D01*
X80702Y79911D01*
X80699Y79874D01*
X80692Y79838D01*
X80686Y79796D01*
X80663Y79707D01*
X80646Y79661D01*
X80627Y79615D01*
X80607Y79566D01*
X80581Y79520D01*
X80551Y79478D01*
X80519Y79435D01*
X80515Y79432D01*
X80509Y79425D01*
X80499Y79415D01*
X80482Y79402D01*
X80463Y79382D01*
X80440Y79366D01*
X80414Y79343D01*
X80381Y79323D01*
X80348Y79300D01*
X80309Y79281D01*
X80266Y79258D01*
X80220Y79241D01*
X80171Y79222D01*
X80122Y79209D01*
X80066Y79195D01*
X80007Y79189D01*
X79984Y79514D01*
X79987D01*
X79994Y79517D01*
X80007D01*
X80023Y79520D01*
X80043Y79527D01*
X80066Y79533D01*
X80115Y79546D01*
X80174Y79569D01*
X80233Y79599D01*
X80289Y79635D01*
X80338Y79678D01*
X80341Y79684D01*
X80354Y79701D01*
X80374Y79730D01*
X80394Y79766D01*
X80417Y79812D01*
X80433Y79868D01*
X80446Y79927D01*
X80453Y79996D01*
Y80019D01*
X80450Y80035D01*
X80446Y80052D01*
X80443Y80075D01*
X80433Y80127D01*
X80414Y80189D01*
X80381Y80252D01*
X80364Y80285D01*
X80341Y80317D01*
X80315Y80347D01*
X80286Y80376D01*
X80282Y80380D01*
X80279Y80383D01*
X80269Y80389D01*
X80256Y80399D01*
X80240Y80412D01*
X80217Y80426D01*
X80194Y80439D01*
X80168Y80455D01*
X80102Y80481D01*
X80027Y80507D01*
X79938Y80524D01*
X79892Y80531D01*
X79839D01*
X79836D01*
X79826D01*
X79813D01*
X79797Y80527D01*
X79774D01*
X79748Y80524D01*
X79689Y80511D01*
X79620Y80494D01*
X79551Y80468D01*
X79482Y80432D01*
X79449Y80409D01*
X79420Y80383D01*
X79416D01*
X79413Y80376D01*
X79406Y80366D01*
X79397Y80357D01*
X79370Y80324D01*
X79341Y80278D01*
X79315Y80222D01*
X79289Y80157D01*
X79272Y80078D01*
X79265Y80038D01*
Y79966D01*
X79269Y79940D01*
X79275Y79901D01*
X79282Y79861D01*
X79295Y79815D01*
X79315Y79766D01*
X79338Y79720D01*
X79341Y79714D01*
X79351Y79701D01*
X79364Y79681D01*
X79387Y79655D01*
X79410Y79625D01*
X79443Y79592D01*
X79475Y79563D01*
X79515Y79537D01*
X79472Y79245D01*
X78176Y79487D01*
Y80740D01*
X78472D01*
Y79733D01*
X79154Y79599D01*
X79151Y79602D01*
X79147Y79609D01*
X79138Y79622D01*
X79128Y79638D01*
X79118Y79658D01*
X79102Y79684D01*
X79088Y79711D01*
X79072Y79743D01*
X79043Y79815D01*
X79019Y79894D01*
X79000Y79983D01*
X78996Y80029D01*
X78993Y80075D01*
Y80107D01*
X78996Y80130D01*
X79000Y80157D01*
X79006Y80189D01*
X79013Y80225D01*
X79023Y80268D01*
X79033Y80311D01*
X79049Y80353D01*
X79069Y80399D01*
X79088Y80449D01*
X79118Y80494D01*
X79147Y80540D01*
X79184Y80586D01*
X79223Y80629D01*
X79226Y80632D01*
X79233Y80639D01*
X79246Y80649D01*
X79265Y80665D01*
X79289Y80681D01*
X79315Y80701D01*
X79347Y80724D01*
X79384Y80744D01*
X79423Y80767D01*
X79469Y80786D01*
X79515Y80806D01*
X79567Y80822D01*
X79626Y80839D01*
X79685Y80849D01*
X79748Y80855D01*
X79813Y80858D01*
X79817D01*
X79830D01*
X79846D01*
X79869Y80855D01*
D02*
G37*
G36*
X80666Y78572D02*
X80145Y78241D01*
X80141D01*
X80135Y78234D01*
X80122Y78228D01*
X80108Y78218D01*
X80089Y78205D01*
X80066Y78189D01*
X80017Y78156D01*
X79961Y78116D01*
X79905Y78077D01*
X79849Y78038D01*
X79800Y77998D01*
X79794Y77995D01*
X79781Y77982D01*
X79757Y77965D01*
X79734Y77943D01*
X79705Y77916D01*
X79676Y77887D01*
X79653Y77857D01*
X79630Y77828D01*
X79626Y77824D01*
X79623Y77815D01*
X79613Y77802D01*
X79603Y77782D01*
X79590Y77759D01*
X79580Y77733D01*
X79561Y77677D01*
Y77674D01*
X79557Y77667D01*
Y77654D01*
X79554Y77634D01*
X79551Y77608D01*
Y77575D01*
X79548Y77539D01*
Y77106D01*
X80666D01*
Y76772D01*
X78144D01*
Y77946D01*
X78147Y77975D01*
Y78005D01*
X78150Y78041D01*
X78154Y78080D01*
X78160Y78162D01*
X78173Y78248D01*
X78190Y78330D01*
X78199Y78369D01*
X78213Y78402D01*
Y78405D01*
X78216Y78408D01*
X78219Y78418D01*
X78226Y78431D01*
X78242Y78464D01*
X78268Y78503D01*
X78301Y78549D01*
X78344Y78595D01*
X78396Y78641D01*
X78455Y78684D01*
X78459D01*
X78462Y78687D01*
X78472Y78694D01*
X78485Y78700D01*
X78521Y78717D01*
X78567Y78736D01*
X78623Y78756D01*
X78688Y78772D01*
X78760Y78786D01*
X78836Y78789D01*
X78839D01*
X78849D01*
X78862D01*
X78882Y78786D01*
X78905Y78782D01*
X78931Y78779D01*
X78993Y78766D01*
X79065Y78746D01*
X79141Y78717D01*
X79177Y78697D01*
X79216Y78674D01*
X79252Y78645D01*
X79289Y78615D01*
X79292Y78612D01*
X79295Y78608D01*
X79305Y78595D01*
X79318Y78582D01*
X79331Y78562D01*
X79347Y78540D01*
X79367Y78513D01*
X79387Y78484D01*
X79406Y78448D01*
X79426Y78408D01*
X79446Y78362D01*
X79466Y78313D01*
X79482Y78261D01*
X79498Y78205D01*
X79511Y78143D01*
X79521Y78077D01*
X79525Y78084D01*
X79531Y78100D01*
X79544Y78123D01*
X79561Y78153D01*
X79603Y78218D01*
X79626Y78248D01*
X79649Y78277D01*
Y78280D01*
X79656Y78284D01*
X79672Y78303D01*
X79702Y78330D01*
X79741Y78369D01*
X79787Y78412D01*
X79846Y78457D01*
X79912Y78507D01*
X79984Y78556D01*
X80666Y78992D01*
Y78572D01*
D02*
G37*
G36*
X100394Y32868D02*
X99220D01*
X99190Y32871D01*
X99160D01*
X99124Y32875D01*
X99085Y32878D01*
X99003Y32885D01*
X98918Y32898D01*
X98836Y32914D01*
X98796Y32924D01*
X98764Y32937D01*
X98760D01*
X98757Y32940D01*
X98747Y32944D01*
X98734Y32950D01*
X98701Y32967D01*
X98662Y32993D01*
X98616Y33026D01*
X98570Y33068D01*
X98524Y33121D01*
X98482Y33180D01*
Y33183D01*
X98478Y33186D01*
X98472Y33196D01*
X98465Y33209D01*
X98449Y33245D01*
X98429Y33291D01*
X98409Y33347D01*
X98393Y33413D01*
X98380Y33485D01*
X98377Y33560D01*
Y33564D01*
Y33573D01*
Y33586D01*
X98380Y33606D01*
X98383Y33629D01*
X98386Y33655D01*
X98400Y33718D01*
X98419Y33790D01*
X98449Y33865D01*
X98468Y33901D01*
X98491Y33941D01*
X98521Y33977D01*
X98550Y34013D01*
X98554Y34016D01*
X98557Y34019D01*
X98570Y34029D01*
X98583Y34042D01*
X98603Y34056D01*
X98626Y34072D01*
X98652Y34092D01*
X98682Y34111D01*
X98718Y34131D01*
X98757Y34151D01*
X98803Y34170D01*
X98852Y34190D01*
X98905Y34206D01*
X98960Y34223D01*
X99023Y34236D01*
X99088Y34246D01*
X99082Y34249D01*
X99065Y34256D01*
X99042Y34269D01*
X99013Y34285D01*
X98947Y34328D01*
X98918Y34351D01*
X98888Y34374D01*
X98885D01*
X98882Y34380D01*
X98862Y34397D01*
X98836Y34426D01*
X98796Y34466D01*
X98754Y34511D01*
X98708Y34571D01*
X98659Y34636D01*
X98609Y34708D01*
X98173Y35390D01*
X98593D01*
X98924Y34869D01*
Y34866D01*
X98931Y34859D01*
X98937Y34846D01*
X98947Y34833D01*
X98960Y34813D01*
X98977Y34790D01*
X99010Y34741D01*
X99049Y34685D01*
X99088Y34629D01*
X99128Y34574D01*
X99167Y34525D01*
X99170Y34518D01*
X99183Y34505D01*
X99200Y34482D01*
X99223Y34459D01*
X99249Y34429D01*
X99278Y34400D01*
X99308Y34377D01*
X99338Y34354D01*
X99341Y34351D01*
X99351Y34347D01*
X99364Y34338D01*
X99383Y34328D01*
X99406Y34315D01*
X99433Y34305D01*
X99489Y34285D01*
X99492D01*
X99498Y34282D01*
X99511D01*
X99531Y34279D01*
X99557Y34275D01*
X99590D01*
X99626Y34272D01*
X100059D01*
Y35390D01*
X100394D01*
Y32868D01*
D02*
G37*
G36*
X97153Y35430D02*
X97183D01*
X97215Y35423D01*
X97251Y35417D01*
X97294Y35410D01*
X97340Y35397D01*
X97389Y35384D01*
X97442Y35364D01*
X97494Y35341D01*
X97547Y35315D01*
X97599Y35282D01*
X97652Y35243D01*
X97701Y35200D01*
X97750Y35151D01*
X97753Y35148D01*
X97760Y35138D01*
X97773Y35122D01*
X97789Y35095D01*
X97806Y35066D01*
X97825Y35026D01*
X97848Y34980D01*
X97871Y34928D01*
X97894Y34866D01*
X97917Y34797D01*
X97937Y34718D01*
X97953Y34636D01*
X97970Y34541D01*
X97983Y34439D01*
X97989Y34331D01*
X97993Y34213D01*
Y34210D01*
Y34203D01*
Y34193D01*
Y34180D01*
Y34164D01*
X97989Y34144D01*
Y34095D01*
X97983Y34033D01*
X97980Y33964D01*
X97970Y33888D01*
X97960Y33806D01*
X97944Y33721D01*
X97927Y33632D01*
X97904Y33544D01*
X97878Y33455D01*
X97848Y33370D01*
X97812Y33291D01*
X97770Y33216D01*
X97724Y33150D01*
X97720Y33147D01*
X97714Y33137D01*
X97701Y33124D01*
X97681Y33104D01*
X97658Y33081D01*
X97629Y33058D01*
X97593Y33032D01*
X97557Y33003D01*
X97514Y32976D01*
X97465Y32950D01*
X97412Y32927D01*
X97356Y32904D01*
X97294Y32885D01*
X97228Y32871D01*
X97160Y32862D01*
X97088Y32858D01*
X97058D01*
X97038Y32862D01*
X97012Y32865D01*
X96983Y32868D01*
X96950Y32871D01*
X96914Y32878D01*
X96838Y32898D01*
X96756Y32927D01*
X96714Y32947D01*
X96674Y32970D01*
X96635Y32996D01*
X96599Y33026D01*
X96596Y33029D01*
X96589Y33032D01*
X96582Y33042D01*
X96569Y33055D01*
X96553Y33075D01*
X96536Y33094D01*
X96517Y33117D01*
X96497Y33147D01*
X96477Y33176D01*
X96458Y33213D01*
X96441Y33249D01*
X96422Y33291D01*
X96389Y33380D01*
X96379Y33432D01*
X96369Y33485D01*
X96678Y33508D01*
Y33505D01*
X96681Y33501D01*
Y33491D01*
X96684Y33478D01*
X96694Y33445D01*
X96707Y33406D01*
X96723Y33363D01*
X96746Y33321D01*
X96769Y33281D01*
X96796Y33245D01*
X96802Y33239D01*
X96819Y33226D01*
X96845Y33203D01*
X96881Y33180D01*
X96927Y33157D01*
X96979Y33134D01*
X97042Y33121D01*
X97107Y33114D01*
X97133D01*
X97160Y33117D01*
X97196Y33124D01*
X97235Y33134D01*
X97281Y33150D01*
X97324Y33170D01*
X97370Y33199D01*
X97376Y33203D01*
X97392Y33219D01*
X97419Y33242D01*
X97452Y33278D01*
X97488Y33321D01*
X97527Y33373D01*
X97563Y33436D01*
X97599Y33508D01*
Y33511D01*
X97602Y33518D01*
X97606Y33527D01*
X97612Y33544D01*
X97619Y33567D01*
X97625Y33593D01*
X97632Y33623D01*
X97642Y33655D01*
X97648Y33695D01*
X97655Y33741D01*
X97662Y33787D01*
X97668Y33839D01*
X97675Y33895D01*
X97681Y33957D01*
X97685Y34023D01*
Y34088D01*
X97678Y34085D01*
X97665Y34062D01*
X97642Y34033D01*
X97609Y33996D01*
X97570Y33954D01*
X97524Y33915D01*
X97471Y33872D01*
X97412Y33839D01*
X97409D01*
X97406Y33836D01*
X97396Y33832D01*
X97383Y33826D01*
X97353Y33813D01*
X97311Y33796D01*
X97258Y33780D01*
X97202Y33767D01*
X97140Y33757D01*
X97074Y33754D01*
X97045D01*
X97022Y33757D01*
X96996Y33760D01*
X96963Y33767D01*
X96930Y33773D01*
X96891Y33783D01*
X96851Y33793D01*
X96809Y33810D01*
X96766Y33829D01*
X96720Y33849D01*
X96674Y33878D01*
X96632Y33908D01*
X96589Y33944D01*
X96546Y33983D01*
X96543Y33987D01*
X96536Y33993D01*
X96527Y34006D01*
X96510Y34026D01*
X96494Y34049D01*
X96477Y34075D01*
X96458Y34108D01*
X96435Y34144D01*
X96415Y34183D01*
X96395Y34229D01*
X96379Y34275D01*
X96359Y34328D01*
X96346Y34387D01*
X96336Y34446D01*
X96330Y34508D01*
X96327Y34574D01*
Y34577D01*
Y34584D01*
Y34597D01*
Y34613D01*
X96330Y34636D01*
X96333Y34659D01*
X96340Y34718D01*
X96353Y34784D01*
X96369Y34859D01*
X96395Y34935D01*
X96431Y35013D01*
Y35017D01*
X96435Y35023D01*
X96441Y35033D01*
X96451Y35046D01*
X96474Y35082D01*
X96504Y35128D01*
X96546Y35177D01*
X96592Y35230D01*
X96648Y35279D01*
X96714Y35325D01*
X96717D01*
X96720Y35328D01*
X96730Y35335D01*
X96743Y35341D01*
X96763Y35351D01*
X96782Y35358D01*
X96832Y35377D01*
X96891Y35400D01*
X96960Y35417D01*
X97035Y35430D01*
X97117Y35433D01*
X97133D01*
X97153Y35430D01*
D02*
G37*
G36*
X41339Y48616D02*
X40164D01*
X40135Y48619D01*
X40105D01*
X40069Y48623D01*
X40030Y48626D01*
X39948Y48633D01*
X39863Y48646D01*
X39781Y48662D01*
X39741Y48672D01*
X39708Y48685D01*
X39705D01*
X39702Y48688D01*
X39692Y48692D01*
X39679Y48698D01*
X39646Y48715D01*
X39607Y48741D01*
X39561Y48774D01*
X39515Y48816D01*
X39469Y48869D01*
X39426Y48928D01*
Y48931D01*
X39423Y48934D01*
X39417Y48944D01*
X39410Y48957D01*
X39394Y48993D01*
X39374Y49039D01*
X39354Y49095D01*
X39338Y49161D01*
X39325Y49233D01*
X39321Y49308D01*
Y49312D01*
Y49321D01*
Y49334D01*
X39325Y49354D01*
X39328Y49377D01*
X39331Y49403D01*
X39344Y49466D01*
X39364Y49538D01*
X39394Y49613D01*
X39413Y49649D01*
X39436Y49689D01*
X39466Y49725D01*
X39495Y49761D01*
X39498Y49764D01*
X39502Y49768D01*
X39515Y49777D01*
X39528Y49790D01*
X39548Y49804D01*
X39571Y49820D01*
X39597Y49840D01*
X39626Y49859D01*
X39663Y49879D01*
X39702Y49899D01*
X39748Y49918D01*
X39797Y49938D01*
X39849Y49954D01*
X39905Y49971D01*
X39968Y49984D01*
X40033Y49994D01*
X40027Y49997D01*
X40010Y50004D01*
X39987Y50017D01*
X39958Y50033D01*
X39892Y50076D01*
X39863Y50099D01*
X39833Y50122D01*
X39830D01*
X39827Y50128D01*
X39807Y50145D01*
X39781Y50174D01*
X39741Y50213D01*
X39699Y50259D01*
X39653Y50318D01*
X39603Y50384D01*
X39554Y50456D01*
X39118Y51139D01*
X39538D01*
X39869Y50617D01*
Y50614D01*
X39876Y50607D01*
X39882Y50594D01*
X39892Y50581D01*
X39905Y50561D01*
X39922Y50538D01*
X39955Y50489D01*
X39994Y50433D01*
X40033Y50378D01*
X40073Y50322D01*
X40112Y50273D01*
X40115Y50266D01*
X40128Y50253D01*
X40145Y50230D01*
X40168Y50207D01*
X40194Y50177D01*
X40223Y50148D01*
X40253Y50125D01*
X40282Y50102D01*
X40286Y50099D01*
X40296Y50095D01*
X40309Y50086D01*
X40328Y50076D01*
X40351Y50063D01*
X40378Y50053D01*
X40433Y50033D01*
X40437D01*
X40443Y50030D01*
X40456D01*
X40476Y50027D01*
X40502Y50023D01*
X40535D01*
X40571Y50020D01*
X41004D01*
Y51139D01*
X41339D01*
Y48616D01*
D02*
G37*
G36*
X38157Y51178D02*
X38190Y51175D01*
X38226Y51168D01*
X38265Y51161D01*
X38311Y51155D01*
X38406Y51129D01*
X38456Y51109D01*
X38508Y51089D01*
X38557Y51063D01*
X38606Y51034D01*
X38652Y51001D01*
X38698Y50961D01*
X38702Y50958D01*
X38708Y50951D01*
X38718Y50938D01*
X38734Y50922D01*
X38751Y50899D01*
X38770Y50873D01*
X38790Y50843D01*
X38810Y50810D01*
X38833Y50771D01*
X38852Y50732D01*
X38872Y50686D01*
X38888Y50637D01*
X38905Y50584D01*
X38915Y50528D01*
X38921Y50469D01*
X38925Y50410D01*
Y50407D01*
Y50401D01*
Y50387D01*
X38921Y50368D01*
Y50348D01*
X38918Y50325D01*
X38908Y50266D01*
X38895Y50200D01*
X38872Y50135D01*
X38842Y50066D01*
X38800Y50000D01*
Y49997D01*
X38793Y49994D01*
X38777Y49974D01*
X38747Y49945D01*
X38708Y49909D01*
X38659Y49872D01*
X38596Y49833D01*
X38528Y49800D01*
X38446Y49774D01*
X38449D01*
X38456Y49771D01*
X38465Y49768D01*
X38478Y49761D01*
X38511Y49744D01*
X38554Y49722D01*
X38600Y49692D01*
X38649Y49659D01*
X38692Y49617D01*
X38731Y49571D01*
X38734Y49564D01*
X38744Y49548D01*
X38761Y49518D01*
X38777Y49482D01*
X38793Y49436D01*
X38810Y49384D01*
X38820Y49325D01*
X38823Y49259D01*
Y49256D01*
Y49246D01*
Y49233D01*
X38820Y49213D01*
X38816Y49190D01*
X38813Y49161D01*
X38797Y49098D01*
X38774Y49026D01*
X38757Y48987D01*
X38741Y48947D01*
X38718Y48908D01*
X38692Y48869D01*
X38662Y48833D01*
X38626Y48797D01*
X38623Y48793D01*
X38616Y48787D01*
X38606Y48780D01*
X38590Y48767D01*
X38570Y48754D01*
X38547Y48737D01*
X38518Y48718D01*
X38485Y48701D01*
X38452Y48685D01*
X38413Y48665D01*
X38367Y48649D01*
X38321Y48636D01*
X38272Y48623D01*
X38219Y48613D01*
X38160Y48610D01*
X38101Y48606D01*
X38069D01*
X38045Y48610D01*
X38019Y48613D01*
X37986Y48616D01*
X37950Y48623D01*
X37911Y48629D01*
X37826Y48652D01*
X37783Y48669D01*
X37737Y48688D01*
X37694Y48711D01*
X37649Y48734D01*
X37609Y48767D01*
X37570Y48800D01*
X37567Y48803D01*
X37560Y48810D01*
X37550Y48820D01*
X37537Y48833D01*
X37524Y48852D01*
X37504Y48875D01*
X37488Y48902D01*
X37468Y48928D01*
X37432Y48997D01*
X37399Y49075D01*
X37386Y49121D01*
X37376Y49167D01*
X37370Y49216D01*
X37367Y49266D01*
Y49269D01*
Y49272D01*
Y49282D01*
Y49295D01*
X37370Y49328D01*
X37380Y49371D01*
X37389Y49420D01*
X37406Y49469D01*
X37429Y49521D01*
X37462Y49574D01*
X37465Y49580D01*
X37478Y49594D01*
X37501Y49617D01*
X37530Y49646D01*
X37570Y49679D01*
X37619Y49712D01*
X37675Y49744D01*
X37740Y49774D01*
X37737D01*
X37731Y49777D01*
X37718Y49781D01*
X37701Y49787D01*
X37681Y49797D01*
X37662Y49807D01*
X37609Y49833D01*
X37550Y49866D01*
X37491Y49909D01*
X37435Y49958D01*
X37386Y50017D01*
Y50020D01*
X37380Y50023D01*
X37376Y50033D01*
X37367Y50046D01*
X37357Y50063D01*
X37347Y50082D01*
X37324Y50128D01*
X37304Y50187D01*
X37284Y50256D01*
X37271Y50335D01*
X37265Y50420D01*
Y50424D01*
Y50433D01*
Y50450D01*
X37268Y50473D01*
X37271Y50502D01*
X37278Y50535D01*
X37284Y50568D01*
X37294Y50607D01*
X37304Y50650D01*
X37321Y50692D01*
X37340Y50738D01*
X37360Y50784D01*
X37389Y50830D01*
X37419Y50876D01*
X37455Y50919D01*
X37495Y50961D01*
X37498Y50965D01*
X37504Y50971D01*
X37517Y50981D01*
X37537Y50994D01*
X37560Y51014D01*
X37586Y51030D01*
X37619Y51050D01*
X37655Y51070D01*
X37698Y51093D01*
X37740Y51112D01*
X37790Y51129D01*
X37845Y51145D01*
X37901Y51161D01*
X37964Y51171D01*
X38026Y51178D01*
X38095Y51181D01*
X38131D01*
X38157Y51178D01*
D02*
G37*
G36*
X84646Y18119D02*
X84639D01*
X84626D01*
X84606D01*
X84577Y18123D01*
X84544Y18126D01*
X84508Y18133D01*
X84472Y18142D01*
X84433Y18156D01*
X84429D01*
X84426Y18159D01*
X84416Y18162D01*
X84403Y18169D01*
X84370Y18182D01*
X84328Y18205D01*
X84275Y18234D01*
X84219Y18267D01*
X84160Y18310D01*
X84098Y18359D01*
X84095Y18362D01*
X84091Y18365D01*
X84082Y18375D01*
X84068Y18385D01*
X84032Y18418D01*
X83986Y18464D01*
X83931Y18520D01*
X83865Y18588D01*
X83793Y18670D01*
X83714Y18766D01*
X83711Y18769D01*
X83698Y18782D01*
X83681Y18805D01*
X83658Y18831D01*
X83629Y18864D01*
X83596Y18903D01*
X83560Y18946D01*
X83521Y18989D01*
X83435Y19081D01*
X83347Y19172D01*
X83301Y19215D01*
X83258Y19254D01*
X83219Y19290D01*
X83180Y19320D01*
X83176Y19323D01*
X83170Y19327D01*
X83160Y19333D01*
X83147Y19343D01*
X83127Y19353D01*
X83107Y19366D01*
X83058Y19395D01*
X83002Y19422D01*
X82940Y19444D01*
X82871Y19461D01*
X82838Y19467D01*
X82806D01*
X82802D01*
X82796D01*
X82789D01*
X82776Y19464D01*
X82740Y19461D01*
X82697Y19451D01*
X82648Y19435D01*
X82599Y19412D01*
X82547Y19379D01*
X82497Y19333D01*
X82491Y19327D01*
X82478Y19310D01*
X82458Y19281D01*
X82432Y19241D01*
X82409Y19192D01*
X82389Y19133D01*
X82376Y19064D01*
X82369Y18989D01*
Y18966D01*
X82373Y18952D01*
Y18933D01*
X82376Y18910D01*
X82386Y18861D01*
X82402Y18805D01*
X82425Y18743D01*
X82458Y18684D01*
X82504Y18631D01*
X82510Y18624D01*
X82527Y18611D01*
X82560Y18588D01*
X82599Y18565D01*
X82655Y18539D01*
X82717Y18516D01*
X82789Y18503D01*
X82875Y18497D01*
X82842Y18179D01*
X82838D01*
X82825Y18182D01*
X82809D01*
X82783Y18185D01*
X82753Y18192D01*
X82720Y18198D01*
X82681Y18208D01*
X82642Y18221D01*
X82553Y18251D01*
X82507Y18270D01*
X82464Y18293D01*
X82419Y18319D01*
X82376Y18349D01*
X82337Y18382D01*
X82301Y18421D01*
X82297Y18425D01*
X82294Y18431D01*
X82284Y18444D01*
X82271Y18461D01*
X82258Y18484D01*
X82241Y18510D01*
X82225Y18539D01*
X82205Y18575D01*
X82189Y18615D01*
X82173Y18657D01*
X82156Y18703D01*
X82143Y18756D01*
X82130Y18808D01*
X82120Y18867D01*
X82117Y18930D01*
X82114Y18995D01*
Y19031D01*
X82117Y19054D01*
X82120Y19087D01*
X82123Y19123D01*
X82130Y19162D01*
X82140Y19205D01*
X82163Y19297D01*
X82179Y19343D01*
X82199Y19392D01*
X82222Y19441D01*
X82251Y19487D01*
X82281Y19530D01*
X82317Y19572D01*
X82320Y19576D01*
X82327Y19582D01*
X82337Y19592D01*
X82353Y19605D01*
X82373Y19622D01*
X82396Y19641D01*
X82422Y19658D01*
X82455Y19681D01*
X82487Y19700D01*
X82527Y19717D01*
X82612Y19753D01*
X82658Y19766D01*
X82707Y19776D01*
X82760Y19782D01*
X82815Y19786D01*
X82822D01*
X82842D01*
X82871Y19782D01*
X82911Y19779D01*
X82953Y19769D01*
X83006Y19759D01*
X83058Y19743D01*
X83114Y19723D01*
X83121Y19720D01*
X83140Y19710D01*
X83170Y19697D01*
X83206Y19674D01*
X83252Y19645D01*
X83304Y19609D01*
X83363Y19566D01*
X83422Y19517D01*
X83426D01*
X83429Y19510D01*
X83439Y19500D01*
X83452Y19490D01*
X83468Y19474D01*
X83488Y19454D01*
X83511Y19431D01*
X83537Y19402D01*
X83567Y19372D01*
X83599Y19336D01*
X83639Y19297D01*
X83678Y19254D01*
X83721Y19205D01*
X83763Y19156D01*
X83813Y19097D01*
X83865Y19038D01*
X83868Y19035D01*
X83875Y19025D01*
X83888Y19012D01*
X83901Y18992D01*
X83921Y18972D01*
X83944Y18946D01*
X83993Y18890D01*
X84045Y18828D01*
X84098Y18769D01*
X84121Y18743D01*
X84144Y18720D01*
X84167Y18697D01*
X84183Y18680D01*
X84187Y18677D01*
X84196Y18667D01*
X84213Y18654D01*
X84236Y18634D01*
X84259Y18615D01*
X84288Y18592D01*
X84347Y18549D01*
Y19789D01*
X84646D01*
Y18119D01*
D02*
G37*
G36*
Y17549D02*
X84124Y17217D01*
X84121D01*
X84114Y17211D01*
X84101Y17204D01*
X84088Y17195D01*
X84068Y17181D01*
X84045Y17165D01*
X83996Y17132D01*
X83941Y17093D01*
X83885Y17053D01*
X83829Y17014D01*
X83780Y16975D01*
X83773Y16971D01*
X83760Y16958D01*
X83737Y16942D01*
X83714Y16919D01*
X83685Y16893D01*
X83655Y16863D01*
X83632Y16834D01*
X83609Y16804D01*
X83606Y16801D01*
X83603Y16791D01*
X83593Y16778D01*
X83583Y16758D01*
X83570Y16735D01*
X83560Y16709D01*
X83540Y16653D01*
Y16650D01*
X83537Y16643D01*
Y16630D01*
X83534Y16611D01*
X83530Y16584D01*
Y16552D01*
X83527Y16515D01*
Y16082D01*
X84646D01*
Y15748D01*
X82123D01*
Y16922D01*
X82127Y16952D01*
Y16981D01*
X82130Y17017D01*
X82133Y17057D01*
X82140Y17139D01*
X82153Y17224D01*
X82169Y17306D01*
X82179Y17345D01*
X82192Y17378D01*
Y17381D01*
X82196Y17385D01*
X82199Y17394D01*
X82205Y17408D01*
X82222Y17440D01*
X82248Y17480D01*
X82281Y17526D01*
X82323Y17572D01*
X82376Y17618D01*
X82435Y17660D01*
X82438D01*
X82442Y17663D01*
X82451Y17670D01*
X82464Y17677D01*
X82501Y17693D01*
X82547Y17713D01*
X82602Y17732D01*
X82668Y17749D01*
X82740Y17762D01*
X82815Y17765D01*
X82819D01*
X82829D01*
X82842D01*
X82861Y17762D01*
X82884Y17759D01*
X82911Y17755D01*
X82973Y17742D01*
X83045Y17722D01*
X83121Y17693D01*
X83157Y17673D01*
X83196Y17650D01*
X83232Y17621D01*
X83268Y17591D01*
X83271Y17588D01*
X83275Y17585D01*
X83284Y17572D01*
X83298Y17559D01*
X83311Y17539D01*
X83327Y17516D01*
X83347Y17490D01*
X83367Y17460D01*
X83386Y17424D01*
X83406Y17385D01*
X83426Y17339D01*
X83445Y17290D01*
X83462Y17237D01*
X83478Y17181D01*
X83491Y17119D01*
X83501Y17053D01*
X83504Y17060D01*
X83511Y17076D01*
X83524Y17099D01*
X83540Y17129D01*
X83583Y17195D01*
X83606Y17224D01*
X83629Y17254D01*
Y17257D01*
X83635Y17260D01*
X83652Y17280D01*
X83681Y17306D01*
X83721Y17345D01*
X83767Y17388D01*
X83826Y17434D01*
X83891Y17483D01*
X83964Y17532D01*
X84646Y17968D01*
Y17549D01*
D02*
G37*
G36*
X98979Y87409D02*
X98976Y87379D01*
Y87349D01*
X98972Y87313D01*
X98969Y87274D01*
X98962Y87192D01*
X98949Y87107D01*
X98933Y87025D01*
X98923Y86985D01*
X98910Y86953D01*
Y86949D01*
X98907Y86946D01*
X98904Y86936D01*
X98897Y86923D01*
X98881Y86890D01*
X98854Y86851D01*
X98822Y86805D01*
X98779Y86759D01*
X98726Y86713D01*
X98667Y86671D01*
X98664D01*
X98661Y86667D01*
X98651Y86661D01*
X98638Y86654D01*
X98602Y86638D01*
X98556Y86618D01*
X98500Y86598D01*
X98435Y86582D01*
X98362Y86569D01*
X98287Y86566D01*
X98284D01*
X98274D01*
X98261D01*
X98241Y86569D01*
X98218Y86572D01*
X98192Y86575D01*
X98129Y86589D01*
X98057Y86608D01*
X97982Y86638D01*
X97946Y86657D01*
X97906Y86680D01*
X97870Y86710D01*
X97834Y86739D01*
X97831Y86743D01*
X97828Y86746D01*
X97818Y86759D01*
X97805Y86772D01*
X97792Y86792D01*
X97775Y86815D01*
X97755Y86841D01*
X97736Y86871D01*
X97716Y86907D01*
X97697Y86946D01*
X97677Y86992D01*
X97657Y87041D01*
X97641Y87094D01*
X97624Y87149D01*
X97611Y87212D01*
X97601Y87277D01*
X97598Y87271D01*
X97592Y87254D01*
X97578Y87231D01*
X97562Y87202D01*
X97519Y87136D01*
X97496Y87107D01*
X97473Y87077D01*
Y87074D01*
X97467Y87071D01*
X97451Y87051D01*
X97421Y87025D01*
X97382Y86985D01*
X97336Y86943D01*
X97277Y86897D01*
X97211Y86848D01*
X97139Y86798D01*
X96457Y86362D01*
Y86782D01*
X96978Y87113D01*
X96981D01*
X96988Y87120D01*
X97001Y87126D01*
X97014Y87136D01*
X97034Y87149D01*
X97057Y87166D01*
X97106Y87199D01*
X97162Y87238D01*
X97218Y87277D01*
X97273Y87317D01*
X97323Y87356D01*
X97329Y87359D01*
X97342Y87372D01*
X97365Y87389D01*
X97388Y87412D01*
X97418Y87438D01*
X97447Y87467D01*
X97470Y87497D01*
X97493Y87527D01*
X97496Y87530D01*
X97500Y87540D01*
X97509Y87553D01*
X97519Y87572D01*
X97532Y87595D01*
X97542Y87622D01*
X97562Y87677D01*
Y87681D01*
X97565Y87687D01*
Y87700D01*
X97569Y87720D01*
X97572Y87746D01*
Y87779D01*
X97575Y87815D01*
Y88248D01*
X96457D01*
Y88583D01*
X98979D01*
Y87409D01*
D02*
G37*
G36*
X98356Y85926D02*
X98362Y85916D01*
X98369Y85903D01*
X98379Y85887D01*
X98388Y85864D01*
X98405Y85837D01*
X98438Y85775D01*
X98480Y85706D01*
X98533Y85627D01*
X98589Y85552D01*
X98651Y85477D01*
X98654Y85473D01*
X98658Y85467D01*
X98667Y85457D01*
X98681Y85444D01*
X98713Y85411D01*
X98759Y85368D01*
X98808Y85326D01*
X98867Y85280D01*
X98927Y85237D01*
X98989Y85201D01*
Y85001D01*
X96457D01*
Y85309D01*
X98428D01*
X98425Y85316D01*
X98412Y85329D01*
X98388Y85355D01*
X98362Y85388D01*
X98330Y85431D01*
X98293Y85483D01*
X98254Y85539D01*
X98215Y85605D01*
Y85608D01*
X98211Y85611D01*
X98205Y85621D01*
X98198Y85634D01*
X98179Y85670D01*
X98156Y85713D01*
X98129Y85762D01*
X98103Y85818D01*
X98077Y85873D01*
X98054Y85929D01*
X98356D01*
Y85926D01*
D02*
G37*
G36*
X96526Y84250D02*
X96558Y84247D01*
X96594Y84240D01*
X96631Y84230D01*
X96670Y84217D01*
X96673D01*
X96676Y84214D01*
X96686Y84210D01*
X96699Y84204D01*
X96732Y84191D01*
X96775Y84168D01*
X96827Y84138D01*
X96883Y84105D01*
X96942Y84063D01*
X97004Y84014D01*
X97008Y84010D01*
X97011Y84007D01*
X97021Y83997D01*
X97034Y83987D01*
X97070Y83955D01*
X97116Y83909D01*
X97172Y83853D01*
X97237Y83784D01*
X97309Y83702D01*
X97388Y83607D01*
X97391Y83604D01*
X97404Y83591D01*
X97421Y83568D01*
X97444Y83541D01*
X97473Y83509D01*
X97506Y83469D01*
X97542Y83427D01*
X97582Y83384D01*
X97667Y83292D01*
X97755Y83200D01*
X97801Y83158D01*
X97844Y83118D01*
X97883Y83082D01*
X97923Y83053D01*
X97926Y83049D01*
X97933Y83046D01*
X97943Y83039D01*
X97956Y83030D01*
X97975Y83020D01*
X97995Y83007D01*
X98044Y82977D01*
X98100Y82951D01*
X98162Y82928D01*
X98231Y82912D01*
X98264Y82905D01*
X98297D01*
X98300D01*
X98307D01*
X98313D01*
X98326Y82908D01*
X98362Y82912D01*
X98405Y82921D01*
X98454Y82938D01*
X98503Y82961D01*
X98556Y82994D01*
X98605Y83039D01*
X98612Y83046D01*
X98625Y83062D01*
X98644Y83092D01*
X98671Y83131D01*
X98694Y83181D01*
X98713Y83240D01*
X98726Y83309D01*
X98733Y83384D01*
Y83407D01*
X98730Y83420D01*
Y83440D01*
X98726Y83463D01*
X98716Y83512D01*
X98700Y83568D01*
X98677Y83630D01*
X98644Y83689D01*
X98598Y83741D01*
X98592Y83748D01*
X98576Y83761D01*
X98543Y83784D01*
X98503Y83807D01*
X98448Y83833D01*
X98385Y83856D01*
X98313Y83869D01*
X98228Y83876D01*
X98261Y84194D01*
X98264D01*
X98277Y84191D01*
X98293D01*
X98320Y84188D01*
X98349Y84181D01*
X98382Y84174D01*
X98421Y84165D01*
X98461Y84151D01*
X98549Y84122D01*
X98595Y84102D01*
X98638Y84079D01*
X98684Y84053D01*
X98726Y84023D01*
X98766Y83991D01*
X98802Y83951D01*
X98805Y83948D01*
X98808Y83942D01*
X98818Y83928D01*
X98831Y83912D01*
X98844Y83889D01*
X98861Y83863D01*
X98877Y83833D01*
X98897Y83797D01*
X98913Y83758D01*
X98930Y83715D01*
X98946Y83669D01*
X98959Y83617D01*
X98972Y83564D01*
X98982Y83505D01*
X98985Y83443D01*
X98989Y83377D01*
Y83341D01*
X98985Y83318D01*
X98982Y83285D01*
X98979Y83249D01*
X98972Y83210D01*
X98962Y83167D01*
X98940Y83076D01*
X98923Y83030D01*
X98904Y82981D01*
X98881Y82931D01*
X98851Y82885D01*
X98822Y82843D01*
X98785Y82800D01*
X98782Y82797D01*
X98776Y82790D01*
X98766Y82780D01*
X98749Y82767D01*
X98730Y82751D01*
X98707Y82731D01*
X98681Y82715D01*
X98648Y82692D01*
X98615Y82672D01*
X98576Y82656D01*
X98490Y82620D01*
X98444Y82607D01*
X98395Y82597D01*
X98343Y82590D01*
X98287Y82587D01*
X98280D01*
X98261D01*
X98231Y82590D01*
X98192Y82593D01*
X98149Y82603D01*
X98097Y82613D01*
X98044Y82630D01*
X97988Y82649D01*
X97982Y82652D01*
X97962Y82662D01*
X97933Y82675D01*
X97897Y82698D01*
X97851Y82728D01*
X97798Y82764D01*
X97739Y82807D01*
X97680Y82856D01*
X97677D01*
X97673Y82862D01*
X97664Y82872D01*
X97650Y82882D01*
X97634Y82898D01*
X97615Y82918D01*
X97592Y82941D01*
X97565Y82971D01*
X97536Y83000D01*
X97503Y83036D01*
X97464Y83076D01*
X97424Y83118D01*
X97382Y83167D01*
X97339Y83217D01*
X97290Y83276D01*
X97237Y83335D01*
X97234Y83338D01*
X97227Y83348D01*
X97214Y83361D01*
X97201Y83381D01*
X97181Y83400D01*
X97159Y83427D01*
X97109Y83482D01*
X97057Y83545D01*
X97004Y83604D01*
X96981Y83630D01*
X96959Y83653D01*
X96935Y83676D01*
X96919Y83692D01*
X96916Y83696D01*
X96906Y83705D01*
X96890Y83719D01*
X96867Y83738D01*
X96844Y83758D01*
X96814Y83781D01*
X96755Y83823D01*
Y82584D01*
X96457D01*
Y84253D01*
X96463D01*
X96476D01*
X96496D01*
X96526Y84250D01*
D02*
G37*
G36*
X68898Y80155D02*
X67723D01*
X67694Y80158D01*
X67664D01*
X67628Y80161D01*
X67589Y80165D01*
X67507Y80171D01*
X67422Y80184D01*
X67340Y80201D01*
X67300Y80211D01*
X67268Y80224D01*
X67264D01*
X67261Y80227D01*
X67251Y80230D01*
X67238Y80237D01*
X67205Y80253D01*
X67166Y80279D01*
X67120Y80312D01*
X67074Y80355D01*
X67028Y80408D01*
X66985Y80467D01*
Y80470D01*
X66982Y80473D01*
X66976Y80483D01*
X66969Y80496D01*
X66953Y80532D01*
X66933Y80578D01*
X66913Y80634D01*
X66897Y80699D01*
X66884Y80771D01*
X66881Y80847D01*
Y80850D01*
Y80860D01*
Y80873D01*
X66884Y80893D01*
X66887Y80916D01*
X66890Y80942D01*
X66903Y81004D01*
X66923Y81077D01*
X66953Y81152D01*
X66972Y81188D01*
X66995Y81227D01*
X67025Y81264D01*
X67054Y81300D01*
X67058Y81303D01*
X67061Y81306D01*
X67074Y81316D01*
X67087Y81329D01*
X67107Y81342D01*
X67130Y81359D01*
X67156Y81378D01*
X67185Y81398D01*
X67222Y81418D01*
X67261Y81437D01*
X67307Y81457D01*
X67356Y81477D01*
X67409Y81493D01*
X67464Y81510D01*
X67527Y81523D01*
X67592Y81533D01*
X67586Y81536D01*
X67569Y81542D01*
X67546Y81555D01*
X67517Y81572D01*
X67451Y81615D01*
X67422Y81638D01*
X67392Y81660D01*
X67389D01*
X67386Y81667D01*
X67366Y81683D01*
X67340Y81713D01*
X67300Y81752D01*
X67258Y81798D01*
X67212Y81857D01*
X67163Y81923D01*
X67113Y81995D01*
X66677Y82677D01*
X67097D01*
X67428Y82156D01*
Y82152D01*
X67435Y82146D01*
X67441Y82133D01*
X67451Y82120D01*
X67464Y82100D01*
X67481Y82077D01*
X67514Y82028D01*
X67553Y81972D01*
X67592Y81916D01*
X67632Y81861D01*
X67671Y81811D01*
X67674Y81805D01*
X67687Y81792D01*
X67704Y81769D01*
X67727Y81746D01*
X67753Y81716D01*
X67782Y81687D01*
X67812Y81664D01*
X67842Y81641D01*
X67845Y81638D01*
X67855Y81634D01*
X67868Y81624D01*
X67887Y81615D01*
X67910Y81601D01*
X67937Y81591D01*
X67992Y81572D01*
X67996D01*
X68002Y81569D01*
X68015D01*
X68035Y81565D01*
X68061Y81562D01*
X68094D01*
X68130Y81559D01*
X68563D01*
Y82677D01*
X68898D01*
Y80155D01*
D02*
G37*
G36*
X65490Y82074D02*
X66585D01*
Y81788D01*
X65434Y80155D01*
X65181D01*
Y81788D01*
X64840D01*
Y82074D01*
X65181D01*
Y82677D01*
X65490D01*
Y82074D01*
D02*
G37*
G36*
X80709Y32801D02*
X78737D01*
X78741Y32794D01*
X78754Y32781D01*
X78777Y32755D01*
X78803Y32722D01*
X78836Y32680D01*
X78872Y32627D01*
X78911Y32571D01*
X78951Y32506D01*
Y32502D01*
X78954Y32499D01*
X78961Y32489D01*
X78967Y32476D01*
X78987Y32440D01*
X79010Y32397D01*
X79036Y32348D01*
X79062Y32293D01*
X79088Y32237D01*
X79111Y32181D01*
X78810D01*
Y32184D01*
X78803Y32194D01*
X78796Y32207D01*
X78787Y32224D01*
X78777Y32247D01*
X78760Y32273D01*
X78728Y32335D01*
X78685Y32404D01*
X78632Y32483D01*
X78577Y32558D01*
X78514Y32634D01*
X78511Y32637D01*
X78508Y32643D01*
X78498Y32653D01*
X78485Y32667D01*
X78452Y32699D01*
X78406Y32742D01*
X78357Y32785D01*
X78298Y32831D01*
X78239Y32873D01*
X78176Y32909D01*
Y33109D01*
X80709D01*
Y32801D01*
D02*
G37*
G36*
Y31328D02*
X80187Y30997D01*
X80184D01*
X80177Y30990D01*
X80164Y30984D01*
X80151Y30974D01*
X80131Y30961D01*
X80108Y30944D01*
X80059Y30912D01*
X80003Y30872D01*
X79948Y30833D01*
X79892Y30794D01*
X79843Y30754D01*
X79836Y30751D01*
X79823Y30738D01*
X79800Y30721D01*
X79777Y30698D01*
X79748Y30672D01*
X79718Y30643D01*
X79695Y30613D01*
X79672Y30584D01*
X79669Y30580D01*
X79666Y30571D01*
X79656Y30557D01*
X79646Y30538D01*
X79633Y30515D01*
X79623Y30488D01*
X79603Y30433D01*
Y30430D01*
X79600Y30423D01*
Y30410D01*
X79597Y30390D01*
X79593Y30364D01*
Y30331D01*
X79590Y30295D01*
Y29862D01*
X80709D01*
Y29528D01*
X78186D01*
Y30702D01*
X78190Y30731D01*
Y30761D01*
X78193Y30797D01*
X78196Y30836D01*
X78203Y30918D01*
X78216Y31003D01*
X78232Y31086D01*
X78242Y31125D01*
X78255Y31158D01*
Y31161D01*
X78259Y31164D01*
X78262Y31174D01*
X78268Y31187D01*
X78285Y31220D01*
X78311Y31259D01*
X78344Y31305D01*
X78386Y31351D01*
X78439Y31397D01*
X78498Y31440D01*
X78501D01*
X78505Y31443D01*
X78514Y31450D01*
X78527Y31456D01*
X78564Y31473D01*
X78610Y31492D01*
X78665Y31512D01*
X78731Y31528D01*
X78803Y31541D01*
X78878Y31545D01*
X78882D01*
X78892D01*
X78905D01*
X78924Y31541D01*
X78947Y31538D01*
X78974Y31535D01*
X79036Y31522D01*
X79108Y31502D01*
X79184Y31473D01*
X79220Y31453D01*
X79259Y31430D01*
X79295Y31400D01*
X79331Y31371D01*
X79334Y31368D01*
X79338Y31364D01*
X79347Y31351D01*
X79361Y31338D01*
X79374Y31318D01*
X79390Y31295D01*
X79410Y31269D01*
X79430Y31240D01*
X79449Y31204D01*
X79469Y31164D01*
X79488Y31118D01*
X79508Y31069D01*
X79525Y31017D01*
X79541Y30961D01*
X79554Y30899D01*
X79564Y30833D01*
X79567Y30839D01*
X79574Y30856D01*
X79587Y30879D01*
X79603Y30908D01*
X79646Y30974D01*
X79669Y31003D01*
X79692Y31033D01*
Y31036D01*
X79698Y31040D01*
X79715Y31059D01*
X79744Y31086D01*
X79784Y31125D01*
X79830Y31168D01*
X79889Y31213D01*
X79954Y31263D01*
X80026Y31312D01*
X80709Y31748D01*
Y31328D01*
D02*
G37*
G36*
X85643Y40273D02*
X86614Y38816D01*
X86214D01*
X85716Y39581D01*
X85712Y39584D01*
X85709Y39590D01*
X85702Y39600D01*
X85693Y39617D01*
X85679Y39636D01*
X85666Y39659D01*
X85630Y39715D01*
X85591Y39777D01*
X85548Y39849D01*
X85506Y39928D01*
X85460Y40007D01*
Y40004D01*
X85453Y39997D01*
X85447Y39987D01*
X85440Y39971D01*
X85427Y39955D01*
X85414Y39931D01*
X85397Y39905D01*
X85381Y39876D01*
X85338Y39810D01*
X85292Y39735D01*
X85240Y39649D01*
X85181Y39561D01*
X84692Y38816D01*
X84302D01*
X85309Y40273D01*
Y41339D01*
X85643D01*
Y40273D01*
D02*
G37*
G36*
X83272Y39367D02*
X83279Y39371D01*
X83292Y39384D01*
X83318Y39407D01*
X83351Y39433D01*
X83393Y39466D01*
X83446Y39502D01*
X83501Y39541D01*
X83567Y39581D01*
X83570D01*
X83574Y39584D01*
X83583Y39590D01*
X83597Y39597D01*
X83633Y39617D01*
X83675Y39640D01*
X83724Y39666D01*
X83780Y39692D01*
X83836Y39718D01*
X83892Y39741D01*
Y39439D01*
X83889D01*
X83879Y39433D01*
X83866Y39426D01*
X83849Y39417D01*
X83826Y39407D01*
X83800Y39390D01*
X83738Y39358D01*
X83669Y39315D01*
X83590Y39262D01*
X83515Y39207D01*
X83439Y39144D01*
X83436Y39141D01*
X83429Y39138D01*
X83420Y39128D01*
X83406Y39115D01*
X83374Y39082D01*
X83331Y39036D01*
X83288Y38987D01*
X83242Y38928D01*
X83200Y38869D01*
X83164Y38807D01*
X82964D01*
Y41339D01*
X83272D01*
Y39367D01*
D02*
G37*
G36*
X87168Y4964D02*
X87165Y4935D01*
Y4872D01*
X87158Y4800D01*
X87151Y4725D01*
X87142Y4653D01*
X87129Y4590D01*
Y4587D01*
X87125Y4580D01*
X87122Y4567D01*
X87119Y4554D01*
X87112Y4535D01*
X87106Y4512D01*
X87089Y4462D01*
X87063Y4403D01*
X87033Y4341D01*
X86994Y4279D01*
X86948Y4220D01*
X86945Y4216D01*
X86942Y4210D01*
X86932Y4200D01*
X86919Y4187D01*
X86902Y4170D01*
X86883Y4151D01*
X86860Y4131D01*
X86833Y4108D01*
X86771Y4059D01*
X86696Y4010D01*
X86614Y3960D01*
X86519Y3921D01*
X86515D01*
X86505Y3918D01*
X86492Y3911D01*
X86473Y3905D01*
X86446Y3898D01*
X86417Y3888D01*
X86384Y3878D01*
X86345Y3869D01*
X86302Y3862D01*
X86256Y3852D01*
X86207Y3842D01*
X86154Y3836D01*
X86040Y3823D01*
X85918Y3819D01*
X85915D01*
X85905D01*
X85892D01*
X85869D01*
X85846Y3823D01*
X85817D01*
X85784Y3826D01*
X85748Y3829D01*
X85669Y3836D01*
X85584Y3849D01*
X85495Y3865D01*
X85410Y3888D01*
X85407D01*
X85400Y3892D01*
X85387Y3895D01*
X85374Y3901D01*
X85354Y3908D01*
X85331Y3915D01*
X85282Y3934D01*
X85223Y3957D01*
X85161Y3987D01*
X85098Y4023D01*
X85043Y4059D01*
X85036Y4062D01*
X85019Y4079D01*
X84993Y4098D01*
X84961Y4128D01*
X84924Y4161D01*
X84885Y4200D01*
X84849Y4246D01*
X84813Y4292D01*
X84810Y4298D01*
X84800Y4315D01*
X84783Y4341D01*
X84767Y4377D01*
X84747Y4420D01*
X84724Y4472D01*
X84705Y4531D01*
X84688Y4594D01*
Y4597D01*
X84685Y4600D01*
Y4610D01*
X84682Y4623D01*
X84678Y4640D01*
X84675Y4659D01*
X84669Y4708D01*
X84659Y4767D01*
X84652Y4836D01*
X84649Y4915D01*
X84646Y4997D01*
Y5906D01*
X87168D01*
Y4964D01*
D02*
G37*
G36*
X84715Y3528D02*
X84747Y3524D01*
X84783Y3518D01*
X84820Y3508D01*
X84859Y3495D01*
X84862D01*
X84865Y3492D01*
X84875Y3488D01*
X84888Y3482D01*
X84921Y3469D01*
X84964Y3446D01*
X85016Y3416D01*
X85072Y3383D01*
X85131Y3341D01*
X85193Y3291D01*
X85197Y3288D01*
X85200Y3285D01*
X85210Y3275D01*
X85223Y3265D01*
X85259Y3232D01*
X85305Y3186D01*
X85361Y3131D01*
X85426Y3062D01*
X85498Y2980D01*
X85577Y2885D01*
X85580Y2881D01*
X85593Y2868D01*
X85610Y2845D01*
X85633Y2819D01*
X85662Y2786D01*
X85695Y2747D01*
X85731Y2704D01*
X85771Y2662D01*
X85856Y2570D01*
X85944Y2478D01*
X85990Y2435D01*
X86033Y2396D01*
X86072Y2360D01*
X86112Y2330D01*
X86115Y2327D01*
X86122Y2324D01*
X86132Y2317D01*
X86145Y2307D01*
X86164Y2298D01*
X86184Y2284D01*
X86233Y2255D01*
X86289Y2229D01*
X86351Y2206D01*
X86420Y2189D01*
X86453Y2183D01*
X86486D01*
X86489D01*
X86496D01*
X86502D01*
X86515Y2186D01*
X86551Y2189D01*
X86594Y2199D01*
X86643Y2216D01*
X86692Y2238D01*
X86745Y2271D01*
X86794Y2317D01*
X86801Y2324D01*
X86814Y2340D01*
X86833Y2370D01*
X86860Y2409D01*
X86883Y2458D01*
X86902Y2517D01*
X86915Y2586D01*
X86922Y2662D01*
Y2685D01*
X86919Y2698D01*
Y2717D01*
X86915Y2740D01*
X86905Y2790D01*
X86889Y2845D01*
X86866Y2908D01*
X86833Y2967D01*
X86787Y3019D01*
X86781Y3026D01*
X86765Y3039D01*
X86732Y3062D01*
X86692Y3085D01*
X86637Y3111D01*
X86574Y3134D01*
X86502Y3147D01*
X86417Y3154D01*
X86450Y3472D01*
X86453D01*
X86466Y3469D01*
X86482D01*
X86509Y3465D01*
X86538Y3459D01*
X86571Y3452D01*
X86610Y3442D01*
X86650Y3429D01*
X86738Y3400D01*
X86784Y3380D01*
X86827Y3357D01*
X86873Y3331D01*
X86915Y3301D01*
X86955Y3268D01*
X86991Y3229D01*
X86994Y3226D01*
X86997Y3219D01*
X87007Y3206D01*
X87020Y3190D01*
X87033Y3167D01*
X87050Y3140D01*
X87066Y3111D01*
X87086Y3075D01*
X87102Y3036D01*
X87119Y2993D01*
X87135Y2947D01*
X87148Y2895D01*
X87161Y2842D01*
X87171Y2783D01*
X87174Y2721D01*
X87178Y2655D01*
Y2619D01*
X87174Y2596D01*
X87171Y2563D01*
X87168Y2527D01*
X87161Y2488D01*
X87151Y2445D01*
X87129Y2353D01*
X87112Y2307D01*
X87093Y2258D01*
X87069Y2209D01*
X87040Y2163D01*
X87011Y2120D01*
X86974Y2078D01*
X86971Y2074D01*
X86965Y2068D01*
X86955Y2058D01*
X86938Y2045D01*
X86919Y2029D01*
X86896Y2009D01*
X86870Y1993D01*
X86837Y1970D01*
X86804Y1950D01*
X86765Y1933D01*
X86679Y1897D01*
X86633Y1884D01*
X86584Y1874D01*
X86532Y1868D01*
X86476Y1865D01*
X86469D01*
X86450D01*
X86420Y1868D01*
X86381Y1871D01*
X86338Y1881D01*
X86286Y1891D01*
X86233Y1907D01*
X86177Y1927D01*
X86171Y1930D01*
X86151Y1940D01*
X86122Y1953D01*
X86085Y1976D01*
X86040Y2006D01*
X85987Y2042D01*
X85928Y2084D01*
X85869Y2134D01*
X85866D01*
X85862Y2140D01*
X85853Y2150D01*
X85839Y2160D01*
X85823Y2176D01*
X85804Y2196D01*
X85781Y2219D01*
X85754Y2248D01*
X85725Y2278D01*
X85692Y2314D01*
X85653Y2353D01*
X85613Y2396D01*
X85571Y2445D01*
X85528Y2494D01*
X85479Y2553D01*
X85426Y2612D01*
X85423Y2616D01*
X85416Y2626D01*
X85403Y2639D01*
X85390Y2658D01*
X85370Y2678D01*
X85347Y2704D01*
X85298Y2760D01*
X85246Y2822D01*
X85193Y2881D01*
X85170Y2908D01*
X85148Y2931D01*
X85124Y2954D01*
X85108Y2970D01*
X85105Y2973D01*
X85095Y2983D01*
X85079Y2996D01*
X85056Y3016D01*
X85033Y3036D01*
X85003Y3059D01*
X84944Y3101D01*
Y1861D01*
X84646D01*
Y3531D01*
X84652D01*
X84665D01*
X84685D01*
X84715Y3528D01*
D02*
G37*
G36*
X90551Y68344D02*
X89377D01*
X89347Y68347D01*
X89318D01*
X89282Y68350D01*
X89243Y68354D01*
X89161Y68360D01*
X89075Y68373D01*
X88993Y68390D01*
X88954Y68400D01*
X88921Y68413D01*
X88918D01*
X88915Y68416D01*
X88905Y68419D01*
X88892Y68426D01*
X88859Y68442D01*
X88819Y68468D01*
X88774Y68501D01*
X88727Y68544D01*
X88682Y68596D01*
X88639Y68655D01*
Y68659D01*
X88636Y68662D01*
X88629Y68672D01*
X88623Y68685D01*
X88606Y68721D01*
X88586Y68767D01*
X88567Y68823D01*
X88550Y68888D01*
X88537Y68960D01*
X88534Y69036D01*
Y69039D01*
Y69049D01*
Y69062D01*
X88537Y69082D01*
X88541Y69105D01*
X88544Y69131D01*
X88557Y69193D01*
X88577Y69266D01*
X88606Y69341D01*
X88626Y69377D01*
X88649Y69416D01*
X88678Y69453D01*
X88708Y69489D01*
X88711Y69492D01*
X88714Y69495D01*
X88727Y69505D01*
X88741Y69518D01*
X88760Y69531D01*
X88783Y69548D01*
X88810Y69567D01*
X88839Y69587D01*
X88875Y69607D01*
X88915Y69626D01*
X88960Y69646D01*
X89010Y69666D01*
X89062Y69682D01*
X89118Y69699D01*
X89180Y69712D01*
X89246Y69722D01*
X89239Y69725D01*
X89223Y69731D01*
X89200Y69744D01*
X89170Y69761D01*
X89105Y69803D01*
X89075Y69826D01*
X89046Y69849D01*
X89042D01*
X89039Y69856D01*
X89019Y69872D01*
X88993Y69902D01*
X88954Y69941D01*
X88911Y69987D01*
X88865Y70046D01*
X88816Y70112D01*
X88767Y70184D01*
X88331Y70866D01*
X88750D01*
X89082Y70345D01*
Y70341D01*
X89088Y70335D01*
X89095Y70322D01*
X89105Y70309D01*
X89118Y70289D01*
X89134Y70266D01*
X89167Y70217D01*
X89206Y70161D01*
X89246Y70105D01*
X89285Y70050D01*
X89324Y70000D01*
X89328Y69994D01*
X89341Y69981D01*
X89357Y69958D01*
X89380Y69935D01*
X89407Y69905D01*
X89436Y69876D01*
X89465Y69853D01*
X89495Y69830D01*
X89498Y69826D01*
X89508Y69823D01*
X89521Y69813D01*
X89541Y69803D01*
X89564Y69790D01*
X89590Y69780D01*
X89646Y69761D01*
X89649D01*
X89656Y69757D01*
X89669D01*
X89689Y69754D01*
X89715Y69751D01*
X89748D01*
X89784Y69748D01*
X90217D01*
Y70866D01*
X90551D01*
Y68344D01*
D02*
G37*
G36*
X87278Y68895D02*
X87284Y68898D01*
X87297Y68911D01*
X87324Y68934D01*
X87357Y68960D01*
X87399Y68993D01*
X87452Y69029D01*
X87507Y69069D01*
X87573Y69108D01*
X87576D01*
X87580Y69111D01*
X87589Y69118D01*
X87603Y69125D01*
X87639Y69144D01*
X87681Y69167D01*
X87730Y69193D01*
X87786Y69220D01*
X87842Y69246D01*
X87898Y69269D01*
Y68967D01*
X87894D01*
X87885Y68960D01*
X87871Y68954D01*
X87855Y68944D01*
X87832Y68934D01*
X87806Y68918D01*
X87744Y68885D01*
X87675Y68842D01*
X87596Y68790D01*
X87520Y68734D01*
X87445Y68672D01*
X87442Y68669D01*
X87435Y68665D01*
X87425Y68655D01*
X87412Y68642D01*
X87379Y68609D01*
X87337Y68564D01*
X87294Y68514D01*
X87248Y68455D01*
X87206Y68396D01*
X87169Y68334D01*
X86969D01*
Y70866D01*
X87278D01*
Y68895D01*
D02*
G37*
G36*
X85320D02*
X85326Y68898D01*
X85339Y68911D01*
X85365Y68934D01*
X85398Y68960D01*
X85441Y68993D01*
X85493Y69029D01*
X85549Y69069D01*
X85615Y69108D01*
X85618D01*
X85621Y69111D01*
X85631Y69118D01*
X85644Y69125D01*
X85680Y69144D01*
X85723Y69167D01*
X85772Y69193D01*
X85828Y69220D01*
X85884Y69246D01*
X85940Y69269D01*
Y68967D01*
X85936D01*
X85926Y68960D01*
X85913Y68954D01*
X85897Y68944D01*
X85874Y68934D01*
X85848Y68918D01*
X85785Y68885D01*
X85716Y68842D01*
X85638Y68790D01*
X85562Y68734D01*
X85487Y68672D01*
X85484Y68669D01*
X85477Y68665D01*
X85467Y68655D01*
X85454Y68642D01*
X85421Y68609D01*
X85379Y68564D01*
X85336Y68514D01*
X85290Y68455D01*
X85247Y68396D01*
X85211Y68334D01*
X85011D01*
Y70866D01*
X85320D01*
Y68895D01*
D02*
G37*
%LPC*%
G36*
X92795Y82343D02*
X91958D01*
Y81572D01*
X91961Y81549D01*
X91965Y81496D01*
X91968Y81441D01*
X91978Y81378D01*
X91988Y81323D01*
X92004Y81270D01*
X92007Y81264D01*
X92014Y81247D01*
X92024Y81224D01*
X92040Y81195D01*
X92060Y81165D01*
X92086Y81132D01*
X92119Y81099D01*
X92155Y81073D01*
X92158Y81070D01*
X92175Y81063D01*
X92194Y81050D01*
X92224Y81037D01*
X92257Y81027D01*
X92296Y81014D01*
X92335Y81008D01*
X92381Y81004D01*
X92385D01*
X92388D01*
X92398D01*
X92411Y81008D01*
X92444Y81011D01*
X92486Y81021D01*
X92532Y81037D01*
X92581Y81060D01*
X92631Y81093D01*
X92677Y81136D01*
X92683Y81142D01*
X92696Y81162D01*
X92713Y81191D01*
X92736Y81237D01*
X92746Y81264D01*
X92759Y81293D01*
X92768Y81326D01*
X92775Y81365D01*
X92785Y81405D01*
X92788Y81447D01*
X92795Y81496D01*
Y82343D01*
D02*
G37*
G36*
X91440Y78105D02*
Y77311D01*
X92578D01*
X91440Y78105D01*
D02*
G37*
G36*
X70078Y94806D02*
X69232D01*
Y93969D01*
X70003D01*
X70026Y93973D01*
X70078Y93976D01*
X70134Y93979D01*
X70196Y93989D01*
X70252Y93999D01*
X70305Y94015D01*
X70311Y94019D01*
X70328Y94025D01*
X70351Y94035D01*
X70380Y94051D01*
X70410Y94071D01*
X70442Y94097D01*
X70475Y94130D01*
X70502Y94166D01*
X70505Y94169D01*
X70511Y94186D01*
X70525Y94206D01*
X70538Y94235D01*
X70547Y94268D01*
X70561Y94307D01*
X70567Y94347D01*
X70570Y94393D01*
Y94396D01*
Y94399D01*
Y94409D01*
X70567Y94422D01*
X70564Y94455D01*
X70554Y94498D01*
X70538Y94543D01*
X70515Y94593D01*
X70482Y94642D01*
X70439Y94688D01*
X70433Y94694D01*
X70413Y94707D01*
X70383Y94724D01*
X70337Y94747D01*
X70311Y94757D01*
X70282Y94770D01*
X70249Y94780D01*
X70210Y94786D01*
X70170Y94796D01*
X70128Y94799D01*
X70078Y94806D01*
D02*
G37*
G36*
X136968Y63649D02*
X135043D01*
Y63049D01*
X135046Y63026D01*
X135049Y62970D01*
X135052Y62908D01*
X135062Y62842D01*
X135072Y62777D01*
X135088Y62721D01*
Y62718D01*
X135092Y62714D01*
X135098Y62698D01*
X135108Y62672D01*
X135121Y62639D01*
X135141Y62603D01*
X135161Y62567D01*
X135187Y62527D01*
X135216Y62495D01*
X135223Y62488D01*
X135239Y62475D01*
X135266Y62455D01*
X135302Y62426D01*
X135348Y62396D01*
X135403Y62367D01*
X135466Y62337D01*
X135538Y62311D01*
X135541D01*
X135548Y62308D01*
X135557Y62304D01*
X135574Y62301D01*
X135594Y62295D01*
X135617Y62288D01*
X135643Y62281D01*
X135672Y62275D01*
X135708Y62272D01*
X135744Y62265D01*
X135826Y62252D01*
X135922Y62245D01*
X136023Y62242D01*
X136027D01*
X136040D01*
X136063D01*
X136089Y62245D01*
X136122D01*
X136158Y62249D01*
X136200Y62252D01*
X136246Y62258D01*
X136345Y62275D01*
X136446Y62298D01*
X136541Y62331D01*
X136587Y62350D01*
X136630Y62373D01*
X136633D01*
X136640Y62380D01*
X136650Y62386D01*
X136666Y62396D01*
X136702Y62426D01*
X136745Y62462D01*
X136794Y62508D01*
X136840Y62560D01*
X136883Y62622D01*
X136899Y62655D01*
X136915Y62688D01*
X136919Y62695D01*
X136922Y62701D01*
X136925Y62714D01*
X136928Y62727D01*
X136932Y62747D01*
X136938Y62767D01*
X136942Y62793D01*
X136948Y62819D01*
X136951Y62852D01*
X136955Y62888D01*
X136961Y62928D01*
X136965Y62970D01*
Y63016D01*
X136968Y63065D01*
Y63649D01*
D02*
G37*
G36*
X41004Y53668D02*
X40233D01*
X40210Y53665D01*
X40158Y53662D01*
X40102Y53659D01*
X40040Y53649D01*
X39984Y53639D01*
X39931Y53623D01*
X39925Y53619D01*
X39908Y53613D01*
X39886Y53603D01*
X39856Y53586D01*
X39827Y53567D01*
X39794Y53540D01*
X39761Y53508D01*
X39735Y53472D01*
X39731Y53468D01*
X39725Y53452D01*
X39712Y53432D01*
X39699Y53403D01*
X39689Y53370D01*
X39676Y53331D01*
X39669Y53291D01*
X39666Y53245D01*
Y53242D01*
Y53239D01*
Y53229D01*
X39669Y53216D01*
X39672Y53183D01*
X39682Y53140D01*
X39699Y53094D01*
X39722Y53045D01*
X39754Y52996D01*
X39797Y52950D01*
X39804Y52943D01*
X39823Y52930D01*
X39853Y52914D01*
X39899Y52891D01*
X39925Y52881D01*
X39955Y52868D01*
X39987Y52858D01*
X40027Y52852D01*
X40066Y52842D01*
X40109Y52839D01*
X40158Y52832D01*
X41004D01*
Y53668D01*
D02*
G37*
G36*
X123228Y33740D02*
X122382D01*
Y32903D01*
X123152D01*
X123176Y32906D01*
X123228Y32910D01*
X123284Y32913D01*
X123346Y32923D01*
X123402Y32933D01*
X123454Y32949D01*
X123461Y32952D01*
X123477Y32959D01*
X123500Y32969D01*
X123530Y32985D01*
X123559Y33005D01*
X123592Y33031D01*
X123625Y33064D01*
X123651Y33100D01*
X123654Y33103D01*
X123661Y33120D01*
X123674Y33139D01*
X123687Y33169D01*
X123697Y33202D01*
X123710Y33241D01*
X123717Y33280D01*
X123720Y33326D01*
Y33329D01*
Y33333D01*
Y33343D01*
X123717Y33356D01*
X123713Y33389D01*
X123704Y33431D01*
X123687Y33477D01*
X123664Y33526D01*
X123631Y33575D01*
X123589Y33621D01*
X123582Y33628D01*
X123563Y33641D01*
X123533Y33658D01*
X123487Y33680D01*
X123461Y33690D01*
X123431Y33703D01*
X123399Y33713D01*
X123359Y33720D01*
X123320Y33730D01*
X123277Y33733D01*
X123228Y33740D01*
D02*
G37*
G36*
X67641Y29183D02*
X67634D01*
X67618D01*
X67595Y29180D01*
X67559D01*
X67520Y29177D01*
X67471Y29170D01*
X67418Y29164D01*
X67362Y29154D01*
X67303Y29140D01*
X67241Y29124D01*
X67179Y29104D01*
X67116Y29081D01*
X67054Y29052D01*
X66995Y29019D01*
X66939Y28983D01*
X66887Y28940D01*
X66883Y28937D01*
X66877Y28931D01*
X66864Y28914D01*
X66847Y28898D01*
X66824Y28872D01*
X66805Y28842D01*
X66778Y28809D01*
X66755Y28773D01*
X66733Y28730D01*
X66706Y28681D01*
X66687Y28632D01*
X66667Y28576D01*
X66647Y28517D01*
X66634Y28455D01*
X66628Y28389D01*
X66624Y28321D01*
Y28291D01*
X66628Y28255D01*
X66634Y28209D01*
X66641Y28160D01*
X66650Y28101D01*
X66667Y28042D01*
X66690Y27983D01*
Y27986D01*
X66693Y27989D01*
X66706Y28009D01*
X66726Y28042D01*
X66746Y28084D01*
X66769Y28134D01*
X66795Y28189D01*
X66815Y28248D01*
X66834Y28314D01*
X67077Y28232D01*
Y28229D01*
X67074Y28219D01*
X67067Y28202D01*
X67061Y28183D01*
X67054Y28160D01*
X67044Y28130D01*
X67031Y28098D01*
X67015Y28065D01*
X66982Y27989D01*
X66939Y27911D01*
X66890Y27832D01*
X66834Y27756D01*
X66838Y27753D01*
X66847Y27743D01*
X66864Y27730D01*
X66883Y27710D01*
X66913Y27687D01*
X66949Y27661D01*
X66988Y27635D01*
X67037Y27609D01*
X67090Y27582D01*
X67149Y27553D01*
X67215Y27530D01*
X67287Y27507D01*
X67365Y27487D01*
X67451Y27474D01*
X67543Y27464D01*
X67641Y27461D01*
X67644D01*
X67654D01*
X67671D01*
X67694D01*
X67720Y27464D01*
X67749Y27468D01*
X67785Y27471D01*
X67822Y27474D01*
X67907Y27487D01*
X67995Y27504D01*
X68087Y27530D01*
X68176Y27566D01*
X68179D01*
X68186Y27569D01*
X68199Y27576D01*
X68215Y27586D01*
X68231Y27596D01*
X68254Y27609D01*
X68307Y27645D01*
X68363Y27687D01*
X68422Y27740D01*
X68477Y27799D01*
X68530Y27871D01*
Y27874D01*
X68537Y27881D01*
X68543Y27891D01*
X68550Y27907D01*
X68559Y27924D01*
X68569Y27947D01*
X68582Y27973D01*
X68595Y28002D01*
X68619Y28068D01*
X68638Y28143D01*
X68651Y28229D01*
X68658Y28321D01*
Y28357D01*
X68655Y28383D01*
X68651Y28416D01*
X68645Y28452D01*
X68635Y28494D01*
X68625Y28537D01*
X68612Y28586D01*
X68595Y28635D01*
X68576Y28688D01*
X68550Y28740D01*
X68520Y28793D01*
X68487Y28842D01*
X68448Y28891D01*
X68402Y28940D01*
X68399Y28944D01*
X68389Y28950D01*
X68376Y28963D01*
X68353Y28980D01*
X68327Y28996D01*
X68294Y29016D01*
X68254Y29039D01*
X68212Y29062D01*
X68159Y29085D01*
X68103Y29108D01*
X68041Y29127D01*
X67972Y29144D01*
X67900Y29160D01*
X67818Y29173D01*
X67733Y29180D01*
X67641Y29183D01*
D02*
G37*
G36*
X78836Y78444D02*
X78833D01*
X78829D01*
X78819D01*
X78806Y78441D01*
X78773Y78438D01*
X78731Y78428D01*
X78685Y78412D01*
X78636Y78389D01*
X78587Y78356D01*
X78541Y78313D01*
X78534Y78307D01*
X78521Y78287D01*
X78505Y78257D01*
X78482Y78211D01*
X78472Y78185D01*
X78459Y78156D01*
X78449Y78123D01*
X78442Y78084D01*
X78432Y78044D01*
X78429Y78002D01*
X78422Y77952D01*
Y77106D01*
X79259D01*
Y77877D01*
X79256Y77900D01*
X79252Y77952D01*
X79249Y78008D01*
X79239Y78070D01*
X79229Y78126D01*
X79213Y78179D01*
X79210Y78185D01*
X79203Y78202D01*
X79193Y78225D01*
X79177Y78254D01*
X79157Y78284D01*
X79131Y78316D01*
X79098Y78349D01*
X79062Y78376D01*
X79059Y78379D01*
X79043Y78385D01*
X79023Y78399D01*
X78993Y78412D01*
X78961Y78421D01*
X78921Y78435D01*
X78882Y78441D01*
X78836Y78444D01*
D02*
G37*
G36*
X100059Y33983D02*
X99288D01*
X99265Y33980D01*
X99213Y33977D01*
X99157Y33974D01*
X99095Y33964D01*
X99039Y33954D01*
X98987Y33937D01*
X98980Y33934D01*
X98964Y33928D01*
X98941Y33918D01*
X98911Y33901D01*
X98882Y33882D01*
X98849Y33855D01*
X98816Y33823D01*
X98790Y33787D01*
X98786Y33783D01*
X98780Y33767D01*
X98767Y33747D01*
X98754Y33718D01*
X98744Y33685D01*
X98731Y33645D01*
X98724Y33606D01*
X98721Y33560D01*
Y33557D01*
Y33554D01*
Y33544D01*
X98724Y33531D01*
X98728Y33498D01*
X98737Y33455D01*
X98754Y33409D01*
X98777Y33360D01*
X98809Y33311D01*
X98852Y33265D01*
X98859Y33259D01*
X98878Y33245D01*
X98908Y33229D01*
X98954Y33206D01*
X98980Y33196D01*
X99010Y33183D01*
X99042Y33173D01*
X99082Y33167D01*
X99121Y33157D01*
X99164Y33154D01*
X99213Y33147D01*
X100059D01*
Y33983D01*
D02*
G37*
G36*
X97124Y35177D02*
X97104D01*
X97091Y35174D01*
X97055Y35167D01*
X97009Y35158D01*
X96953Y35138D01*
X96897Y35112D01*
X96842Y35072D01*
X96812Y35046D01*
X96786Y35020D01*
X96782Y35017D01*
X96779Y35013D01*
X96773Y35003D01*
X96763Y34990D01*
X96753Y34974D01*
X96740Y34954D01*
X96727Y34931D01*
X96714Y34908D01*
X96691Y34846D01*
X96668Y34771D01*
X96651Y34685D01*
X96645Y34639D01*
Y34590D01*
Y34587D01*
Y34577D01*
Y34564D01*
X96648Y34547D01*
Y34525D01*
X96651Y34498D01*
X96661Y34439D01*
X96678Y34374D01*
X96704Y34305D01*
X96740Y34239D01*
X96759Y34206D01*
X96786Y34177D01*
Y34174D01*
X96792Y34170D01*
X96812Y34154D01*
X96842Y34128D01*
X96881Y34101D01*
X96933Y34075D01*
X96992Y34049D01*
X97061Y34033D01*
X97097Y34026D01*
X97156D01*
X97173Y34029D01*
X97189D01*
X97212Y34033D01*
X97258Y34046D01*
X97314Y34062D01*
X97376Y34088D01*
X97435Y34128D01*
X97465Y34151D01*
X97491Y34177D01*
Y34180D01*
X97497Y34183D01*
X97504Y34193D01*
X97514Y34203D01*
X97537Y34236D01*
X97563Y34282D01*
X97589Y34341D01*
X97612Y34407D01*
X97629Y34485D01*
X97632Y34528D01*
X97635Y34574D01*
Y34577D01*
Y34580D01*
Y34600D01*
X97632Y34633D01*
X97625Y34672D01*
X97619Y34718D01*
X97609Y34771D01*
X97593Y34826D01*
X97570Y34882D01*
X97566Y34889D01*
X97557Y34905D01*
X97540Y34931D01*
X97521Y34964D01*
X97494Y35000D01*
X97461Y35036D01*
X97422Y35069D01*
X97379Y35102D01*
X97373Y35105D01*
X97360Y35115D01*
X97334Y35125D01*
X97301Y35138D01*
X97265Y35154D01*
X97219Y35164D01*
X97173Y35174D01*
X97124Y35177D01*
D02*
G37*
G36*
X41004Y49731D02*
X40233D01*
X40210Y49728D01*
X40158Y49725D01*
X40102Y49722D01*
X40040Y49712D01*
X39984Y49702D01*
X39931Y49685D01*
X39925Y49682D01*
X39908Y49676D01*
X39886Y49666D01*
X39856Y49649D01*
X39827Y49630D01*
X39794Y49603D01*
X39761Y49571D01*
X39735Y49535D01*
X39731Y49531D01*
X39725Y49515D01*
X39712Y49495D01*
X39699Y49466D01*
X39689Y49433D01*
X39676Y49393D01*
X39669Y49354D01*
X39666Y49308D01*
Y49305D01*
Y49302D01*
Y49292D01*
X39669Y49279D01*
X39672Y49246D01*
X39682Y49203D01*
X39699Y49157D01*
X39722Y49108D01*
X39754Y49059D01*
X39797Y49013D01*
X39804Y49007D01*
X39823Y48993D01*
X39853Y48977D01*
X39899Y48954D01*
X39925Y48944D01*
X39955Y48931D01*
X39987Y48921D01*
X40027Y48915D01*
X40066Y48905D01*
X40109Y48902D01*
X40158Y48895D01*
X41004D01*
Y49731D01*
D02*
G37*
G36*
X38095Y50925D02*
X38072D01*
X38059Y50922D01*
X38039D01*
X38016Y50919D01*
X37964Y50909D01*
X37908Y50889D01*
X37845Y50866D01*
X37783Y50830D01*
X37754Y50810D01*
X37727Y50784D01*
X37724Y50781D01*
X37721Y50778D01*
X37704Y50758D01*
X37681Y50728D01*
X37655Y50686D01*
X37629Y50633D01*
X37606Y50571D01*
X37590Y50502D01*
X37583Y50463D01*
Y50424D01*
Y50420D01*
Y50414D01*
Y50401D01*
X37586Y50384D01*
Y50368D01*
X37590Y50345D01*
X37603Y50292D01*
X37619Y50233D01*
X37645Y50171D01*
X37681Y50109D01*
X37704Y50079D01*
X37731Y50053D01*
Y50050D01*
X37737Y50046D01*
X37757Y50030D01*
X37790Y50007D01*
X37832Y49977D01*
X37888Y49951D01*
X37950Y49928D01*
X38023Y49912D01*
X38062Y49905D01*
X38124D01*
X38141Y49909D01*
X38160D01*
X38180Y49912D01*
X38232Y49922D01*
X38288Y49941D01*
X38350Y49968D01*
X38410Y50000D01*
X38439Y50023D01*
X38465Y50050D01*
X38472Y50056D01*
X38488Y50076D01*
X38511Y50105D01*
X38534Y50148D01*
X38560Y50200D01*
X38583Y50263D01*
X38600Y50332D01*
X38603Y50371D01*
X38606Y50410D01*
Y50417D01*
Y50433D01*
X38603Y50459D01*
X38600Y50492D01*
X38593Y50532D01*
X38580Y50578D01*
X38567Y50624D01*
X38547Y50669D01*
X38544Y50676D01*
X38534Y50689D01*
X38521Y50712D01*
X38501Y50738D01*
X38475Y50768D01*
X38442Y50801D01*
X38403Y50830D01*
X38360Y50860D01*
X38354Y50863D01*
X38337Y50870D01*
X38314Y50879D01*
X38282Y50893D01*
X38239Y50906D01*
X38196Y50915D01*
X38147Y50922D01*
X38095Y50925D01*
D02*
G37*
G36*
X38091Y49653D02*
X38075D01*
X38062Y49649D01*
X38029Y49646D01*
X37990Y49639D01*
X37944Y49626D01*
X37895Y49607D01*
X37845Y49577D01*
X37800Y49541D01*
X37793Y49535D01*
X37780Y49521D01*
X37763Y49499D01*
X37740Y49466D01*
X37721Y49426D01*
X37701Y49377D01*
X37688Y49325D01*
X37685Y49266D01*
Y49262D01*
Y49259D01*
Y49249D01*
X37688Y49236D01*
X37691Y49207D01*
X37698Y49167D01*
X37714Y49121D01*
X37734Y49072D01*
X37763Y49026D01*
X37803Y48980D01*
X37809Y48974D01*
X37822Y48961D01*
X37849Y48944D01*
X37885Y48921D01*
X37927Y48898D01*
X37977Y48882D01*
X38032Y48869D01*
X38095Y48862D01*
X38111D01*
X38124Y48865D01*
X38157Y48869D01*
X38200Y48875D01*
X38246Y48892D01*
X38295Y48911D01*
X38344Y48938D01*
X38390Y48977D01*
X38393Y48983D01*
X38406Y48997D01*
X38426Y49023D01*
X38446Y49052D01*
X38469Y49095D01*
X38485Y49141D01*
X38498Y49194D01*
X38505Y49249D01*
Y49253D01*
Y49256D01*
Y49266D01*
X38501Y49279D01*
X38498Y49312D01*
X38492Y49351D01*
X38478Y49397D01*
X38459Y49446D01*
X38429Y49495D01*
X38393Y49541D01*
X38387Y49544D01*
X38374Y49558D01*
X38347Y49577D01*
X38311Y49597D01*
X38269Y49617D01*
X38216Y49636D01*
X38157Y49649D01*
X38091Y49653D01*
D02*
G37*
G36*
X82815Y17421D02*
X82812D01*
X82809D01*
X82799D01*
X82786Y17417D01*
X82753Y17414D01*
X82710Y17404D01*
X82665Y17388D01*
X82615Y17365D01*
X82566Y17332D01*
X82520Y17290D01*
X82514Y17283D01*
X82501Y17263D01*
X82484Y17234D01*
X82461Y17188D01*
X82451Y17162D01*
X82438Y17132D01*
X82428Y17099D01*
X82422Y17060D01*
X82412Y17021D01*
X82409Y16978D01*
X82402Y16929D01*
Y16082D01*
X83239D01*
Y16853D01*
X83235Y16876D01*
X83232Y16929D01*
X83229Y16984D01*
X83219Y17047D01*
X83209Y17103D01*
X83193Y17155D01*
X83189Y17162D01*
X83183Y17178D01*
X83173Y17201D01*
X83157Y17231D01*
X83137Y17260D01*
X83111Y17293D01*
X83078Y17326D01*
X83042Y17352D01*
X83039Y17355D01*
X83022Y17362D01*
X83002Y17375D01*
X82973Y17388D01*
X82940Y17398D01*
X82901Y17411D01*
X82861Y17417D01*
X82815Y17421D01*
D02*
G37*
G36*
X98700Y88248D02*
X97864D01*
Y87477D01*
X97867Y87454D01*
X97870Y87402D01*
X97874Y87346D01*
X97883Y87284D01*
X97893Y87228D01*
X97910Y87176D01*
X97913Y87169D01*
X97919Y87153D01*
X97929Y87130D01*
X97946Y87100D01*
X97965Y87071D01*
X97992Y87038D01*
X98024Y87005D01*
X98061Y86979D01*
X98064Y86976D01*
X98080Y86969D01*
X98100Y86956D01*
X98129Y86943D01*
X98162Y86933D01*
X98202Y86920D01*
X98241Y86913D01*
X98287Y86910D01*
X98290D01*
X98293D01*
X98303D01*
X98316Y86913D01*
X98349Y86917D01*
X98392Y86926D01*
X98438Y86943D01*
X98487Y86966D01*
X98536Y86998D01*
X98582Y87041D01*
X98589Y87048D01*
X98602Y87067D01*
X98618Y87097D01*
X98641Y87143D01*
X98651Y87169D01*
X98664Y87199D01*
X98674Y87231D01*
X98681Y87271D01*
X98690Y87310D01*
X98694Y87353D01*
X98700Y87402D01*
Y88248D01*
D02*
G37*
G36*
X68563Y81270D02*
X67792D01*
X67769Y81267D01*
X67717Y81264D01*
X67661Y81260D01*
X67599Y81250D01*
X67543Y81241D01*
X67491Y81224D01*
X67484Y81221D01*
X67468Y81214D01*
X67445Y81204D01*
X67415Y81188D01*
X67386Y81168D01*
X67353Y81142D01*
X67320Y81109D01*
X67294Y81073D01*
X67291Y81070D01*
X67284Y81054D01*
X67271Y81034D01*
X67258Y81004D01*
X67248Y80972D01*
X67235Y80932D01*
X67228Y80893D01*
X67225Y80847D01*
Y80844D01*
Y80840D01*
Y80831D01*
X67228Y80818D01*
X67231Y80785D01*
X67241Y80742D01*
X67258Y80696D01*
X67281Y80647D01*
X67313Y80598D01*
X67356Y80552D01*
X67363Y80545D01*
X67382Y80532D01*
X67412Y80516D01*
X67458Y80493D01*
X67484Y80483D01*
X67514Y80470D01*
X67546Y80460D01*
X67586Y80453D01*
X67625Y80444D01*
X67668Y80440D01*
X67717Y80434D01*
X68563D01*
Y81270D01*
D02*
G37*
G36*
X66284Y81788D02*
X65490D01*
Y80650D01*
X66284Y81788D01*
D02*
G37*
G36*
X78878Y31200D02*
X78875D01*
X78872D01*
X78862D01*
X78849Y31197D01*
X78816Y31194D01*
X78773Y31184D01*
X78728Y31168D01*
X78678Y31144D01*
X78629Y31112D01*
X78583Y31069D01*
X78577Y31062D01*
X78564Y31043D01*
X78547Y31013D01*
X78524Y30967D01*
X78514Y30941D01*
X78501Y30912D01*
X78491Y30879D01*
X78485Y30839D01*
X78475Y30800D01*
X78472Y30757D01*
X78465Y30708D01*
Y29862D01*
X79302D01*
Y30633D01*
X79298Y30656D01*
X79295Y30708D01*
X79292Y30764D01*
X79282Y30826D01*
X79272Y30882D01*
X79256Y30935D01*
X79252Y30941D01*
X79246Y30958D01*
X79236Y30981D01*
X79220Y31010D01*
X79200Y31040D01*
X79174Y31072D01*
X79141Y31105D01*
X79105Y31131D01*
X79102Y31135D01*
X79085Y31141D01*
X79065Y31154D01*
X79036Y31168D01*
X79003Y31177D01*
X78964Y31190D01*
X78924Y31197D01*
X78878Y31200D01*
D02*
G37*
G36*
X86870Y5571D02*
X84944D01*
Y4971D01*
X84947Y4948D01*
X84951Y4892D01*
X84954Y4830D01*
X84964Y4764D01*
X84974Y4699D01*
X84990Y4643D01*
Y4640D01*
X84993Y4636D01*
X85000Y4620D01*
X85010Y4594D01*
X85023Y4561D01*
X85043Y4525D01*
X85062Y4489D01*
X85088Y4449D01*
X85118Y4416D01*
X85124Y4410D01*
X85141Y4397D01*
X85167Y4377D01*
X85203Y4348D01*
X85249Y4318D01*
X85305Y4289D01*
X85367Y4259D01*
X85439Y4233D01*
X85443D01*
X85449Y4230D01*
X85459Y4226D01*
X85475Y4223D01*
X85495Y4216D01*
X85518Y4210D01*
X85544Y4203D01*
X85574Y4197D01*
X85610Y4193D01*
X85646Y4187D01*
X85728Y4174D01*
X85823Y4167D01*
X85925Y4164D01*
X85928D01*
X85941D01*
X85964D01*
X85990Y4167D01*
X86023D01*
X86059Y4170D01*
X86102Y4174D01*
X86148Y4180D01*
X86246Y4197D01*
X86348Y4220D01*
X86443Y4252D01*
X86489Y4272D01*
X86532Y4295D01*
X86535D01*
X86541Y4302D01*
X86551Y4308D01*
X86568Y4318D01*
X86604Y4348D01*
X86646Y4384D01*
X86696Y4430D01*
X86742Y4482D01*
X86784Y4544D01*
X86801Y4577D01*
X86817Y4610D01*
X86820Y4617D01*
X86823Y4623D01*
X86827Y4636D01*
X86830Y4649D01*
X86833Y4669D01*
X86840Y4689D01*
X86843Y4715D01*
X86850Y4741D01*
X86853Y4774D01*
X86856Y4810D01*
X86863Y4849D01*
X86866Y4892D01*
Y4938D01*
X86870Y4987D01*
Y5571D01*
D02*
G37*
G36*
X90217Y69459D02*
X89446D01*
X89423Y69456D01*
X89370Y69453D01*
X89315Y69449D01*
X89252Y69439D01*
X89197Y69429D01*
X89144Y69413D01*
X89138Y69410D01*
X89121Y69403D01*
X89098Y69393D01*
X89069Y69377D01*
X89039Y69357D01*
X89006Y69331D01*
X88973Y69298D01*
X88947Y69262D01*
X88944Y69259D01*
X88937Y69243D01*
X88924Y69223D01*
X88911Y69193D01*
X88901Y69161D01*
X88888Y69121D01*
X88882Y69082D01*
X88878Y69036D01*
Y69033D01*
Y69029D01*
Y69020D01*
X88882Y69006D01*
X88885Y68974D01*
X88895Y68931D01*
X88911Y68885D01*
X88934Y68836D01*
X88967Y68787D01*
X89010Y68741D01*
X89016Y68734D01*
X89036Y68721D01*
X89065Y68705D01*
X89111Y68682D01*
X89138Y68672D01*
X89167Y68659D01*
X89200Y68649D01*
X89239Y68642D01*
X89279Y68633D01*
X89321Y68629D01*
X89370Y68623D01*
X90217D01*
Y69459D01*
D02*
G37*
%LPD*%
D10*
X37894Y59153D02*
X44783D01*
X37894Y62894D02*
X44783D01*
Y59153D02*
Y62894D01*
X37894Y59153D02*
Y62894D01*
X78839Y43799D02*
Y50689D01*
X82579Y43799D02*
Y50689D01*
X78839Y43799D02*
X82579D01*
X78839Y50689D02*
X82579D01*
X37894Y47146D02*
X44783D01*
X37894Y43406D02*
X44783D01*
X37894D02*
Y47146D01*
X44783Y43406D02*
Y47146D01*
X101772Y93209D02*
X167717D01*
X101772Y40650D02*
Y93209D01*
Y40650D02*
X167717D01*
Y93209D01*
X65453Y70965D02*
Y74705D01*
X72342Y70965D02*
Y74705D01*
X65453D02*
X72342D01*
X65453Y70965D02*
X72342D01*
D12*
X88386Y88189D02*
X92716D01*
X88386Y77165D02*
Y88189D01*
Y77165D02*
X92716D01*
Y88189D01*
X63386Y90354D02*
Y94685D01*
Y90354D02*
X74410D01*
Y94685D01*
X63386D02*
X74410D01*
X90689Y28602D02*
X129783D01*
Y-3701D02*
Y28602D01*
X90689Y-3701D02*
X129783D01*
X90689D02*
Y28602D01*
X58916Y52362D02*
X74942D01*
X58916D02*
Y65748D01*
X74942D01*
Y52362D02*
Y65748D01*
X37850Y53401D02*
X44828D01*
X37850D02*
Y56836D01*
X44828D01*
Y53401D02*
Y56836D01*
X117784Y33760D02*
X126311D01*
Y29232D02*
Y33760D01*
X117784Y29232D02*
X126311D01*
X117784D02*
Y33760D01*
X73228Y23425D02*
Y35630D01*
X60630Y23425D02*
X73228D01*
X60630D02*
Y35630D01*
X73228D01*
X78543Y71260D02*
Y82284D01*
X82874D01*
Y71260D02*
Y82284D01*
X78543Y71260D02*
X82874D01*
X96130Y33169D02*
X104657D01*
X96130D02*
Y37697D01*
X104657D01*
Y33169D02*
Y37697D01*
X37697Y49606D02*
X44980D01*
X37697D02*
Y52756D01*
X44980D01*
Y49606D02*
Y52756D01*
X83071Y12106D02*
Y19390D01*
X86221D01*
Y12106D02*
Y19390D01*
X83071Y12106D02*
X86221D01*
X94193Y92846D02*
X98721D01*
X94193Y84319D02*
Y92846D01*
Y84319D02*
X98721D01*
Y92846D01*
X63386Y80512D02*
X74410D01*
X63386D02*
Y84842D01*
X74410D01*
Y80512D02*
Y84842D01*
X78543Y24016D02*
Y35039D01*
X82874D01*
Y24016D02*
Y35039D01*
X78543Y24016D02*
X82874D01*
X82913Y36260D02*
X90315D01*
X82913D02*
Y46417D01*
X90315D01*
Y36260D02*
Y46417D01*
X86811Y984D02*
Y10827D01*
X82480Y984D02*
X86811D01*
X82480D02*
Y10827D01*
X86811D01*
X94815Y68602D02*
Y73130D01*
X86288D02*
X94815D01*
X86288Y68602D02*
Y73130D01*
Y68602D02*
X94815D01*
M02*
