G04*
G04 #@! TF.GenerationSoftware,Altium Limited,Altium Designer,25.3.3 (18)*
G04*
G04 Layer_Physical_Order=4*
G04 Layer_Color=16711680*
%FSLAX44Y44*%
%MOMM*%
G71*
G04*
G04 #@! TF.SameCoordinates,E081D75F-9DF0-4658-81CA-2A43F12760C1*
G04*
G04*
G04 #@! TF.FilePolarity,Positive*
G04*
G01*
G75*
%ADD47C,0.2540*%
%ADD62C,0.6500*%
G04:AMPARAMS|DCode=63|XSize=1mm|YSize=2.1mm|CornerRadius=0.5mm|HoleSize=0mm|Usage=FLASHONLY|Rotation=0.000|XOffset=0mm|YOffset=0mm|HoleType=Round|Shape=RoundedRectangle|*
%AMROUNDEDRECTD63*
21,1,1.0000,1.1000,0,0,0.0*
21,1,0.0000,2.1000,0,0,0.0*
1,1,1.0000,0.0000,-0.5500*
1,1,1.0000,0.0000,-0.5500*
1,1,1.0000,0.0000,0.5500*
1,1,1.0000,0.0000,0.5500*
%
%ADD63ROUNDEDRECTD63*%
G04:AMPARAMS|DCode=64|XSize=1mm|YSize=1.8mm|CornerRadius=0.5mm|HoleSize=0mm|Usage=FLASHONLY|Rotation=0.000|XOffset=0mm|YOffset=0mm|HoleType=Round|Shape=RoundedRectangle|*
%AMROUNDEDRECTD64*
21,1,1.0000,0.8000,0,0,0.0*
21,1,0.0000,1.8000,0,0,0.0*
1,1,1.0000,0.0000,-0.4000*
1,1,1.0000,0.0000,-0.4000*
1,1,1.0000,0.0000,0.4000*
1,1,1.0000,0.0000,0.4000*
%
%ADD64ROUNDEDRECTD64*%
%ADD69C,0.9000*%
%ADD71C,0.6000*%
%ADD72C,0.4000*%
%ADD77C,5.0000*%
%ADD78C,1.0000*%
%ADD79C,0.4500*%
%ADD80C,0.5000*%
G36*
X380922Y328736D02*
X380566Y328554D01*
X377059Y326006D01*
X373994Y322941D01*
X371446Y319434D01*
X369478Y315572D01*
X368138Y311449D01*
X367460Y307167D01*
Y306270D01*
X395000D01*
Y305000D01*
X396270D01*
Y277460D01*
X397168D01*
X401449Y278138D01*
X405572Y279478D01*
X409434Y281446D01*
X412941Y283994D01*
X416006Y287059D01*
X418554Y290566D01*
X420522Y294428D01*
X421200Y296514D01*
X422500Y296308D01*
Y237405D01*
X375999D01*
X375004Y236993D01*
X374592Y235998D01*
Y103998D01*
X375004Y103003D01*
X375999Y102591D01*
X422500D01*
Y38692D01*
X421200Y38486D01*
X420522Y40572D01*
X418554Y44434D01*
X416006Y47941D01*
X412941Y51006D01*
X409434Y53554D01*
X405572Y55522D01*
X401449Y56862D01*
X397168Y57540D01*
X396270D01*
Y30000D01*
X395000D01*
Y28730D01*
X367460D01*
Y27833D01*
X368138Y23551D01*
X369478Y19428D01*
X371446Y15566D01*
X373994Y12059D01*
X377059Y8994D01*
X380566Y6446D01*
X384428Y4478D01*
X386514Y3800D01*
X386308Y2500D01*
X191084D01*
X190465Y3723D01*
X190941Y4564D01*
X190960Y4593D01*
X192244Y4848D01*
X193336Y5577D01*
X217198Y29440D01*
X217273Y29463D01*
X217293Y29501D01*
X217334Y29517D01*
X217873Y30018D01*
X218390Y30432D01*
X218922Y30793D01*
X219469Y31105D01*
X220035Y31367D01*
X220621Y31581D01*
X221228Y31749D01*
X221860Y31869D01*
X222518Y31942D01*
X223254Y31969D01*
X223345Y32010D01*
X344375D01*
X344375Y32010D01*
X345663Y32266D01*
X346754Y32996D01*
X363379Y49621D01*
X364109Y50712D01*
X364365Y52000D01*
X364365Y52000D01*
Y197000D01*
X364109Y198288D01*
X363379Y199379D01*
X363379Y199379D01*
X353247Y209511D01*
X353210Y209608D01*
X352696Y210148D01*
X352255Y210664D01*
X351861Y211181D01*
X351515Y211698D01*
X351214Y212215D01*
X350957Y212733D01*
X350745Y213252D01*
X350574Y213773D01*
X350444Y214297D01*
X350346Y214879D01*
X350300Y214952D01*
Y215253D01*
X349341Y217569D01*
X347569Y219341D01*
X345253Y220300D01*
X342747D01*
X340431Y219341D01*
X338659Y217569D01*
X337700Y215253D01*
Y212747D01*
X338659Y210431D01*
X340431Y208659D01*
X342747Y207700D01*
X343048D01*
X343121Y207654D01*
X343703Y207556D01*
X344227Y207426D01*
X344748Y207255D01*
X345267Y207043D01*
X345785Y206786D01*
X346302Y206485D01*
X346819Y206139D01*
X347336Y205745D01*
X347852Y205304D01*
X348392Y204790D01*
X348489Y204753D01*
X357635Y195606D01*
Y53528D01*
X356806Y52872D01*
X355647Y53453D01*
X355805Y54650D01*
Y58880D01*
X349470D01*
Y47212D01*
X349637Y47234D01*
X350244Y46003D01*
X342981Y38740D01*
X249487D01*
X249129Y39326D01*
X249068Y40040D01*
X249551Y40394D01*
X250184Y40812D01*
X250806Y41176D01*
X251416Y41488D01*
X252013Y41748D01*
X252599Y41958D01*
X253173Y42119D01*
X253736Y42232D01*
X254290Y42299D01*
X254893Y42324D01*
X255014Y42380D01*
X262856D01*
X263858Y42579D01*
X264708Y43147D01*
X272133Y50571D01*
X272242Y50735D01*
X273417Y51247D01*
X273943Y51119D01*
X275195Y50600D01*
X277005D01*
X278677Y51293D01*
X279957Y52573D01*
X280650Y54245D01*
Y56055D01*
X279957Y57727D01*
X278677Y59007D01*
X277683Y59419D01*
X277326Y60901D01*
X288673Y72248D01*
X289241Y73098D01*
X289440Y74101D01*
Y131701D01*
X290740Y132239D01*
X290989Y131990D01*
X292294Y131450D01*
X293706D01*
X295011Y131990D01*
X295044Y132023D01*
X295149Y132044D01*
X295224Y132093D01*
X295259Y132111D01*
X295343Y132142D01*
X295475Y132180D01*
X295650Y132219D01*
X295841Y132249D01*
X296769Y132318D01*
X297125Y132323D01*
X297257Y132380D01*
X332000D01*
X333003Y132579D01*
X333853Y133147D01*
X350853Y150147D01*
X351421Y150997D01*
X351620Y152000D01*
Y189000D01*
X351421Y190003D01*
X350853Y190853D01*
X324873Y216833D01*
X324823Y216962D01*
X324325Y217488D01*
X323962Y217926D01*
X323841Y218093D01*
X323744Y218244D01*
X323677Y218364D01*
X323640Y218446D01*
X323628Y218483D01*
X323610Y218571D01*
X323550Y218660D01*
Y218706D01*
X323009Y220011D01*
X322011Y221010D01*
X320706Y221550D01*
X319294D01*
X317989Y221010D01*
X316991Y220011D01*
X316450Y218706D01*
Y217294D01*
X316991Y215989D01*
X317989Y214991D01*
X319294Y214450D01*
X319340D01*
X319429Y214390D01*
X319517Y214372D01*
X319554Y214360D01*
X319636Y214323D01*
X319756Y214256D01*
X319907Y214159D01*
X320064Y214046D01*
X320769Y213438D01*
X321024Y213190D01*
X321157Y213137D01*
X346380Y187915D01*
Y181743D01*
X345080Y181485D01*
X344447Y183013D01*
X342888Y184572D01*
X341020Y185345D01*
Y179875D01*
Y174405D01*
X342888Y175178D01*
X344447Y176737D01*
X345080Y178265D01*
X346380Y178007D01*
Y161993D01*
X345080Y161735D01*
X344447Y163263D01*
X342888Y164822D01*
X341020Y165595D01*
Y160125D01*
Y154655D01*
X342888Y155428D01*
X344447Y156987D01*
X345080Y158515D01*
X346380Y158257D01*
Y153085D01*
X330915Y137620D01*
X297271D01*
X297145Y137677D01*
X296420Y137696D01*
X295854Y137749D01*
X295650Y137781D01*
X295475Y137820D01*
X295343Y137858D01*
X295259Y137889D01*
X295224Y137907D01*
X295149Y137956D01*
X295044Y137977D01*
X295011Y138010D01*
X293706Y138550D01*
X292294D01*
X290989Y138010D01*
X290740Y137761D01*
X289440Y138299D01*
Y171996D01*
X289241Y172999D01*
X288673Y173849D01*
X276829Y185693D01*
X275979Y186261D01*
X274977Y186460D01*
X263245D01*
X254873Y194833D01*
X254823Y194962D01*
X254325Y195488D01*
X253962Y195926D01*
X253841Y196093D01*
X253744Y196244D01*
X253677Y196364D01*
X253640Y196446D01*
X253628Y196483D01*
X253610Y196571D01*
X253550Y196660D01*
Y196706D01*
X253009Y198011D01*
X252011Y199009D01*
X250706Y199550D01*
X249294D01*
X247989Y199009D01*
X246991Y198011D01*
X246450Y196706D01*
Y195294D01*
X246991Y193989D01*
X247989Y192990D01*
X249294Y192450D01*
X249340D01*
X249429Y192390D01*
X249517Y192372D01*
X249554Y192360D01*
X249636Y192323D01*
X249756Y192257D01*
X249907Y192159D01*
X250064Y192046D01*
X250769Y191439D01*
X251024Y191190D01*
X251157Y191137D01*
X258473Y183821D01*
X257975Y182620D01*
X180014D01*
X179893Y182676D01*
X179290Y182701D01*
X178736Y182768D01*
X178173Y182881D01*
X177599Y183042D01*
X177013Y183252D01*
X176416Y183512D01*
X175823Y183815D01*
X174537Y184617D01*
X173882Y185097D01*
X173790Y185119D01*
X173569Y185341D01*
X171253Y186300D01*
X168747D01*
X166431Y185341D01*
X164659Y183569D01*
X163700Y181253D01*
Y178747D01*
X164659Y176431D01*
X166431Y174659D01*
X168747Y173700D01*
X171253D01*
X173569Y174659D01*
X173790Y174881D01*
X173882Y174903D01*
X174551Y175394D01*
X175184Y175812D01*
X175806Y176176D01*
X176416Y176488D01*
X177013Y176748D01*
X177599Y176958D01*
X178173Y177119D01*
X178736Y177232D01*
X179290Y177299D01*
X179893Y177324D01*
X180014Y177380D01*
X270915D01*
X277127Y171167D01*
X277177Y171038D01*
X277675Y170512D01*
X278038Y170074D01*
X278159Y169907D01*
X278256Y169756D01*
X278323Y169636D01*
X278360Y169554D01*
X278372Y169517D01*
X278390Y169429D01*
X278450Y169340D01*
Y169294D01*
X278990Y167989D01*
X279989Y166991D01*
X281294Y166450D01*
X282706D01*
X282900Y166530D01*
X284200Y165662D01*
Y138659D01*
X283463Y138256D01*
X282900Y138056D01*
X281706Y138550D01*
X280294D01*
X278989Y138010D01*
X277990Y137011D01*
X277450Y135706D01*
Y134294D01*
X277990Y132989D01*
X278023Y132956D01*
X278044Y132851D01*
X278093Y132776D01*
X278111Y132741D01*
X278142Y132657D01*
X278180Y132525D01*
X278218Y132350D01*
X278249Y132159D01*
X278318Y131231D01*
X278323Y130875D01*
X278380Y130743D01*
Y130085D01*
X246915Y98620D01*
X233271D01*
X233145Y98677D01*
X232420Y98696D01*
X231854Y98749D01*
X231650Y98781D01*
X231475Y98820D01*
X231343Y98858D01*
X231259Y98890D01*
X231224Y98907D01*
X231149Y98956D01*
X231044Y98977D01*
X231011Y99010D01*
X229706Y99550D01*
X228294D01*
X226989Y99010D01*
X225991Y98011D01*
X225450Y96706D01*
Y95294D01*
X225991Y93989D01*
X226989Y92991D01*
X228294Y92450D01*
X229706D01*
X231011Y92991D01*
X231044Y93023D01*
X231149Y93044D01*
X231224Y93093D01*
X231259Y93111D01*
X231343Y93142D01*
X231475Y93180D01*
X231650Y93219D01*
X231841Y93249D01*
X232769Y93319D01*
X233125Y93323D01*
X233257Y93380D01*
X248000D01*
X249003Y93579D01*
X249853Y94147D01*
X282853Y127147D01*
X282900Y127217D01*
X284200Y126823D01*
Y75186D01*
X270606Y61592D01*
X269405Y62090D01*
Y65650D01*
X269146Y67618D01*
X268386Y69453D01*
X267178Y71028D01*
X265602Y72236D01*
X263768Y72996D01*
X263070Y73088D01*
Y60150D01*
X261800D01*
Y58880D01*
X254195D01*
Y54650D01*
X254454Y52682D01*
X255214Y50847D01*
X256422Y49272D01*
X256881Y48920D01*
X256440Y47620D01*
X255014D01*
X254893Y47676D01*
X254290Y47701D01*
X253736Y47768D01*
X253173Y47881D01*
X252599Y48042D01*
X252013Y48252D01*
X251416Y48512D01*
X250823Y48815D01*
X249537Y49617D01*
X248882Y50097D01*
X248790Y50119D01*
X248569Y50341D01*
X246253Y51300D01*
X243747D01*
X241431Y50341D01*
X239659Y48569D01*
X238700Y46253D01*
Y43747D01*
X239659Y41431D01*
X241051Y40040D01*
X240513Y38740D01*
X228337D01*
X227798Y40040D01*
X231379Y43621D01*
X232108Y44712D01*
X232365Y46000D01*
X232365Y46000D01*
Y84000D01*
X232365Y84000D01*
X232108Y85288D01*
X231379Y86379D01*
X231379Y86379D01*
X203247Y114511D01*
X203210Y114608D01*
X202696Y115148D01*
X202255Y115664D01*
X201861Y116181D01*
X201515Y116698D01*
X201214Y117215D01*
X200958Y117733D01*
X200744Y118252D01*
X200574Y118773D01*
X200444Y119297D01*
X200346Y119879D01*
X200300Y119952D01*
Y120253D01*
X199341Y122569D01*
X197569Y124341D01*
X195253Y125300D01*
X192747D01*
X190431Y124341D01*
X188659Y122569D01*
X187700Y120253D01*
Y117747D01*
X188659Y115431D01*
X190431Y113659D01*
X192747Y112700D01*
X193048D01*
X193121Y112654D01*
X193703Y112556D01*
X194227Y112426D01*
X194748Y112255D01*
X195267Y112043D01*
X195785Y111786D01*
X196302Y111485D01*
X196819Y111139D01*
X197336Y110745D01*
X197852Y110304D01*
X198392Y109790D01*
X198489Y109753D01*
X225635Y82606D01*
Y47394D01*
X218897Y40655D01*
X218794Y40613D01*
X215966Y37784D01*
X215923Y37682D01*
X189563Y11321D01*
X189131D01*
X188535Y11917D01*
X186404Y12800D01*
X184096D01*
X181965Y11917D01*
X180333Y10285D01*
X179450Y8154D01*
Y5846D01*
X180333Y3715D01*
X180347Y3701D01*
X179849Y2500D01*
X150151D01*
X149654Y3701D01*
X149667Y3715D01*
X150550Y5846D01*
Y8154D01*
X149667Y10285D01*
X148035Y11917D01*
X145904Y12800D01*
X143596D01*
X141465Y11917D01*
X139833Y10285D01*
X138950Y8154D01*
Y5846D01*
X139833Y3715D01*
X139846Y3701D01*
X139349Y2500D01*
X38692D01*
X38486Y3800D01*
X40572Y4478D01*
X44434Y6446D01*
X47941Y8994D01*
X51006Y12059D01*
X53554Y15566D01*
X55522Y19428D01*
X56862Y23551D01*
X57540Y27833D01*
Y28730D01*
X30000D01*
Y30000D01*
X28730D01*
Y57540D01*
X27833D01*
X23551Y56862D01*
X19428Y55522D01*
X15566Y53554D01*
X12059Y51006D01*
X8994Y47941D01*
X6446Y44434D01*
X4478Y40572D01*
X3800Y38486D01*
X2500Y38692D01*
Y275000D01*
Y296308D01*
X3800Y296514D01*
X4478Y294428D01*
X6446Y290566D01*
X8994Y287059D01*
X12059Y283994D01*
X15566Y281446D01*
X19428Y279478D01*
X23551Y278138D01*
X27833Y277460D01*
X28730D01*
Y305000D01*
X30000D01*
Y306270D01*
X57540D01*
Y307167D01*
X56862Y311449D01*
X55522Y315572D01*
X53554Y319434D01*
X51006Y322941D01*
X47941Y326006D01*
X44434Y328554D01*
X44078Y328736D01*
X44381Y330000D01*
X380619D01*
X380922Y328736D01*
D02*
G37*
G36*
X322266Y218117D02*
X322329Y217931D01*
X322418Y217733D01*
X322535Y217523D01*
X322678Y217299D01*
X322849Y217063D01*
X323271Y216554D01*
X323802Y215994D01*
X322006Y214198D01*
X321720Y214477D01*
X320937Y215151D01*
X320701Y215322D01*
X320477Y215465D01*
X320267Y215582D01*
X320069Y215671D01*
X319883Y215734D01*
X319710Y215769D01*
X322231Y218290D01*
X322266Y218117D01*
D02*
G37*
G36*
X349065Y214011D02*
X349220Y213384D01*
X349423Y212765D01*
X349674Y212153D01*
X349974Y211549D01*
X350321Y210951D01*
X350716Y210362D01*
X351159Y209780D01*
X351651Y209205D01*
X352190Y208638D01*
X349362Y205810D01*
X348795Y206349D01*
X348220Y206841D01*
X347638Y207284D01*
X347048Y207679D01*
X346451Y208026D01*
X345847Y208326D01*
X345235Y208577D01*
X344616Y208780D01*
X343989Y208935D01*
X343355Y209042D01*
X348958Y214645D01*
X349065Y214011D01*
D02*
G37*
G36*
X252266Y196117D02*
X252329Y195931D01*
X252418Y195733D01*
X252535Y195522D01*
X252678Y195299D01*
X252849Y195063D01*
X253271Y194554D01*
X253802Y193994D01*
X252006Y192198D01*
X251720Y192477D01*
X250937Y193151D01*
X250701Y193322D01*
X250478Y193465D01*
X250267Y193582D01*
X250068Y193671D01*
X249883Y193734D01*
X249710Y193769D01*
X252231Y196290D01*
X252266Y196117D01*
D02*
G37*
G36*
X173747Y183451D02*
X175130Y182589D01*
X175814Y182239D01*
X176495Y181943D01*
X177171Y181701D01*
X177844Y181512D01*
X178512Y181378D01*
X179176Y181297D01*
X179836Y181270D01*
Y178730D01*
X179176Y178703D01*
X178512Y178622D01*
X177844Y178488D01*
X177171Y178299D01*
X176495Y178057D01*
X175814Y177761D01*
X175130Y177411D01*
X174440Y177007D01*
X173747Y176549D01*
X173050Y176038D01*
Y183962D01*
X173747Y183451D01*
D02*
G37*
G36*
X280280Y173523D02*
X281063Y172849D01*
X281299Y172678D01*
X281523Y172535D01*
X281733Y172418D01*
X281931Y172329D01*
X282117Y172266D01*
X282290Y172231D01*
X279769Y169710D01*
X279734Y169883D01*
X279671Y170068D01*
X279582Y170267D01*
X279465Y170478D01*
X279322Y170701D01*
X279151Y170937D01*
X278729Y171446D01*
X278198Y172006D01*
X279994Y173802D01*
X280280Y173523D01*
D02*
G37*
G36*
X294520Y136685D02*
X294695Y136598D01*
X294898Y136521D01*
X295130Y136455D01*
X295389Y136398D01*
X295677Y136352D01*
X296336Y136291D01*
X297107Y136270D01*
Y133730D01*
X296708Y133725D01*
X295677Y133648D01*
X295389Y133602D01*
X295130Y133545D01*
X294898Y133479D01*
X294695Y133402D01*
X294520Y133315D01*
X294373Y133217D01*
Y136783D01*
X294520Y136685D01*
D02*
G37*
G36*
X282685Y133480D02*
X282598Y133305D01*
X282521Y133102D01*
X282455Y132870D01*
X282398Y132611D01*
X282352Y132323D01*
X282290Y131664D01*
X282270Y130893D01*
X279730D01*
X279725Y131292D01*
X279648Y132323D01*
X279602Y132611D01*
X279545Y132870D01*
X279479Y133102D01*
X279402Y133305D01*
X279315Y133480D01*
X279217Y133628D01*
X282783D01*
X282685Y133480D01*
D02*
G37*
G36*
X199065Y119011D02*
X199220Y118384D01*
X199423Y117765D01*
X199674Y117153D01*
X199974Y116549D01*
X200321Y115951D01*
X200716Y115362D01*
X201159Y114780D01*
X201651Y114205D01*
X202190Y113638D01*
X199362Y110810D01*
X198795Y111349D01*
X198220Y111841D01*
X197638Y112284D01*
X197048Y112679D01*
X196451Y113026D01*
X195847Y113326D01*
X195235Y113577D01*
X194616Y113780D01*
X193989Y113935D01*
X193355Y114042D01*
X198958Y119645D01*
X199065Y119011D01*
D02*
G37*
G36*
X230520Y97685D02*
X230695Y97598D01*
X230898Y97521D01*
X231130Y97455D01*
X231389Y97398D01*
X231677Y97352D01*
X232336Y97290D01*
X233107Y97270D01*
Y94730D01*
X232708Y94725D01*
X231677Y94648D01*
X231389Y94602D01*
X231130Y94545D01*
X230898Y94479D01*
X230695Y94402D01*
X230520Y94315D01*
X230373Y94217D01*
Y97783D01*
X230520Y97685D01*
D02*
G37*
G36*
X248747Y48451D02*
X250130Y47589D01*
X250814Y47239D01*
X251495Y46943D01*
X252171Y46701D01*
X252844Y46512D01*
X253512Y46378D01*
X254176Y46297D01*
X254836Y46270D01*
Y43730D01*
X254176Y43703D01*
X253512Y43622D01*
X252844Y43488D01*
X252171Y43299D01*
X251495Y43057D01*
X250814Y42761D01*
X250130Y42411D01*
X249440Y42007D01*
X248747Y41550D01*
X248050Y41038D01*
Y48962D01*
X248747Y48451D01*
D02*
G37*
G36*
X225534Y39666D02*
X225174Y39185D01*
X224949Y38761D01*
X224862Y38393D01*
X224911Y38082D01*
X225096Y37828D01*
X225418Y37630D01*
X225877Y37488D01*
X226472Y37403D01*
X227203Y37375D01*
X223203Y33375D01*
X222415Y33347D01*
X221650Y33262D01*
X220909Y33121D01*
X220191Y32922D01*
X219496Y32668D01*
X218825Y32357D01*
X218178Y31989D01*
X217553Y31565D01*
X216952Y31084D01*
X216375Y30547D01*
X216375Y30547D01*
X216375Y30547D01*
X216961Y36789D01*
X219789Y39618D01*
X226032Y40203D01*
X225534Y39666D01*
D02*
G37*
%LPC*%
G36*
X393730Y303730D02*
X367460D01*
Y302833D01*
X368138Y298551D01*
X369478Y294428D01*
X371446Y290566D01*
X373994Y287059D01*
X377059Y283994D01*
X380566Y281446D01*
X384428Y279478D01*
X388551Y278138D01*
X392832Y277460D01*
X393730D01*
Y303730D01*
D02*
G37*
G36*
X57540D02*
X31270D01*
Y277460D01*
X32167D01*
X36449Y278138D01*
X40572Y279478D01*
X44434Y281446D01*
X47941Y283994D01*
X51006Y287059D01*
X53554Y290566D01*
X55522Y294428D01*
X56862Y298551D01*
X57540Y302833D01*
Y303730D01*
D02*
G37*
G36*
X15270Y267966D02*
Y261770D01*
X21466D01*
X21026Y263410D01*
X20034Y265130D01*
X18630Y266534D01*
X16910Y267526D01*
X15270Y267966D01*
D02*
G37*
G36*
X12730D02*
X11090Y267526D01*
X9370Y266534D01*
X7966Y265130D01*
X6974Y263410D01*
X6534Y261770D01*
X12730D01*
Y267966D01*
D02*
G37*
G36*
X21466Y259230D02*
X15270D01*
Y253034D01*
X16910Y253474D01*
X18630Y254466D01*
X20034Y255870D01*
X21026Y257590D01*
X21466Y259230D01*
D02*
G37*
G36*
X12730D02*
X6534D01*
X6974Y257590D01*
X7966Y255870D01*
X9370Y254466D01*
X11090Y253474D01*
X12730Y253034D01*
Y259230D01*
D02*
G37*
G36*
X157270Y239966D02*
Y233770D01*
X163466D01*
X163026Y235410D01*
X162034Y237130D01*
X160630Y238533D01*
X158910Y239526D01*
X157270Y239966D01*
D02*
G37*
G36*
X154730D02*
X153090Y239526D01*
X151370Y238533D01*
X149966Y237130D01*
X148974Y235410D01*
X148534Y233770D01*
X154730D01*
Y239966D01*
D02*
G37*
G36*
X163466Y231230D02*
X157270D01*
Y225034D01*
X158910Y225474D01*
X160630Y226467D01*
X162034Y227870D01*
X163026Y229590D01*
X163466Y231230D01*
D02*
G37*
G36*
X154730D02*
X148534D01*
X148974Y229590D01*
X149966Y227870D01*
X151370Y226467D01*
X153090Y225474D01*
X154730Y225034D01*
Y231230D01*
D02*
G37*
G36*
X104224Y229300D02*
X101776D01*
X99410Y228666D01*
X97290Y227442D01*
X95558Y225710D01*
X94334Y223590D01*
X93700Y221224D01*
Y218776D01*
X94334Y216410D01*
X95558Y214290D01*
X97290Y212558D01*
X99410Y211334D01*
X101776Y210700D01*
X104224D01*
X106590Y211334D01*
X108710Y212558D01*
X110442Y214290D01*
X111666Y216410D01*
X112300Y218776D01*
Y221224D01*
X111666Y223590D01*
X110442Y225710D01*
X108710Y227442D01*
X106590Y228666D01*
X104224Y229300D01*
D02*
G37*
G36*
X34224D02*
X31776D01*
X29410Y228666D01*
X27290Y227442D01*
X25558Y225710D01*
X24334Y223590D01*
X23700Y221224D01*
Y218776D01*
X24334Y216410D01*
X25558Y214290D01*
X27290Y212558D01*
X29410Y211334D01*
X31776Y210700D01*
X34224D01*
X36590Y211334D01*
X38710Y212558D01*
X40442Y214290D01*
X41666Y216410D01*
X42300Y218776D01*
Y221224D01*
X41666Y223590D01*
X40442Y225710D01*
X38710Y227442D01*
X36590Y228666D01*
X34224Y229300D01*
D02*
G37*
G36*
X231270Y200659D02*
Y197270D01*
X234659D01*
X234061Y198713D01*
X232713Y200061D01*
X231270Y200659D01*
D02*
G37*
G36*
X228730D02*
X227287Y200061D01*
X225939Y198713D01*
X225341Y197270D01*
X228730D01*
Y200659D01*
D02*
G37*
G36*
X234659Y194730D02*
X231270D01*
Y191341D01*
X232713Y191939D01*
X234061Y193287D01*
X234659Y194730D01*
D02*
G37*
G36*
X228730D02*
X225341D01*
X225939Y193287D01*
X227287Y191939D01*
X228730Y191341D01*
Y194730D01*
D02*
G37*
G36*
X331145Y195220D02*
Y191020D01*
X335345D01*
X334572Y192888D01*
X333013Y194447D01*
X331145Y195220D01*
D02*
G37*
G36*
X328605D02*
X326737Y194447D01*
X325178Y192888D01*
X324405Y191020D01*
X328605D01*
Y195220D01*
D02*
G37*
G36*
X311395D02*
Y191020D01*
X315595D01*
X314822Y192888D01*
X313263Y194447D01*
X311395Y195220D01*
D02*
G37*
G36*
X308855D02*
X306987Y194447D01*
X305428Y192888D01*
X304655Y191020D01*
X308855D01*
Y195220D01*
D02*
G37*
G36*
X335345Y188480D02*
X331145D01*
Y184280D01*
X333013Y185053D01*
X334572Y186612D01*
X335345Y188480D01*
D02*
G37*
G36*
X328605D02*
X324405D01*
X325178Y186612D01*
X326737Y185053D01*
X328605Y184280D01*
Y188480D01*
D02*
G37*
G36*
X315595D02*
X311395D01*
Y184280D01*
X313263Y185053D01*
X314822Y186612D01*
X315595Y188480D01*
D02*
G37*
G36*
X308855D02*
X304655D01*
X305428Y186612D01*
X306987Y185053D01*
X308855Y184280D01*
Y188480D01*
D02*
G37*
G36*
X338480Y185345D02*
X336612Y184572D01*
X335053Y183013D01*
X334280Y181145D01*
X338480D01*
Y185345D01*
D02*
G37*
G36*
X321270D02*
Y181145D01*
X325470D01*
X324697Y183013D01*
X323138Y184572D01*
X321270Y185345D01*
D02*
G37*
G36*
X318730D02*
X316862Y184572D01*
X315303Y183013D01*
X314530Y181145D01*
X318730D01*
Y185345D01*
D02*
G37*
G36*
X301520D02*
Y181145D01*
X305720D01*
X304947Y183013D01*
X303388Y184572D01*
X301520Y185345D01*
D02*
G37*
G36*
X298980D02*
X297112Y184572D01*
X295553Y183013D01*
X294780Y181145D01*
X298980D01*
Y185345D01*
D02*
G37*
G36*
X23270Y186966D02*
Y180770D01*
X29466D01*
X29026Y182410D01*
X28033Y184130D01*
X26630Y185534D01*
X24910Y186526D01*
X23270Y186966D01*
D02*
G37*
G36*
X20730D02*
X19090Y186526D01*
X17370Y185534D01*
X15967Y184130D01*
X14974Y182410D01*
X14534Y180770D01*
X20730D01*
Y186966D01*
D02*
G37*
G36*
X338480Y178605D02*
X334280D01*
X335053Y176737D01*
X336612Y175178D01*
X338480Y174405D01*
Y178605D01*
D02*
G37*
G36*
X325470D02*
X321270D01*
Y174405D01*
X323138Y175178D01*
X324697Y176737D01*
X325470Y178605D01*
D02*
G37*
G36*
X318730D02*
X314530D01*
X315303Y176737D01*
X316862Y175178D01*
X318730Y174405D01*
Y178605D01*
D02*
G37*
G36*
X305720D02*
X301520D01*
Y174405D01*
X303388Y175178D01*
X304947Y176737D01*
X305720Y178605D01*
D02*
G37*
G36*
X298980D02*
X294780D01*
X295553Y176737D01*
X297112Y175178D01*
X298980Y174405D01*
Y178605D01*
D02*
G37*
G36*
X29466Y178230D02*
X23270D01*
Y172034D01*
X24910Y172474D01*
X26630Y173466D01*
X28033Y174870D01*
X29026Y176590D01*
X29466Y178230D01*
D02*
G37*
G36*
X20730D02*
X14534D01*
X14974Y176590D01*
X15967Y174870D01*
X17370Y173466D01*
X19090Y172474D01*
X20730Y172034D01*
Y178230D01*
D02*
G37*
G36*
X331145Y175470D02*
Y171270D01*
X335345D01*
X334572Y173138D01*
X333013Y174697D01*
X331145Y175470D01*
D02*
G37*
G36*
X328605D02*
X326737Y174697D01*
X325178Y173138D01*
X324405Y171270D01*
X328605D01*
Y175470D01*
D02*
G37*
G36*
X311395D02*
Y171270D01*
X315595D01*
X314822Y173138D01*
X313263Y174697D01*
X311395Y175470D01*
D02*
G37*
G36*
X308855D02*
X306987Y174697D01*
X305428Y173138D01*
X304655Y171270D01*
X308855D01*
Y175470D01*
D02*
G37*
G36*
X335345Y168730D02*
X331145D01*
Y164530D01*
X333013Y165303D01*
X334572Y166862D01*
X335345Y168730D01*
D02*
G37*
G36*
X328605D02*
X324405D01*
X325178Y166862D01*
X326737Y165303D01*
X328605Y164530D01*
Y168730D01*
D02*
G37*
G36*
X315595D02*
X311395D01*
Y164530D01*
X313263Y165303D01*
X314822Y166862D01*
X315595Y168730D01*
D02*
G37*
G36*
X308855D02*
X304655D01*
X305428Y166862D01*
X306987Y165303D01*
X308855Y164530D01*
Y168730D01*
D02*
G37*
G36*
X338480Y165595D02*
X336612Y164822D01*
X335053Y163263D01*
X334280Y161395D01*
X338480D01*
Y165595D01*
D02*
G37*
G36*
X321270D02*
Y161395D01*
X325470D01*
X324697Y163263D01*
X323138Y164822D01*
X321270Y165595D01*
D02*
G37*
G36*
X318730D02*
X316862Y164822D01*
X315303Y163263D01*
X314530Y161395D01*
X318730D01*
Y165595D01*
D02*
G37*
G36*
X301520D02*
Y161395D01*
X305720D01*
X304947Y163263D01*
X303388Y164822D01*
X301520Y165595D01*
D02*
G37*
G36*
X298980D02*
X297112Y164822D01*
X295553Y163263D01*
X294780Y161395D01*
X298980D01*
Y165595D01*
D02*
G37*
G36*
X338480Y158855D02*
X334280D01*
X335053Y156987D01*
X336612Y155428D01*
X338480Y154655D01*
Y158855D01*
D02*
G37*
G36*
X325470D02*
X321270D01*
Y154655D01*
X323138Y155428D01*
X324697Y156987D01*
X325470Y158855D01*
D02*
G37*
G36*
X318730D02*
X314530D01*
X315303Y156987D01*
X316862Y155428D01*
X318730Y154655D01*
Y158855D01*
D02*
G37*
G36*
X305720D02*
X301520D01*
Y154655D01*
X303388Y155428D01*
X304947Y156987D01*
X305720Y158855D01*
D02*
G37*
G36*
X298980D02*
X294780D01*
X295553Y156987D01*
X297112Y155428D01*
X298980Y154655D01*
Y158855D01*
D02*
G37*
G36*
X331145Y155720D02*
Y151520D01*
X335345D01*
X334572Y153388D01*
X333013Y154947D01*
X331145Y155720D01*
D02*
G37*
G36*
X328605D02*
X326737Y154947D01*
X325178Y153388D01*
X324405Y151520D01*
X328605D01*
Y155720D01*
D02*
G37*
G36*
X311395D02*
Y151520D01*
X315595D01*
X314822Y153388D01*
X313263Y154947D01*
X311395Y155720D01*
D02*
G37*
G36*
X308855D02*
X306987Y154947D01*
X305428Y153388D01*
X304655Y151520D01*
X308855D01*
Y155720D01*
D02*
G37*
G36*
X206270Y149929D02*
Y146270D01*
X209929D01*
X209273Y147855D01*
X207855Y149273D01*
X206270Y149929D01*
D02*
G37*
G36*
X203730D02*
X202145Y149273D01*
X200727Y147855D01*
X200071Y146270D01*
X203730D01*
Y149929D01*
D02*
G37*
G36*
X91270Y149659D02*
Y146270D01*
X94659D01*
X94061Y147713D01*
X92713Y149061D01*
X91270Y149659D01*
D02*
G37*
G36*
X88730D02*
X87287Y149061D01*
X85939Y147713D01*
X85341Y146270D01*
X88730D01*
Y149659D01*
D02*
G37*
G36*
X335345Y148980D02*
X331145D01*
Y144780D01*
X333013Y145553D01*
X334572Y147112D01*
X335345Y148980D01*
D02*
G37*
G36*
X328605D02*
X324405D01*
X325178Y147112D01*
X326737Y145553D01*
X328605Y144780D01*
Y148980D01*
D02*
G37*
G36*
X315595D02*
X311395D01*
Y144780D01*
X313263Y145553D01*
X314822Y147112D01*
X315595Y148980D01*
D02*
G37*
G36*
X308855D02*
X304655D01*
X305428Y147112D01*
X306987Y145553D01*
X308855Y144780D01*
Y148980D01*
D02*
G37*
G36*
X94659Y143730D02*
X91270D01*
Y140341D01*
X92713Y140939D01*
X94061Y142287D01*
X94659Y143730D01*
D02*
G37*
G36*
X88730D02*
X85341D01*
X85939Y142287D01*
X87287Y140939D01*
X88730Y140341D01*
Y143730D01*
D02*
G37*
G36*
X209929D02*
X206270D01*
Y140071D01*
X207855Y140727D01*
X209273Y142145D01*
X209929Y143730D01*
D02*
G37*
G36*
X203730D02*
X200071D01*
X200727Y142145D01*
X202145Y140727D01*
X203730Y140071D01*
Y143730D01*
D02*
G37*
G36*
X161270Y129410D02*
Y126021D01*
X164659D01*
X164061Y127464D01*
X162713Y128812D01*
X161270Y129410D01*
D02*
G37*
G36*
X158730D02*
X157287Y128812D01*
X155939Y127464D01*
X155341Y126021D01*
X158730D01*
Y129410D01*
D02*
G37*
G36*
X164659Y123481D02*
X161270D01*
Y120092D01*
X162713Y120690D01*
X164061Y122038D01*
X164659Y123481D01*
D02*
G37*
G36*
X158730D02*
X155341D01*
X155939Y122038D01*
X157287Y120690D01*
X158730Y120092D01*
Y123481D01*
D02*
G37*
G36*
X76270Y96929D02*
Y93270D01*
X79929D01*
X79273Y94855D01*
X77855Y96273D01*
X76270Y96929D01*
D02*
G37*
G36*
X73730D02*
X72145Y96273D01*
X70727Y94855D01*
X70071Y93270D01*
X73730D01*
Y96929D01*
D02*
G37*
G36*
X80219Y90730D02*
X69781D01*
X69320Y90040D01*
X68998D01*
X67145Y89273D01*
X65727Y87855D01*
X65071Y86270D01*
X70000D01*
Y83730D01*
X65071D01*
X65727Y82145D01*
X67145Y80727D01*
X68998Y79960D01*
X69320D01*
X69781Y79270D01*
X80219D01*
X80680Y79960D01*
X81003D01*
X82855Y80727D01*
X84273Y82145D01*
X84929Y83730D01*
X80000D01*
Y86270D01*
X84929D01*
X84273Y87855D01*
X82855Y89273D01*
X81003Y90040D01*
X80680D01*
X80219Y90730D01*
D02*
G37*
G36*
X31270Y79466D02*
Y73270D01*
X37466D01*
X37026Y74910D01*
X36033Y76630D01*
X34630Y78033D01*
X32910Y79026D01*
X31270Y79466D01*
D02*
G37*
G36*
X28730D02*
X27090Y79026D01*
X25370Y78033D01*
X23967Y76630D01*
X22974Y74910D01*
X22534Y73270D01*
X28730D01*
Y79466D01*
D02*
G37*
G36*
X79929Y76730D02*
X76270D01*
Y73071D01*
X77855Y73727D01*
X79273Y75145D01*
X79929Y76730D01*
D02*
G37*
G36*
X73730D02*
X70071D01*
X70727Y75145D01*
X72145Y73727D01*
X73730Y73071D01*
Y76730D01*
D02*
G37*
G36*
X37466Y70730D02*
X31270D01*
Y64534D01*
X32910Y64974D01*
X34630Y65967D01*
X36033Y67370D01*
X37026Y69090D01*
X37466Y70730D01*
D02*
G37*
G36*
X28730D02*
X22534D01*
X22974Y69090D01*
X23967Y67370D01*
X25370Y65967D01*
X27090Y64974D01*
X28730Y64534D01*
Y70730D01*
D02*
G37*
G36*
X349470Y73088D02*
Y61420D01*
X355805D01*
Y65650D01*
X355546Y67618D01*
X354786Y69453D01*
X353578Y71028D01*
X352002Y72236D01*
X350168Y72996D01*
X349470Y73088D01*
D02*
G37*
G36*
X346930D02*
X346232Y72996D01*
X344398Y72236D01*
X342822Y71028D01*
X341614Y69453D01*
X340854Y67618D01*
X340595Y65650D01*
Y61420D01*
X346930D01*
Y73088D01*
D02*
G37*
G36*
X260530D02*
X259832Y72996D01*
X257997Y72236D01*
X256422Y71028D01*
X255214Y69453D01*
X254454Y67618D01*
X254195Y65650D01*
Y61420D01*
X260530D01*
Y73088D01*
D02*
G37*
G36*
X187270Y63466D02*
Y57270D01*
X193466D01*
X193026Y58910D01*
X192034Y60630D01*
X190630Y62034D01*
X188910Y63026D01*
X187270Y63466D01*
D02*
G37*
G36*
X184730D02*
X183090Y63026D01*
X181370Y62034D01*
X179967Y60630D01*
X178974Y58910D01*
X178534Y57270D01*
X184730D01*
Y63466D01*
D02*
G37*
G36*
X100270Y56659D02*
Y53270D01*
X103659D01*
X103061Y54713D01*
X101713Y56061D01*
X100270Y56659D01*
D02*
G37*
G36*
X97730D02*
X96287Y56061D01*
X94939Y54713D01*
X94341Y53270D01*
X97730D01*
Y56659D01*
D02*
G37*
G36*
X334805Y59700D02*
X332995D01*
X331323Y59007D01*
X330043Y57727D01*
X329350Y56055D01*
Y54245D01*
X330043Y52573D01*
X331323Y51293D01*
X332995Y50600D01*
X334805D01*
X336477Y51293D01*
X337757Y52573D01*
X338450Y54245D01*
Y56055D01*
X337757Y57727D01*
X336477Y59007D01*
X334805Y59700D01*
D02*
G37*
G36*
X193466Y54730D02*
X187270D01*
Y48534D01*
X188910Y48974D01*
X190630Y49967D01*
X192034Y51370D01*
X193026Y53090D01*
X193466Y54730D01*
D02*
G37*
G36*
X184730D02*
X178534D01*
X178974Y53090D01*
X179967Y51370D01*
X181370Y49967D01*
X183090Y48974D01*
X184730Y48534D01*
Y54730D01*
D02*
G37*
G36*
X103659Y50730D02*
X100270D01*
Y47341D01*
X101713Y47939D01*
X103061Y49287D01*
X103659Y50730D01*
D02*
G37*
G36*
X97730D02*
X94341D01*
X94939Y49287D01*
X96287Y47939D01*
X97730Y47341D01*
Y50730D01*
D02*
G37*
G36*
X346930Y58880D02*
X340595D01*
Y54650D01*
X340854Y52682D01*
X341614Y50847D01*
X342822Y49272D01*
X344398Y48064D01*
X346232Y47304D01*
X346930Y47212D01*
Y58880D01*
D02*
G37*
G36*
X393730Y57540D02*
X392832D01*
X388551Y56862D01*
X384428Y55522D01*
X380566Y53554D01*
X377059Y51006D01*
X373994Y47941D01*
X371446Y44434D01*
X369478Y40572D01*
X368138Y36449D01*
X367460Y32167D01*
Y31270D01*
X393730D01*
Y57540D01*
D02*
G37*
G36*
X32167D02*
X31270D01*
Y31270D01*
X57540D01*
Y32167D01*
X56862Y36449D01*
X55522Y40572D01*
X53554Y44434D01*
X51006Y47941D01*
X47941Y51006D01*
X44434Y53554D01*
X40572Y55522D01*
X36449Y56862D01*
X32167Y57540D01*
D02*
G37*
G36*
X349470Y29788D02*
Y19620D01*
X355805D01*
Y22350D01*
X355546Y24318D01*
X354786Y26153D01*
X353578Y27728D01*
X352002Y28936D01*
X350168Y29696D01*
X349470Y29788D01*
D02*
G37*
G36*
X346930D02*
X346232Y29696D01*
X344398Y28936D01*
X342822Y27728D01*
X341614Y26153D01*
X340854Y24318D01*
X340595Y22350D01*
Y19620D01*
X346930D01*
Y29788D01*
D02*
G37*
G36*
X263070D02*
Y19620D01*
X269405D01*
Y22350D01*
X269146Y24318D01*
X268386Y26153D01*
X267178Y27728D01*
X265602Y28936D01*
X263768Y29696D01*
X263070Y29788D01*
D02*
G37*
G36*
X260530D02*
X259832Y29696D01*
X257997Y28936D01*
X256422Y27728D01*
X255214Y26153D01*
X254454Y24318D01*
X254195Y22350D01*
Y19620D01*
X260530D01*
Y29788D01*
D02*
G37*
G36*
X136706Y126550D02*
X135294D01*
X133989Y126010D01*
X132991Y125011D01*
X132450Y123706D01*
Y122294D01*
X132991Y120989D01*
X133989Y119991D01*
X135294Y119450D01*
X135340D01*
X135429Y119390D01*
X135517Y119372D01*
X135554Y119360D01*
X135636Y119323D01*
X135756Y119256D01*
X135907Y119159D01*
X136064Y119046D01*
X136769Y118439D01*
X137024Y118190D01*
X137157Y118137D01*
X205380Y49914D01*
X206230Y49346D01*
X207233Y49147D01*
X210729D01*
X210855Y49090D01*
X211580Y49071D01*
X212146Y49018D01*
X212350Y48986D01*
X212525Y48948D01*
X212657Y48910D01*
X212741Y48878D01*
X212776Y48860D01*
X212851Y48811D01*
X212956Y48790D01*
X212989Y48758D01*
X213183Y48677D01*
X213488Y47144D01*
X204920Y38577D01*
X197956D01*
X196954Y38377D01*
X196103Y37809D01*
X184934Y26640D01*
X184805Y26590D01*
X184279Y26092D01*
X183841Y25729D01*
X183674Y25608D01*
X183523Y25511D01*
X183403Y25445D01*
X183321Y25407D01*
X183284Y25395D01*
X183196Y25377D01*
X183107Y25317D01*
X183061D01*
X181756Y24777D01*
X180758Y23778D01*
X180217Y22473D01*
Y21061D01*
X180758Y19756D01*
X181756Y18757D01*
X183061Y18217D01*
X184473D01*
X185778Y18757D01*
X186777Y19756D01*
X187317Y21061D01*
Y21107D01*
X187377Y21196D01*
X187395Y21284D01*
X187407Y21321D01*
X187444Y21403D01*
X187511Y21523D01*
X187608Y21674D01*
X187721Y21831D01*
X188329Y22536D01*
X188577Y22791D01*
X188630Y22925D01*
X199042Y33336D01*
X206006D01*
X207009Y33535D01*
X207859Y34104D01*
X221673Y47918D01*
X222241Y48768D01*
X222440Y49771D01*
Y79650D01*
X222241Y80652D01*
X221895Y81170D01*
X221861Y81353D01*
X221761Y81421D01*
X221719Y81535D01*
X221254Y82041D01*
X221100Y82234D01*
X220965Y82425D01*
X220858Y82599D01*
X220777Y82755D01*
X220720Y82890D01*
X220683Y83004D01*
X220663Y83097D01*
X220647Y83252D01*
X220550Y83431D01*
Y83706D01*
X220009Y85011D01*
X219011Y86010D01*
X217706Y86550D01*
X216294D01*
X214989Y86010D01*
X213990Y85011D01*
X213450Y83706D01*
Y82294D01*
X213990Y80989D01*
X214989Y79991D01*
X215887Y79619D01*
X215975Y79516D01*
X216042Y79482D01*
X216042Y79481D01*
X217200Y78473D01*
Y56105D01*
X215900Y55237D01*
X215706Y55317D01*
X214294D01*
X212989Y54777D01*
X212956Y54744D01*
X212851Y54724D01*
X212776Y54674D01*
X212741Y54657D01*
X212657Y54625D01*
X212525Y54587D01*
X212350Y54549D01*
X212159Y54518D01*
X211231Y54449D01*
X210875Y54444D01*
X210743Y54387D01*
X208318D01*
X140873Y121833D01*
X140823Y121962D01*
X140325Y122488D01*
X139962Y122926D01*
X139841Y123093D01*
X139744Y123244D01*
X139677Y123364D01*
X139640Y123446D01*
X139628Y123483D01*
X139610Y123571D01*
X139550Y123660D01*
Y123706D01*
X139010Y125011D01*
X138011Y126010D01*
X136706Y126550D01*
D02*
G37*
G36*
X355805Y17080D02*
X349470D01*
Y6912D01*
X350168Y7004D01*
X352002Y7764D01*
X353578Y8972D01*
X354786Y10547D01*
X355546Y12382D01*
X355805Y14350D01*
Y17080D01*
D02*
G37*
G36*
X346930D02*
X340595D01*
Y14350D01*
X340854Y12382D01*
X341614Y10547D01*
X342822Y8972D01*
X344398Y7764D01*
X346232Y7004D01*
X346930Y6912D01*
Y17080D01*
D02*
G37*
G36*
X269405D02*
X263070D01*
Y6912D01*
X263768Y7004D01*
X265602Y7764D01*
X267178Y8972D01*
X268386Y10547D01*
X269146Y12382D01*
X269405Y14350D01*
Y17080D01*
D02*
G37*
G36*
X260530D02*
X254195D01*
Y14350D01*
X254454Y12382D01*
X255214Y10547D01*
X256422Y8972D01*
X257997Y7764D01*
X259832Y7004D01*
X260530Y6912D01*
Y17080D01*
D02*
G37*
%LPD*%
G36*
X138266Y123117D02*
X138329Y122931D01*
X138418Y122733D01*
X138535Y122522D01*
X138678Y122299D01*
X138849Y122063D01*
X139271Y121554D01*
X139802Y120994D01*
X138006Y119198D01*
X137720Y119477D01*
X136937Y120151D01*
X136701Y120322D01*
X136477Y120465D01*
X136267Y120582D01*
X136068Y120671D01*
X135883Y120734D01*
X135710Y120769D01*
X138231Y123290D01*
X138266Y123117D01*
D02*
G37*
G36*
X219272Y82875D02*
X219322Y82640D01*
X219399Y82399D01*
X219503Y82154D01*
X219633Y81904D01*
X219790Y81649D01*
X219974Y81390D01*
X220184Y81125D01*
X220683Y80582D01*
X218513Y79160D01*
X218216Y79454D01*
X216886Y80613D01*
X216739Y80705D01*
X216615Y80769D01*
X216512Y80803D01*
X219247Y83106D01*
X219272Y82875D01*
D02*
G37*
G36*
X213627Y49984D02*
X213480Y50082D01*
X213305Y50169D01*
X213102Y50246D01*
X212870Y50312D01*
X212611Y50369D01*
X212323Y50415D01*
X211664Y50477D01*
X210893Y50497D01*
Y53037D01*
X211292Y53042D01*
X212323Y53119D01*
X212611Y53165D01*
X212870Y53222D01*
X213102Y53288D01*
X213305Y53365D01*
X213480Y53453D01*
X213627Y53550D01*
Y49984D01*
D02*
G37*
G36*
X187569Y23773D02*
X187290Y23487D01*
X186616Y22704D01*
X186445Y22468D01*
X186302Y22245D01*
X186185Y22034D01*
X186096Y21835D01*
X186033Y21650D01*
X185998Y21477D01*
X183477Y23998D01*
X183650Y24034D01*
X183836Y24096D01*
X184034Y24185D01*
X184244Y24302D01*
X184468Y24445D01*
X184704Y24616D01*
X185213Y25038D01*
X185773Y25569D01*
X187569Y23773D01*
D02*
G37*
D47*
X281000Y129000D02*
Y135000D01*
X248000Y96000D02*
X281000Y129000D01*
X229000Y96000D02*
X248000D01*
X349000Y152000D02*
Y189000D01*
X293000Y135000D02*
X332000D01*
X349000Y152000D01*
X320000Y218000D02*
X349000Y189000D01*
X217000Y82470D02*
Y83000D01*
Y82470D02*
X219820Y79650D01*
Y49771D02*
Y79650D01*
X206006Y35956D02*
X219820Y49771D01*
X197956Y35956D02*
X206006D01*
X183767Y21767D02*
X197956Y35956D01*
X245000Y45000D02*
X262856D01*
X270280Y52424D01*
Y57561D01*
X286820Y74101D01*
Y171996D01*
X274977Y183840D02*
X286820Y171996D01*
X262160Y183840D02*
X274977D01*
X250000Y196000D02*
X262160Y183840D01*
X207233Y51767D02*
X215000D01*
X136000Y123000D02*
X207233Y51767D01*
X170000Y180000D02*
X272000D01*
X282000Y170000D01*
D62*
X333900Y55150D02*
D03*
X276100D02*
D03*
D63*
X348200Y60150D02*
D03*
X261800D02*
D03*
D64*
X348200Y18350D02*
D03*
X261800D02*
D03*
D69*
X185250Y7000D02*
D03*
X144750D02*
D03*
D71*
X339750Y160125D02*
D03*
X320000D02*
D03*
X300250D02*
D03*
X339750Y179875D02*
D03*
X320000D02*
D03*
X300250D02*
D03*
X310125Y150250D02*
D03*
Y170000D02*
D03*
Y189750D02*
D03*
X329875Y150250D02*
D03*
Y170000D02*
D03*
Y189750D02*
D03*
D72*
X185250Y7000D02*
X186207Y7957D01*
X190957D01*
X218375Y35375D01*
X229000Y46000D02*
Y84000D01*
X218375Y35375D02*
X229000Y46000D01*
X218375Y35375D02*
X344375D01*
X344000Y214000D02*
X361000Y197000D01*
Y52000D02*
Y197000D01*
X344375Y35375D02*
X361000Y52000D01*
X194000Y119000D02*
X229000Y84000D01*
D77*
X30000Y30000D02*
D03*
X395000D02*
D03*
X30000Y305000D02*
D03*
X395000D02*
D03*
D78*
X22000Y179500D02*
D03*
X14000Y260500D02*
D03*
X186000Y56000D02*
D03*
X344000Y214000D02*
D03*
X245000Y45000D02*
D03*
X194000Y119000D02*
D03*
X30000Y72000D02*
D03*
X156000Y232500D02*
D03*
X170000Y180000D02*
D03*
D79*
X160000Y124751D02*
D03*
X99000Y52000D02*
D03*
X320000Y218000D02*
D03*
X293000Y135000D02*
D03*
X281000D02*
D03*
X229000Y96000D02*
D03*
X217000Y83000D02*
D03*
X90000Y145000D02*
D03*
X230000Y196000D02*
D03*
X250000D02*
D03*
X183767Y21767D02*
D03*
X215000Y51767D02*
D03*
X136000Y123000D02*
D03*
X282000Y170000D02*
D03*
D80*
X80000Y85000D02*
D03*
X70000D02*
D03*
X75000Y78000D02*
D03*
Y92000D02*
D03*
X205000Y145000D02*
D03*
M02*
