G04*
G04 #@! TF.GenerationSoftware,Altium Limited,Altium Designer,25.3.3 (18)*
G04*
G04 Layer_Color=8421504*
%FSLAX44Y44*%
%MOMM*%
G71*
G04*
G04 #@! TF.SameCoordinates,E081D75F-9DF0-4658-81CA-2A43F12760C1*
G04*
G04*
G04 #@! TF.FilePolarity,Positive*
G04*
G01*
G75*
%ADD12R,0.8500X1.2500*%
%ADD13R,0.5000X0.3000*%
%ADD14R,1.0000X3.5000*%
%ADD15R,1.5000X3.4000*%
%ADD16R,2.8000X1.4000*%
%ADD17R,0.8621X0.7350*%
G04:AMPARAMS|DCode=18|XSize=0.76mm|YSize=0.6604mm|CornerRadius=0.0825mm|HoleSize=0mm|Usage=FLASHONLY|Rotation=0.000|XOffset=0mm|YOffset=0mm|HoleType=Round|Shape=RoundedRectangle|*
%AMROUNDEDRECTD18*
21,1,0.7600,0.4953,0,0,0.0*
21,1,0.5949,0.6604,0,0,0.0*
1,1,0.1651,0.2975,-0.2477*
1,1,0.1651,-0.2975,-0.2477*
1,1,0.1651,-0.2975,0.2477*
1,1,0.1651,0.2975,0.2477*
%
%ADD18ROUNDEDRECTD18*%
%ADD19R,0.3000X1.1500*%
%ADD20R,0.6000X1.1500*%
%ADD21R,0.7350X0.8621*%
%ADD22R,0.8121X0.6587*%
%ADD23C,0.2540*%
%ADD24R,2.2000X2.1000*%
%ADD25R,2.0000X2.1000*%
%ADD26R,2.7000X2.1000*%
%ADD27R,2.6000X2.7000*%
%ADD28R,0.6000X0.8000*%
%ADD29R,1.6500X1.0500*%
%ADD30R,0.8000X0.9000*%
%ADD31R,0.9000X0.8000*%
G04:AMPARAMS|DCode=32|XSize=0.76mm|YSize=0.6604mm|CornerRadius=0.0825mm|HoleSize=0mm|Usage=FLASHONLY|Rotation=270.000|XOffset=0mm|YOffset=0mm|HoleType=Round|Shape=RoundedRectangle|*
%AMROUNDEDRECTD32*
21,1,0.7600,0.4953,0,0,270.0*
21,1,0.5949,0.6604,0,0,270.0*
1,1,0.1651,-0.2477,-0.2975*
1,1,0.1651,-0.2477,0.2975*
1,1,0.1651,0.2477,0.2975*
1,1,0.1651,0.2477,-0.2975*
%
%ADD32ROUNDEDRECTD32*%
%ADD33C,1.2070*%
%ADD34R,0.7000X0.7000*%
%ADD35R,1.4500X1.4500*%
%ADD36R,0.8000X0.4000*%
%ADD37R,0.4000X0.8000*%
%ADD38R,1.3600X1.4600*%
%ADD39R,0.7500X0.3000*%
%ADD40R,1.2500X1.2200*%
%ADD41R,1.3383X0.5780*%
G04:AMPARAMS|DCode=42|XSize=1.3383mm|YSize=0.578mm|CornerRadius=0.289mm|HoleSize=0mm|Usage=FLASHONLY|Rotation=180.000|XOffset=0mm|YOffset=0mm|HoleType=Round|Shape=RoundedRectangle|*
%AMROUNDEDRECTD42*
21,1,1.3383,0.0000,0,0,180.0*
21,1,0.7603,0.5780,0,0,180.0*
1,1,0.5780,-0.3802,0.0000*
1,1,0.5780,0.3802,0.0000*
1,1,0.5780,0.3802,0.0000*
1,1,0.5780,-0.3802,0.0000*
%
%ADD42ROUNDEDRECTD42*%
%ADD43C,0.2500*%
%ADD44R,0.8000X0.8000*%
G36*
X347000Y191000D02*
Y182500D01*
X332500D01*
Y197000D01*
X341000D01*
X347000Y191000D01*
D02*
G37*
D12*
X69250Y77250D02*
D03*
X80750D02*
D03*
Y92750D02*
D03*
X69250D02*
D03*
D13*
X57500Y73000D02*
D03*
X57500Y81000D02*
D03*
X57500Y89000D02*
D03*
X57500Y97000D02*
D03*
X92500D02*
D03*
X92500Y89000D02*
D03*
X92500Y81000D02*
D03*
X92500Y73000D02*
D03*
D14*
X230000Y250500D02*
D03*
X210000D02*
D03*
D15*
X253500Y308000D02*
D03*
X186500D02*
D03*
D16*
X30000Y72000D02*
D03*
Y98000D02*
D03*
D17*
X235000Y131154D02*
D03*
Y118846D02*
D03*
X250000Y166154D02*
D03*
Y153846D02*
D03*
X235000Y166154D02*
D03*
Y153846D02*
D03*
D18*
X337000Y248000D02*
D03*
Y262000D02*
D03*
X170000Y107000D02*
D03*
Y93000D02*
D03*
D19*
X307500Y65900D02*
D03*
X322500D02*
D03*
X317500D02*
D03*
X312500D02*
D03*
X302500D02*
D03*
X297500D02*
D03*
X292500D02*
D03*
X287500D02*
D03*
D20*
X337000D02*
D03*
X273000D02*
D03*
X329000D02*
D03*
X281000D02*
D03*
D21*
X346154Y85000D02*
D03*
X333846D02*
D03*
X276154D02*
D03*
X263846D02*
D03*
X156154Y180000D02*
D03*
X143846D02*
D03*
D22*
X322000Y261767D02*
D03*
Y248233D02*
D03*
X250000Y131767D02*
D03*
Y118233D02*
D03*
X115000Y36767D02*
D03*
Y23233D02*
D03*
X215000Y51767D02*
D03*
Y38233D02*
D03*
D23*
X244920Y103000D02*
D03*
X255080D02*
D03*
D24*
X41000Y260500D02*
D03*
X22000Y179500D02*
D03*
D25*
X14000Y260500D02*
D03*
D26*
X115000Y179500D02*
D03*
D27*
X156000Y227500D02*
D03*
D28*
X96500Y135000D02*
D03*
X83500D02*
D03*
D29*
X145750Y22250D02*
D03*
Y7750D02*
D03*
X184250Y22250D02*
D03*
Y7750D02*
D03*
D30*
X250000Y196500D02*
D03*
Y213500D02*
D03*
X144500Y75000D02*
D03*
X125500D02*
D03*
X135000Y55000D02*
D03*
X230000Y196500D02*
D03*
Y213500D02*
D03*
X170000Y56500D02*
D03*
Y73500D02*
D03*
D31*
X203500Y210000D02*
D03*
X186500D02*
D03*
X203500Y195000D02*
D03*
X186500D02*
D03*
D32*
X97000Y155000D02*
D03*
X83000D02*
D03*
X202000Y180000D02*
D03*
X188000D02*
D03*
D33*
X339258Y189258D02*
D03*
D34*
X369500Y229500D02*
D03*
X270500D02*
D03*
Y110500D02*
D03*
X369500D02*
D03*
D35*
X320000Y150250D02*
D03*
Y170000D02*
D03*
Y189750D02*
D03*
X300250Y150250D02*
D03*
Y170000D02*
D03*
Y189750D02*
D03*
X339750Y150250D02*
D03*
Y170000D02*
D03*
D36*
X369000Y218000D02*
D03*
Y210000D02*
D03*
Y202000D02*
D03*
Y194000D02*
D03*
Y186000D02*
D03*
Y178000D02*
D03*
Y170000D02*
D03*
Y162000D02*
D03*
Y154000D02*
D03*
Y146000D02*
D03*
Y138000D02*
D03*
Y130000D02*
D03*
Y122000D02*
D03*
X271000D02*
D03*
Y130000D02*
D03*
Y138000D02*
D03*
Y146000D02*
D03*
Y154000D02*
D03*
Y162000D02*
D03*
Y170000D02*
D03*
Y178000D02*
D03*
Y186000D02*
D03*
Y194000D02*
D03*
Y202000D02*
D03*
Y210000D02*
D03*
Y218000D02*
D03*
D37*
X360000Y111000D02*
D03*
X352000D02*
D03*
X344000D02*
D03*
X336000D02*
D03*
X328000D02*
D03*
X320000D02*
D03*
X312000D02*
D03*
X304000D02*
D03*
X296000D02*
D03*
X288000D02*
D03*
X280000D02*
D03*
Y229000D02*
D03*
X288000D02*
D03*
X296000D02*
D03*
X304000D02*
D03*
X312000D02*
D03*
X320000D02*
D03*
X328000D02*
D03*
X336000D02*
D03*
X344000D02*
D03*
X352000D02*
D03*
X360000D02*
D03*
D38*
X205000Y145000D02*
D03*
D39*
X220000Y137500D02*
D03*
Y142500D02*
D03*
Y147500D02*
D03*
Y152500D02*
D03*
X190000Y137500D02*
D03*
Y142500D02*
D03*
Y147500D02*
D03*
Y152500D02*
D03*
D40*
X120250Y100000D02*
D03*
X149750D02*
D03*
D41*
X136162Y135500D02*
D03*
D42*
Y145000D02*
D03*
Y154500D02*
D03*
X113838D02*
D03*
Y135500D02*
D03*
D43*
X172050Y140000D02*
D03*
Y150000D02*
D03*
X167950D02*
D03*
Y140000D02*
D03*
D44*
X215000Y22500D02*
D03*
Y7500D02*
D03*
M02*
