G04*
G04 #@! TF.GenerationSoftware,Altium Limited,Altium Designer,25.3.3 (18)*
G04*
G04 Layer_Color=8388736*
%FSLAX44Y44*%
%MOMM*%
G71*
G04*
G04 #@! TF.SameCoordinates,E081D75F-9DF0-4658-81CA-2A43F12760C1*
G04*
G04*
G04 #@! TF.FilePolarity,Negative*
G04*
G01*
G75*
%ADD17R,0.8621X0.7350*%
%ADD19R,0.3000X1.1500*%
%ADD20R,0.6000X1.1500*%
%ADD21R,0.7350X0.8621*%
%ADD22R,0.8121X0.6587*%
%ADD23C,0.2540*%
%ADD29R,1.6500X1.0500*%
%ADD30R,0.8000X0.9000*%
%ADD31R,0.9000X0.8000*%
%ADD33C,1.2070*%
%ADD34R,0.7000X0.7000*%
%ADD35R,1.4500X1.4500*%
%ADD36R,0.8000X0.4000*%
%ADD37R,0.4000X0.8000*%
%ADD40R,1.2500X1.2200*%
%ADD41R,1.3383X0.5780*%
G04:AMPARAMS|DCode=42|XSize=1.3383mm|YSize=0.578mm|CornerRadius=0.289mm|HoleSize=0mm|Usage=FLASHONLY|Rotation=180.000|XOffset=0mm|YOffset=0mm|HoleType=Round|Shape=RoundedRectangle|*
%AMROUNDEDRECTD42*
21,1,1.3383,0.0000,0,0,180.0*
21,1,0.7603,0.5780,0,0,180.0*
1,1,0.5780,-0.3802,0.0000*
1,1,0.5780,0.3802,0.0000*
1,1,0.5780,0.3802,0.0000*
1,1,0.5780,-0.3802,0.0000*
%
%ADD42ROUNDEDRECTD42*%
%ADD44R,0.8000X0.8000*%
%ADD45C,0.6858*%
%ADD46C,0.1750*%
%ADD47C,0.2540*%
%ADD48R,1.2032X3.7032*%
%ADD49R,1.7032X3.6032*%
%ADD50R,3.0032X1.6032*%
G04:AMPARAMS|DCode=51|XSize=0.9632mm|YSize=0.8636mm|CornerRadius=0.1842mm|HoleSize=0mm|Usage=FLASHONLY|Rotation=0.000|XOffset=0mm|YOffset=0mm|HoleType=Round|Shape=RoundedRectangle|*
%AMROUNDEDRECTD51*
21,1,0.9632,0.4953,0,0,0.0*
21,1,0.5949,0.8636,0,0,0.0*
1,1,0.3683,0.2975,-0.2477*
1,1,0.3683,-0.2975,-0.2477*
1,1,0.3683,-0.2975,0.2477*
1,1,0.3683,0.2975,0.2477*
%
%ADD51ROUNDEDRECTD51*%
%ADD52R,2.4032X2.3032*%
%ADD53R,2.2032X2.3032*%
%ADD54R,2.9032X2.3032*%
%ADD55R,2.8032X2.9032*%
%ADD56R,0.8032X1.0032*%
G04:AMPARAMS|DCode=57|XSize=0.9632mm|YSize=0.8636mm|CornerRadius=0.1842mm|HoleSize=0mm|Usage=FLASHONLY|Rotation=270.000|XOffset=0mm|YOffset=0mm|HoleType=Round|Shape=RoundedRectangle|*
%AMROUNDEDRECTD57*
21,1,0.9632,0.4953,0,0,270.0*
21,1,0.5949,0.8636,0,0,270.0*
1,1,0.3683,-0.2477,-0.2975*
1,1,0.3683,-0.2477,0.2975*
1,1,0.3683,0.2477,0.2975*
1,1,0.3683,0.2477,-0.2975*
%
%ADD57ROUNDEDRECTD57*%
G04:AMPARAMS|DCode=58|XSize=0.4016mm|YSize=0.6016mm|CornerRadius=0.1003mm|HoleSize=0mm|Usage=FLASHONLY|Rotation=90.000|XOffset=0mm|YOffset=0mm|HoleType=Round|Shape=RoundedRectangle|*
%AMROUNDEDRECTD58*
21,1,0.4016,0.4010,0,0,90.0*
21,1,0.2010,0.6016,0,0,90.0*
1,1,0.2006,0.2005,0.1005*
1,1,0.2006,0.2005,-0.1005*
1,1,0.2006,-0.2005,-0.1005*
1,1,0.2006,-0.2005,0.1005*
%
%ADD58ROUNDEDRECTD58*%
G04:AMPARAMS|DCode=59|XSize=3.1016mm|YSize=2.3016mm|CornerRadius=0.1058mm|HoleSize=0mm|Usage=FLASHONLY|Rotation=90.000|XOffset=0mm|YOffset=0mm|HoleType=Round|Shape=RoundedRectangle|*
%AMROUNDEDRECTD59*
21,1,3.1016,2.0900,0,0,90.0*
21,1,2.8900,2.3016,0,0,90.0*
1,1,0.2116,1.0450,1.4450*
1,1,0.2116,1.0450,-1.4450*
1,1,0.2116,-1.0450,-1.4450*
1,1,0.2116,-1.0450,1.4450*
%
%ADD59ROUNDEDRECTD59*%
%ADD60R,1.5632X1.6632*%
%ADD61R,0.9532X0.5032*%
%ADD62C,0.6500*%
G04:AMPARAMS|DCode=63|XSize=1mm|YSize=2.1mm|CornerRadius=0.5mm|HoleSize=0mm|Usage=FLASHONLY|Rotation=0.000|XOffset=0mm|YOffset=0mm|HoleType=Round|Shape=RoundedRectangle|*
%AMROUNDEDRECTD63*
21,1,1.0000,1.1000,0,0,0.0*
21,1,0.0000,2.1000,0,0,0.0*
1,1,1.0000,0.0000,-0.5500*
1,1,1.0000,0.0000,-0.5500*
1,1,1.0000,0.0000,0.5500*
1,1,1.0000,0.0000,0.5500*
%
%ADD63ROUNDEDRECTD63*%
G04:AMPARAMS|DCode=64|XSize=1mm|YSize=1.8mm|CornerRadius=0.5mm|HoleSize=0mm|Usage=FLASHONLY|Rotation=0.000|XOffset=0mm|YOffset=0mm|HoleType=Round|Shape=RoundedRectangle|*
%AMROUNDEDRECTD64*
21,1,1.0000,0.8000,0,0,0.0*
21,1,0.0000,1.8000,0,0,0.0*
1,1,1.0000,0.0000,-0.4000*
1,1,1.0000,0.0000,-0.4000*
1,1,1.0000,0.0000,0.4000*
1,1,1.0000,0.0000,0.4000*
%
%ADD64ROUNDEDRECTD64*%
%ADD65R,0.2032X0.2032*%
%ADD66C,5.2032*%
%ADD67C,1.2032*%
%ADD68C,0.6532*%
%ADD69C,0.9000*%
%ADD70C,0.7032*%
%ADD71C,0.6000*%
G36*
X347000Y191000D02*
Y182500D01*
X332500D01*
Y197000D01*
X341000D01*
X347000Y191000D01*
D02*
G37*
D17*
X235000Y131154D02*
D03*
Y118846D02*
D03*
X250000Y166154D02*
D03*
Y153846D02*
D03*
X235000Y166154D02*
D03*
Y153846D02*
D03*
D19*
X307500Y65900D02*
D03*
X322500D02*
D03*
X317500D02*
D03*
X312500D02*
D03*
X302500D02*
D03*
X297500D02*
D03*
X292500D02*
D03*
X287500D02*
D03*
D20*
X337000D02*
D03*
X273000D02*
D03*
X329000D02*
D03*
X281000D02*
D03*
D21*
X346154Y85000D02*
D03*
X333846D02*
D03*
X276154D02*
D03*
X263846D02*
D03*
X156154Y180000D02*
D03*
X143846D02*
D03*
D22*
X322000Y261767D02*
D03*
Y248233D02*
D03*
X250000Y131767D02*
D03*
Y118233D02*
D03*
X115000Y36767D02*
D03*
Y23233D02*
D03*
X215000Y51767D02*
D03*
Y38233D02*
D03*
D23*
X244920Y103000D02*
D03*
X255080D02*
D03*
D29*
X145750Y22250D02*
D03*
Y7750D02*
D03*
X184250Y22250D02*
D03*
Y7750D02*
D03*
D30*
X250000Y196500D02*
D03*
Y213500D02*
D03*
X144500Y75000D02*
D03*
X125500D02*
D03*
X135000Y55000D02*
D03*
X230000Y196500D02*
D03*
Y213500D02*
D03*
X170000Y56500D02*
D03*
Y73500D02*
D03*
D31*
X203500Y210000D02*
D03*
X186500D02*
D03*
X203500Y195000D02*
D03*
X186500D02*
D03*
D33*
X339258Y189258D02*
D03*
D34*
X369500Y229500D02*
D03*
X270500D02*
D03*
Y110500D02*
D03*
X369500D02*
D03*
D35*
X320000Y150250D02*
D03*
Y170000D02*
D03*
Y189750D02*
D03*
X300250Y150250D02*
D03*
Y170000D02*
D03*
Y189750D02*
D03*
X339750Y150250D02*
D03*
Y170000D02*
D03*
D36*
X369000Y218000D02*
D03*
Y210000D02*
D03*
Y202000D02*
D03*
Y194000D02*
D03*
Y186000D02*
D03*
Y178000D02*
D03*
Y170000D02*
D03*
Y162000D02*
D03*
Y154000D02*
D03*
Y146000D02*
D03*
Y138000D02*
D03*
Y130000D02*
D03*
Y122000D02*
D03*
X271000D02*
D03*
Y130000D02*
D03*
Y138000D02*
D03*
Y146000D02*
D03*
Y154000D02*
D03*
Y162000D02*
D03*
Y170000D02*
D03*
Y178000D02*
D03*
Y186000D02*
D03*
Y194000D02*
D03*
Y202000D02*
D03*
Y210000D02*
D03*
Y218000D02*
D03*
D37*
X360000Y111000D02*
D03*
X352000D02*
D03*
X344000D02*
D03*
X336000D02*
D03*
X328000D02*
D03*
X320000D02*
D03*
X312000D02*
D03*
X304000D02*
D03*
X296000D02*
D03*
X288000D02*
D03*
X280000D02*
D03*
Y229000D02*
D03*
X288000D02*
D03*
X296000D02*
D03*
X304000D02*
D03*
X312000D02*
D03*
X320000D02*
D03*
X328000D02*
D03*
X336000D02*
D03*
X344000D02*
D03*
X352000D02*
D03*
X360000D02*
D03*
D40*
X120250Y100000D02*
D03*
X149750D02*
D03*
D41*
X136162Y135500D02*
D03*
D42*
Y145000D02*
D03*
Y154500D02*
D03*
X113838D02*
D03*
Y135500D02*
D03*
D44*
X215000Y22500D02*
D03*
Y7500D02*
D03*
D45*
X255588Y103000D02*
G03*
X255588Y103000I-3048J0D01*
G01*
X250508D02*
G03*
X250508Y103000I-3048J0D01*
G01*
D46*
X168825Y140000D02*
G03*
X168825Y140000I-875J0D01*
G01*
Y150000D02*
G03*
X168825Y150000I-875J0D01*
G01*
X172925Y140000D02*
G03*
X172925Y140000I-875J0D01*
G01*
Y150000D02*
G03*
X172925Y150000I-875J0D01*
G01*
D47*
X247460Y108080D02*
X252540D01*
X247460Y97920D02*
X252540D01*
D48*
X230000Y250500D02*
D03*
X210000D02*
D03*
D49*
X253500Y308000D02*
D03*
X186500D02*
D03*
D50*
X30000Y72000D02*
D03*
Y98000D02*
D03*
D51*
X337000Y248000D02*
D03*
Y262000D02*
D03*
X170000Y107000D02*
D03*
Y93000D02*
D03*
D52*
X41000Y260500D02*
D03*
X22000Y179500D02*
D03*
D53*
X14000Y260500D02*
D03*
D54*
X115000Y179500D02*
D03*
D55*
X156000Y227500D02*
D03*
D56*
X96500Y135000D02*
D03*
X83500D02*
D03*
D57*
X97000Y155000D02*
D03*
X83000D02*
D03*
X202000Y180000D02*
D03*
X188000D02*
D03*
D58*
X91500Y73000D02*
D03*
Y81000D02*
D03*
Y89000D02*
D03*
Y97000D02*
D03*
X58500D02*
D03*
Y89000D02*
D03*
Y81000D02*
D03*
Y73000D02*
D03*
D59*
X75000Y85000D02*
D03*
D60*
X205000Y145000D02*
D03*
D61*
X220000Y137500D02*
D03*
Y142500D02*
D03*
Y147500D02*
D03*
Y152500D02*
D03*
X190000Y137500D02*
D03*
Y142500D02*
D03*
Y147500D02*
D03*
Y152500D02*
D03*
D62*
X333900Y55150D02*
D03*
X276100D02*
D03*
D63*
X348200Y60150D02*
D03*
X261800D02*
D03*
D64*
X348200Y18350D02*
D03*
X261800D02*
D03*
D65*
X33000Y220000D02*
D03*
X103000D02*
D03*
D66*
X30000Y30000D02*
D03*
X395000D02*
D03*
X30000Y305000D02*
D03*
X395000D02*
D03*
D67*
X186000Y56000D02*
D03*
X344000Y214000D02*
D03*
X245000Y45000D02*
D03*
X194000Y119000D02*
D03*
X170000Y180000D02*
D03*
D68*
X160000Y124751D02*
D03*
X99000Y52000D02*
D03*
X320000Y218000D02*
D03*
X293000Y135000D02*
D03*
X281000D02*
D03*
X229000Y96000D02*
D03*
X217000Y83000D02*
D03*
X90000Y145000D02*
D03*
X250000Y196000D02*
D03*
X183767Y21767D02*
D03*
X215000Y51767D02*
D03*
X136000Y123000D02*
D03*
X282000Y170000D02*
D03*
D69*
X185250Y7000D02*
D03*
X144750D02*
D03*
D70*
X80000Y85000D02*
D03*
X70000D02*
D03*
X75000Y78000D02*
D03*
Y92000D02*
D03*
X205000Y145000D02*
D03*
D71*
X339750Y160125D02*
D03*
X320000D02*
D03*
X300250D02*
D03*
X339750Y179875D02*
D03*
X320000D02*
D03*
X300250D02*
D03*
X310125Y150250D02*
D03*
Y170000D02*
D03*
Y189750D02*
D03*
X329875Y150250D02*
D03*
Y170000D02*
D03*
Y189750D02*
D03*
M02*
