G04*
G04 #@! TF.GenerationSoftware,Altium Limited,Altium Designer,25.3.3 (18)*
G04*
G04 Layer_Color=65535*
%FSLAX44Y44*%
%MOMM*%
G71*
G04*
G04 #@! TF.SameCoordinates,E081D75F-9DF0-4658-81CA-2A43F12760C1*
G04*
G04*
G04 #@! TF.FilePolarity,Positive*
G04*
G01*
G75*
%ADD10C,0.2500*%
%ADD11C,0.2000*%
G36*
X360000Y272500D02*
X272500D01*
Y318088D01*
X360000D01*
Y272500D01*
D02*
G37*
G36*
X167500Y302819D02*
Y288987D01*
Y270949D01*
X62124D01*
Y288987D01*
Y302819D01*
Y319051D01*
X167500D01*
Y302819D01*
D02*
G37*
G36*
X76250Y133302D02*
X8750D01*
Y151698D01*
X76250D01*
Y133302D01*
D02*
G37*
G36*
X415468Y241348D02*
X374532D01*
Y258652D01*
X415468D01*
Y241348D01*
D02*
G37*
%LPC*%
G36*
X344688Y314937D02*
X273813D01*
Y306450D01*
X285800D01*
Y275650D01*
X302950D01*
Y275912D01*
X303037D01*
Y276175D01*
X303125D01*
Y276437D01*
X303213D01*
Y276612D01*
X303300D01*
Y276875D01*
X303388D01*
Y277138D01*
X303475D01*
Y277400D01*
X303563D01*
Y277663D01*
X303650D01*
Y277925D01*
X303738D01*
Y278188D01*
X303825D01*
Y278450D01*
X303913D01*
Y278713D01*
X304000D01*
Y278975D01*
X304088D01*
Y279150D01*
X304175D01*
Y279412D01*
X304263D01*
Y279675D01*
X304350D01*
Y279937D01*
X304438D01*
Y280200D01*
X304525D01*
Y280462D01*
X304613D01*
Y280725D01*
X304700D01*
Y280987D01*
X304788D01*
Y281250D01*
X304875D01*
Y281425D01*
X304963D01*
Y281688D01*
X305050D01*
Y281950D01*
X305138D01*
Y282213D01*
X305225D01*
Y282475D01*
X305312D01*
Y282738D01*
X305400D01*
Y283000D01*
X305487D01*
Y283263D01*
X305575D01*
Y283438D01*
X320625D01*
Y283263D01*
X320713D01*
Y283088D01*
X320800D01*
Y282825D01*
X320887D01*
Y282563D01*
X320975D01*
Y282300D01*
X321063D01*
Y282038D01*
X321150D01*
Y281775D01*
X321237D01*
Y281513D01*
X321325D01*
Y281250D01*
X321413D01*
Y280987D01*
X321500D01*
Y280812D01*
X321587D01*
Y280550D01*
X321675D01*
Y280287D01*
X321763D01*
Y280025D01*
X321850D01*
Y279762D01*
X321937D01*
Y279500D01*
X322025D01*
Y279237D01*
X322113D01*
Y278975D01*
X322200D01*
Y278713D01*
X322287D01*
Y278450D01*
X322375D01*
Y278275D01*
X322463D01*
Y278013D01*
X322550D01*
Y277750D01*
X322637D01*
Y277488D01*
X322725D01*
Y277225D01*
X322812D01*
Y276963D01*
X322900D01*
Y276700D01*
X322988D01*
Y276437D01*
X323075D01*
Y276175D01*
X323162D01*
Y275912D01*
X323250D01*
Y275737D01*
X323338D01*
Y275650D01*
X333488D01*
Y289562D01*
X339087D01*
Y289475D01*
X339175D01*
Y289300D01*
X339263D01*
Y289125D01*
X339350D01*
Y288950D01*
X339437D01*
Y288687D01*
X339525D01*
Y288512D01*
X339613D01*
Y288337D01*
X339700D01*
Y288162D01*
X339787D01*
Y287987D01*
X339875D01*
Y287812D01*
X339963D01*
Y287638D01*
X340050D01*
Y287463D01*
X340137D01*
Y287288D01*
X340225D01*
Y287113D01*
X340312D01*
Y286938D01*
X340400D01*
Y286763D01*
X340488D01*
Y286588D01*
X340575D01*
Y286413D01*
X340662D01*
Y286238D01*
X340750D01*
Y286063D01*
X340838D01*
Y285888D01*
X340925D01*
Y285800D01*
Y285625D01*
X341012D01*
Y285450D01*
X341100D01*
Y285275D01*
X341188D01*
Y285100D01*
X341275D01*
Y284925D01*
X341362D01*
Y284750D01*
X341450D01*
Y284575D01*
X341538D01*
Y284400D01*
X341625D01*
Y284225D01*
X341712D01*
Y284050D01*
X341800D01*
Y283875D01*
X341888D01*
Y283700D01*
X341975D01*
Y283525D01*
X342062D01*
Y283350D01*
X342150D01*
Y283175D01*
X342238D01*
Y283000D01*
X342325D01*
Y282825D01*
X342412D01*
Y282563D01*
X342500D01*
Y282388D01*
X342588D01*
Y282213D01*
X342675D01*
Y282038D01*
X342762D01*
Y281863D01*
X342850D01*
Y281688D01*
X342938D01*
Y281513D01*
X343025D01*
Y281338D01*
X343112D01*
Y281162D01*
X343200D01*
Y280987D01*
X343288D01*
Y280812D01*
X343375D01*
Y280637D01*
X343462D01*
Y280462D01*
X343550D01*
Y280287D01*
X343638D01*
Y280112D01*
X343725D01*
Y279937D01*
X343812D01*
Y279762D01*
X343900D01*
Y279500D01*
X343988D01*
Y279325D01*
X344075D01*
Y279150D01*
X344162D01*
Y278975D01*
X344250D01*
Y278800D01*
X344338D01*
Y278625D01*
X344425D01*
Y278450D01*
X344512D01*
Y278275D01*
X344600D01*
Y278100D01*
X344688D01*
Y277925D01*
X344775D01*
Y277750D01*
X344863D01*
Y277575D01*
X344950D01*
Y277400D01*
X345037D01*
Y277225D01*
X345125D01*
Y277050D01*
X345213D01*
Y276875D01*
X345300D01*
Y276700D01*
X345387D01*
Y276525D01*
X345475D01*
Y276262D01*
X345563D01*
Y276087D01*
X345650D01*
Y275912D01*
X345737D01*
Y275737D01*
X345825D01*
Y275650D01*
X357025D01*
Y275737D01*
X356937D01*
Y275912D01*
X356850D01*
Y276175D01*
X356763D01*
Y276350D01*
X356675D01*
Y276525D01*
X356587D01*
Y276700D01*
X356500D01*
Y276875D01*
X356413D01*
Y277050D01*
X356325D01*
Y277225D01*
X356237D01*
Y277400D01*
X356150D01*
Y277575D01*
X356063D01*
Y277750D01*
X355975D01*
Y277925D01*
X355887D01*
Y278100D01*
X355800D01*
Y278275D01*
X355713D01*
Y278450D01*
X355625D01*
Y278625D01*
X355537D01*
Y278800D01*
X355450D01*
Y278975D01*
X355363D01*
Y279150D01*
X355275D01*
Y279325D01*
X355187D01*
Y279500D01*
X355100D01*
Y279675D01*
X355013D01*
Y279850D01*
X354925D01*
Y280025D01*
X354837D01*
Y280200D01*
X354750D01*
Y280375D01*
X354663D01*
Y280550D01*
X354575D01*
Y280812D01*
X354487D01*
Y280987D01*
X354400D01*
Y281162D01*
X354313D01*
Y281338D01*
X354225D01*
Y281513D01*
X354137D01*
Y281688D01*
X354050D01*
Y281863D01*
X353963D01*
Y282038D01*
X353875D01*
Y282213D01*
X353787D01*
Y282388D01*
X353700D01*
Y282563D01*
X353613D01*
Y282738D01*
X353525D01*
Y282913D01*
X353438D01*
Y283088D01*
X353350D01*
Y283263D01*
X353262D01*
Y283438D01*
X353175D01*
Y283612D01*
X353088D01*
Y283787D01*
X353000D01*
Y283962D01*
X352912D01*
Y284137D01*
X352825D01*
Y284312D01*
X352738D01*
Y284487D01*
X352650D01*
Y284662D01*
X352562D01*
Y284837D01*
X352475D01*
Y285012D01*
X352388D01*
Y285187D01*
X352300D01*
Y285450D01*
X352212D01*
Y285625D01*
X352125D01*
Y285800D01*
X352038D01*
Y285975D01*
X351950D01*
Y286150D01*
X351862D01*
Y286325D01*
X351775D01*
Y286500D01*
X351688D01*
Y286675D01*
X351600D01*
Y286850D01*
X351512D01*
Y287025D01*
X351425D01*
Y287200D01*
X351338D01*
Y287375D01*
X351250D01*
Y287550D01*
X351162D01*
Y287725D01*
X351075D01*
Y287900D01*
X350988D01*
Y288075D01*
X350900D01*
Y288250D01*
X350812D01*
Y288425D01*
X350725D01*
Y288600D01*
X350638D01*
Y288775D01*
X350550D01*
Y288950D01*
X350462D01*
Y289125D01*
X350375D01*
Y289300D01*
X350288D01*
Y289475D01*
X350200D01*
Y289650D01*
X350112D01*
Y289825D01*
X350025D01*
Y290088D01*
X349938D01*
Y290263D01*
X349850D01*
Y290438D01*
X349762D01*
Y290525D01*
X349938D01*
Y290613D01*
X350200D01*
Y290700D01*
X350462D01*
Y290788D01*
X350725D01*
Y290875D01*
X350900D01*
Y290963D01*
X351162D01*
Y291050D01*
X351338D01*
Y291138D01*
X351512D01*
Y291225D01*
X351688D01*
Y291313D01*
X351950D01*
Y291400D01*
X352125D01*
Y291488D01*
X352212D01*
Y291575D01*
X352388D01*
Y291663D01*
X352562D01*
Y291750D01*
X352738D01*
Y291838D01*
X352912D01*
Y291925D01*
X353000D01*
Y292013D01*
X353175D01*
Y292100D01*
X353262D01*
Y292188D01*
X353438D01*
Y292275D01*
X353525D01*
Y292362D01*
X353700D01*
Y292450D01*
X353787D01*
Y292537D01*
X353963D01*
Y292625D01*
X354050D01*
Y292712D01*
X354137D01*
Y292800D01*
X354313D01*
Y292887D01*
X354400D01*
Y292975D01*
X354487D01*
Y293062D01*
X354575D01*
Y293150D01*
X354750D01*
Y293237D01*
X354837D01*
Y293325D01*
X354925D01*
Y293412D01*
X355013D01*
Y293500D01*
X355100D01*
Y293587D01*
X355187D01*
Y293675D01*
X355275D01*
Y293762D01*
X355363D01*
Y293850D01*
X355450D01*
Y293937D01*
X355537D01*
Y294025D01*
X355625D01*
Y294112D01*
X355713D01*
Y294200D01*
X355800D01*
Y294287D01*
X355887D01*
Y294375D01*
X355975D01*
Y294550D01*
X356063D01*
Y294638D01*
X356150D01*
Y294725D01*
X356237D01*
Y294813D01*
X356325D01*
Y294988D01*
X356413D01*
Y295075D01*
X356500D01*
Y295163D01*
X356587D01*
Y295338D01*
X356675D01*
Y295425D01*
X356763D01*
Y295600D01*
X356850D01*
Y295688D01*
X356937D01*
Y295863D01*
X357025D01*
Y296038D01*
X357113D01*
Y296125D01*
X357200D01*
Y296300D01*
X357287D01*
Y296475D01*
X357375D01*
Y296650D01*
X357463D01*
Y296825D01*
X357550D01*
Y297000D01*
X357637D01*
Y297175D01*
X357725D01*
Y297350D01*
X357812D01*
Y297612D01*
X357900D01*
Y297787D01*
X357988D01*
Y298050D01*
X358075D01*
Y298312D01*
X358162D01*
Y298575D01*
X358250D01*
Y298925D01*
X358338D01*
Y299275D01*
X358425D01*
Y299625D01*
X358512D01*
Y300150D01*
X358600D01*
Y300763D01*
X358688D01*
Y303825D01*
X358600D01*
Y304438D01*
X358512D01*
Y304963D01*
X358425D01*
Y305312D01*
X358338D01*
Y305662D01*
X358250D01*
Y306012D01*
X358162D01*
Y306275D01*
X358075D01*
Y306537D01*
X357988D01*
Y306800D01*
X357900D01*
Y306975D01*
X357812D01*
Y307237D01*
X357725D01*
Y307412D01*
X357637D01*
Y307588D01*
X357550D01*
Y307763D01*
X357463D01*
Y307938D01*
X357375D01*
Y308113D01*
X357287D01*
Y308288D01*
X357200D01*
Y308463D01*
X357113D01*
Y308638D01*
X357025D01*
Y308725D01*
X356937D01*
Y308900D01*
X356850D01*
Y308988D01*
X356763D01*
Y309163D01*
X356675D01*
Y309250D01*
X356587D01*
Y309425D01*
X356500D01*
Y309513D01*
X356413D01*
Y309600D01*
X356325D01*
Y309775D01*
X356237D01*
Y309862D01*
X356150D01*
Y309950D01*
X356063D01*
Y310037D01*
X355975D01*
Y310212D01*
X355887D01*
Y310300D01*
X355800D01*
Y310387D01*
X355713D01*
Y310475D01*
X355625D01*
Y310562D01*
X355537D01*
Y310650D01*
X355450D01*
Y310737D01*
X355363D01*
Y310825D01*
X355275D01*
Y310912D01*
X355187D01*
Y311000D01*
X355100D01*
Y311087D01*
X355013D01*
Y311175D01*
X354925D01*
Y311262D01*
X354837D01*
Y311350D01*
X354663D01*
Y311437D01*
X354575D01*
Y311525D01*
X354487D01*
Y311612D01*
X354400D01*
Y311700D01*
X354313D01*
Y311787D01*
X354137D01*
Y311875D01*
X354050D01*
Y311963D01*
X353963D01*
Y312050D01*
X353787D01*
Y312138D01*
X353700D01*
Y312225D01*
X353525D01*
Y312313D01*
X353438D01*
Y312400D01*
X353262D01*
Y312488D01*
X353175D01*
Y312575D01*
X353000D01*
Y312663D01*
X352825D01*
Y312750D01*
X352738D01*
Y312838D01*
X352562D01*
Y312925D01*
X352388D01*
Y313013D01*
X352212D01*
Y313100D01*
X352038D01*
Y313188D01*
X351862D01*
Y313275D01*
X351688D01*
Y313363D01*
X351512D01*
Y313450D01*
X351250D01*
Y313538D01*
X351075D01*
Y313625D01*
X350900D01*
Y313713D01*
X350638D01*
Y313800D01*
X350375D01*
Y313888D01*
X350112D01*
Y313975D01*
X349850D01*
Y314062D01*
X349588D01*
Y314150D01*
X349325D01*
Y314237D01*
X348975D01*
Y314325D01*
X348625D01*
Y314412D01*
X348275D01*
Y314500D01*
X347837D01*
Y314587D01*
X347313D01*
Y314675D01*
X346700D01*
Y314762D01*
X346000D01*
Y314850D01*
X344688D01*
Y314937D01*
D02*
G37*
%LPD*%
G36*
X343462Y306887D02*
X344425D01*
Y306800D01*
X344950D01*
Y306712D01*
X345300D01*
Y306625D01*
X345563D01*
Y306537D01*
X345825D01*
Y306450D01*
X346087D01*
Y306362D01*
X346263D01*
Y306275D01*
X346437D01*
Y306187D01*
X346613D01*
Y306100D01*
X346787D01*
Y306012D01*
X346963D01*
Y305925D01*
X347050D01*
Y305837D01*
X347225D01*
Y305750D01*
X347313D01*
Y305662D01*
X347400D01*
Y305575D01*
X347575D01*
Y305487D01*
X347663D01*
Y305400D01*
X347750D01*
Y305312D01*
X347837D01*
Y305225D01*
X347925D01*
Y305138D01*
X348013D01*
Y305050D01*
X348100D01*
Y304875D01*
X348187D01*
Y304788D01*
X348275D01*
Y304700D01*
X348363D01*
Y304525D01*
X348450D01*
Y304350D01*
X348537D01*
Y304175D01*
X348625D01*
Y304000D01*
X348713D01*
Y303825D01*
X348800D01*
Y303563D01*
X348887D01*
Y303213D01*
X348975D01*
Y301462D01*
X348887D01*
Y301025D01*
X348800D01*
Y300763D01*
X348713D01*
Y300500D01*
X348625D01*
Y300325D01*
X348537D01*
Y300150D01*
X348450D01*
Y299975D01*
X348363D01*
Y299888D01*
X348275D01*
Y299713D01*
X348187D01*
Y299625D01*
X348100D01*
Y299538D01*
X348013D01*
Y299363D01*
X347925D01*
Y299275D01*
X347837D01*
Y299188D01*
X347750D01*
Y299100D01*
X347663D01*
Y299013D01*
X347575D01*
Y298925D01*
X347400D01*
Y298838D01*
X347313D01*
Y298750D01*
X347225D01*
Y298662D01*
X347050D01*
Y298575D01*
X346963D01*
Y298487D01*
X346787D01*
Y298400D01*
X346613D01*
Y298312D01*
X346437D01*
Y298225D01*
X346263D01*
Y298137D01*
X346087D01*
Y298050D01*
X345825D01*
Y297962D01*
X345563D01*
Y297875D01*
X345300D01*
Y297787D01*
X344863D01*
Y297700D01*
X344425D01*
Y297612D01*
X333488D01*
Y306975D01*
X343462D01*
Y306887D01*
D02*
G37*
G36*
X313188Y304788D02*
X313275D01*
Y304525D01*
X313363D01*
Y304263D01*
X313450D01*
Y304000D01*
X313538D01*
Y303738D01*
X313625D01*
Y303475D01*
X313713D01*
Y303300D01*
X313800D01*
Y303037D01*
X313888D01*
Y302775D01*
X313975D01*
Y302512D01*
X314062D01*
Y302250D01*
X314150D01*
Y301987D01*
X314237D01*
Y301725D01*
X314325D01*
Y301462D01*
X314412D01*
Y301200D01*
X314500D01*
Y300938D01*
X314587D01*
Y300763D01*
X314675D01*
Y300500D01*
X314762D01*
Y300238D01*
X314850D01*
Y299975D01*
X314937D01*
Y299713D01*
X315025D01*
Y299450D01*
X315112D01*
Y299188D01*
X315200D01*
Y298925D01*
X315287D01*
Y298662D01*
X315375D01*
Y298400D01*
X315462D01*
Y298225D01*
X315550D01*
Y297962D01*
X315637D01*
Y297700D01*
X315725D01*
Y297437D01*
X315812D01*
Y297175D01*
X315900D01*
Y296912D01*
X315987D01*
Y296650D01*
X316075D01*
Y296388D01*
X316162D01*
Y296125D01*
X316250D01*
Y295863D01*
X316338D01*
Y295600D01*
X316425D01*
Y295425D01*
X316513D01*
Y295163D01*
X316600D01*
Y294900D01*
X316688D01*
Y294638D01*
X316775D01*
Y294375D01*
X316863D01*
Y294112D01*
X316950D01*
Y293850D01*
X317038D01*
Y293587D01*
X317125D01*
Y293325D01*
X317213D01*
Y293062D01*
X317300D01*
Y292887D01*
X317388D01*
Y292625D01*
X317475D01*
Y292362D01*
X317563D01*
Y292100D01*
X317650D01*
Y291838D01*
X308550D01*
Y292013D01*
X308638D01*
Y292275D01*
X308725D01*
Y292537D01*
X308813D01*
Y292800D01*
X308900D01*
Y293062D01*
X308988D01*
Y293325D01*
X309075D01*
Y293587D01*
X309163D01*
Y293762D01*
X309250D01*
Y294025D01*
X309338D01*
Y294287D01*
X309425D01*
Y294550D01*
X309513D01*
Y294813D01*
X309600D01*
Y295075D01*
X309688D01*
Y295338D01*
X309775D01*
Y295600D01*
X309862D01*
Y295863D01*
X309950D01*
Y296125D01*
X310037D01*
Y296300D01*
X310125D01*
Y296562D01*
X310212D01*
Y296825D01*
X310300D01*
Y297087D01*
X310387D01*
Y297350D01*
X310475D01*
Y297612D01*
X310562D01*
Y297875D01*
X310650D01*
Y298137D01*
X310737D01*
Y298400D01*
X310825D01*
Y298662D01*
X310912D01*
Y298838D01*
X311000D01*
Y299100D01*
X311087D01*
Y299363D01*
X311175D01*
Y299625D01*
X311262D01*
Y299888D01*
X311350D01*
Y300150D01*
X311437D01*
Y300413D01*
X311525D01*
Y300675D01*
X311612D01*
Y300938D01*
X311700D01*
Y301200D01*
X311787D01*
Y301462D01*
X311875D01*
Y301637D01*
X311963D01*
Y301900D01*
X312050D01*
Y302162D01*
X312138D01*
Y302425D01*
X312225D01*
Y302687D01*
X312313D01*
Y302950D01*
X312400D01*
Y303213D01*
X312488D01*
Y303475D01*
X312575D01*
Y303738D01*
X312663D01*
Y304000D01*
X312750D01*
Y304175D01*
X312838D01*
Y304438D01*
X312925D01*
Y304700D01*
X313013D01*
Y304963D01*
X313100D01*
Y305050D01*
X313188D01*
Y304788D01*
D02*
G37*
G36*
X304700Y306362D02*
X304613D01*
Y306187D01*
X304525D01*
Y305925D01*
X304438D01*
Y305662D01*
X304350D01*
Y305487D01*
X304263D01*
Y305225D01*
X304175D01*
Y305050D01*
X304088D01*
Y304788D01*
X304000D01*
Y304613D01*
X303913D01*
Y304350D01*
X303825D01*
Y304088D01*
X303738D01*
Y303913D01*
X303650D01*
Y303650D01*
X303563D01*
Y303475D01*
X303475D01*
Y303213D01*
X303388D01*
Y302950D01*
X303300D01*
Y302775D01*
X303213D01*
Y302512D01*
X303125D01*
Y302337D01*
X303037D01*
Y302075D01*
X302950D01*
Y301900D01*
X302862D01*
Y301637D01*
X302775D01*
Y301375D01*
X302687D01*
Y301200D01*
X302600D01*
Y300938D01*
X302512D01*
Y300763D01*
X302425D01*
Y300500D01*
X302337D01*
Y300325D01*
X302250D01*
Y300063D01*
X302162D01*
Y299800D01*
X302075D01*
Y299625D01*
X301987D01*
Y299363D01*
X301900D01*
Y299188D01*
X301812D01*
Y298925D01*
X301725D01*
Y298750D01*
X301637D01*
Y298487D01*
X301550D01*
Y298225D01*
X301462D01*
Y298050D01*
X301375D01*
Y297787D01*
X301287D01*
Y297612D01*
X301200D01*
Y297350D01*
X301112D01*
Y297175D01*
X301025D01*
Y296912D01*
X300938D01*
Y296650D01*
X300850D01*
Y296475D01*
X300763D01*
Y296213D01*
X300675D01*
Y296038D01*
X300588D01*
Y295775D01*
X300500D01*
Y295600D01*
X300413D01*
Y295338D01*
X300325D01*
Y295075D01*
X300238D01*
Y294900D01*
X300150D01*
Y294638D01*
X300063D01*
Y294463D01*
X299975D01*
Y294200D01*
X299888D01*
Y294025D01*
X299800D01*
Y293762D01*
X299713D01*
Y293500D01*
X299625D01*
Y293325D01*
X299538D01*
Y293062D01*
X299450D01*
Y292887D01*
X299363D01*
Y292625D01*
X299275D01*
Y292450D01*
X299188D01*
Y292188D01*
X299100D01*
Y291925D01*
X299013D01*
Y291750D01*
X298925D01*
Y291488D01*
X298838D01*
Y291313D01*
X298750D01*
Y291050D01*
X298662D01*
Y290875D01*
X298575D01*
Y290613D01*
X298487D01*
Y290350D01*
X298400D01*
Y290175D01*
X298312D01*
Y289912D01*
X298225D01*
Y289737D01*
X298137D01*
Y289475D01*
X298050D01*
Y289300D01*
X297962D01*
Y289037D01*
X297875D01*
Y288775D01*
X297787D01*
Y288600D01*
X297700D01*
Y288337D01*
X297612D01*
Y288162D01*
X297525D01*
Y287900D01*
X297437D01*
Y287638D01*
X297350D01*
Y287463D01*
X297262D01*
Y287200D01*
X297175D01*
Y287025D01*
X297087D01*
Y286763D01*
X297000D01*
Y286588D01*
X296912D01*
Y286325D01*
X296825D01*
Y286063D01*
X296737D01*
Y285888D01*
X296650D01*
Y285625D01*
X296562D01*
Y285450D01*
X296475D01*
Y285187D01*
X296388D01*
Y285012D01*
X296300D01*
Y284750D01*
X296213D01*
Y284487D01*
X296125D01*
Y284312D01*
X296038D01*
Y284050D01*
X295950D01*
Y283875D01*
X295863D01*
Y283612D01*
X295775D01*
Y283438D01*
X295688D01*
Y283175D01*
X295600D01*
Y282913D01*
X295513D01*
Y282738D01*
X295425D01*
Y290875D01*
Y290963D01*
Y306450D01*
X304700D01*
Y306362D01*
D02*
G37*
%LPC*%
G36*
X122978Y312306D02*
X122864D01*
X122623Y312294D01*
X122381Y312281D01*
X121924Y312205D01*
X121505Y312103D01*
X121314Y312040D01*
X121137Y311989D01*
X120972Y311925D01*
X120832Y311862D01*
X120705Y311811D01*
X120603Y311760D01*
X120514Y311722D01*
X120451Y311684D01*
X120413Y311671D01*
X120400Y311659D01*
X120006Y311405D01*
X119816Y311265D01*
X119651Y311125D01*
X119498Y310986D01*
X119359Y310846D01*
X119219Y310706D01*
X119105Y310579D01*
X119003Y310452D01*
X118914Y310338D01*
X118838Y310236D01*
X118774Y310147D01*
X118724Y310071D01*
X118686Y310020D01*
X118673Y309982D01*
X118660Y309970D01*
X118559Y309766D01*
X118457Y309563D01*
X118305Y309157D01*
X118203Y308750D01*
X118127Y308382D01*
X118101Y308204D01*
X118089Y308052D01*
X118063Y307912D01*
Y307798D01*
X118051Y307696D01*
Y307569D01*
X118063Y307188D01*
X118114Y306820D01*
X118178Y306477D01*
X118254Y306159D01*
X118355Y305855D01*
X118470Y305575D01*
X118597Y305321D01*
X118724Y305080D01*
X118838Y304864D01*
X118965Y304686D01*
X119079Y304521D01*
X119181Y304394D01*
X119257Y304293D01*
X119333Y304216D01*
X119371Y304166D01*
X119384Y304153D01*
X119651Y303924D01*
X119917Y303708D01*
X120197Y303531D01*
X120489Y303378D01*
X120781Y303251D01*
X121073Y303150D01*
X121353Y303061D01*
X121619Y302985D01*
X121873Y302934D01*
X122102Y302896D01*
X122305Y302857D01*
X122483Y302845D01*
X122635Y302832D01*
X122750Y302819D01*
X122838D01*
X123258Y302832D01*
X123639Y302883D01*
X123982Y302934D01*
X124134Y302972D01*
X124286Y303010D01*
X124413Y303035D01*
X124528Y303073D01*
X124629Y303099D01*
X124718Y303137D01*
X124782Y303150D01*
X124832Y303175D01*
X124858Y303188D01*
X124871D01*
X125036Y303264D01*
X125213Y303353D01*
X125544Y303556D01*
X125861Y303785D01*
X126153Y304013D01*
X126280Y304115D01*
X126395Y304216D01*
X126509Y304305D01*
X126598Y304394D01*
X126661Y304458D01*
X126725Y304508D01*
X126750Y304534D01*
X126763Y304547D01*
X125594Y305766D01*
X125315Y305512D01*
X125061Y305296D01*
X124832Y305118D01*
X124629Y304978D01*
X124464Y304877D01*
X124337Y304801D01*
X124286Y304775D01*
X124248Y304762D01*
X124235Y304750D01*
X124223D01*
X123994Y304661D01*
X123753Y304597D01*
X123524Y304547D01*
X123321Y304521D01*
X123131Y304496D01*
X122991Y304483D01*
X122864D01*
X122546Y304496D01*
X122242Y304547D01*
X121975Y304610D01*
X121734Y304686D01*
X121543Y304750D01*
X121454Y304788D01*
X121391Y304813D01*
X121340Y304839D01*
X121302Y304864D01*
X121276Y304877D01*
X121264D01*
X121010Y305042D01*
X120781Y305220D01*
X120591Y305397D01*
X120438Y305575D01*
X120311Y305728D01*
X120222Y305855D01*
X120184Y305905D01*
X120159Y305944D01*
X120146Y305956D01*
Y305969D01*
X120019Y306236D01*
X119930Y306515D01*
X119854Y306782D01*
X119816Y307036D01*
X119790Y307252D01*
X119778Y307341D01*
Y307417D01*
X119765Y307480D01*
Y307531D01*
Y307556D01*
Y307569D01*
X119778Y307810D01*
X119803Y308039D01*
X119841Y308255D01*
X119905Y308458D01*
X119968Y308649D01*
X120044Y308827D01*
X120121Y308992D01*
X120210Y309144D01*
X120286Y309284D01*
X120362Y309411D01*
X120438Y309512D01*
X120502Y309601D01*
X120565Y309665D01*
X120603Y309715D01*
X120629Y309741D01*
X120641Y309754D01*
X120807Y309906D01*
X120997Y310046D01*
X121175Y310160D01*
X121353Y310274D01*
X121543Y310350D01*
X121721Y310427D01*
X121899Y310490D01*
X122064Y310528D01*
X122229Y310566D01*
X122369Y310592D01*
X122496Y310617D01*
X122610Y310630D01*
X122699Y310643D01*
X122826D01*
X123105Y310630D01*
X123385Y310592D01*
X123651Y310528D01*
X123905Y310439D01*
X124147Y310338D01*
X124375Y310236D01*
X124591Y310122D01*
X124782Y309995D01*
X124959Y309881D01*
X125125Y309754D01*
X125264Y309652D01*
X125379Y309550D01*
X125467Y309461D01*
X125544Y309398D01*
X125582Y309360D01*
X125594Y309347D01*
X126801Y310490D01*
X126509Y310795D01*
X126204Y311062D01*
X125899Y311290D01*
X125620Y311481D01*
X125379Y311633D01*
X125277Y311684D01*
X125188Y311735D01*
X125112Y311773D01*
X125061Y311798D01*
X125023Y311824D01*
X125010D01*
X124629Y311989D01*
X124235Y312103D01*
X123880Y312192D01*
X123550Y312243D01*
X123410Y312268D01*
X123270Y312281D01*
X123156Y312294D01*
X123054D01*
X122978Y312306D01*
D02*
G37*
G36*
X103268Y309893D02*
X103204D01*
X103039Y309881D01*
X102887Y309855D01*
X102734Y309804D01*
X102620Y309766D01*
X102506Y309715D01*
X102430Y309665D01*
X102379Y309639D01*
X102366Y309627D01*
X102226Y309525D01*
X102112Y309398D01*
X102010Y309284D01*
X101922Y309157D01*
X101845Y309042D01*
X101795Y308953D01*
X101769Y308903D01*
X101756Y308877D01*
Y309728D01*
X100309D01*
Y303048D01*
X101985D01*
Y305740D01*
X101972Y306058D01*
Y306312D01*
X101985Y306541D01*
X101998Y306756D01*
X102010Y306947D01*
X102036Y307112D01*
X102061Y307264D01*
X102087Y307404D01*
X102112Y307518D01*
X102125Y307620D01*
X102150Y307709D01*
X102176Y307785D01*
X102201Y307836D01*
X102214Y307887D01*
X102226Y307912D01*
X102239Y307938D01*
X102341Y308103D01*
X102455Y308217D01*
X102557Y308306D01*
X102658Y308357D01*
X102747Y308395D01*
X102823Y308407D01*
X102874Y308420D01*
X102963D01*
X103039Y308395D01*
X103204Y308344D01*
X103268Y308319D01*
X103319Y308293D01*
X103357Y308280D01*
X103369Y308268D01*
X103890Y309715D01*
X103763Y309779D01*
X103636Y309817D01*
X103522Y309855D01*
X103420Y309868D01*
X103331Y309881D01*
X103268Y309893D01*
D02*
G37*
G36*
X139247Y312078D02*
X137494D01*
X135170Y305651D01*
X132897Y312078D01*
X131132D01*
X134332Y303048D01*
X135970D01*
X139247Y312078D01*
D02*
G37*
G36*
X144225D02*
X141660D01*
X140669Y310465D01*
X142523D01*
Y303048D01*
X144225D01*
Y312078D01*
D02*
G37*
G36*
X117314D02*
X112323D01*
Y310389D01*
X113923D01*
Y303048D01*
X115663D01*
Y310389D01*
X117314D01*
Y312078D01*
D02*
G37*
G36*
X107649Y309893D02*
X107548D01*
X107306Y309881D01*
X107078Y309855D01*
X106862Y309804D01*
X106646Y309741D01*
X106455Y309665D01*
X106265Y309576D01*
X106100Y309487D01*
X105948Y309398D01*
X105808Y309309D01*
X105681Y309220D01*
X105579Y309131D01*
X105490Y309055D01*
X105414Y308992D01*
X105363Y308941D01*
X105338Y308915D01*
X105325Y308903D01*
X105173Y308712D01*
X105033Y308509D01*
X104906Y308306D01*
X104804Y308090D01*
X104716Y307874D01*
X104639Y307671D01*
X104589Y307468D01*
X104538Y307264D01*
X104500Y307087D01*
X104474Y306909D01*
X104449Y306756D01*
X104436Y306629D01*
X104424Y306528D01*
Y306375D01*
X104436Y306096D01*
X104462Y305842D01*
X104512Y305588D01*
X104576Y305347D01*
X104639Y305131D01*
X104716Y304928D01*
X104804Y304737D01*
X104893Y304559D01*
X104982Y304407D01*
X105071Y304267D01*
X105147Y304153D01*
X105211Y304051D01*
X105274Y303975D01*
X105325Y303924D01*
X105351Y303886D01*
X105363Y303874D01*
X105541Y303696D01*
X105732Y303543D01*
X105922Y303416D01*
X106113Y303302D01*
X106303Y303200D01*
X106481Y303124D01*
X106659Y303061D01*
X106837Y303010D01*
X106989Y302972D01*
X107141Y302934D01*
X107268Y302908D01*
X107383Y302896D01*
X107472D01*
X107548Y302883D01*
X107598D01*
X107814Y302896D01*
X108005Y302921D01*
X108183Y302946D01*
X108348Y302985D01*
X108475Y303023D01*
X108576Y303061D01*
X108640Y303073D01*
X108665Y303086D01*
X108856Y303175D01*
X109034Y303277D01*
X109199Y303391D01*
X109351Y303493D01*
X109478Y303594D01*
X109567Y303670D01*
X109630Y303721D01*
X109656Y303746D01*
Y303048D01*
X111332D01*
Y309728D01*
X109656D01*
Y308992D01*
X109478Y309144D01*
X109313Y309284D01*
X109148Y309398D01*
X108996Y309500D01*
X108856Y309563D01*
X108754Y309627D01*
X108691Y309652D01*
X108665Y309665D01*
X108462Y309741D01*
X108272Y309792D01*
X108081Y309842D01*
X107916Y309868D01*
X107764Y309881D01*
X107649Y309893D01*
D02*
G37*
G36*
X95318D02*
X95216D01*
X94975Y309881D01*
X94746Y309855D01*
X94530Y309804D01*
X94314Y309741D01*
X94124Y309665D01*
X93933Y309576D01*
X93768Y309487D01*
X93616Y309398D01*
X93476Y309309D01*
X93349Y309220D01*
X93247Y309131D01*
X93159Y309055D01*
X93082Y308992D01*
X93032Y308941D01*
X93006Y308915D01*
X92993Y308903D01*
X92841Y308712D01*
X92701Y308509D01*
X92574Y308306D01*
X92473Y308090D01*
X92384Y307874D01*
X92308Y307671D01*
X92257Y307468D01*
X92206Y307264D01*
X92168Y307087D01*
X92143Y306909D01*
X92117Y306756D01*
X92105Y306629D01*
X92092Y306528D01*
Y306375D01*
X92105Y306096D01*
X92130Y305842D01*
X92181Y305588D01*
X92244Y305347D01*
X92308Y305131D01*
X92384Y304928D01*
X92473Y304737D01*
X92562Y304559D01*
X92651Y304407D01*
X92739Y304267D01*
X92816Y304153D01*
X92879Y304051D01*
X92943Y303975D01*
X92993Y303924D01*
X93019Y303886D01*
X93032Y303874D01*
X93209Y303696D01*
X93400Y303543D01*
X93590Y303416D01*
X93781Y303302D01*
X93971Y303200D01*
X94149Y303124D01*
X94327Y303061D01*
X94505Y303010D01*
X94657Y302972D01*
X94810Y302934D01*
X94937Y302908D01*
X95051Y302896D01*
X95140D01*
X95216Y302883D01*
X95267D01*
X95483Y302896D01*
X95673Y302921D01*
X95851Y302946D01*
X96016Y302985D01*
X96143Y303023D01*
X96245Y303061D01*
X96308Y303073D01*
X96334Y303086D01*
X96524Y303175D01*
X96702Y303277D01*
X96867Y303391D01*
X97019Y303493D01*
X97146Y303594D01*
X97235Y303670D01*
X97299Y303721D01*
X97324Y303746D01*
Y303048D01*
X99001D01*
Y309728D01*
X97324D01*
Y308992D01*
X97146Y309144D01*
X96981Y309284D01*
X96816Y309398D01*
X96664Y309500D01*
X96524Y309563D01*
X96423Y309627D01*
X96359Y309652D01*
X96334Y309665D01*
X96130Y309741D01*
X95940Y309792D01*
X95749Y309842D01*
X95584Y309868D01*
X95432Y309881D01*
X95318Y309893D01*
D02*
G37*
G36*
X87456Y312078D02*
X85399D01*
Y303048D01*
X87101D01*
Y306871D01*
X87266D01*
X89298Y303048D01*
X91177D01*
X89044Y307048D01*
X89349Y307176D01*
X89603Y307328D01*
X89818Y307480D01*
X90009Y307620D01*
X90149Y307760D01*
X90250Y307861D01*
X90301Y307938D01*
X90326Y307950D01*
Y307963D01*
X90466Y308204D01*
X90581Y308445D01*
X90657Y308699D01*
X90708Y308928D01*
X90733Y309131D01*
X90746Y309220D01*
X90758Y309296D01*
Y309360D01*
Y309411D01*
Y309436D01*
Y309449D01*
X90746Y309754D01*
X90695Y310033D01*
X90631Y310287D01*
X90568Y310503D01*
X90492Y310668D01*
X90428Y310795D01*
X90403Y310846D01*
X90377Y310884D01*
X90365Y310897D01*
Y310909D01*
X90212Y311125D01*
X90047Y311316D01*
X89882Y311468D01*
X89717Y311582D01*
X89565Y311684D01*
X89450Y311747D01*
X89374Y311786D01*
X89361Y311798D01*
X89349D01*
X89222Y311849D01*
X89069Y311887D01*
X88917Y311925D01*
X88752Y311963D01*
X88396Y312014D01*
X88041Y312040D01*
X87875Y312052D01*
X87723Y312065D01*
X87583D01*
X87456Y312078D01*
D02*
G37*
G36*
X101255Y301014D02*
X101179D01*
X101026Y301001D01*
X100874Y300963D01*
X100747Y300912D01*
X100645Y300861D01*
X100556Y300798D01*
X100480Y300747D01*
X100442Y300709D01*
X100429Y300696D01*
X100328Y300569D01*
X100252Y300442D01*
X100201Y300315D01*
X100163Y300201D01*
X100137Y300086D01*
X100125Y300010D01*
Y299934D01*
X100137Y299769D01*
X100175Y299617D01*
X100226Y299489D01*
X100277Y299375D01*
X100328Y299286D01*
X100379Y299223D01*
X100417Y299172D01*
X100429Y299159D01*
X100556Y299058D01*
X100683Y298981D01*
X100810Y298918D01*
X100925Y298880D01*
X101039Y298855D01*
X101115Y298842D01*
X101191D01*
X101344Y298855D01*
X101496Y298893D01*
X101623Y298943D01*
X101725Y298994D01*
X101814Y299045D01*
X101890Y299096D01*
X101928Y299134D01*
X101941Y299147D01*
X102042Y299274D01*
X102119Y299401D01*
X102182Y299528D01*
X102220Y299655D01*
X102246Y299756D01*
X102258Y299845D01*
Y299921D01*
X102246Y300086D01*
X102207Y300226D01*
X102157Y300353D01*
X102106Y300467D01*
X102042Y300556D01*
X101992Y300632D01*
X101953Y300671D01*
X101941Y300683D01*
X101814Y300798D01*
X101687Y300874D01*
X101560Y300937D01*
X101445Y300975D01*
X101331Y301001D01*
X101255Y301014D01*
D02*
G37*
G36*
X125334Y300848D02*
X125220D01*
X125029Y300836D01*
X124839Y300823D01*
X124496Y300747D01*
X124204Y300632D01*
X123937Y300518D01*
X123835Y300455D01*
X123734Y300391D01*
X123658Y300328D01*
X123581Y300277D01*
X123531Y300239D01*
X123493Y300201D01*
X123467Y300188D01*
X123455Y300175D01*
X123328Y300048D01*
X123226Y299909D01*
X123124Y299782D01*
X123048Y299642D01*
X122921Y299375D01*
X122832Y299121D01*
X122781Y298893D01*
X122769Y298804D01*
X122756Y298715D01*
X122743Y298651D01*
Y298601D01*
Y298575D01*
Y298562D01*
X122756Y298321D01*
X122807Y298080D01*
X122870Y297864D01*
X122959Y297661D01*
X123035Y297496D01*
X123099Y297369D01*
X123124Y297318D01*
X123150Y297280D01*
X123162Y297267D01*
Y297254D01*
X123251Y297127D01*
X123366Y296988D01*
X123505Y296848D01*
X123645Y296695D01*
X123962Y296378D01*
X124280Y296086D01*
X124445Y295946D01*
X124585Y295819D01*
X124725Y295705D01*
X124839Y295603D01*
X124940Y295514D01*
X125017Y295451D01*
X125067Y295413D01*
X125080Y295400D01*
X125220Y295286D01*
X125347Y295172D01*
X125563Y294981D01*
X125740Y294829D01*
X125868Y294689D01*
X125969Y294587D01*
X126033Y294524D01*
X126071Y294473D01*
X126083Y294460D01*
X126160Y294346D01*
X126210Y294232D01*
X126261Y294130D01*
X126287Y294041D01*
X126299Y293965D01*
X126312Y293902D01*
Y293863D01*
Y293851D01*
X126299Y293724D01*
X126261Y293609D01*
X126210Y293508D01*
X126160Y293419D01*
X126109Y293355D01*
X126058Y293305D01*
X126020Y293267D01*
X126007Y293254D01*
X125893Y293165D01*
X125766Y293101D01*
X125639Y293063D01*
X125525Y293038D01*
X125410Y293013D01*
X125334Y293000D01*
X125258D01*
X125105Y293013D01*
X124953Y293051D01*
X124801Y293114D01*
X124661Y293190D01*
X124534Y293279D01*
X124407Y293381D01*
X124191Y293597D01*
X124013Y293813D01*
X123937Y293914D01*
X123874Y294003D01*
X123823Y294079D01*
X123785Y294143D01*
X123772Y294181D01*
X123759Y294194D01*
X122324Y293317D01*
X122426Y293139D01*
X122527Y292962D01*
X122731Y292657D01*
X122934Y292403D01*
X123124Y292200D01*
X123289Y292035D01*
X123429Y291920D01*
X123480Y291882D01*
X123518Y291857D01*
X123531Y291831D01*
X123543D01*
X123823Y291679D01*
X124102Y291565D01*
X124382Y291476D01*
X124648Y291425D01*
X124877Y291387D01*
X124979Y291374D01*
X125055D01*
X125131Y291362D01*
X125220D01*
X125448Y291374D01*
X125664Y291387D01*
X125868Y291425D01*
X126058Y291476D01*
X126236Y291527D01*
X126401Y291590D01*
X126553Y291654D01*
X126693Y291730D01*
X126807Y291793D01*
X126922Y291857D01*
X127010Y291920D01*
X127087Y291971D01*
X127150Y292022D01*
X127188Y292060D01*
X127214Y292073D01*
X127226Y292085D01*
X127366Y292225D01*
X127480Y292377D01*
X127582Y292517D01*
X127671Y292682D01*
X127747Y292835D01*
X127811Y292987D01*
X127900Y293267D01*
X127938Y293406D01*
X127963Y293521D01*
X127976Y293635D01*
X127988Y293736D01*
X128001Y293813D01*
Y293914D01*
X127988Y294130D01*
X127963Y294321D01*
X127925Y294498D01*
X127887Y294651D01*
X127849Y294790D01*
X127811Y294879D01*
X127785Y294943D01*
X127773Y294968D01*
X127684Y295146D01*
X127569Y295324D01*
X127442Y295502D01*
X127328Y295654D01*
X127214Y295781D01*
X127125Y295883D01*
X127061Y295946D01*
X127036Y295972D01*
X126985Y296022D01*
X126922Y296073D01*
X126845Y296149D01*
X126756Y296226D01*
X126566Y296391D01*
X126363Y296569D01*
X126160Y296746D01*
X126071Y296810D01*
X125995Y296886D01*
X125931Y296937D01*
X125880Y296975D01*
X125855Y297000D01*
X125842Y297013D01*
X125652Y297178D01*
X125486Y297318D01*
X125334Y297445D01*
X125207Y297572D01*
X125080Y297673D01*
X124979Y297775D01*
X124890Y297851D01*
X124813Y297927D01*
X124699Y298042D01*
X124636Y298118D01*
X124598Y298156D01*
X124585Y298169D01*
X124534Y298245D01*
X124496Y298321D01*
X124458Y298461D01*
X124445Y298512D01*
X124432Y298562D01*
Y298588D01*
Y298601D01*
X124445Y298689D01*
X124471Y298766D01*
X124534Y298893D01*
X124572Y298943D01*
X124610Y298981D01*
X124623Y298994D01*
X124636Y299007D01*
X124725Y299070D01*
X124813Y299121D01*
X124902Y299147D01*
X124991Y299172D01*
X125080Y299185D01*
X125144Y299197D01*
X125194D01*
X125321Y299185D01*
X125448Y299159D01*
X125575Y299109D01*
X125702Y299058D01*
X125931Y298905D01*
X126134Y298740D01*
X126312Y298562D01*
X126439Y298410D01*
X126490Y298359D01*
X126528Y298308D01*
X126541Y298283D01*
X126553Y298270D01*
X127836Y299388D01*
X127569Y299680D01*
X127328Y299921D01*
X127099Y300112D01*
X126896Y300264D01*
X126731Y300391D01*
X126604Y300467D01*
X126566Y300493D01*
X126528Y300518D01*
X126515Y300531D01*
X126503D01*
X126274Y300632D01*
X126045Y300709D01*
X125829Y300772D01*
X125639Y300810D01*
X125461Y300836D01*
X125334Y300848D01*
D02*
G37*
G36*
X144397Y298435D02*
X144232D01*
X143838Y298410D01*
X143470Y298359D01*
X143139Y298283D01*
X142847Y298207D01*
X142720Y298156D01*
X142606Y298118D01*
X142517Y298080D01*
X142428Y298042D01*
X142365Y298004D01*
X142314Y297991D01*
X142289Y297966D01*
X142276D01*
X141971Y297775D01*
X141704Y297572D01*
X141476Y297356D01*
X141285Y297153D01*
X141133Y296962D01*
X141019Y296822D01*
X140981Y296759D01*
X140955Y296721D01*
X140930Y296695D01*
Y296683D01*
X140765Y296378D01*
X140650Y296061D01*
X140561Y295768D01*
X140511Y295489D01*
X140485Y295362D01*
X140472Y295248D01*
X140460Y295159D01*
Y295070D01*
X140447Y294994D01*
Y294905D01*
X140460Y294651D01*
X140485Y294397D01*
X140536Y294156D01*
X140599Y293940D01*
X140676Y293724D01*
X140765Y293521D01*
X140854Y293330D01*
X140942Y293165D01*
X141031Y293013D01*
X141120Y292873D01*
X141209Y292746D01*
X141285Y292657D01*
X141349Y292568D01*
X141400Y292517D01*
X141425Y292479D01*
X141438Y292466D01*
X141628Y292289D01*
X141844Y292124D01*
X142060Y291984D01*
X142289Y291870D01*
X142530Y291768D01*
X142759Y291679D01*
X142987Y291616D01*
X143203Y291552D01*
X143406Y291514D01*
X143597Y291476D01*
X143762Y291463D01*
X143914Y291438D01*
X144041D01*
X144130Y291425D01*
X144206D01*
X144562Y291438D01*
X144905Y291488D01*
X145210Y291552D01*
X145502Y291641D01*
X145781Y291742D01*
X146022Y291870D01*
X146251Y291984D01*
X146454Y292124D01*
X146645Y292250D01*
X146797Y292377D01*
X146937Y292492D01*
X147038Y292593D01*
X147127Y292682D01*
X147191Y292746D01*
X147229Y292797D01*
X147242Y292809D01*
X145908Y293724D01*
X145781Y293584D01*
X145654Y293470D01*
X145514Y293368D01*
X145375Y293279D01*
X145222Y293216D01*
X145083Y293152D01*
X144803Y293063D01*
X144549Y293000D01*
X144435Y292987D01*
X144346Y292974D01*
X144270Y292962D01*
X144156D01*
X143838Y292987D01*
X143546Y293051D01*
X143292Y293127D01*
X143089Y293228D01*
X142924Y293330D01*
X142797Y293406D01*
X142720Y293470D01*
X142708Y293495D01*
X142695D01*
X142593Y293597D01*
X142517Y293711D01*
X142378Y293940D01*
X142276Y294168D01*
X142212Y294384D01*
X142162Y294587D01*
X142149Y294664D01*
Y294740D01*
X142136Y294803D01*
Y294841D01*
Y294867D01*
Y294879D01*
X142149Y295044D01*
X142162Y295197D01*
X142225Y295476D01*
X142314Y295718D01*
X142428Y295921D01*
X142530Y296086D01*
X142619Y296213D01*
X142682Y296289D01*
X142708Y296315D01*
X142822Y296416D01*
X142936Y296505D01*
X143190Y296632D01*
X143444Y296734D01*
X143686Y296810D01*
X143902Y296848D01*
X143990Y296861D01*
X144079D01*
X144143Y296873D01*
X144232D01*
X144422Y296861D01*
X144587Y296848D01*
X144752Y296822D01*
X144879Y296797D01*
X144981Y296759D01*
X145070Y296734D01*
X145121Y296721D01*
X145133Y296708D01*
X145286Y296632D01*
X145426Y296556D01*
X145553Y296454D01*
X145680Y296365D01*
X145781Y296276D01*
X145857Y296200D01*
X145908Y296149D01*
X145921Y296137D01*
X147318Y296899D01*
X147115Y297165D01*
X146899Y297381D01*
X146683Y297584D01*
X146480Y297737D01*
X146289Y297864D01*
X146149Y297953D01*
X146086Y297991D01*
X146048Y298016D01*
X146022Y298029D01*
X146010D01*
X145705Y298169D01*
X145400Y298270D01*
X145095Y298334D01*
X144829Y298385D01*
X144702Y298397D01*
X144587Y298410D01*
X144486Y298423D01*
X144397Y298435D01*
D02*
G37*
G36*
X150518Y300848D02*
X148842D01*
Y291590D01*
X150518D01*
Y294664D01*
X153338Y291590D01*
X155446D01*
X152220Y295095D01*
X155052Y298270D01*
X152982D01*
X150518Y295502D01*
Y300848D01*
D02*
G37*
G36*
X135393Y298435D02*
X135291D01*
X135050Y298423D01*
X134821Y298397D01*
X134605Y298347D01*
X134389Y298283D01*
X134199Y298207D01*
X134008Y298118D01*
X133843Y298029D01*
X133691Y297940D01*
X133551Y297851D01*
X133424Y297762D01*
X133322Y297673D01*
X133233Y297597D01*
X133157Y297534D01*
X133106Y297483D01*
X133081Y297458D01*
X133068Y297445D01*
X132916Y297254D01*
X132776Y297051D01*
X132649Y296848D01*
X132548Y296632D01*
X132459Y296416D01*
X132383Y296213D01*
X132332Y296010D01*
X132281Y295807D01*
X132243Y295629D01*
X132218Y295451D01*
X132192Y295299D01*
X132179Y295172D01*
X132167Y295070D01*
Y294918D01*
X132179Y294638D01*
X132205Y294384D01*
X132256Y294130D01*
X132319Y293889D01*
X132383Y293673D01*
X132459Y293470D01*
X132548Y293279D01*
X132637Y293101D01*
X132725Y292949D01*
X132814Y292809D01*
X132891Y292695D01*
X132954Y292593D01*
X133018Y292517D01*
X133068Y292466D01*
X133094Y292428D01*
X133106Y292416D01*
X133284Y292238D01*
X133475Y292085D01*
X133665Y291958D01*
X133856Y291844D01*
X134046Y291742D01*
X134224Y291666D01*
X134402Y291603D01*
X134580Y291552D01*
X134732Y291514D01*
X134885Y291476D01*
X135012Y291450D01*
X135126Y291438D01*
X135215D01*
X135291Y291425D01*
X135342D01*
X135558Y291438D01*
X135748Y291463D01*
X135926Y291488D01*
X136091Y291527D01*
X136218Y291565D01*
X136320Y291603D01*
X136383Y291616D01*
X136409Y291628D01*
X136599Y291717D01*
X136777Y291819D01*
X136942Y291933D01*
X137094Y292035D01*
X137221Y292136D01*
X137310Y292212D01*
X137374Y292263D01*
X137399Y292289D01*
Y291590D01*
X139075D01*
Y298270D01*
X137399D01*
Y297534D01*
X137221Y297686D01*
X137056Y297826D01*
X136891Y297940D01*
X136739Y298042D01*
X136599Y298105D01*
X136497Y298169D01*
X136434Y298194D01*
X136409Y298207D01*
X136205Y298283D01*
X136015Y298334D01*
X135824Y298385D01*
X135659Y298410D01*
X135507Y298423D01*
X135393Y298435D01*
D02*
G37*
G36*
X130948Y300848D02*
X129271D01*
Y291590D01*
X130948D01*
Y300848D01*
D02*
G37*
G36*
X113536D02*
X111859D01*
Y291590D01*
X113536D01*
Y294257D01*
Y294448D01*
Y294625D01*
Y294790D01*
X113548Y294930D01*
Y295057D01*
X113561Y295172D01*
Y295273D01*
X113574Y295349D01*
Y295489D01*
X113587Y295578D01*
X113599Y295629D01*
Y295641D01*
X113663Y295845D01*
X113739Y296022D01*
X113828Y296187D01*
X113904Y296315D01*
X113980Y296416D01*
X114044Y296492D01*
X114095Y296543D01*
X114107Y296556D01*
X114247Y296670D01*
X114399Y296759D01*
X114552Y296810D01*
X114679Y296861D01*
X114806Y296886D01*
X114895Y296899D01*
X114984D01*
X115123Y296886D01*
X115250Y296873D01*
X115352Y296835D01*
X115454Y296797D01*
X115530Y296759D01*
X115581Y296734D01*
X115619Y296708D01*
X115631Y296695D01*
X115720Y296607D01*
X115809Y296518D01*
X115873Y296403D01*
X115923Y296315D01*
X115962Y296213D01*
X115987Y296137D01*
X116012Y296086D01*
Y296073D01*
X116038Y295984D01*
X116050Y295895D01*
X116076Y295654D01*
X116101Y295400D01*
X116114Y295146D01*
X116127Y294905D01*
Y294790D01*
Y294702D01*
Y294625D01*
Y294562D01*
Y294524D01*
Y294511D01*
Y291590D01*
X117778D01*
Y296213D01*
X117752Y296403D01*
X117727Y296581D01*
X117689Y296759D01*
X117638Y296911D01*
X117587Y297051D01*
X117536Y297191D01*
X117486Y297305D01*
X117435Y297407D01*
X117384Y297496D01*
X117333Y297572D01*
X117282Y297623D01*
X117244Y297673D01*
X117219Y297712D01*
X117206Y297724D01*
X117193Y297737D01*
X117066Y297864D01*
X116927Y297966D01*
X116787Y298067D01*
X116647Y298143D01*
X116368Y298270D01*
X116101Y298347D01*
X115873Y298397D01*
X115771Y298410D01*
X115682Y298423D01*
X115619Y298435D01*
X115517D01*
X115326Y298423D01*
X115149Y298397D01*
X114971Y298372D01*
X114831Y298334D01*
X114691Y298283D01*
X114603Y298258D01*
X114539Y298232D01*
X114514Y298220D01*
X114336Y298131D01*
X114158Y298029D01*
X113993Y297927D01*
X113841Y297826D01*
X113714Y297724D01*
X113625Y297648D01*
X113561Y297597D01*
X113536Y297584D01*
Y300848D01*
D02*
G37*
G36*
X102030Y298270D02*
X100353D01*
Y291590D01*
X102030D01*
Y298270D01*
D02*
G37*
G36*
X90968Y300848D02*
X89291D01*
Y291590D01*
X90968D01*
Y300848D01*
D02*
G37*
G36*
X84097Y298435D02*
X83996D01*
X83754Y298423D01*
X83526Y298397D01*
X83310Y298347D01*
X83094Y298283D01*
X82903Y298207D01*
X82713Y298118D01*
X82548Y298029D01*
X82395Y297940D01*
X82256Y297851D01*
X82129Y297762D01*
X82027Y297673D01*
X81938Y297597D01*
X81862Y297534D01*
X81811Y297483D01*
X81786Y297458D01*
X81773Y297445D01*
X81621Y297254D01*
X81481Y297051D01*
X81354Y296848D01*
X81252Y296632D01*
X81164Y296416D01*
X81087Y296213D01*
X81037Y296010D01*
X80986Y295807D01*
X80948Y295629D01*
X80922Y295451D01*
X80897Y295299D01*
X80884Y295172D01*
X80871Y295070D01*
Y294918D01*
X80884Y294638D01*
X80910Y294384D01*
X80960Y294130D01*
X81024Y293889D01*
X81087Y293673D01*
X81164Y293470D01*
X81252Y293279D01*
X81341Y293101D01*
X81430Y292949D01*
X81519Y292809D01*
X81595Y292695D01*
X81659Y292593D01*
X81722Y292517D01*
X81773Y292466D01*
X81798Y292428D01*
X81811Y292416D01*
X81989Y292238D01*
X82179Y292085D01*
X82370Y291958D01*
X82561Y291844D01*
X82751Y291742D01*
X82929Y291666D01*
X83107Y291603D01*
X83284Y291552D01*
X83437Y291514D01*
X83589Y291476D01*
X83716Y291450D01*
X83830Y291438D01*
X83919D01*
X83996Y291425D01*
X84046D01*
X84262Y291438D01*
X84453Y291463D01*
X84631Y291488D01*
X84796Y291527D01*
X84923Y291565D01*
X85024Y291603D01*
X85088Y291616D01*
X85113Y291628D01*
X85304Y291717D01*
X85482Y291819D01*
X85647Y291933D01*
X85799Y292035D01*
X85926Y292136D01*
X86015Y292212D01*
X86078Y292263D01*
X86104Y292289D01*
Y291590D01*
X87780D01*
Y298270D01*
X86104D01*
Y297534D01*
X85926Y297686D01*
X85761Y297826D01*
X85596Y297940D01*
X85443Y298042D01*
X85304Y298105D01*
X85202Y298169D01*
X85139Y298194D01*
X85113Y298207D01*
X84910Y298283D01*
X84719Y298334D01*
X84529Y298385D01*
X84364Y298410D01*
X84212Y298423D01*
X84097Y298435D01*
D02*
G37*
G36*
X76236Y300620D02*
X74179D01*
Y291590D01*
X75880D01*
Y295413D01*
X76045D01*
X78077Y291590D01*
X79957D01*
X77823Y295591D01*
X78128Y295718D01*
X78382Y295870D01*
X78598Y296022D01*
X78789Y296162D01*
X78928Y296302D01*
X79030Y296403D01*
X79081Y296480D01*
X79106Y296492D01*
Y296505D01*
X79246Y296746D01*
X79360Y296988D01*
X79436Y297242D01*
X79487Y297470D01*
X79513Y297673D01*
X79525Y297762D01*
X79538Y297838D01*
Y297902D01*
Y297953D01*
Y297978D01*
Y297991D01*
X79525Y298296D01*
X79474Y298575D01*
X79411Y298829D01*
X79347Y299045D01*
X79271Y299210D01*
X79208Y299337D01*
X79182Y299388D01*
X79157Y299426D01*
X79144Y299439D01*
Y299451D01*
X78992Y299667D01*
X78827Y299858D01*
X78662Y300010D01*
X78496Y300124D01*
X78344Y300226D01*
X78230Y300290D01*
X78154Y300328D01*
X78141Y300340D01*
X78128D01*
X78001Y300391D01*
X77849Y300429D01*
X77696Y300467D01*
X77531Y300506D01*
X77176Y300556D01*
X76820Y300582D01*
X76655Y300594D01*
X76503Y300607D01*
X76363D01*
X76236Y300620D01*
D02*
G37*
G36*
X95768Y298435D02*
X95616D01*
X95349Y298423D01*
X95083Y298397D01*
X94841Y298347D01*
X94600Y298283D01*
X94384Y298194D01*
X94181Y298118D01*
X93990Y298016D01*
X93825Y297927D01*
X93673Y297838D01*
X93533Y297737D01*
X93419Y297661D01*
X93317Y297584D01*
X93241Y297508D01*
X93190Y297458D01*
X93152Y297432D01*
X93140Y297419D01*
X92962Y297229D01*
X92822Y297026D01*
X92682Y296810D01*
X92581Y296607D01*
X92479Y296391D01*
X92403Y296175D01*
X92339Y295972D01*
X92289Y295781D01*
X92238Y295591D01*
X92212Y295425D01*
X92187Y295273D01*
X92174Y295146D01*
Y295044D01*
X92162Y294956D01*
Y294892D01*
X92174Y294613D01*
X92200Y294359D01*
X92251Y294105D01*
X92314Y293876D01*
X92390Y293647D01*
X92466Y293444D01*
X92555Y293254D01*
X92657Y293089D01*
X92746Y292936D01*
X92835Y292797D01*
X92911Y292682D01*
X92987Y292581D01*
X93051Y292505D01*
X93102Y292454D01*
X93127Y292416D01*
X93140Y292403D01*
X93330Y292225D01*
X93533Y292085D01*
X93749Y291946D01*
X93965Y291844D01*
X94168Y291742D01*
X94384Y291666D01*
X94600Y291603D01*
X94791Y291552D01*
X94981Y291501D01*
X95159Y291476D01*
X95311Y291450D01*
X95438Y291438D01*
X95553D01*
X95641Y291425D01*
X95705D01*
X96073Y291438D01*
X96404Y291476D01*
X96708Y291539D01*
X96962Y291603D01*
X97077Y291641D01*
X97165Y291666D01*
X97254Y291704D01*
X97331Y291730D01*
X97381Y291742D01*
X97420Y291768D01*
X97445Y291781D01*
X97458D01*
X97724Y291933D01*
X97966Y292098D01*
X98181Y292289D01*
X98372Y292466D01*
X98524Y292631D01*
X98639Y292759D01*
X98677Y292809D01*
X98702Y292847D01*
X98728Y292873D01*
Y292885D01*
X97305Y293559D01*
X97178Y293444D01*
X97038Y293343D01*
X96911Y293254D01*
X96772Y293178D01*
X96505Y293063D01*
X96251Y292987D01*
X96023Y292936D01*
X95934Y292924D01*
X95845Y292911D01*
X95781Y292898D01*
X95692D01*
X95413Y292911D01*
X95159Y292962D01*
X94943Y293025D01*
X94753Y293114D01*
X94600Y293190D01*
X94486Y293254D01*
X94422Y293305D01*
X94397Y293317D01*
X94232Y293482D01*
X94092Y293673D01*
X93990Y293863D01*
X93902Y294041D01*
X93851Y294206D01*
X93813Y294346D01*
X93800Y294397D01*
X93787Y294435D01*
Y294448D01*
Y294460D01*
X99172D01*
X99185Y294778D01*
X99172Y295083D01*
X99147Y295362D01*
X99096Y295629D01*
X99032Y295883D01*
X98956Y296111D01*
X98867Y296340D01*
X98778Y296530D01*
X98689Y296708D01*
X98601Y296873D01*
X98512Y297013D01*
X98423Y297140D01*
X98347Y297242D01*
X98283Y297318D01*
X98232Y297369D01*
X98207Y297407D01*
X98194Y297419D01*
X98004Y297597D01*
X97801Y297750D01*
X97585Y297889D01*
X97369Y298004D01*
X97153Y298105D01*
X96950Y298194D01*
X96734Y298258D01*
X96531Y298308D01*
X96340Y298347D01*
X96175Y298385D01*
X96010Y298410D01*
X95883Y298423D01*
X95768Y298435D01*
D02*
G37*
G36*
X106462D02*
X106360D01*
X106132Y298423D01*
X105916Y298397D01*
X105713Y298359D01*
X105509Y298296D01*
X105319Y298232D01*
X105154Y298156D01*
X104989Y298080D01*
X104836Y298004D01*
X104709Y297915D01*
X104582Y297838D01*
X104481Y297762D01*
X104392Y297699D01*
X104328Y297635D01*
X104277Y297597D01*
X104252Y297572D01*
X104239Y297559D01*
X104062Y297369D01*
X103922Y297178D01*
X103782Y296962D01*
X103681Y296759D01*
X103579Y296543D01*
X103503Y296327D01*
X103439Y296124D01*
X103389Y295921D01*
X103338Y295730D01*
X103312Y295565D01*
X103287Y295400D01*
X103274Y295273D01*
Y295159D01*
X103261Y295083D01*
Y295019D01*
Y295006D01*
X103274Y294740D01*
X103300Y294473D01*
X103350Y294232D01*
X103401Y294003D01*
X103477Y293775D01*
X103554Y293584D01*
X103643Y293393D01*
X103731Y293228D01*
X103808Y293076D01*
X103897Y292936D01*
X103973Y292822D01*
X104049Y292733D01*
X104100Y292657D01*
X104150Y292606D01*
X104176Y292568D01*
X104189Y292555D01*
X104366Y292390D01*
X104557Y292238D01*
X104747Y292111D01*
X104938Y291996D01*
X105128Y291908D01*
X105319Y291831D01*
X105497Y291768D01*
X105674Y291717D01*
X105840Y291666D01*
X105992Y291641D01*
X106119Y291616D01*
X106233Y291603D01*
X106335D01*
X106398Y291590D01*
X106462D01*
X106691Y291603D01*
X106894Y291616D01*
X107072Y291654D01*
X107237Y291692D01*
X107364Y291717D01*
X107465Y291755D01*
X107529Y291768D01*
X107554Y291781D01*
X107732Y291857D01*
X107910Y291958D01*
X108075Y292060D01*
X108215Y292174D01*
X108329Y292263D01*
X108418Y292339D01*
X108469Y292390D01*
X108494Y292416D01*
X108481Y292136D01*
X108469Y291895D01*
X108443Y291704D01*
X108405Y291552D01*
X108367Y291425D01*
X108342Y291349D01*
X108329Y291298D01*
X108316Y291285D01*
X108240Y291171D01*
X108151Y291069D01*
X108062Y290968D01*
X107961Y290892D01*
X107872Y290828D01*
X107795Y290790D01*
X107745Y290765D01*
X107732Y290752D01*
X107567Y290676D01*
X107389Y290625D01*
X107211Y290587D01*
X107046Y290561D01*
X106881Y290549D01*
X106767Y290536D01*
X106652D01*
X106462Y290549D01*
X106284Y290561D01*
X106119Y290587D01*
X105992Y290612D01*
X105878Y290638D01*
X105801Y290663D01*
X105738Y290688D01*
X105725D01*
X105586Y290752D01*
X105471Y290815D01*
X105357Y290879D01*
X105268Y290955D01*
X105205Y291006D01*
X105141Y291057D01*
X105116Y291095D01*
X105103Y291108D01*
X103249D01*
X103338Y290866D01*
X103439Y290650D01*
X103554Y290447D01*
X103668Y290282D01*
X103770Y290155D01*
X103846Y290053D01*
X103897Y289990D01*
X103922Y289965D01*
X104100Y289799D01*
X104303Y289647D01*
X104481Y289520D01*
X104658Y289418D01*
X104824Y289342D01*
X104938Y289291D01*
X104989Y289266D01*
X105027Y289253D01*
X105040Y289241D01*
X105052D01*
X105319Y289152D01*
X105598Y289088D01*
X105878Y289050D01*
X106132Y289025D01*
X106373Y288999D01*
X106462D01*
X106551Y288987D01*
X106716D01*
X107046Y288999D01*
X107364Y289037D01*
X107656Y289088D01*
X107922Y289152D01*
X108176Y289241D01*
X108392Y289329D01*
X108608Y289431D01*
X108786Y289533D01*
X108951Y289622D01*
X109091Y289723D01*
X109205Y289812D01*
X109307Y289901D01*
X109370Y289965D01*
X109434Y290015D01*
X109459Y290053D01*
X109472Y290066D01*
X109599Y290231D01*
X109700Y290409D01*
X109789Y290599D01*
X109866Y290790D01*
X109993Y291209D01*
X110069Y291616D01*
X110107Y291806D01*
X110119Y291984D01*
X110132Y292136D01*
X110145Y292276D01*
X110158Y292390D01*
Y298270D01*
X108494D01*
Y297521D01*
X108303Y297686D01*
X108113Y297838D01*
X107935Y297953D01*
X107783Y298054D01*
X107643Y298131D01*
X107541Y298181D01*
X107478Y298207D01*
X107452Y298220D01*
X107262Y298296D01*
X107072Y298347D01*
X106881Y298385D01*
X106716Y298410D01*
X106576Y298423D01*
X106462Y298435D01*
D02*
G37*
G36*
X128338Y286952D02*
X124108D01*
X123016Y281936D01*
X124413Y281618D01*
X124515Y281720D01*
X124604Y281796D01*
X124705Y281872D01*
X124782Y281936D01*
X124845Y281974D01*
X124896Y282012D01*
X124934Y282037D01*
X124947D01*
X125048Y282088D01*
X125150Y282126D01*
X125252Y282151D01*
X125328Y282177D01*
X125404D01*
X125455Y282190D01*
X125506D01*
X125696Y282177D01*
X125874Y282126D01*
X126026Y282062D01*
X126153Y281986D01*
X126267Y281910D01*
X126344Y281847D01*
X126395Y281796D01*
X126407Y281783D01*
X126534Y281631D01*
X126623Y281453D01*
X126699Y281288D01*
X126737Y281123D01*
X126763Y280970D01*
X126788Y280856D01*
Y280780D01*
Y280767D01*
Y280754D01*
X126776Y280526D01*
X126725Y280323D01*
X126661Y280145D01*
X126585Y279992D01*
X126509Y279878D01*
X126445Y279789D01*
X126395Y279738D01*
X126382Y279713D01*
X126229Y279573D01*
X126064Y279484D01*
X125899Y279408D01*
X125747Y279357D01*
X125607Y279332D01*
X125506Y279319D01*
X125429Y279307D01*
X125404D01*
X125252Y279319D01*
X125112Y279345D01*
X124985Y279370D01*
X124883Y279421D01*
X124782Y279459D01*
X124718Y279484D01*
X124667Y279510D01*
X124655Y279522D01*
X124528Y279611D01*
X124426Y279713D01*
X124337Y279827D01*
X124248Y279929D01*
X124197Y280018D01*
X124147Y280094D01*
X124121Y280158D01*
X124108Y280170D01*
X122305D01*
X122356Y279954D01*
X122419Y279764D01*
X122584Y279396D01*
X122673Y279243D01*
X122762Y279091D01*
X122851Y278951D01*
X122940Y278824D01*
X123029Y278722D01*
X123105Y278621D01*
X123181Y278545D01*
X123258Y278481D01*
X123308Y278418D01*
X123347Y278379D01*
X123372Y278367D01*
X123385Y278354D01*
X123537Y278240D01*
X123702Y278138D01*
X123880Y278049D01*
X124045Y277973D01*
X124375Y277859D01*
X124680Y277783D01*
X124832Y277745D01*
X124959Y277732D01*
X125074Y277719D01*
X125175Y277706D01*
X125252Y277694D01*
X125366D01*
X125607Y277706D01*
X125836Y277732D01*
X126052Y277783D01*
X126255Y277833D01*
X126445Y277897D01*
X126636Y277973D01*
X126801Y278062D01*
X126953Y278151D01*
X127093Y278227D01*
X127207Y278316D01*
X127309Y278392D01*
X127398Y278456D01*
X127474Y278507D01*
X127525Y278557D01*
X127550Y278583D01*
X127563Y278595D01*
X127728Y278773D01*
X127855Y278951D01*
X127982Y279142D01*
X128084Y279319D01*
X128173Y279510D01*
X128249Y279700D01*
X128300Y279878D01*
X128350Y280043D01*
X128388Y280208D01*
X128414Y280348D01*
X128439Y280488D01*
X128452Y280602D01*
X128465Y280691D01*
Y280818D01*
X128452Y281059D01*
X128427Y281288D01*
X128388Y281504D01*
X128338Y281707D01*
X128274Y281897D01*
X128198Y282075D01*
X128134Y282240D01*
X128058Y282380D01*
X127969Y282520D01*
X127906Y282634D01*
X127830Y282736D01*
X127766Y282812D01*
X127715Y282875D01*
X127677Y282926D01*
X127652Y282952D01*
X127639Y282964D01*
X127487Y283117D01*
X127322Y283244D01*
X127156Y283358D01*
X126979Y283447D01*
X126814Y283536D01*
X126636Y283599D01*
X126318Y283701D01*
X126166Y283739D01*
X126039Y283764D01*
X125912Y283777D01*
X125810Y283790D01*
X125721Y283802D01*
X125506D01*
X125404Y283790D01*
X125340Y283777D01*
X125315D01*
X125213Y283752D01*
X125112Y283739D01*
X125048Y283726D01*
X125036Y283713D01*
X125023D01*
X125391Y285364D01*
X128338D01*
Y286952D01*
D02*
G37*
G36*
X118711Y287181D02*
X118571D01*
X118330Y287168D01*
X118089Y287143D01*
X117873Y287104D01*
X117670Y287054D01*
X117479Y286990D01*
X117289Y286914D01*
X117123Y286838D01*
X116984Y286761D01*
X116844Y286685D01*
X116730Y286609D01*
X116628Y286533D01*
X116539Y286469D01*
X116476Y286419D01*
X116425Y286381D01*
X116400Y286355D01*
X116387Y286342D01*
X116235Y286177D01*
X116108Y286000D01*
X115993Y285822D01*
X115892Y285631D01*
X115803Y285441D01*
X115726Y285250D01*
X115612Y284882D01*
X115574Y284704D01*
X115536Y284552D01*
X115511Y284412D01*
X115498Y284285D01*
X115485Y284183D01*
X115472Y284107D01*
Y284056D01*
Y284044D01*
X117149D01*
X117174Y284298D01*
X117212Y284514D01*
X117276Y284704D01*
X117339Y284856D01*
X117416Y284984D01*
X117466Y285072D01*
X117517Y285136D01*
X117530Y285149D01*
X117670Y285288D01*
X117835Y285390D01*
X117987Y285466D01*
X118127Y285517D01*
X118266Y285542D01*
X118368Y285568D01*
X118457D01*
X118647Y285555D01*
X118825Y285517D01*
X118978Y285453D01*
X119105Y285403D01*
X119206Y285339D01*
X119283Y285276D01*
X119333Y285238D01*
X119346Y285225D01*
X119460Y285085D01*
X119549Y284945D01*
X119613Y284806D01*
X119663Y284666D01*
X119689Y284539D01*
X119702Y284450D01*
Y284387D01*
Y284361D01*
X119689Y284171D01*
X119651Y283967D01*
X119587Y283777D01*
X119537Y283612D01*
X119473Y283459D01*
X119410Y283333D01*
X119371Y283256D01*
X119359Y283244D01*
Y283231D01*
X119295Y283104D01*
X119206Y282977D01*
X119016Y282710D01*
X118787Y282431D01*
X118559Y282177D01*
X118355Y281936D01*
X118254Y281834D01*
X118178Y281745D01*
X118114Y281681D01*
X118063Y281631D01*
X118025Y281593D01*
X118013Y281580D01*
X115231Y278735D01*
Y277922D01*
X121492D01*
Y279510D01*
X118254D01*
X119270Y280577D01*
X119486Y280805D01*
X119689Y281034D01*
X119879Y281250D01*
X120044Y281453D01*
X120197Y281643D01*
X120337Y281821D01*
X120464Y281986D01*
X120565Y282139D01*
X120654Y282278D01*
X120743Y282405D01*
X120807Y282507D01*
X120857Y282596D01*
X120895Y282672D01*
X120921Y282723D01*
X120946Y282748D01*
Y282761D01*
X121099Y283104D01*
X121213Y283421D01*
X121302Y283713D01*
X121353Y283980D01*
X121378Y284095D01*
X121391Y284196D01*
X121403Y284285D01*
Y284361D01*
X121416Y284425D01*
Y284463D01*
Y284488D01*
Y284501D01*
X121403Y284755D01*
X121353Y284996D01*
X121302Y285212D01*
X121226Y285415D01*
X121162Y285580D01*
X121099Y285707D01*
X121073Y285758D01*
X121048Y285796D01*
X121035Y285809D01*
Y285822D01*
X120883Y286050D01*
X120718Y286254D01*
X120553Y286431D01*
X120387Y286571D01*
X120235Y286685D01*
X120121Y286761D01*
X120044Y286812D01*
X120032Y286825D01*
X120019D01*
X119778Y286939D01*
X119537Y287028D01*
X119283Y287092D01*
X119067Y287143D01*
X118863Y287168D01*
X118787D01*
X118711Y287181D01*
D02*
G37*
G36*
X104639D02*
X104500D01*
X104258Y287168D01*
X104017Y287143D01*
X103801Y287104D01*
X103598Y287054D01*
X103407Y286990D01*
X103217Y286914D01*
X103052Y286838D01*
X102912Y286761D01*
X102773Y286685D01*
X102658Y286609D01*
X102557Y286533D01*
X102468Y286469D01*
X102404Y286419D01*
X102353Y286381D01*
X102328Y286355D01*
X102315Y286342D01*
X102163Y286177D01*
X102036Y286000D01*
X101922Y285822D01*
X101820Y285631D01*
X101731Y285441D01*
X101655Y285250D01*
X101541Y284882D01*
X101503Y284704D01*
X101464Y284552D01*
X101439Y284412D01*
X101426Y284285D01*
X101414Y284183D01*
X101401Y284107D01*
Y284056D01*
Y284044D01*
X103077D01*
X103103Y284298D01*
X103141Y284514D01*
X103204Y284704D01*
X103268Y284856D01*
X103344Y284984D01*
X103395Y285072D01*
X103446Y285136D01*
X103458Y285149D01*
X103598Y285288D01*
X103763Y285390D01*
X103916Y285466D01*
X104055Y285517D01*
X104195Y285542D01*
X104297Y285568D01*
X104385D01*
X104576Y285555D01*
X104754Y285517D01*
X104906Y285453D01*
X105033Y285403D01*
X105135Y285339D01*
X105211Y285276D01*
X105262Y285238D01*
X105274Y285225D01*
X105389Y285085D01*
X105478Y284945D01*
X105541Y284806D01*
X105592Y284666D01*
X105617Y284539D01*
X105630Y284450D01*
Y284387D01*
Y284361D01*
X105617Y284171D01*
X105579Y283967D01*
X105516Y283777D01*
X105465Y283612D01*
X105401Y283459D01*
X105338Y283333D01*
X105300Y283256D01*
X105287Y283244D01*
Y283231D01*
X105224Y283104D01*
X105135Y282977D01*
X104944Y282710D01*
X104716Y282431D01*
X104487Y282177D01*
X104284Y281936D01*
X104182Y281834D01*
X104106Y281745D01*
X104043Y281681D01*
X103992Y281631D01*
X103954Y281593D01*
X103941Y281580D01*
X101160Y278735D01*
Y277922D01*
X107421D01*
Y279510D01*
X104182D01*
X105198Y280577D01*
X105414Y280805D01*
X105617Y281034D01*
X105808Y281250D01*
X105973Y281453D01*
X106125Y281643D01*
X106265Y281821D01*
X106392Y281986D01*
X106494Y282139D01*
X106582Y282278D01*
X106671Y282405D01*
X106735Y282507D01*
X106786Y282596D01*
X106824Y282672D01*
X106849Y282723D01*
X106875Y282748D01*
Y282761D01*
X107027Y283104D01*
X107141Y283421D01*
X107230Y283713D01*
X107281Y283980D01*
X107306Y284095D01*
X107319Y284196D01*
X107332Y284285D01*
Y284361D01*
X107345Y284425D01*
Y284463D01*
Y284488D01*
Y284501D01*
X107332Y284755D01*
X107281Y284996D01*
X107230Y285212D01*
X107154Y285415D01*
X107091Y285580D01*
X107027Y285707D01*
X107002Y285758D01*
X106976Y285796D01*
X106964Y285809D01*
Y285822D01*
X106811Y286050D01*
X106646Y286254D01*
X106481Y286431D01*
X106316Y286571D01*
X106163Y286685D01*
X106049Y286761D01*
X105973Y286812D01*
X105960Y286825D01*
X105948D01*
X105706Y286939D01*
X105465Y287028D01*
X105211Y287092D01*
X104995Y287143D01*
X104792Y287168D01*
X104716D01*
X104639Y287181D01*
D02*
G37*
G36*
X111523D02*
X111421D01*
X111142Y287168D01*
X110888Y287130D01*
X110646Y287066D01*
X110418Y286990D01*
X110202Y286901D01*
X110012Y286787D01*
X109834Y286685D01*
X109669Y286571D01*
X109529Y286444D01*
X109415Y286342D01*
X109300Y286241D01*
X109211Y286139D01*
X109148Y286063D01*
X109097Y286000D01*
X109072Y285961D01*
X109059Y285949D01*
X108919Y285720D01*
X108805Y285479D01*
X108703Y285199D01*
X108615Y284920D01*
X108551Y284615D01*
X108488Y284323D01*
X108437Y284018D01*
X108399Y283726D01*
X108361Y283447D01*
X108335Y283193D01*
X108322Y282952D01*
X108310Y282748D01*
X108297Y282583D01*
Y282024D01*
X108310Y281720D01*
X108335Y281427D01*
X108361Y281161D01*
X108386Y280919D01*
X108424Y280691D01*
X108449Y280488D01*
X108488Y280310D01*
X108526Y280145D01*
X108564Y279992D01*
X108589Y279878D01*
X108615Y279776D01*
X108640Y279700D01*
X108665Y279650D01*
X108678Y279611D01*
Y279599D01*
X108843Y279256D01*
X109008Y278964D01*
X109199Y278722D01*
X109364Y278519D01*
X109516Y278367D01*
X109643Y278253D01*
X109694Y278214D01*
X109732Y278189D01*
X109745Y278164D01*
X109757D01*
X110037Y278011D01*
X110316Y277897D01*
X110608Y277808D01*
X110875Y277757D01*
X111116Y277719D01*
X111218Y277706D01*
X111307D01*
X111370Y277694D01*
X111472D01*
X111840Y277719D01*
X112158Y277770D01*
X112450Y277833D01*
X112691Y277922D01*
X112793Y277960D01*
X112882Y278011D01*
X112971Y278049D01*
X113034Y278075D01*
X113085Y278113D01*
X113123Y278125D01*
X113136Y278151D01*
X113148D01*
X113390Y278354D01*
X113606Y278583D01*
X113783Y278824D01*
X113936Y279065D01*
X114050Y279281D01*
X114101Y279383D01*
X114139Y279459D01*
X114177Y279522D01*
X114202Y279586D01*
X114215Y279611D01*
Y279624D01*
X114291Y279827D01*
X114355Y280030D01*
X114457Y280488D01*
X114520Y280958D01*
X114571Y281402D01*
X114584Y281618D01*
X114596Y281808D01*
X114609Y281986D01*
X114622Y282139D01*
Y282761D01*
X114609Y283066D01*
X114584Y283345D01*
X114558Y283612D01*
X114533Y283866D01*
X114495Y284095D01*
X114457Y284298D01*
X114431Y284488D01*
X114393Y284653D01*
X114355Y284793D01*
X114317Y284920D01*
X114291Y285022D01*
X114266Y285098D01*
X114241Y285149D01*
X114228Y285187D01*
Y285199D01*
X114063Y285555D01*
X113885Y285860D01*
X113707Y286114D01*
X113529Y286317D01*
X113364Y286482D01*
X113237Y286596D01*
X113187Y286635D01*
X113148Y286660D01*
X113136Y286685D01*
X113123D01*
X112844Y286850D01*
X112551Y286977D01*
X112272Y287066D01*
X112005Y287117D01*
X111777Y287155D01*
X111675Y287168D01*
X111586D01*
X111523Y287181D01*
D02*
G37*
%LPD*%
G36*
X108183Y308331D02*
X108437Y308268D01*
X108665Y308179D01*
X108856Y308090D01*
X109008Y307988D01*
X109122Y307899D01*
X109186Y307836D01*
X109211Y307823D01*
Y307810D01*
X109389Y307595D01*
X109516Y307366D01*
X109605Y307125D01*
X109669Y306909D01*
X109707Y306706D01*
X109719Y306617D01*
Y306541D01*
X109732Y306490D01*
Y306439D01*
Y306413D01*
Y306401D01*
X109707Y306083D01*
X109656Y305804D01*
X109567Y305563D01*
X109478Y305347D01*
X109376Y305182D01*
X109288Y305067D01*
X109237Y304991D01*
X109211Y304978D01*
Y304966D01*
X109110Y304864D01*
X109008Y304788D01*
X108780Y304648D01*
X108564Y304559D01*
X108361Y304483D01*
X108170Y304445D01*
X108030Y304432D01*
X107967Y304420D01*
X107891D01*
X107751Y304432D01*
X107611Y304445D01*
X107370Y304508D01*
X107154Y304597D01*
X106964Y304699D01*
X106811Y304788D01*
X106697Y304877D01*
X106633Y304940D01*
X106621Y304966D01*
X106608D01*
X106430Y305182D01*
X106303Y305423D01*
X106214Y305664D01*
X106151Y305893D01*
X106113Y306083D01*
X106100Y306172D01*
Y306248D01*
X106087Y306299D01*
Y306350D01*
Y306375D01*
Y306388D01*
X106113Y306693D01*
X106163Y306972D01*
X106252Y307214D01*
X106341Y307417D01*
X106430Y307582D01*
X106519Y307696D01*
X106570Y307772D01*
X106595Y307798D01*
X106697Y307899D01*
X106798Y307988D01*
X107014Y308115D01*
X107230Y308217D01*
X107433Y308293D01*
X107624Y308331D01*
X107764Y308344D01*
X107814Y308357D01*
X108043D01*
X108183Y308331D01*
D02*
G37*
G36*
X95851D02*
X96105Y308268D01*
X96334Y308179D01*
X96524Y308090D01*
X96677Y307988D01*
X96791Y307899D01*
X96854Y307836D01*
X96880Y307823D01*
Y307810D01*
X97058Y307595D01*
X97184Y307366D01*
X97273Y307125D01*
X97337Y306909D01*
X97375Y306706D01*
X97388Y306617D01*
Y306541D01*
X97400Y306490D01*
Y306439D01*
Y306413D01*
Y306401D01*
X97375Y306083D01*
X97324Y305804D01*
X97235Y305563D01*
X97146Y305347D01*
X97045Y305182D01*
X96956Y305067D01*
X96905Y304991D01*
X96880Y304978D01*
Y304966D01*
X96778Y304864D01*
X96677Y304788D01*
X96448Y304648D01*
X96232Y304559D01*
X96029Y304483D01*
X95838Y304445D01*
X95699Y304432D01*
X95635Y304420D01*
X95559D01*
X95419Y304432D01*
X95280Y304445D01*
X95038Y304508D01*
X94822Y304597D01*
X94632Y304699D01*
X94479Y304788D01*
X94365Y304877D01*
X94302Y304940D01*
X94289Y304966D01*
X94276D01*
X94098Y305182D01*
X93971Y305423D01*
X93883Y305664D01*
X93819Y305893D01*
X93781Y306083D01*
X93768Y306172D01*
Y306248D01*
X93756Y306299D01*
Y306350D01*
Y306375D01*
Y306388D01*
X93781Y306693D01*
X93832Y306972D01*
X93921Y307214D01*
X94010Y307417D01*
X94098Y307582D01*
X94187Y307696D01*
X94238Y307772D01*
X94263Y307798D01*
X94365Y307899D01*
X94467Y307988D01*
X94683Y308115D01*
X94899Y308217D01*
X95102Y308293D01*
X95292Y308331D01*
X95432Y308344D01*
X95483Y308357D01*
X95711D01*
X95851Y308331D01*
D02*
G37*
G36*
X88002Y310389D02*
X88167Y310376D01*
X88294Y310350D01*
X88396Y310338D01*
X88460Y310312D01*
X88498Y310300D01*
X88510D01*
X88688Y310211D01*
X88815Y310109D01*
X88866Y310058D01*
X88904Y310020D01*
X88917Y309995D01*
X88930Y309982D01*
X88980Y309893D01*
X89031Y309817D01*
X89069Y309652D01*
X89082Y309576D01*
X89095Y309525D01*
Y309487D01*
Y309474D01*
X89082Y309296D01*
X89044Y309144D01*
X88993Y309017D01*
X88942Y308928D01*
X88879Y308852D01*
X88828Y308788D01*
X88790Y308763D01*
X88777Y308750D01*
X88637Y308687D01*
X88460Y308636D01*
X88282Y308598D01*
X88091Y308573D01*
X87914Y308560D01*
X87774Y308547D01*
X87101D01*
Y310401D01*
X87812D01*
X88002Y310389D01*
D02*
G37*
G36*
X135926Y296873D02*
X136180Y296810D01*
X136409Y296721D01*
X136599Y296632D01*
X136751Y296530D01*
X136866Y296441D01*
X136929Y296378D01*
X136955Y296365D01*
Y296353D01*
X137132Y296137D01*
X137259Y295908D01*
X137348Y295667D01*
X137412Y295451D01*
X137450Y295248D01*
X137463Y295159D01*
Y295083D01*
X137475Y295032D01*
Y294981D01*
Y294956D01*
Y294943D01*
X137450Y294625D01*
X137399Y294346D01*
X137310Y294105D01*
X137221Y293889D01*
X137120Y293724D01*
X137031Y293609D01*
X136980Y293533D01*
X136955Y293521D01*
Y293508D01*
X136853Y293406D01*
X136751Y293330D01*
X136523Y293190D01*
X136307Y293101D01*
X136104Y293025D01*
X135913Y292987D01*
X135773Y292974D01*
X135710Y292962D01*
X135634D01*
X135494Y292974D01*
X135354Y292987D01*
X135113Y293051D01*
X134897Y293139D01*
X134707Y293241D01*
X134554Y293330D01*
X134440Y293419D01*
X134376Y293482D01*
X134364Y293508D01*
X134351D01*
X134173Y293724D01*
X134046Y293965D01*
X133957Y294206D01*
X133894Y294435D01*
X133856Y294625D01*
X133843Y294714D01*
Y294790D01*
X133830Y294841D01*
Y294892D01*
Y294918D01*
Y294930D01*
X133856Y295235D01*
X133907Y295514D01*
X133996Y295756D01*
X134084Y295959D01*
X134173Y296124D01*
X134262Y296238D01*
X134313Y296315D01*
X134338Y296340D01*
X134440Y296441D01*
X134542Y296530D01*
X134757Y296657D01*
X134973Y296759D01*
X135177Y296835D01*
X135367Y296873D01*
X135507Y296886D01*
X135558Y296899D01*
X135786D01*
X135926Y296873D01*
D02*
G37*
G36*
X84631D02*
X84885Y296810D01*
X85113Y296721D01*
X85304Y296632D01*
X85456Y296530D01*
X85570Y296441D01*
X85634Y296378D01*
X85659Y296365D01*
Y296353D01*
X85837Y296137D01*
X85964Y295908D01*
X86053Y295667D01*
X86117Y295451D01*
X86155Y295248D01*
X86167Y295159D01*
Y295083D01*
X86180Y295032D01*
Y294981D01*
Y294956D01*
Y294943D01*
X86155Y294625D01*
X86104Y294346D01*
X86015Y294105D01*
X85926Y293889D01*
X85824Y293724D01*
X85736Y293609D01*
X85685Y293533D01*
X85659Y293521D01*
Y293508D01*
X85558Y293406D01*
X85456Y293330D01*
X85227Y293190D01*
X85012Y293101D01*
X84808Y293025D01*
X84618Y292987D01*
X84478Y292974D01*
X84415Y292962D01*
X84339D01*
X84199Y292974D01*
X84059Y292987D01*
X83818Y293051D01*
X83602Y293139D01*
X83411Y293241D01*
X83259Y293330D01*
X83145Y293419D01*
X83081Y293482D01*
X83069Y293508D01*
X83056D01*
X82878Y293724D01*
X82751Y293965D01*
X82662Y294206D01*
X82599Y294435D01*
X82561Y294625D01*
X82548Y294714D01*
Y294790D01*
X82535Y294841D01*
Y294892D01*
Y294918D01*
Y294930D01*
X82561Y295235D01*
X82611Y295514D01*
X82700Y295756D01*
X82789Y295959D01*
X82878Y296124D01*
X82967Y296238D01*
X83018Y296315D01*
X83043Y296340D01*
X83145Y296441D01*
X83246Y296530D01*
X83462Y296657D01*
X83678Y296759D01*
X83881Y296835D01*
X84072Y296873D01*
X84212Y296886D01*
X84262Y296899D01*
X84491D01*
X84631Y296873D01*
D02*
G37*
G36*
X76782Y298931D02*
X76947Y298918D01*
X77074Y298893D01*
X77176Y298880D01*
X77239Y298855D01*
X77277Y298842D01*
X77290D01*
X77468Y298753D01*
X77595Y298651D01*
X77646Y298601D01*
X77684Y298562D01*
X77696Y298537D01*
X77709Y298524D01*
X77760Y298435D01*
X77811Y298359D01*
X77849Y298194D01*
X77861Y298118D01*
X77874Y298067D01*
Y298029D01*
Y298016D01*
X77861Y297838D01*
X77823Y297686D01*
X77773Y297559D01*
X77722Y297470D01*
X77658Y297394D01*
X77607Y297330D01*
X77569Y297305D01*
X77557Y297292D01*
X77417Y297229D01*
X77239Y297178D01*
X77061Y297140D01*
X76871Y297115D01*
X76693Y297102D01*
X76553Y297089D01*
X75880D01*
Y298943D01*
X76592D01*
X76782Y298931D01*
D02*
G37*
G36*
X95934Y296988D02*
X96150Y296950D01*
X96353Y296886D01*
X96518Y296835D01*
X96645Y296772D01*
X96746Y296708D01*
X96810Y296670D01*
X96835Y296657D01*
X97013Y296518D01*
X97153Y296378D01*
X97267Y296226D01*
X97356Y296086D01*
X97432Y295959D01*
X97470Y295857D01*
X97496Y295794D01*
X97508Y295781D01*
Y295768D01*
X93863D01*
X93965Y295972D01*
X94079Y296149D01*
X94181Y296302D01*
X94270Y296416D01*
X94359Y296505D01*
X94422Y296556D01*
X94460Y296594D01*
X94473Y296607D01*
X94676Y296734D01*
X94892Y296835D01*
X95095Y296899D01*
X95286Y296950D01*
X95451Y296975D01*
X95591Y297000D01*
X95705D01*
X95934Y296988D01*
D02*
G37*
G36*
X107033Y296848D02*
X107287Y296784D01*
X107503Y296708D01*
X107694Y296607D01*
X107846Y296505D01*
X107961Y296429D01*
X108024Y296365D01*
X108049Y296340D01*
X108227Y296137D01*
X108354Y295908D01*
X108443Y295679D01*
X108507Y295464D01*
X108545Y295273D01*
X108557Y295197D01*
Y295121D01*
X108570Y295057D01*
Y295019D01*
Y294994D01*
Y294981D01*
X108545Y294676D01*
X108494Y294410D01*
X108405Y294181D01*
X108316Y293990D01*
X108227Y293825D01*
X108138Y293711D01*
X108088Y293647D01*
X108062Y293622D01*
X107859Y293444D01*
X107643Y293317D01*
X107427Y293228D01*
X107224Y293165D01*
X107046Y293127D01*
X106894Y293114D01*
X106843Y293101D01*
X106767D01*
X106487Y293127D01*
X106233Y293190D01*
X106005Y293267D01*
X105814Y293368D01*
X105662Y293470D01*
X105548Y293546D01*
X105471Y293609D01*
X105446Y293635D01*
X105268Y293851D01*
X105141Y294067D01*
X105052Y294295D01*
X104989Y294511D01*
X104951Y294702D01*
X104938Y294790D01*
Y294854D01*
X104925Y294918D01*
Y294956D01*
Y294981D01*
Y294994D01*
X104951Y295286D01*
X105001Y295553D01*
X105090Y295781D01*
X105179Y295972D01*
X105268Y296124D01*
X105357Y296238D01*
X105408Y296315D01*
X105433Y296340D01*
X105636Y296518D01*
X105852Y296645D01*
X106081Y296746D01*
X106284Y296810D01*
X106462Y296848D01*
X106614Y296861D01*
X106665Y296873D01*
X106741D01*
X107033Y296848D01*
D02*
G37*
G36*
X111574Y285530D02*
X111688Y285517D01*
X111891Y285441D01*
X112069Y285326D01*
X112221Y285212D01*
X112336Y285085D01*
X112424Y284971D01*
X112488Y284895D01*
X112501Y284882D01*
Y284869D01*
X112577Y284729D01*
X112640Y284577D01*
X112691Y284399D01*
X112742Y284209D01*
X112806Y283802D01*
X112856Y283396D01*
X112869Y283193D01*
X112882Y283015D01*
X112894Y282850D01*
X112907Y282710D01*
Y282583D01*
Y282494D01*
Y282444D01*
Y282418D01*
Y282101D01*
X112882Y281808D01*
X112869Y281542D01*
X112831Y281288D01*
X112806Y281059D01*
X112767Y280856D01*
X112717Y280678D01*
X112678Y280513D01*
X112640Y280373D01*
X112590Y280246D01*
X112551Y280145D01*
X112526Y280056D01*
X112488Y279992D01*
X112475Y279954D01*
X112450Y279929D01*
Y279916D01*
X112386Y279815D01*
X112310Y279713D01*
X112145Y279561D01*
X111980Y279459D01*
X111828Y279383D01*
X111675Y279345D01*
X111561Y279319D01*
X111485Y279307D01*
X111459D01*
X111345Y279319D01*
X111231Y279332D01*
X111027Y279408D01*
X110837Y279510D01*
X110685Y279637D01*
X110570Y279751D01*
X110481Y279853D01*
X110431Y279929D01*
X110405Y279942D01*
Y279954D01*
X110342Y280094D01*
X110278Y280246D01*
X110227Y280411D01*
X110177Y280602D01*
X110113Y280983D01*
X110062Y281377D01*
X110050Y281567D01*
X110037Y281745D01*
X110024Y281897D01*
Y282037D01*
X110012Y282151D01*
Y282240D01*
Y282304D01*
Y282316D01*
Y282558D01*
X110024Y282774D01*
Y282990D01*
X110037Y283180D01*
X110050Y283358D01*
X110062Y283523D01*
X110075Y283663D01*
X110100Y283802D01*
X110113Y283917D01*
X110126Y284018D01*
X110139Y284107D01*
X110151Y284171D01*
X110164Y284221D01*
Y284272D01*
X110177Y284285D01*
Y284298D01*
X110253Y284539D01*
X110329Y284742D01*
X110418Y284907D01*
X110494Y285034D01*
X110570Y285136D01*
X110634Y285212D01*
X110672Y285250D01*
X110685Y285263D01*
X110812Y285352D01*
X110951Y285428D01*
X111078Y285479D01*
X111205Y285504D01*
X111307Y285530D01*
X111383Y285542D01*
X111459D01*
X111574Y285530D01*
D02*
G37*
%LPC*%
G36*
X22758Y147923D02*
X22643D01*
X22402Y147910D01*
X22161Y147898D01*
X21704Y147821D01*
X21285Y147720D01*
X21094Y147656D01*
X20916Y147605D01*
X20751Y147542D01*
X20612Y147478D01*
X20484Y147428D01*
X20383Y147377D01*
X20294Y147339D01*
X20231Y147301D01*
X20192Y147288D01*
X20180Y147275D01*
X19786Y147021D01*
X19596Y146882D01*
X19430Y146742D01*
X19278Y146602D01*
X19138Y146462D01*
X18999Y146323D01*
X18884Y146196D01*
X18783Y146069D01*
X18694Y145954D01*
X18618Y145853D01*
X18554Y145764D01*
X18503Y145688D01*
X18465Y145637D01*
X18453Y145599D01*
X18440Y145586D01*
X18338Y145383D01*
X18237Y145180D01*
X18084Y144773D01*
X17983Y144367D01*
X17906Y143999D01*
X17881Y143821D01*
X17868Y143668D01*
X17843Y143529D01*
Y143414D01*
X17830Y143313D01*
Y143186D01*
X17843Y142805D01*
X17894Y142437D01*
X17957Y142094D01*
X18033Y141776D01*
X18135Y141471D01*
X18249Y141192D01*
X18376Y140938D01*
X18503Y140697D01*
X18618Y140481D01*
X18745Y140303D01*
X18859Y140138D01*
X18960Y140011D01*
X19037Y139909D01*
X19113Y139833D01*
X19151Y139782D01*
X19164Y139769D01*
X19430Y139541D01*
X19697Y139325D01*
X19977Y139147D01*
X20269Y138995D01*
X20561Y138868D01*
X20853Y138766D01*
X21132Y138677D01*
X21399Y138601D01*
X21653Y138550D01*
X21881Y138512D01*
X22085Y138474D01*
X22262Y138461D01*
X22415Y138449D01*
X22529Y138436D01*
X22618D01*
X23037Y138449D01*
X23418Y138499D01*
X23761Y138550D01*
X23914Y138588D01*
X24066Y138626D01*
X24193Y138652D01*
X24307Y138690D01*
X24409Y138715D01*
X24498Y138753D01*
X24561Y138766D01*
X24612Y138792D01*
X24637Y138804D01*
X24650D01*
X24815Y138881D01*
X24993Y138969D01*
X25323Y139173D01*
X25641Y139401D01*
X25933Y139630D01*
X26060Y139731D01*
X26174Y139833D01*
X26288Y139922D01*
X26377Y140011D01*
X26441Y140074D01*
X26504Y140125D01*
X26530Y140150D01*
X26542Y140163D01*
X25374Y141382D01*
X25095Y141128D01*
X24841Y140913D01*
X24612Y140735D01*
X24409Y140595D01*
X24244Y140493D01*
X24117Y140417D01*
X24066Y140392D01*
X24028Y140379D01*
X24015Y140366D01*
X24002D01*
X23774Y140278D01*
X23533Y140214D01*
X23304Y140163D01*
X23101Y140138D01*
X22910Y140112D01*
X22771Y140100D01*
X22643D01*
X22326Y140112D01*
X22021Y140163D01*
X21755Y140227D01*
X21513Y140303D01*
X21323Y140366D01*
X21234Y140405D01*
X21170Y140430D01*
X21119Y140455D01*
X21081Y140481D01*
X21056Y140493D01*
X21043D01*
X20789Y140659D01*
X20561Y140836D01*
X20370Y141014D01*
X20218Y141192D01*
X20091Y141344D01*
X20002Y141471D01*
X19964Y141522D01*
X19938Y141560D01*
X19926Y141573D01*
Y141586D01*
X19799Y141852D01*
X19710Y142132D01*
X19634Y142398D01*
X19596Y142652D01*
X19570Y142868D01*
X19557Y142957D01*
Y143033D01*
X19545Y143097D01*
Y143148D01*
Y143173D01*
Y143186D01*
X19557Y143427D01*
X19583Y143656D01*
X19621Y143872D01*
X19684Y144075D01*
X19748Y144265D01*
X19824Y144443D01*
X19900Y144608D01*
X19989Y144761D01*
X20065Y144900D01*
X20142Y145027D01*
X20218Y145129D01*
X20281Y145218D01*
X20345Y145281D01*
X20383Y145332D01*
X20408Y145358D01*
X20421Y145370D01*
X20586Y145523D01*
X20777Y145662D01*
X20954Y145777D01*
X21132Y145891D01*
X21323Y145967D01*
X21500Y146043D01*
X21678Y146107D01*
X21843Y146145D01*
X22009Y146183D01*
X22148Y146208D01*
X22275Y146234D01*
X22390Y146247D01*
X22478Y146259D01*
X22605D01*
X22885Y146247D01*
X23164Y146208D01*
X23431Y146145D01*
X23685Y146056D01*
X23926Y145954D01*
X24155Y145853D01*
X24371Y145738D01*
X24561Y145611D01*
X24739Y145497D01*
X24904Y145370D01*
X25044Y145269D01*
X25158Y145167D01*
X25247Y145078D01*
X25323Y145015D01*
X25361Y144977D01*
X25374Y144964D01*
X26581Y146107D01*
X26288Y146412D01*
X25984Y146678D01*
X25679Y146907D01*
X25399Y147097D01*
X25158Y147250D01*
X25057Y147301D01*
X24968Y147351D01*
X24891Y147389D01*
X24841Y147415D01*
X24802Y147440D01*
X24790D01*
X24409Y147605D01*
X24015Y147720D01*
X23660Y147809D01*
X23329Y147859D01*
X23190Y147885D01*
X23050Y147898D01*
X22936Y147910D01*
X22834D01*
X22758Y147923D01*
D02*
G37*
G36*
X42341Y147694D02*
X40639D01*
Y141751D01*
X36753Y147694D01*
X35128D01*
Y138665D01*
X36829D01*
Y144583D01*
X40690Y138665D01*
X42341D01*
Y147694D01*
D02*
G37*
G36*
X66801D02*
X65074D01*
Y142068D01*
Y141903D01*
Y141751D01*
X65061Y141611D01*
X65049Y141484D01*
X65036Y141268D01*
X65011Y141103D01*
X64985Y140976D01*
X64973Y140887D01*
X64947Y140836D01*
Y140824D01*
X64896Y140709D01*
X64820Y140608D01*
X64744Y140519D01*
X64668Y140443D01*
X64604Y140379D01*
X64541Y140341D01*
X64503Y140316D01*
X64490Y140303D01*
X64363Y140239D01*
X64223Y140189D01*
X64096Y140150D01*
X63969Y140125D01*
X63868Y140112D01*
X63779Y140100D01*
X63703D01*
X63550Y140112D01*
X63411Y140125D01*
X63284Y140150D01*
X63169Y140189D01*
X63080Y140227D01*
X63017Y140252D01*
X62979Y140265D01*
X62966Y140278D01*
X62864Y140354D01*
X62776Y140430D01*
X62699Y140519D01*
X62636Y140595D01*
X62585Y140671D01*
X62560Y140722D01*
X62547Y140760D01*
X62534Y140773D01*
X62496Y140913D01*
X62458Y141078D01*
X62433Y141255D01*
X62420Y141433D01*
Y141598D01*
X62407Y141725D01*
Y141776D01*
Y141814D01*
Y141840D01*
Y141852D01*
Y147694D01*
X60680D01*
Y142017D01*
X60693Y141751D01*
X60705Y141497D01*
X60731Y141268D01*
X60756Y141052D01*
X60782Y140874D01*
X60807Y140697D01*
X60832Y140557D01*
X60858Y140417D01*
X60883Y140316D01*
X60909Y140214D01*
X60934Y140138D01*
X60959Y140087D01*
X60972Y140049D01*
X60985Y140023D01*
Y140011D01*
X61125Y139769D01*
X61277Y139554D01*
X61455Y139363D01*
X61620Y139198D01*
X61785Y139058D01*
X61912Y138957D01*
X61963Y138931D01*
X62001Y138906D01*
X62014Y138881D01*
X62026D01*
X62306Y138728D01*
X62610Y138626D01*
X62890Y138550D01*
X63156Y138487D01*
X63398Y138461D01*
X63487Y138449D01*
X63576D01*
X63652Y138436D01*
X63741D01*
X64007Y138449D01*
X64261Y138474D01*
X64490Y138512D01*
X64681Y138550D01*
X64833Y138588D01*
X64947Y138626D01*
X65023Y138652D01*
X65049Y138665D01*
X65252Y138766D01*
X65443Y138881D01*
X65620Y138995D01*
X65760Y139122D01*
X65887Y139223D01*
X65976Y139312D01*
X66027Y139363D01*
X66052Y139389D01*
X66205Y139579D01*
X66332Y139757D01*
X66433Y139922D01*
X66509Y140087D01*
X66560Y140214D01*
X66611Y140316D01*
X66624Y140379D01*
X66636Y140405D01*
X66662Y140519D01*
X66687Y140646D01*
X66712Y140773D01*
X66738Y140925D01*
X66763Y141243D01*
X66776Y141560D01*
X66789Y141713D01*
Y141852D01*
X66801Y141979D01*
Y147694D01*
D02*
G37*
G36*
X72897D02*
X67906D01*
Y146005D01*
X69507D01*
Y138665D01*
X71246D01*
Y146005D01*
X72897D01*
Y147694D01*
D02*
G37*
G36*
X33184D02*
X31483D01*
Y138665D01*
X33184D01*
Y147694D01*
D02*
G37*
G36*
X17094D02*
X12103D01*
Y146005D01*
X13703D01*
Y138665D01*
X15443D01*
Y146005D01*
X17094D01*
Y147694D01*
D02*
G37*
G36*
X54533Y147923D02*
X54444D01*
X54216Y147910D01*
X53987Y147898D01*
X53543Y147821D01*
X53149Y147720D01*
X52958Y147656D01*
X52793Y147605D01*
X52641Y147542D01*
X52501Y147478D01*
X52374Y147428D01*
X52273Y147377D01*
X52196Y147339D01*
X52133Y147301D01*
X52095Y147288D01*
X52082Y147275D01*
X51701Y147021D01*
X51358Y146742D01*
X51066Y146450D01*
X50926Y146310D01*
X50812Y146170D01*
X50711Y146043D01*
X50622Y145929D01*
X50545Y145827D01*
X50482Y145726D01*
X50431Y145650D01*
X50393Y145599D01*
X50380Y145561D01*
X50368Y145548D01*
X50253Y145345D01*
X50164Y145142D01*
X50075Y144926D01*
X50012Y144722D01*
X49898Y144329D01*
X49822Y143961D01*
X49796Y143795D01*
X49783Y143643D01*
X49771Y143503D01*
X49758Y143389D01*
X49745Y143300D01*
Y143173D01*
X49758Y142817D01*
X49809Y142475D01*
X49872Y142144D01*
X49949Y141840D01*
X50050Y141547D01*
X50164Y141268D01*
X50291Y141014D01*
X50418Y140786D01*
X50533Y140570D01*
X50660Y140379D01*
X50774Y140214D01*
X50876Y140087D01*
X50952Y139973D01*
X51028Y139896D01*
X51066Y139846D01*
X51079Y139833D01*
X51333Y139592D01*
X51612Y139376D01*
X51892Y139185D01*
X52171Y139020D01*
X52463Y138893D01*
X52743Y138779D01*
X53009Y138690D01*
X53276Y138614D01*
X53517Y138550D01*
X53746Y138512D01*
X53949Y138474D01*
X54114Y138461D01*
X54267Y138449D01*
X54368Y138436D01*
X54457D01*
X54813Y138449D01*
X55156Y138499D01*
X55486Y138563D01*
X55791Y138652D01*
X56083Y138753D01*
X56362Y138868D01*
X56603Y138995D01*
X56832Y139122D01*
X57048Y139249D01*
X57226Y139363D01*
X57391Y139477D01*
X57518Y139579D01*
X57619Y139668D01*
X57695Y139731D01*
X57746Y139782D01*
X57759Y139795D01*
X58000Y140062D01*
X58216Y140328D01*
X58394Y140608D01*
X58546Y140900D01*
X58686Y141179D01*
X58800Y141459D01*
X58889Y141725D01*
X58966Y141992D01*
X59016Y142233D01*
X59054Y142449D01*
X59092Y142652D01*
X59105Y142817D01*
X59118Y142957D01*
X59131Y143059D01*
Y143148D01*
X59118Y143516D01*
X59067Y143872D01*
X59004Y144202D01*
X58915Y144519D01*
X58813Y144811D01*
X58699Y145091D01*
X58572Y145345D01*
X58445Y145586D01*
X58305Y145802D01*
X58191Y145980D01*
X58064Y146145D01*
X57962Y146285D01*
X57873Y146386D01*
X57810Y146462D01*
X57759Y146513D01*
X57746Y146526D01*
X57480Y146767D01*
X57213Y146983D01*
X56933Y147174D01*
X56641Y147339D01*
X56362Y147466D01*
X56095Y147580D01*
X55829Y147669D01*
X55575Y147745D01*
X55346Y147809D01*
X55130Y147847D01*
X54927Y147885D01*
X54762Y147898D01*
X54635Y147910D01*
X54533Y147923D01*
D02*
G37*
G36*
X48894Y147948D02*
X47701D01*
X43637Y137052D01*
X44830D01*
X48894Y147948D01*
D02*
G37*
%LPD*%
G36*
X54660Y146234D02*
X54876Y146208D01*
X55092Y146158D01*
X55283Y146107D01*
X55473Y146043D01*
X55651Y145967D01*
X55803Y145878D01*
X55956Y145802D01*
X56083Y145713D01*
X56197Y145624D01*
X56298Y145548D01*
X56387Y145485D01*
X56451Y145434D01*
X56502Y145383D01*
X56527Y145358D01*
X56540Y145345D01*
X56692Y145180D01*
X56832Y145002D01*
X56946Y144811D01*
X57048Y144634D01*
X57137Y144443D01*
X57200Y144265D01*
X57264Y144087D01*
X57302Y143922D01*
X57340Y143757D01*
X57365Y143618D01*
X57391Y143491D01*
X57403Y143376D01*
X57416Y143287D01*
Y143224D01*
Y143173D01*
Y143160D01*
X57403Y142919D01*
X57378Y142690D01*
X57340Y142475D01*
X57276Y142271D01*
X57213Y142081D01*
X57149Y141903D01*
X57060Y141738D01*
X56984Y141586D01*
X56908Y141446D01*
X56832Y141332D01*
X56756Y141217D01*
X56692Y141141D01*
X56629Y141065D01*
X56591Y141014D01*
X56565Y140989D01*
X56553Y140976D01*
X56387Y140824D01*
X56210Y140684D01*
X56045Y140570D01*
X55867Y140468D01*
X55689Y140379D01*
X55511Y140316D01*
X55346Y140252D01*
X55181Y140214D01*
X55029Y140176D01*
X54889Y140150D01*
X54774Y140125D01*
X54660Y140112D01*
X54571Y140100D01*
X54457D01*
X54254Y140112D01*
X54063Y140125D01*
X53695Y140201D01*
X53377Y140316D01*
X53085Y140443D01*
X52958Y140493D01*
X52857Y140557D01*
X52755Y140620D01*
X52679Y140671D01*
X52615Y140709D01*
X52565Y140747D01*
X52539Y140760D01*
X52527Y140773D01*
X52336Y140951D01*
X52171Y141128D01*
X52031Y141319D01*
X51904Y141509D01*
X51803Y141713D01*
X51726Y141916D01*
X51650Y142106D01*
X51599Y142284D01*
X51549Y142462D01*
X51511Y142627D01*
X51498Y142779D01*
X51473Y142906D01*
Y143008D01*
X51460Y143084D01*
Y143135D01*
Y143148D01*
X51473Y143389D01*
X51498Y143630D01*
X51536Y143859D01*
X51599Y144062D01*
X51663Y144265D01*
X51726Y144443D01*
X51803Y144608D01*
X51892Y144761D01*
X51968Y144900D01*
X52044Y145027D01*
X52108Y145129D01*
X52184Y145218D01*
X52235Y145281D01*
X52273Y145332D01*
X52298Y145358D01*
X52311Y145370D01*
X52476Y145523D01*
X52641Y145662D01*
X52819Y145777D01*
X52997Y145878D01*
X53174Y145967D01*
X53352Y146031D01*
X53530Y146094D01*
X53695Y146132D01*
X53847Y146170D01*
X53987Y146196D01*
X54114Y146221D01*
X54216Y146234D01*
X54305Y146247D01*
X54432D01*
X54660Y146234D01*
D02*
G37*
%LPC*%
G36*
X387450Y254743D02*
X387336D01*
X387145Y254731D01*
X386954Y254718D01*
X386612Y254642D01*
X386320Y254528D01*
X386053Y254413D01*
X385951Y254350D01*
X385850Y254286D01*
X385773Y254223D01*
X385697Y254172D01*
X385646Y254134D01*
X385608Y254096D01*
X385583Y254083D01*
X385570Y254070D01*
X385443Y253943D01*
X385342Y253804D01*
X385240Y253677D01*
X385164Y253537D01*
X385037Y253270D01*
X384948Y253016D01*
X384897Y252788D01*
X384884Y252699D01*
X384872Y252610D01*
X384859Y252546D01*
Y252496D01*
Y252470D01*
Y252458D01*
X384872Y252216D01*
X384922Y251975D01*
X384986Y251759D01*
X385075Y251556D01*
X385151Y251391D01*
X385215Y251264D01*
X385240Y251213D01*
X385265Y251175D01*
X385278Y251162D01*
Y251149D01*
X385367Y251022D01*
X385481Y250883D01*
X385621Y250743D01*
X385761Y250591D01*
X386078Y250273D01*
X386396Y249981D01*
X386561Y249841D01*
X386701Y249714D01*
X386840Y249600D01*
X386954Y249498D01*
X387056Y249410D01*
X387132Y249346D01*
X387183Y249308D01*
X387196Y249295D01*
X387336Y249181D01*
X387463Y249067D01*
X387678Y248876D01*
X387856Y248724D01*
X387983Y248584D01*
X388085Y248482D01*
X388148Y248419D01*
X388186Y248368D01*
X388199Y248355D01*
X388275Y248241D01*
X388326Y248127D01*
X388377Y248025D01*
X388402Y247936D01*
X388415Y247860D01*
X388428Y247797D01*
Y247759D01*
Y247746D01*
X388415Y247619D01*
X388377Y247505D01*
X388326Y247403D01*
X388275Y247314D01*
X388224Y247250D01*
X388174Y247200D01*
X388136Y247162D01*
X388123Y247149D01*
X388009Y247060D01*
X387882Y246996D01*
X387755Y246958D01*
X387640Y246933D01*
X387526Y246908D01*
X387450Y246895D01*
X387374D01*
X387221Y246908D01*
X387069Y246946D01*
X386916Y247009D01*
X386777Y247085D01*
X386650Y247174D01*
X386523Y247276D01*
X386307Y247492D01*
X386129Y247708D01*
X386053Y247809D01*
X385989Y247898D01*
X385938Y247974D01*
X385900Y248038D01*
X385888Y248076D01*
X385875Y248089D01*
X384440Y247212D01*
X384542Y247035D01*
X384643Y246857D01*
X384846Y246552D01*
X385050Y246298D01*
X385240Y246095D01*
X385405Y245930D01*
X385545Y245815D01*
X385596Y245777D01*
X385634Y245752D01*
X385646Y245727D01*
X385659D01*
X385938Y245574D01*
X386218Y245460D01*
X386497Y245371D01*
X386764Y245320D01*
X386993Y245282D01*
X387094Y245269D01*
X387170D01*
X387247Y245257D01*
X387336D01*
X387564Y245269D01*
X387780Y245282D01*
X387983Y245320D01*
X388174Y245371D01*
X388352Y245422D01*
X388517Y245485D01*
X388669Y245549D01*
X388809Y245625D01*
X388923Y245688D01*
X389037Y245752D01*
X389126Y245815D01*
X389202Y245866D01*
X389266Y245917D01*
X389304Y245955D01*
X389329Y245968D01*
X389342Y245980D01*
X389482Y246120D01*
X389596Y246273D01*
X389698Y246412D01*
X389787Y246577D01*
X389863Y246730D01*
X389926Y246882D01*
X390015Y247162D01*
X390053Y247301D01*
X390079Y247416D01*
X390091Y247530D01*
X390104Y247631D01*
X390117Y247708D01*
Y247809D01*
X390104Y248025D01*
X390079Y248216D01*
X390041Y248393D01*
X390003Y248546D01*
X389964Y248686D01*
X389926Y248775D01*
X389901Y248838D01*
X389888Y248863D01*
X389799Y249041D01*
X389685Y249219D01*
X389558Y249397D01*
X389444Y249549D01*
X389329Y249676D01*
X389240Y249778D01*
X389177Y249841D01*
X389152Y249867D01*
X389101Y249918D01*
X389037Y249968D01*
X388961Y250044D01*
X388872Y250121D01*
X388682Y250286D01*
X388479Y250464D01*
X388275Y250641D01*
X388186Y250705D01*
X388110Y250781D01*
X388047Y250832D01*
X387996Y250870D01*
X387971Y250895D01*
X387958Y250908D01*
X387767Y251073D01*
X387602Y251213D01*
X387450Y251340D01*
X387323Y251467D01*
X387196Y251569D01*
X387094Y251670D01*
X387005Y251746D01*
X386929Y251822D01*
X386815Y251937D01*
X386751Y252013D01*
X386713Y252051D01*
X386701Y252064D01*
X386650Y252140D01*
X386612Y252216D01*
X386573Y252356D01*
X386561Y252407D01*
X386548Y252458D01*
Y252483D01*
Y252496D01*
X386561Y252584D01*
X386586Y252661D01*
X386650Y252788D01*
X386688Y252838D01*
X386726Y252877D01*
X386739Y252889D01*
X386751Y252902D01*
X386840Y252966D01*
X386929Y253016D01*
X387018Y253042D01*
X387107Y253067D01*
X387196Y253080D01*
X387259Y253092D01*
X387310D01*
X387437Y253080D01*
X387564Y253054D01*
X387691Y253004D01*
X387818Y252953D01*
X388047Y252800D01*
X388250Y252635D01*
X388428Y252458D01*
X388555Y252305D01*
X388605Y252254D01*
X388644Y252204D01*
X388656Y252178D01*
X388669Y252165D01*
X389952Y253283D01*
X389685Y253575D01*
X389444Y253816D01*
X389215Y254007D01*
X389012Y254159D01*
X388847Y254286D01*
X388720Y254363D01*
X388682Y254388D01*
X388644Y254413D01*
X388631Y254426D01*
X388618D01*
X388390Y254528D01*
X388161Y254604D01*
X387945Y254667D01*
X387755Y254705D01*
X387577Y254731D01*
X387450Y254743D01*
D02*
G37*
G36*
X401382D02*
X401280D01*
X401051Y254731D01*
X400836Y254705D01*
X400632Y254667D01*
X400429Y254617D01*
X400251Y254540D01*
X400074Y254477D01*
X399921Y254401D01*
X399781Y254324D01*
X399655Y254235D01*
X399540Y254159D01*
X399439Y254096D01*
X399362Y254032D01*
X399299Y253969D01*
X399248Y253931D01*
X399223Y253905D01*
X399210Y253893D01*
X399007Y253651D01*
X398854Y253385D01*
X398727Y253118D01*
X398638Y252864D01*
X398575Y252635D01*
X398550Y252546D01*
X398524Y252458D01*
X398512Y252394D01*
Y252330D01*
X398499Y252305D01*
Y252292D01*
X400150D01*
X400201Y252419D01*
X400251Y252521D01*
X400315Y252623D01*
X400391Y252712D01*
X400442Y252775D01*
X400493Y252826D01*
X400531Y252851D01*
X400544Y252864D01*
X400658Y252940D01*
X400772Y252991D01*
X400886Y253042D01*
X401001Y253067D01*
X401090Y253080D01*
X401153Y253092D01*
X401217D01*
X401369Y253080D01*
X401496Y253054D01*
X401610Y253016D01*
X401712Y252966D01*
X401788Y252915D01*
X401839Y252877D01*
X401877Y252851D01*
X401890Y252838D01*
X401979Y252750D01*
X402042Y252648D01*
X402093Y252534D01*
X402118Y252445D01*
X402144Y252356D01*
X402156Y252292D01*
Y252242D01*
Y252229D01*
X402144Y252127D01*
X402131Y252026D01*
X402106Y251937D01*
X402067Y251861D01*
X402029Y251797D01*
X402004Y251746D01*
X401991Y251708D01*
X401979Y251695D01*
X401915Y251607D01*
X401839Y251530D01*
X401687Y251403D01*
X401610Y251353D01*
X401559Y251315D01*
X401521Y251302D01*
X401509Y251289D01*
X401382Y251238D01*
X401242Y251200D01*
X401090Y251175D01*
X400937Y251149D01*
X400798Y251137D01*
X400696Y251124D01*
X400620Y251111D01*
X400594D01*
Y249638D01*
X400950Y249613D01*
X401255Y249562D01*
X401521Y249498D01*
X401737Y249410D01*
X401915Y249333D01*
X402029Y249257D01*
X402106Y249206D01*
X402131Y249194D01*
X402233Y249117D01*
X402309Y249028D01*
X402449Y248851D01*
X402550Y248686D01*
X402614Y248521D01*
X402652Y248368D01*
X402664Y248254D01*
X402677Y248178D01*
Y248165D01*
Y248152D01*
X402664Y247949D01*
X402614Y247771D01*
X402550Y247606D01*
X402474Y247479D01*
X402398Y247365D01*
X402334Y247276D01*
X402283Y247225D01*
X402271Y247212D01*
X402118Y247085D01*
X401953Y246996D01*
X401775Y246920D01*
X401623Y246882D01*
X401483Y246857D01*
X401369Y246844D01*
X401293Y246831D01*
X401267D01*
X401064Y246844D01*
X400874Y246882D01*
X400721Y246933D01*
X400582Y246996D01*
X400467Y247060D01*
X400378Y247111D01*
X400328Y247149D01*
X400315Y247162D01*
X400188Y247301D01*
X400074Y247466D01*
X399997Y247644D01*
X399934Y247822D01*
X399883Y247974D01*
X399858Y248101D01*
X399845Y248152D01*
X399832Y248190D01*
Y248203D01*
Y248216D01*
X398130D01*
X398156Y247962D01*
X398194Y247733D01*
X398245Y247505D01*
X398308Y247301D01*
X398372Y247111D01*
X398448Y246920D01*
X398524Y246768D01*
X398613Y246616D01*
X398689Y246488D01*
X398765Y246374D01*
X398842Y246273D01*
X398905Y246196D01*
X398956Y246133D01*
X398994Y246082D01*
X399020Y246057D01*
X399032Y246044D01*
X399197Y245904D01*
X399362Y245790D01*
X399540Y245676D01*
X399718Y245587D01*
X399896Y245511D01*
X400074Y245447D01*
X400416Y245358D01*
X400569Y245320D01*
X400721Y245295D01*
X400848Y245282D01*
X400963Y245269D01*
X401051Y245257D01*
X401179D01*
X401432Y245269D01*
X401674Y245295D01*
X401902Y245333D01*
X402118Y245384D01*
X402322Y245447D01*
X402512Y245523D01*
X402690Y245599D01*
X402842Y245676D01*
X402982Y245752D01*
X403109Y245828D01*
X403210Y245904D01*
X403299Y245968D01*
X403376Y246019D01*
X403426Y246057D01*
X403452Y246082D01*
X403465Y246095D01*
X403630Y246260D01*
X403757Y246425D01*
X403884Y246590D01*
X403985Y246768D01*
X404074Y246946D01*
X404150Y247111D01*
X404201Y247276D01*
X404252Y247441D01*
X404290Y247581D01*
X404315Y247720D01*
X404341Y247847D01*
X404353Y247949D01*
X404366Y248038D01*
Y248152D01*
X404341Y248457D01*
X404290Y248724D01*
X404214Y248965D01*
X404138Y249181D01*
X404049Y249346D01*
X403973Y249486D01*
X403934Y249524D01*
X403922Y249562D01*
X403896Y249575D01*
Y249587D01*
X403706Y249803D01*
X403503Y249981D01*
X403287Y250133D01*
X403083Y250248D01*
X402893Y250337D01*
X402753Y250400D01*
X402690Y250425D01*
X402652Y250438D01*
X402626Y250451D01*
X402614D01*
X402830Y250578D01*
X403020Y250705D01*
X403185Y250845D01*
X403325Y250972D01*
X403426Y251073D01*
X403503Y251175D01*
X403553Y251226D01*
X403566Y251251D01*
X403680Y251441D01*
X403757Y251632D01*
X403820Y251822D01*
X403858Y251988D01*
X403884Y252140D01*
X403896Y252254D01*
Y252330D01*
Y252343D01*
Y252356D01*
X403884Y252534D01*
X403858Y252712D01*
X403820Y252864D01*
X403782Y253029D01*
X403655Y253308D01*
X403515Y253562D01*
X403376Y253753D01*
X403312Y253842D01*
X403249Y253905D01*
X403210Y253956D01*
X403172Y253994D01*
X403147Y254020D01*
X403134Y254032D01*
X402995Y254159D01*
X402842Y254274D01*
X402690Y254363D01*
X402525Y254439D01*
X402220Y254566D01*
X401928Y254655D01*
X401788Y254680D01*
X401674Y254705D01*
X401559Y254718D01*
X401471Y254731D01*
X401382Y254743D01*
D02*
G37*
G36*
X408532D02*
X408392D01*
X408151Y254731D01*
X407910Y254705D01*
X407694Y254667D01*
X407490Y254617D01*
X407300Y254553D01*
X407109Y254477D01*
X406944Y254401D01*
X406805Y254324D01*
X406665Y254248D01*
X406551Y254172D01*
X406449Y254096D01*
X406360Y254032D01*
X406297Y253981D01*
X406246Y253943D01*
X406220Y253918D01*
X406208Y253905D01*
X406055Y253740D01*
X405928Y253562D01*
X405814Y253385D01*
X405712Y253194D01*
X405624Y253004D01*
X405547Y252813D01*
X405433Y252445D01*
X405395Y252267D01*
X405357Y252115D01*
X405331Y251975D01*
X405319Y251848D01*
X405306Y251746D01*
X405293Y251670D01*
Y251619D01*
Y251607D01*
X406970D01*
X406995Y251861D01*
X407033Y252076D01*
X407097Y252267D01*
X407160Y252419D01*
X407236Y252546D01*
X407287Y252635D01*
X407338Y252699D01*
X407351Y252712D01*
X407490Y252851D01*
X407655Y252953D01*
X407808Y253029D01*
X407948Y253080D01*
X408087Y253105D01*
X408189Y253131D01*
X408278D01*
X408468Y253118D01*
X408646Y253080D01*
X408798Y253016D01*
X408926Y252966D01*
X409027Y252902D01*
X409103Y252838D01*
X409154Y252800D01*
X409167Y252788D01*
X409281Y252648D01*
X409370Y252508D01*
X409434Y252369D01*
X409484Y252229D01*
X409510Y252102D01*
X409522Y252013D01*
Y251950D01*
Y251924D01*
X409510Y251734D01*
X409472Y251530D01*
X409408Y251340D01*
X409357Y251175D01*
X409294Y251022D01*
X409230Y250895D01*
X409192Y250819D01*
X409179Y250807D01*
Y250794D01*
X409116Y250667D01*
X409027Y250540D01*
X408837Y250273D01*
X408608Y249994D01*
X408379Y249740D01*
X408176Y249498D01*
X408075Y249397D01*
X407998Y249308D01*
X407935Y249244D01*
X407884Y249194D01*
X407846Y249156D01*
X407833Y249143D01*
X405052Y246298D01*
Y245485D01*
X411313D01*
Y247073D01*
X408075D01*
X409091Y248139D01*
X409306Y248368D01*
X409510Y248597D01*
X409700Y248813D01*
X409865Y249016D01*
X410018Y249206D01*
X410157Y249384D01*
X410284Y249549D01*
X410386Y249702D01*
X410475Y249841D01*
X410564Y249968D01*
X410627Y250070D01*
X410678Y250159D01*
X410716Y250235D01*
X410742Y250286D01*
X410767Y250311D01*
Y250324D01*
X410919Y250667D01*
X411034Y250984D01*
X411123Y251276D01*
X411173Y251543D01*
X411199Y251657D01*
X411212Y251759D01*
X411224Y251848D01*
Y251924D01*
X411237Y251988D01*
Y252026D01*
Y252051D01*
Y252064D01*
X411224Y252318D01*
X411173Y252559D01*
X411123Y252775D01*
X411046Y252978D01*
X410983Y253143D01*
X410919Y253270D01*
X410894Y253321D01*
X410869Y253359D01*
X410856Y253372D01*
Y253385D01*
X410704Y253613D01*
X410538Y253816D01*
X410373Y253994D01*
X410208Y254134D01*
X410056Y254248D01*
X409941Y254324D01*
X409865Y254375D01*
X409853Y254388D01*
X409840D01*
X409599Y254502D01*
X409357Y254591D01*
X409103Y254655D01*
X408887Y254705D01*
X408684Y254731D01*
X408608D01*
X408532Y254743D01*
D02*
G37*
G36*
X393800Y254515D02*
X391742D01*
Y245485D01*
X393444D01*
Y249308D01*
X393685D01*
X393901Y249321D01*
X394105D01*
X394282Y249333D01*
X394448Y249346D01*
X394600Y249359D01*
X394727Y249371D01*
X394854Y249384D01*
X394943Y249397D01*
X395032Y249410D01*
X395108D01*
X395159Y249422D01*
X395210Y249435D01*
X395235Y249448D01*
X395260D01*
X395565Y249549D01*
X395832Y249689D01*
X396060Y249829D01*
X396251Y249968D01*
X396403Y250108D01*
X396518Y250210D01*
X396581Y250286D01*
X396606Y250299D01*
Y250311D01*
X396772Y250565D01*
X396899Y250832D01*
X396987Y251086D01*
X397051Y251340D01*
X397089Y251556D01*
X397102Y251645D01*
Y251734D01*
X397114Y251797D01*
Y251886D01*
X397102Y252191D01*
X397051Y252470D01*
X397000Y252724D01*
X396924Y252940D01*
X396861Y253105D01*
X396797Y253232D01*
X396772Y253283D01*
X396746Y253321D01*
X396734Y253334D01*
Y253347D01*
X396581Y253562D01*
X396416Y253740D01*
X396238Y253893D01*
X396073Y254020D01*
X395921Y254121D01*
X395806Y254185D01*
X395756Y254210D01*
X395718Y254223D01*
X395705Y254235D01*
X395692D01*
X395565Y254286D01*
X395413Y254324D01*
X395260Y254363D01*
X395083Y254401D01*
X394727Y254451D01*
X394384Y254477D01*
X394219Y254489D01*
X394067Y254502D01*
X393927D01*
X393800Y254515D01*
D02*
G37*
G36*
X383614D02*
X378687D01*
Y245485D01*
X383614D01*
Y247174D01*
X380389D01*
Y249549D01*
X383614D01*
Y251213D01*
X380389D01*
Y252838D01*
X383614D01*
Y254515D01*
D02*
G37*
%LPD*%
G36*
X394206Y252826D02*
X394448Y252813D01*
X394638Y252775D01*
X394790Y252750D01*
X394892Y252712D01*
X394968Y252673D01*
X395019Y252661D01*
X395032Y252648D01*
X395171Y252546D01*
X395273Y252432D01*
X395349Y252305D01*
X395400Y252178D01*
X395425Y252064D01*
X395451Y251975D01*
Y251911D01*
Y251886D01*
Y251784D01*
X395425Y251683D01*
X395400Y251594D01*
X395375Y251518D01*
X395349Y251467D01*
X395324Y251416D01*
X395311Y251391D01*
X395298Y251378D01*
X395171Y251238D01*
X395044Y251149D01*
X394981Y251111D01*
X394930Y251086D01*
X394905Y251073D01*
X394892D01*
X394778Y251048D01*
X394651Y251022D01*
X394346Y250997D01*
X394206Y250984D01*
X393444D01*
Y252838D01*
X393927D01*
X394206Y252826D01*
D02*
G37*
D10*
X231250Y227500D02*
G03*
X231250Y227500I-1250J0D01*
G01*
X46250Y110500D02*
G03*
X46250Y110500I-1250J0D01*
G01*
X23250Y163500D02*
G03*
X23250Y163500I-1250J0D01*
G01*
X133250Y22250D02*
G03*
X133250Y22250I-1250J0D01*
G01*
X103750Y65000D02*
G03*
X103750Y65000I-1250J0D01*
G01*
X109500Y100000D02*
G03*
X109500Y100000I-1250J0D01*
G01*
X156250Y137500D02*
G03*
X156250Y137500I-1250J0D01*
G01*
X181250Y140000D02*
G03*
X181250Y140000I-1250J0D01*
G01*
D11*
X15000Y83000D02*
Y87000D01*
X45000Y83000D02*
Y87000D01*
X334000Y255000D02*
X340000D01*
X90000Y152000D02*
Y158000D01*
X167000Y100000D02*
X173000D01*
X53000Y102500D02*
Y107000D01*
X97000Y102500D02*
Y107000D01*
X92500D02*
X97000D01*
Y63000D02*
Y67500D01*
X53000Y63000D02*
Y67500D01*
X92500Y63000D02*
X97000D01*
X53000Y107000D02*
X57500D01*
X53000Y63000D02*
X57500D01*
X124471Y130500D02*
X125529D01*
Y159500D01*
X124471D02*
X125529D01*
X124471Y130500D02*
Y159500D01*
X150000Y58000D02*
Y66750D01*
X120000Y58000D02*
X127250D01*
X142750D02*
X150000D01*
X120000D02*
Y66750D01*
X195000Y177000D02*
Y183000D01*
M02*
